%TF.GenerationSoftware,KiCad,Pcbnew,10.0.1*%
%TF.CreationDate,2026-06-11T10:53:21+03:00*%
%TF.ProjectId,PDU_Container_MCU_PCB,5044555f-436f-46e7-9461-696e65725f4d,rev?*%
%TF.SameCoordinates,Original*%
%TF.FileFunction,Legend,Bot*%
%TF.FilePolarity,Positive*%
%FSLAX46Y46*%
G04 Gerber Fmt 4.6, Leading zero omitted, Abs format (unit mm)*
G04 Created by KiCad (PCBNEW 10.0.1) date 2026-06-11 10:53:21*
%MOMM*%
%LPD*%
G01*
G04 APERTURE LIST*
%ADD10C,0.100000*%
%ADD11C,0.150000*%
%ADD12C,0.120000*%
%ADD13C,0.000000*%
%TA.AperFunction,Profile*%
%ADD14C,0.050000*%
%TD*%
G04 APERTURE END LIST*
D10*
X405250000Y-178750000D02*
X405250000Y-177650000D01*
X405250000Y-177250000D02*
X405250000Y-176150000D01*
X405250000Y-175750000D02*
X405250000Y-174650000D01*
X405250000Y-174250000D02*
X405250000Y-173150000D01*
X405250000Y-172750000D02*
X405250000Y-171650000D01*
X405250000Y-171250000D02*
X405250000Y-170150000D01*
X405250000Y-169750000D02*
X405250000Y-168650000D01*
X405250000Y-168250000D02*
X405250000Y-167150000D01*
X405250000Y-166750000D02*
X405250000Y-165650000D01*
X405250000Y-165250000D02*
X405250000Y-164150000D01*
X405250000Y-163750000D02*
X405250000Y-162650000D01*
X405250000Y-162250000D02*
X405250000Y-162000000D01*
X406250000Y-178750000D02*
X405250000Y-178750000D01*
X423875000Y-178750000D02*
X422775000Y-178750000D01*
X422375000Y-178750000D02*
X421275000Y-178750000D01*
X420875000Y-178750000D02*
X419775000Y-178750000D01*
X419375000Y-178750000D02*
X418275000Y-178750000D01*
X417875000Y-178750000D02*
X416775000Y-178750000D01*
X416375000Y-178750000D02*
X415275000Y-178750000D01*
X414875000Y-178750000D02*
X413775000Y-178750000D01*
X413375000Y-178750000D02*
X412275000Y-178750000D01*
X411875000Y-178750000D02*
X410775000Y-178750000D01*
X410375000Y-178750000D02*
X409275000Y-178750000D01*
X408875000Y-178750000D02*
X407775000Y-178750000D01*
X407375000Y-178750000D02*
X406275000Y-178750000D01*
X423875000Y-249000000D02*
X423875000Y-247900000D01*
X423875000Y-247500000D02*
X423875000Y-246400000D01*
X423875000Y-246000000D02*
X423875000Y-244900000D01*
X423875000Y-244500000D02*
X423875000Y-243400000D01*
X423875000Y-243000000D02*
X423875000Y-241900000D01*
X423875000Y-241500000D02*
X423875000Y-240400000D01*
X423875000Y-240000000D02*
X423875000Y-238900000D01*
X423875000Y-238500000D02*
X423875000Y-237400000D01*
X423875000Y-237000000D02*
X423875000Y-235900000D01*
X423875000Y-235500000D02*
X423875000Y-234400000D01*
X423875000Y-234000000D02*
X423875000Y-232900000D01*
X423875000Y-232500000D02*
X423875000Y-231400000D01*
X423875000Y-231000000D02*
X423875000Y-229900000D01*
X423875000Y-229500000D02*
X423875000Y-228400000D01*
X423875000Y-228000000D02*
X423875000Y-226900000D01*
X423875000Y-226500000D02*
X423875000Y-225400000D01*
X423875000Y-225000000D02*
X423875000Y-223900000D01*
X423875000Y-223500000D02*
X423875000Y-222400000D01*
X423875000Y-222000000D02*
X423875000Y-220900000D01*
X423875000Y-220500000D02*
X423875000Y-219400000D01*
X423875000Y-219000000D02*
X423875000Y-217900000D01*
X423875000Y-217500000D02*
X423875000Y-216400000D01*
X423875000Y-216000000D02*
X423875000Y-214900000D01*
X423875000Y-214500000D02*
X423875000Y-213400000D01*
X423875000Y-213000000D02*
X423875000Y-211900000D01*
X423875000Y-211500000D02*
X423875000Y-210400000D01*
X423875000Y-210000000D02*
X423875000Y-208900000D01*
X423875000Y-208500000D02*
X423875000Y-207400000D01*
X423875000Y-207000000D02*
X423875000Y-205900000D01*
X423875000Y-205500000D02*
X423875000Y-204400000D01*
X423875000Y-204000000D02*
X423875000Y-202900000D01*
X423875000Y-202500000D02*
X423875000Y-201400000D01*
X423875000Y-201000000D02*
X423875000Y-199900000D01*
X423875000Y-199500000D02*
X423875000Y-198400000D01*
X423875000Y-198000000D02*
X423875000Y-196900000D01*
X423875000Y-196500000D02*
X423875000Y-195400000D01*
X423875000Y-195000000D02*
X423875000Y-193900000D01*
X423875000Y-193500000D02*
X423875000Y-192400000D01*
X423875000Y-192000000D02*
X423875000Y-190900000D01*
X423875000Y-190500000D02*
X423875000Y-189400000D01*
X423875000Y-189000000D02*
X423875000Y-187900000D01*
X423875000Y-187500000D02*
X423875000Y-186400000D01*
X423875000Y-186000000D02*
X423875000Y-184900000D01*
X423875000Y-184500000D02*
X423875000Y-183400000D01*
X423875000Y-183000000D02*
X423875000Y-181900000D01*
X423875000Y-181500000D02*
X423875000Y-180400000D01*
X423875000Y-180000000D02*
X423875000Y-178900000D01*
D11*
X332902857Y-208859580D02*
X332950476Y-208907200D01*
X332950476Y-208907200D02*
X333093333Y-208954819D01*
X333093333Y-208954819D02*
X333188571Y-208954819D01*
X333188571Y-208954819D02*
X333331428Y-208907200D01*
X333331428Y-208907200D02*
X333426666Y-208811961D01*
X333426666Y-208811961D02*
X333474285Y-208716723D01*
X333474285Y-208716723D02*
X333521904Y-208526247D01*
X333521904Y-208526247D02*
X333521904Y-208383390D01*
X333521904Y-208383390D02*
X333474285Y-208192914D01*
X333474285Y-208192914D02*
X333426666Y-208097676D01*
X333426666Y-208097676D02*
X333331428Y-208002438D01*
X333331428Y-208002438D02*
X333188571Y-207954819D01*
X333188571Y-207954819D02*
X333093333Y-207954819D01*
X333093333Y-207954819D02*
X332950476Y-208002438D01*
X332950476Y-208002438D02*
X332902857Y-208050057D01*
X331950476Y-208954819D02*
X332521904Y-208954819D01*
X332236190Y-208954819D02*
X332236190Y-207954819D01*
X332236190Y-207954819D02*
X332331428Y-208097676D01*
X332331428Y-208097676D02*
X332426666Y-208192914D01*
X332426666Y-208192914D02*
X332521904Y-208240533D01*
X331474285Y-208954819D02*
X331283809Y-208954819D01*
X331283809Y-208954819D02*
X331188571Y-208907200D01*
X331188571Y-208907200D02*
X331140952Y-208859580D01*
X331140952Y-208859580D02*
X331045714Y-208716723D01*
X331045714Y-208716723D02*
X330998095Y-208526247D01*
X330998095Y-208526247D02*
X330998095Y-208145295D01*
X330998095Y-208145295D02*
X331045714Y-208050057D01*
X331045714Y-208050057D02*
X331093333Y-208002438D01*
X331093333Y-208002438D02*
X331188571Y-207954819D01*
X331188571Y-207954819D02*
X331379047Y-207954819D01*
X331379047Y-207954819D02*
X331474285Y-208002438D01*
X331474285Y-208002438D02*
X331521904Y-208050057D01*
X331521904Y-208050057D02*
X331569523Y-208145295D01*
X331569523Y-208145295D02*
X331569523Y-208383390D01*
X331569523Y-208383390D02*
X331521904Y-208478628D01*
X331521904Y-208478628D02*
X331474285Y-208526247D01*
X331474285Y-208526247D02*
X331379047Y-208573866D01*
X331379047Y-208573866D02*
X331188571Y-208573866D01*
X331188571Y-208573866D02*
X331093333Y-208526247D01*
X331093333Y-208526247D02*
X331045714Y-208478628D01*
X331045714Y-208478628D02*
X330998095Y-208383390D01*
X445642857Y-204204819D02*
X445976190Y-203728628D01*
X446214285Y-204204819D02*
X446214285Y-203204819D01*
X446214285Y-203204819D02*
X445833333Y-203204819D01*
X445833333Y-203204819D02*
X445738095Y-203252438D01*
X445738095Y-203252438D02*
X445690476Y-203300057D01*
X445690476Y-203300057D02*
X445642857Y-203395295D01*
X445642857Y-203395295D02*
X445642857Y-203538152D01*
X445642857Y-203538152D02*
X445690476Y-203633390D01*
X445690476Y-203633390D02*
X445738095Y-203681009D01*
X445738095Y-203681009D02*
X445833333Y-203728628D01*
X445833333Y-203728628D02*
X446214285Y-203728628D01*
X445261904Y-203300057D02*
X445214285Y-203252438D01*
X445214285Y-203252438D02*
X445119047Y-203204819D01*
X445119047Y-203204819D02*
X444880952Y-203204819D01*
X444880952Y-203204819D02*
X444785714Y-203252438D01*
X444785714Y-203252438D02*
X444738095Y-203300057D01*
X444738095Y-203300057D02*
X444690476Y-203395295D01*
X444690476Y-203395295D02*
X444690476Y-203490533D01*
X444690476Y-203490533D02*
X444738095Y-203633390D01*
X444738095Y-203633390D02*
X445309523Y-204204819D01*
X445309523Y-204204819D02*
X444690476Y-204204819D01*
X444119047Y-203633390D02*
X444214285Y-203585771D01*
X444214285Y-203585771D02*
X444261904Y-203538152D01*
X444261904Y-203538152D02*
X444309523Y-203442914D01*
X444309523Y-203442914D02*
X444309523Y-203395295D01*
X444309523Y-203395295D02*
X444261904Y-203300057D01*
X444261904Y-203300057D02*
X444214285Y-203252438D01*
X444214285Y-203252438D02*
X444119047Y-203204819D01*
X444119047Y-203204819D02*
X443928571Y-203204819D01*
X443928571Y-203204819D02*
X443833333Y-203252438D01*
X443833333Y-203252438D02*
X443785714Y-203300057D01*
X443785714Y-203300057D02*
X443738095Y-203395295D01*
X443738095Y-203395295D02*
X443738095Y-203442914D01*
X443738095Y-203442914D02*
X443785714Y-203538152D01*
X443785714Y-203538152D02*
X443833333Y-203585771D01*
X443833333Y-203585771D02*
X443928571Y-203633390D01*
X443928571Y-203633390D02*
X444119047Y-203633390D01*
X444119047Y-203633390D02*
X444214285Y-203681009D01*
X444214285Y-203681009D02*
X444261904Y-203728628D01*
X444261904Y-203728628D02*
X444309523Y-203823866D01*
X444309523Y-203823866D02*
X444309523Y-204014342D01*
X444309523Y-204014342D02*
X444261904Y-204109580D01*
X444261904Y-204109580D02*
X444214285Y-204157200D01*
X444214285Y-204157200D02*
X444119047Y-204204819D01*
X444119047Y-204204819D02*
X443928571Y-204204819D01*
X443928571Y-204204819D02*
X443833333Y-204157200D01*
X443833333Y-204157200D02*
X443785714Y-204109580D01*
X443785714Y-204109580D02*
X443738095Y-204014342D01*
X443738095Y-204014342D02*
X443738095Y-203823866D01*
X443738095Y-203823866D02*
X443785714Y-203728628D01*
X443785714Y-203728628D02*
X443833333Y-203681009D01*
X443833333Y-203681009D02*
X443928571Y-203633390D01*
X253642857Y-231959580D02*
X253690476Y-232007200D01*
X253690476Y-232007200D02*
X253833333Y-232054819D01*
X253833333Y-232054819D02*
X253928571Y-232054819D01*
X253928571Y-232054819D02*
X254071428Y-232007200D01*
X254071428Y-232007200D02*
X254166666Y-231911961D01*
X254166666Y-231911961D02*
X254214285Y-231816723D01*
X254214285Y-231816723D02*
X254261904Y-231626247D01*
X254261904Y-231626247D02*
X254261904Y-231483390D01*
X254261904Y-231483390D02*
X254214285Y-231292914D01*
X254214285Y-231292914D02*
X254166666Y-231197676D01*
X254166666Y-231197676D02*
X254071428Y-231102438D01*
X254071428Y-231102438D02*
X253928571Y-231054819D01*
X253928571Y-231054819D02*
X253833333Y-231054819D01*
X253833333Y-231054819D02*
X253690476Y-231102438D01*
X253690476Y-231102438D02*
X253642857Y-231150057D01*
X252785714Y-231054819D02*
X252976190Y-231054819D01*
X252976190Y-231054819D02*
X253071428Y-231102438D01*
X253071428Y-231102438D02*
X253119047Y-231150057D01*
X253119047Y-231150057D02*
X253214285Y-231292914D01*
X253214285Y-231292914D02*
X253261904Y-231483390D01*
X253261904Y-231483390D02*
X253261904Y-231864342D01*
X253261904Y-231864342D02*
X253214285Y-231959580D01*
X253214285Y-231959580D02*
X253166666Y-232007200D01*
X253166666Y-232007200D02*
X253071428Y-232054819D01*
X253071428Y-232054819D02*
X252880952Y-232054819D01*
X252880952Y-232054819D02*
X252785714Y-232007200D01*
X252785714Y-232007200D02*
X252738095Y-231959580D01*
X252738095Y-231959580D02*
X252690476Y-231864342D01*
X252690476Y-231864342D02*
X252690476Y-231626247D01*
X252690476Y-231626247D02*
X252738095Y-231531009D01*
X252738095Y-231531009D02*
X252785714Y-231483390D01*
X252785714Y-231483390D02*
X252880952Y-231435771D01*
X252880952Y-231435771D02*
X253071428Y-231435771D01*
X253071428Y-231435771D02*
X253166666Y-231483390D01*
X253166666Y-231483390D02*
X253214285Y-231531009D01*
X253214285Y-231531009D02*
X253261904Y-231626247D01*
X251833333Y-231054819D02*
X252023809Y-231054819D01*
X252023809Y-231054819D02*
X252119047Y-231102438D01*
X252119047Y-231102438D02*
X252166666Y-231150057D01*
X252166666Y-231150057D02*
X252261904Y-231292914D01*
X252261904Y-231292914D02*
X252309523Y-231483390D01*
X252309523Y-231483390D02*
X252309523Y-231864342D01*
X252309523Y-231864342D02*
X252261904Y-231959580D01*
X252261904Y-231959580D02*
X252214285Y-232007200D01*
X252214285Y-232007200D02*
X252119047Y-232054819D01*
X252119047Y-232054819D02*
X251928571Y-232054819D01*
X251928571Y-232054819D02*
X251833333Y-232007200D01*
X251833333Y-232007200D02*
X251785714Y-231959580D01*
X251785714Y-231959580D02*
X251738095Y-231864342D01*
X251738095Y-231864342D02*
X251738095Y-231626247D01*
X251738095Y-231626247D02*
X251785714Y-231531009D01*
X251785714Y-231531009D02*
X251833333Y-231483390D01*
X251833333Y-231483390D02*
X251928571Y-231435771D01*
X251928571Y-231435771D02*
X252119047Y-231435771D01*
X252119047Y-231435771D02*
X252214285Y-231483390D01*
X252214285Y-231483390D02*
X252261904Y-231531009D01*
X252261904Y-231531009D02*
X252309523Y-231626247D01*
X272105819Y-228357142D02*
X271629628Y-228023809D01*
X272105819Y-227785714D02*
X271105819Y-227785714D01*
X271105819Y-227785714D02*
X271105819Y-228166666D01*
X271105819Y-228166666D02*
X271153438Y-228261904D01*
X271153438Y-228261904D02*
X271201057Y-228309523D01*
X271201057Y-228309523D02*
X271296295Y-228357142D01*
X271296295Y-228357142D02*
X271439152Y-228357142D01*
X271439152Y-228357142D02*
X271534390Y-228309523D01*
X271534390Y-228309523D02*
X271582009Y-228261904D01*
X271582009Y-228261904D02*
X271629628Y-228166666D01*
X271629628Y-228166666D02*
X271629628Y-227785714D01*
X271105819Y-228690476D02*
X271105819Y-229309523D01*
X271105819Y-229309523D02*
X271486771Y-228976190D01*
X271486771Y-228976190D02*
X271486771Y-229119047D01*
X271486771Y-229119047D02*
X271534390Y-229214285D01*
X271534390Y-229214285D02*
X271582009Y-229261904D01*
X271582009Y-229261904D02*
X271677247Y-229309523D01*
X271677247Y-229309523D02*
X271915342Y-229309523D01*
X271915342Y-229309523D02*
X272010580Y-229261904D01*
X272010580Y-229261904D02*
X272058200Y-229214285D01*
X272058200Y-229214285D02*
X272105819Y-229119047D01*
X272105819Y-229119047D02*
X272105819Y-228833333D01*
X272105819Y-228833333D02*
X272058200Y-228738095D01*
X272058200Y-228738095D02*
X272010580Y-228690476D01*
X272105819Y-229785714D02*
X272105819Y-229976190D01*
X272105819Y-229976190D02*
X272058200Y-230071428D01*
X272058200Y-230071428D02*
X272010580Y-230119047D01*
X272010580Y-230119047D02*
X271867723Y-230214285D01*
X271867723Y-230214285D02*
X271677247Y-230261904D01*
X271677247Y-230261904D02*
X271296295Y-230261904D01*
X271296295Y-230261904D02*
X271201057Y-230214285D01*
X271201057Y-230214285D02*
X271153438Y-230166666D01*
X271153438Y-230166666D02*
X271105819Y-230071428D01*
X271105819Y-230071428D02*
X271105819Y-229880952D01*
X271105819Y-229880952D02*
X271153438Y-229785714D01*
X271153438Y-229785714D02*
X271201057Y-229738095D01*
X271201057Y-229738095D02*
X271296295Y-229690476D01*
X271296295Y-229690476D02*
X271534390Y-229690476D01*
X271534390Y-229690476D02*
X271629628Y-229738095D01*
X271629628Y-229738095D02*
X271677247Y-229785714D01*
X271677247Y-229785714D02*
X271724866Y-229880952D01*
X271724866Y-229880952D02*
X271724866Y-230071428D01*
X271724866Y-230071428D02*
X271677247Y-230166666D01*
X271677247Y-230166666D02*
X271629628Y-230214285D01*
X271629628Y-230214285D02*
X271534390Y-230261904D01*
X314359580Y-203872142D02*
X314407200Y-203824523D01*
X314407200Y-203824523D02*
X314454819Y-203681666D01*
X314454819Y-203681666D02*
X314454819Y-203586428D01*
X314454819Y-203586428D02*
X314407200Y-203443571D01*
X314407200Y-203443571D02*
X314311961Y-203348333D01*
X314311961Y-203348333D02*
X314216723Y-203300714D01*
X314216723Y-203300714D02*
X314026247Y-203253095D01*
X314026247Y-203253095D02*
X313883390Y-203253095D01*
X313883390Y-203253095D02*
X313692914Y-203300714D01*
X313692914Y-203300714D02*
X313597676Y-203348333D01*
X313597676Y-203348333D02*
X313502438Y-203443571D01*
X313502438Y-203443571D02*
X313454819Y-203586428D01*
X313454819Y-203586428D02*
X313454819Y-203681666D01*
X313454819Y-203681666D02*
X313502438Y-203824523D01*
X313502438Y-203824523D02*
X313550057Y-203872142D01*
X313788152Y-204729285D02*
X314454819Y-204729285D01*
X313407200Y-204491190D02*
X314121485Y-204253095D01*
X314121485Y-204253095D02*
X314121485Y-204872142D01*
X313454819Y-205157857D02*
X313454819Y-205824523D01*
X313454819Y-205824523D02*
X314454819Y-205395952D01*
X408304580Y-228232142D02*
X408352200Y-228184523D01*
X408352200Y-228184523D02*
X408399819Y-228041666D01*
X408399819Y-228041666D02*
X408399819Y-227946428D01*
X408399819Y-227946428D02*
X408352200Y-227803571D01*
X408352200Y-227803571D02*
X408256961Y-227708333D01*
X408256961Y-227708333D02*
X408161723Y-227660714D01*
X408161723Y-227660714D02*
X407971247Y-227613095D01*
X407971247Y-227613095D02*
X407828390Y-227613095D01*
X407828390Y-227613095D02*
X407637914Y-227660714D01*
X407637914Y-227660714D02*
X407542676Y-227708333D01*
X407542676Y-227708333D02*
X407447438Y-227803571D01*
X407447438Y-227803571D02*
X407399819Y-227946428D01*
X407399819Y-227946428D02*
X407399819Y-228041666D01*
X407399819Y-228041666D02*
X407447438Y-228184523D01*
X407447438Y-228184523D02*
X407495057Y-228232142D01*
X407399819Y-229136904D02*
X407399819Y-228660714D01*
X407399819Y-228660714D02*
X407876009Y-228613095D01*
X407876009Y-228613095D02*
X407828390Y-228660714D01*
X407828390Y-228660714D02*
X407780771Y-228755952D01*
X407780771Y-228755952D02*
X407780771Y-228994047D01*
X407780771Y-228994047D02*
X407828390Y-229089285D01*
X407828390Y-229089285D02*
X407876009Y-229136904D01*
X407876009Y-229136904D02*
X407971247Y-229184523D01*
X407971247Y-229184523D02*
X408209342Y-229184523D01*
X408209342Y-229184523D02*
X408304580Y-229136904D01*
X408304580Y-229136904D02*
X408352200Y-229089285D01*
X408352200Y-229089285D02*
X408399819Y-228994047D01*
X408399819Y-228994047D02*
X408399819Y-228755952D01*
X408399819Y-228755952D02*
X408352200Y-228660714D01*
X408352200Y-228660714D02*
X408304580Y-228613095D01*
X407399819Y-230041666D02*
X407399819Y-229851190D01*
X407399819Y-229851190D02*
X407447438Y-229755952D01*
X407447438Y-229755952D02*
X407495057Y-229708333D01*
X407495057Y-229708333D02*
X407637914Y-229613095D01*
X407637914Y-229613095D02*
X407828390Y-229565476D01*
X407828390Y-229565476D02*
X408209342Y-229565476D01*
X408209342Y-229565476D02*
X408304580Y-229613095D01*
X408304580Y-229613095D02*
X408352200Y-229660714D01*
X408352200Y-229660714D02*
X408399819Y-229755952D01*
X408399819Y-229755952D02*
X408399819Y-229946428D01*
X408399819Y-229946428D02*
X408352200Y-230041666D01*
X408352200Y-230041666D02*
X408304580Y-230089285D01*
X408304580Y-230089285D02*
X408209342Y-230136904D01*
X408209342Y-230136904D02*
X407971247Y-230136904D01*
X407971247Y-230136904D02*
X407876009Y-230089285D01*
X407876009Y-230089285D02*
X407828390Y-230041666D01*
X407828390Y-230041666D02*
X407780771Y-229946428D01*
X407780771Y-229946428D02*
X407780771Y-229755952D01*
X407780771Y-229755952D02*
X407828390Y-229660714D01*
X407828390Y-229660714D02*
X407876009Y-229613095D01*
X407876009Y-229613095D02*
X407971247Y-229565476D01*
X441988094Y-191329819D02*
X441988094Y-190329819D01*
X441988094Y-190329819D02*
X441749999Y-190329819D01*
X441749999Y-190329819D02*
X441607142Y-190377438D01*
X441607142Y-190377438D02*
X441511904Y-190472676D01*
X441511904Y-190472676D02*
X441464285Y-190567914D01*
X441464285Y-190567914D02*
X441416666Y-190758390D01*
X441416666Y-190758390D02*
X441416666Y-190901247D01*
X441416666Y-190901247D02*
X441464285Y-191091723D01*
X441464285Y-191091723D02*
X441511904Y-191186961D01*
X441511904Y-191186961D02*
X441607142Y-191282200D01*
X441607142Y-191282200D02*
X441749999Y-191329819D01*
X441749999Y-191329819D02*
X441988094Y-191329819D01*
X441083332Y-190329819D02*
X440416666Y-190329819D01*
X440416666Y-190329819D02*
X440845237Y-191329819D01*
X429484580Y-224732142D02*
X429532200Y-224684523D01*
X429532200Y-224684523D02*
X429579819Y-224541666D01*
X429579819Y-224541666D02*
X429579819Y-224446428D01*
X429579819Y-224446428D02*
X429532200Y-224303571D01*
X429532200Y-224303571D02*
X429436961Y-224208333D01*
X429436961Y-224208333D02*
X429341723Y-224160714D01*
X429341723Y-224160714D02*
X429151247Y-224113095D01*
X429151247Y-224113095D02*
X429008390Y-224113095D01*
X429008390Y-224113095D02*
X428817914Y-224160714D01*
X428817914Y-224160714D02*
X428722676Y-224208333D01*
X428722676Y-224208333D02*
X428627438Y-224303571D01*
X428627438Y-224303571D02*
X428579819Y-224446428D01*
X428579819Y-224446428D02*
X428579819Y-224541666D01*
X428579819Y-224541666D02*
X428627438Y-224684523D01*
X428627438Y-224684523D02*
X428675057Y-224732142D01*
X428579819Y-225589285D02*
X428579819Y-225398809D01*
X428579819Y-225398809D02*
X428627438Y-225303571D01*
X428627438Y-225303571D02*
X428675057Y-225255952D01*
X428675057Y-225255952D02*
X428817914Y-225160714D01*
X428817914Y-225160714D02*
X429008390Y-225113095D01*
X429008390Y-225113095D02*
X429389342Y-225113095D01*
X429389342Y-225113095D02*
X429484580Y-225160714D01*
X429484580Y-225160714D02*
X429532200Y-225208333D01*
X429532200Y-225208333D02*
X429579819Y-225303571D01*
X429579819Y-225303571D02*
X429579819Y-225494047D01*
X429579819Y-225494047D02*
X429532200Y-225589285D01*
X429532200Y-225589285D02*
X429484580Y-225636904D01*
X429484580Y-225636904D02*
X429389342Y-225684523D01*
X429389342Y-225684523D02*
X429151247Y-225684523D01*
X429151247Y-225684523D02*
X429056009Y-225636904D01*
X429056009Y-225636904D02*
X429008390Y-225589285D01*
X429008390Y-225589285D02*
X428960771Y-225494047D01*
X428960771Y-225494047D02*
X428960771Y-225303571D01*
X428960771Y-225303571D02*
X429008390Y-225208333D01*
X429008390Y-225208333D02*
X429056009Y-225160714D01*
X429056009Y-225160714D02*
X429151247Y-225113095D01*
X429579819Y-226636904D02*
X429579819Y-226065476D01*
X429579819Y-226351190D02*
X428579819Y-226351190D01*
X428579819Y-226351190D02*
X428722676Y-226255952D01*
X428722676Y-226255952D02*
X428817914Y-226160714D01*
X428817914Y-226160714D02*
X428865533Y-226065476D01*
X355904819Y-230607142D02*
X355428628Y-230273809D01*
X355904819Y-230035714D02*
X354904819Y-230035714D01*
X354904819Y-230035714D02*
X354904819Y-230416666D01*
X354904819Y-230416666D02*
X354952438Y-230511904D01*
X354952438Y-230511904D02*
X355000057Y-230559523D01*
X355000057Y-230559523D02*
X355095295Y-230607142D01*
X355095295Y-230607142D02*
X355238152Y-230607142D01*
X355238152Y-230607142D02*
X355333390Y-230559523D01*
X355333390Y-230559523D02*
X355381009Y-230511904D01*
X355381009Y-230511904D02*
X355428628Y-230416666D01*
X355428628Y-230416666D02*
X355428628Y-230035714D01*
X355904819Y-231083333D02*
X355904819Y-231273809D01*
X355904819Y-231273809D02*
X355857200Y-231369047D01*
X355857200Y-231369047D02*
X355809580Y-231416666D01*
X355809580Y-231416666D02*
X355666723Y-231511904D01*
X355666723Y-231511904D02*
X355476247Y-231559523D01*
X355476247Y-231559523D02*
X355095295Y-231559523D01*
X355095295Y-231559523D02*
X355000057Y-231511904D01*
X355000057Y-231511904D02*
X354952438Y-231464285D01*
X354952438Y-231464285D02*
X354904819Y-231369047D01*
X354904819Y-231369047D02*
X354904819Y-231178571D01*
X354904819Y-231178571D02*
X354952438Y-231083333D01*
X354952438Y-231083333D02*
X355000057Y-231035714D01*
X355000057Y-231035714D02*
X355095295Y-230988095D01*
X355095295Y-230988095D02*
X355333390Y-230988095D01*
X355333390Y-230988095D02*
X355428628Y-231035714D01*
X355428628Y-231035714D02*
X355476247Y-231083333D01*
X355476247Y-231083333D02*
X355523866Y-231178571D01*
X355523866Y-231178571D02*
X355523866Y-231369047D01*
X355523866Y-231369047D02*
X355476247Y-231464285D01*
X355476247Y-231464285D02*
X355428628Y-231511904D01*
X355428628Y-231511904D02*
X355333390Y-231559523D01*
X354904819Y-232178571D02*
X354904819Y-232273809D01*
X354904819Y-232273809D02*
X354952438Y-232369047D01*
X354952438Y-232369047D02*
X355000057Y-232416666D01*
X355000057Y-232416666D02*
X355095295Y-232464285D01*
X355095295Y-232464285D02*
X355285771Y-232511904D01*
X355285771Y-232511904D02*
X355523866Y-232511904D01*
X355523866Y-232511904D02*
X355714342Y-232464285D01*
X355714342Y-232464285D02*
X355809580Y-232416666D01*
X355809580Y-232416666D02*
X355857200Y-232369047D01*
X355857200Y-232369047D02*
X355904819Y-232273809D01*
X355904819Y-232273809D02*
X355904819Y-232178571D01*
X355904819Y-232178571D02*
X355857200Y-232083333D01*
X355857200Y-232083333D02*
X355809580Y-232035714D01*
X355809580Y-232035714D02*
X355714342Y-231988095D01*
X355714342Y-231988095D02*
X355523866Y-231940476D01*
X355523866Y-231940476D02*
X355285771Y-231940476D01*
X355285771Y-231940476D02*
X355095295Y-231988095D01*
X355095295Y-231988095D02*
X355000057Y-232035714D01*
X355000057Y-232035714D02*
X354952438Y-232083333D01*
X354952438Y-232083333D02*
X354904819Y-232178571D01*
X411892857Y-170859580D02*
X411940476Y-170907200D01*
X411940476Y-170907200D02*
X412083333Y-170954819D01*
X412083333Y-170954819D02*
X412178571Y-170954819D01*
X412178571Y-170954819D02*
X412321428Y-170907200D01*
X412321428Y-170907200D02*
X412416666Y-170811961D01*
X412416666Y-170811961D02*
X412464285Y-170716723D01*
X412464285Y-170716723D02*
X412511904Y-170526247D01*
X412511904Y-170526247D02*
X412511904Y-170383390D01*
X412511904Y-170383390D02*
X412464285Y-170192914D01*
X412464285Y-170192914D02*
X412416666Y-170097676D01*
X412416666Y-170097676D02*
X412321428Y-170002438D01*
X412321428Y-170002438D02*
X412178571Y-169954819D01*
X412178571Y-169954819D02*
X412083333Y-169954819D01*
X412083333Y-169954819D02*
X411940476Y-170002438D01*
X411940476Y-170002438D02*
X411892857Y-170050057D01*
X411559523Y-169954819D02*
X410940476Y-169954819D01*
X410940476Y-169954819D02*
X411273809Y-170335771D01*
X411273809Y-170335771D02*
X411130952Y-170335771D01*
X411130952Y-170335771D02*
X411035714Y-170383390D01*
X411035714Y-170383390D02*
X410988095Y-170431009D01*
X410988095Y-170431009D02*
X410940476Y-170526247D01*
X410940476Y-170526247D02*
X410940476Y-170764342D01*
X410940476Y-170764342D02*
X410988095Y-170859580D01*
X410988095Y-170859580D02*
X411035714Y-170907200D01*
X411035714Y-170907200D02*
X411130952Y-170954819D01*
X411130952Y-170954819D02*
X411416666Y-170954819D01*
X411416666Y-170954819D02*
X411511904Y-170907200D01*
X411511904Y-170907200D02*
X411559523Y-170859580D01*
X410035714Y-169954819D02*
X410511904Y-169954819D01*
X410511904Y-169954819D02*
X410559523Y-170431009D01*
X410559523Y-170431009D02*
X410511904Y-170383390D01*
X410511904Y-170383390D02*
X410416666Y-170335771D01*
X410416666Y-170335771D02*
X410178571Y-170335771D01*
X410178571Y-170335771D02*
X410083333Y-170383390D01*
X410083333Y-170383390D02*
X410035714Y-170431009D01*
X410035714Y-170431009D02*
X409988095Y-170526247D01*
X409988095Y-170526247D02*
X409988095Y-170764342D01*
X409988095Y-170764342D02*
X410035714Y-170859580D01*
X410035714Y-170859580D02*
X410083333Y-170907200D01*
X410083333Y-170907200D02*
X410178571Y-170954819D01*
X410178571Y-170954819D02*
X410416666Y-170954819D01*
X410416666Y-170954819D02*
X410511904Y-170907200D01*
X410511904Y-170907200D02*
X410559523Y-170859580D01*
X391767857Y-168234560D02*
X391815476Y-168282180D01*
X391815476Y-168282180D02*
X391958333Y-168329799D01*
X391958333Y-168329799D02*
X392053571Y-168329799D01*
X392053571Y-168329799D02*
X392196428Y-168282180D01*
X392196428Y-168282180D02*
X392291666Y-168186941D01*
X392291666Y-168186941D02*
X392339285Y-168091703D01*
X392339285Y-168091703D02*
X392386904Y-167901227D01*
X392386904Y-167901227D02*
X392386904Y-167758370D01*
X392386904Y-167758370D02*
X392339285Y-167567894D01*
X392339285Y-167567894D02*
X392291666Y-167472656D01*
X392291666Y-167472656D02*
X392196428Y-167377418D01*
X392196428Y-167377418D02*
X392053571Y-167329799D01*
X392053571Y-167329799D02*
X391958333Y-167329799D01*
X391958333Y-167329799D02*
X391815476Y-167377418D01*
X391815476Y-167377418D02*
X391767857Y-167425037D01*
X391434523Y-167329799D02*
X390815476Y-167329799D01*
X390815476Y-167329799D02*
X391148809Y-167710751D01*
X391148809Y-167710751D02*
X391005952Y-167710751D01*
X391005952Y-167710751D02*
X390910714Y-167758370D01*
X390910714Y-167758370D02*
X390863095Y-167805989D01*
X390863095Y-167805989D02*
X390815476Y-167901227D01*
X390815476Y-167901227D02*
X390815476Y-168139322D01*
X390815476Y-168139322D02*
X390863095Y-168234560D01*
X390863095Y-168234560D02*
X390910714Y-168282180D01*
X390910714Y-168282180D02*
X391005952Y-168329799D01*
X391005952Y-168329799D02*
X391291666Y-168329799D01*
X391291666Y-168329799D02*
X391386904Y-168282180D01*
X391386904Y-168282180D02*
X391434523Y-168234560D01*
X390339285Y-168329799D02*
X390148809Y-168329799D01*
X390148809Y-168329799D02*
X390053571Y-168282180D01*
X390053571Y-168282180D02*
X390005952Y-168234560D01*
X390005952Y-168234560D02*
X389910714Y-168091703D01*
X389910714Y-168091703D02*
X389863095Y-167901227D01*
X389863095Y-167901227D02*
X389863095Y-167520275D01*
X389863095Y-167520275D02*
X389910714Y-167425037D01*
X389910714Y-167425037D02*
X389958333Y-167377418D01*
X389958333Y-167377418D02*
X390053571Y-167329799D01*
X390053571Y-167329799D02*
X390244047Y-167329799D01*
X390244047Y-167329799D02*
X390339285Y-167377418D01*
X390339285Y-167377418D02*
X390386904Y-167425037D01*
X390386904Y-167425037D02*
X390434523Y-167520275D01*
X390434523Y-167520275D02*
X390434523Y-167758370D01*
X390434523Y-167758370D02*
X390386904Y-167853608D01*
X390386904Y-167853608D02*
X390339285Y-167901227D01*
X390339285Y-167901227D02*
X390244047Y-167948846D01*
X390244047Y-167948846D02*
X390053571Y-167948846D01*
X390053571Y-167948846D02*
X389958333Y-167901227D01*
X389958333Y-167901227D02*
X389910714Y-167853608D01*
X389910714Y-167853608D02*
X389863095Y-167758370D01*
X337704819Y-220107142D02*
X337228628Y-219773809D01*
X337704819Y-219535714D02*
X336704819Y-219535714D01*
X336704819Y-219535714D02*
X336704819Y-219916666D01*
X336704819Y-219916666D02*
X336752438Y-220011904D01*
X336752438Y-220011904D02*
X336800057Y-220059523D01*
X336800057Y-220059523D02*
X336895295Y-220107142D01*
X336895295Y-220107142D02*
X337038152Y-220107142D01*
X337038152Y-220107142D02*
X337133390Y-220059523D01*
X337133390Y-220059523D02*
X337181009Y-220011904D01*
X337181009Y-220011904D02*
X337228628Y-219916666D01*
X337228628Y-219916666D02*
X337228628Y-219535714D01*
X337704819Y-221059523D02*
X337704819Y-220488095D01*
X337704819Y-220773809D02*
X336704819Y-220773809D01*
X336704819Y-220773809D02*
X336847676Y-220678571D01*
X336847676Y-220678571D02*
X336942914Y-220583333D01*
X336942914Y-220583333D02*
X336990533Y-220488095D01*
X337038152Y-221916666D02*
X337704819Y-221916666D01*
X336657200Y-221678571D02*
X337371485Y-221440476D01*
X337371485Y-221440476D02*
X337371485Y-222059523D01*
X439392857Y-209204819D02*
X439726190Y-208728628D01*
X439964285Y-209204819D02*
X439964285Y-208204819D01*
X439964285Y-208204819D02*
X439583333Y-208204819D01*
X439583333Y-208204819D02*
X439488095Y-208252438D01*
X439488095Y-208252438D02*
X439440476Y-208300057D01*
X439440476Y-208300057D02*
X439392857Y-208395295D01*
X439392857Y-208395295D02*
X439392857Y-208538152D01*
X439392857Y-208538152D02*
X439440476Y-208633390D01*
X439440476Y-208633390D02*
X439488095Y-208681009D01*
X439488095Y-208681009D02*
X439583333Y-208728628D01*
X439583333Y-208728628D02*
X439964285Y-208728628D01*
X439059523Y-208204819D02*
X438440476Y-208204819D01*
X438440476Y-208204819D02*
X438773809Y-208585771D01*
X438773809Y-208585771D02*
X438630952Y-208585771D01*
X438630952Y-208585771D02*
X438535714Y-208633390D01*
X438535714Y-208633390D02*
X438488095Y-208681009D01*
X438488095Y-208681009D02*
X438440476Y-208776247D01*
X438440476Y-208776247D02*
X438440476Y-209014342D01*
X438440476Y-209014342D02*
X438488095Y-209109580D01*
X438488095Y-209109580D02*
X438535714Y-209157200D01*
X438535714Y-209157200D02*
X438630952Y-209204819D01*
X438630952Y-209204819D02*
X438916666Y-209204819D01*
X438916666Y-209204819D02*
X439011904Y-209157200D01*
X439011904Y-209157200D02*
X439059523Y-209109580D01*
X437488095Y-209204819D02*
X438059523Y-209204819D01*
X437773809Y-209204819D02*
X437773809Y-208204819D01*
X437773809Y-208204819D02*
X437869047Y-208347676D01*
X437869047Y-208347676D02*
X437964285Y-208442914D01*
X437964285Y-208442914D02*
X438059523Y-208490533D01*
X442464285Y-211329819D02*
X442464285Y-210329819D01*
X442464285Y-210329819D02*
X442226190Y-210329819D01*
X442226190Y-210329819D02*
X442083333Y-210377438D01*
X442083333Y-210377438D02*
X441988095Y-210472676D01*
X441988095Y-210472676D02*
X441940476Y-210567914D01*
X441940476Y-210567914D02*
X441892857Y-210758390D01*
X441892857Y-210758390D02*
X441892857Y-210901247D01*
X441892857Y-210901247D02*
X441940476Y-211091723D01*
X441940476Y-211091723D02*
X441988095Y-211186961D01*
X441988095Y-211186961D02*
X442083333Y-211282200D01*
X442083333Y-211282200D02*
X442226190Y-211329819D01*
X442226190Y-211329819D02*
X442464285Y-211329819D01*
X440940476Y-211329819D02*
X441511904Y-211329819D01*
X441226190Y-211329819D02*
X441226190Y-210329819D01*
X441226190Y-210329819D02*
X441321428Y-210472676D01*
X441321428Y-210472676D02*
X441416666Y-210567914D01*
X441416666Y-210567914D02*
X441511904Y-210615533D01*
X440083333Y-210329819D02*
X440273809Y-210329819D01*
X440273809Y-210329819D02*
X440369047Y-210377438D01*
X440369047Y-210377438D02*
X440416666Y-210425057D01*
X440416666Y-210425057D02*
X440511904Y-210567914D01*
X440511904Y-210567914D02*
X440559523Y-210758390D01*
X440559523Y-210758390D02*
X440559523Y-211139342D01*
X440559523Y-211139342D02*
X440511904Y-211234580D01*
X440511904Y-211234580D02*
X440464285Y-211282200D01*
X440464285Y-211282200D02*
X440369047Y-211329819D01*
X440369047Y-211329819D02*
X440178571Y-211329819D01*
X440178571Y-211329819D02*
X440083333Y-211282200D01*
X440083333Y-211282200D02*
X440035714Y-211234580D01*
X440035714Y-211234580D02*
X439988095Y-211139342D01*
X439988095Y-211139342D02*
X439988095Y-210901247D01*
X439988095Y-210901247D02*
X440035714Y-210806009D01*
X440035714Y-210806009D02*
X440083333Y-210758390D01*
X440083333Y-210758390D02*
X440178571Y-210710771D01*
X440178571Y-210710771D02*
X440369047Y-210710771D01*
X440369047Y-210710771D02*
X440464285Y-210758390D01*
X440464285Y-210758390D02*
X440511904Y-210806009D01*
X440511904Y-210806009D02*
X440559523Y-210901247D01*
X263104819Y-228357142D02*
X262628628Y-228023809D01*
X263104819Y-227785714D02*
X262104819Y-227785714D01*
X262104819Y-227785714D02*
X262104819Y-228166666D01*
X262104819Y-228166666D02*
X262152438Y-228261904D01*
X262152438Y-228261904D02*
X262200057Y-228309523D01*
X262200057Y-228309523D02*
X262295295Y-228357142D01*
X262295295Y-228357142D02*
X262438152Y-228357142D01*
X262438152Y-228357142D02*
X262533390Y-228309523D01*
X262533390Y-228309523D02*
X262581009Y-228261904D01*
X262581009Y-228261904D02*
X262628628Y-228166666D01*
X262628628Y-228166666D02*
X262628628Y-227785714D01*
X262104819Y-229261904D02*
X262104819Y-228785714D01*
X262104819Y-228785714D02*
X262581009Y-228738095D01*
X262581009Y-228738095D02*
X262533390Y-228785714D01*
X262533390Y-228785714D02*
X262485771Y-228880952D01*
X262485771Y-228880952D02*
X262485771Y-229119047D01*
X262485771Y-229119047D02*
X262533390Y-229214285D01*
X262533390Y-229214285D02*
X262581009Y-229261904D01*
X262581009Y-229261904D02*
X262676247Y-229309523D01*
X262676247Y-229309523D02*
X262914342Y-229309523D01*
X262914342Y-229309523D02*
X263009580Y-229261904D01*
X263009580Y-229261904D02*
X263057200Y-229214285D01*
X263057200Y-229214285D02*
X263104819Y-229119047D01*
X263104819Y-229119047D02*
X263104819Y-228880952D01*
X263104819Y-228880952D02*
X263057200Y-228785714D01*
X263057200Y-228785714D02*
X263009580Y-228738095D01*
X262104819Y-229642857D02*
X262104819Y-230309523D01*
X262104819Y-230309523D02*
X263104819Y-229880952D01*
X349392857Y-204109580D02*
X349440476Y-204157200D01*
X349440476Y-204157200D02*
X349583333Y-204204819D01*
X349583333Y-204204819D02*
X349678571Y-204204819D01*
X349678571Y-204204819D02*
X349821428Y-204157200D01*
X349821428Y-204157200D02*
X349916666Y-204061961D01*
X349916666Y-204061961D02*
X349964285Y-203966723D01*
X349964285Y-203966723D02*
X350011904Y-203776247D01*
X350011904Y-203776247D02*
X350011904Y-203633390D01*
X350011904Y-203633390D02*
X349964285Y-203442914D01*
X349964285Y-203442914D02*
X349916666Y-203347676D01*
X349916666Y-203347676D02*
X349821428Y-203252438D01*
X349821428Y-203252438D02*
X349678571Y-203204819D01*
X349678571Y-203204819D02*
X349583333Y-203204819D01*
X349583333Y-203204819D02*
X349440476Y-203252438D01*
X349440476Y-203252438D02*
X349392857Y-203300057D01*
X349011904Y-203300057D02*
X348964285Y-203252438D01*
X348964285Y-203252438D02*
X348869047Y-203204819D01*
X348869047Y-203204819D02*
X348630952Y-203204819D01*
X348630952Y-203204819D02*
X348535714Y-203252438D01*
X348535714Y-203252438D02*
X348488095Y-203300057D01*
X348488095Y-203300057D02*
X348440476Y-203395295D01*
X348440476Y-203395295D02*
X348440476Y-203490533D01*
X348440476Y-203490533D02*
X348488095Y-203633390D01*
X348488095Y-203633390D02*
X349059523Y-204204819D01*
X349059523Y-204204819D02*
X348440476Y-204204819D01*
X347488095Y-204204819D02*
X348059523Y-204204819D01*
X347773809Y-204204819D02*
X347773809Y-203204819D01*
X347773809Y-203204819D02*
X347869047Y-203347676D01*
X347869047Y-203347676D02*
X347964285Y-203442914D01*
X347964285Y-203442914D02*
X348059523Y-203490533D01*
X445642857Y-224204819D02*
X445976190Y-223728628D01*
X446214285Y-224204819D02*
X446214285Y-223204819D01*
X446214285Y-223204819D02*
X445833333Y-223204819D01*
X445833333Y-223204819D02*
X445738095Y-223252438D01*
X445738095Y-223252438D02*
X445690476Y-223300057D01*
X445690476Y-223300057D02*
X445642857Y-223395295D01*
X445642857Y-223395295D02*
X445642857Y-223538152D01*
X445642857Y-223538152D02*
X445690476Y-223633390D01*
X445690476Y-223633390D02*
X445738095Y-223681009D01*
X445738095Y-223681009D02*
X445833333Y-223728628D01*
X445833333Y-223728628D02*
X446214285Y-223728628D01*
X444785714Y-223538152D02*
X444785714Y-224204819D01*
X445023809Y-223157200D02*
X445261904Y-223871485D01*
X445261904Y-223871485D02*
X444642857Y-223871485D01*
X444119047Y-223633390D02*
X444214285Y-223585771D01*
X444214285Y-223585771D02*
X444261904Y-223538152D01*
X444261904Y-223538152D02*
X444309523Y-223442914D01*
X444309523Y-223442914D02*
X444309523Y-223395295D01*
X444309523Y-223395295D02*
X444261904Y-223300057D01*
X444261904Y-223300057D02*
X444214285Y-223252438D01*
X444214285Y-223252438D02*
X444119047Y-223204819D01*
X444119047Y-223204819D02*
X443928571Y-223204819D01*
X443928571Y-223204819D02*
X443833333Y-223252438D01*
X443833333Y-223252438D02*
X443785714Y-223300057D01*
X443785714Y-223300057D02*
X443738095Y-223395295D01*
X443738095Y-223395295D02*
X443738095Y-223442914D01*
X443738095Y-223442914D02*
X443785714Y-223538152D01*
X443785714Y-223538152D02*
X443833333Y-223585771D01*
X443833333Y-223585771D02*
X443928571Y-223633390D01*
X443928571Y-223633390D02*
X444119047Y-223633390D01*
X444119047Y-223633390D02*
X444214285Y-223681009D01*
X444214285Y-223681009D02*
X444261904Y-223728628D01*
X444261904Y-223728628D02*
X444309523Y-223823866D01*
X444309523Y-223823866D02*
X444309523Y-224014342D01*
X444309523Y-224014342D02*
X444261904Y-224109580D01*
X444261904Y-224109580D02*
X444214285Y-224157200D01*
X444214285Y-224157200D02*
X444119047Y-224204819D01*
X444119047Y-224204819D02*
X443928571Y-224204819D01*
X443928571Y-224204819D02*
X443833333Y-224157200D01*
X443833333Y-224157200D02*
X443785714Y-224109580D01*
X443785714Y-224109580D02*
X443738095Y-224014342D01*
X443738095Y-224014342D02*
X443738095Y-223823866D01*
X443738095Y-223823866D02*
X443785714Y-223728628D01*
X443785714Y-223728628D02*
X443833333Y-223681009D01*
X443833333Y-223681009D02*
X443928571Y-223633390D01*
X332892857Y-206609580D02*
X332940476Y-206657200D01*
X332940476Y-206657200D02*
X333083333Y-206704819D01*
X333083333Y-206704819D02*
X333178571Y-206704819D01*
X333178571Y-206704819D02*
X333321428Y-206657200D01*
X333321428Y-206657200D02*
X333416666Y-206561961D01*
X333416666Y-206561961D02*
X333464285Y-206466723D01*
X333464285Y-206466723D02*
X333511904Y-206276247D01*
X333511904Y-206276247D02*
X333511904Y-206133390D01*
X333511904Y-206133390D02*
X333464285Y-205942914D01*
X333464285Y-205942914D02*
X333416666Y-205847676D01*
X333416666Y-205847676D02*
X333321428Y-205752438D01*
X333321428Y-205752438D02*
X333178571Y-205704819D01*
X333178571Y-205704819D02*
X333083333Y-205704819D01*
X333083333Y-205704819D02*
X332940476Y-205752438D01*
X332940476Y-205752438D02*
X332892857Y-205800057D01*
X331940476Y-206704819D02*
X332511904Y-206704819D01*
X332226190Y-206704819D02*
X332226190Y-205704819D01*
X332226190Y-205704819D02*
X332321428Y-205847676D01*
X332321428Y-205847676D02*
X332416666Y-205942914D01*
X332416666Y-205942914D02*
X332511904Y-205990533D01*
X331607142Y-205704819D02*
X330988095Y-205704819D01*
X330988095Y-205704819D02*
X331321428Y-206085771D01*
X331321428Y-206085771D02*
X331178571Y-206085771D01*
X331178571Y-206085771D02*
X331083333Y-206133390D01*
X331083333Y-206133390D02*
X331035714Y-206181009D01*
X331035714Y-206181009D02*
X330988095Y-206276247D01*
X330988095Y-206276247D02*
X330988095Y-206514342D01*
X330988095Y-206514342D02*
X331035714Y-206609580D01*
X331035714Y-206609580D02*
X331083333Y-206657200D01*
X331083333Y-206657200D02*
X331178571Y-206704819D01*
X331178571Y-206704819D02*
X331464285Y-206704819D01*
X331464285Y-206704819D02*
X331559523Y-206657200D01*
X331559523Y-206657200D02*
X331607142Y-206609580D01*
X391767857Y-172484560D02*
X391815476Y-172532180D01*
X391815476Y-172532180D02*
X391958333Y-172579799D01*
X391958333Y-172579799D02*
X392053571Y-172579799D01*
X392053571Y-172579799D02*
X392196428Y-172532180D01*
X392196428Y-172532180D02*
X392291666Y-172436941D01*
X392291666Y-172436941D02*
X392339285Y-172341703D01*
X392339285Y-172341703D02*
X392386904Y-172151227D01*
X392386904Y-172151227D02*
X392386904Y-172008370D01*
X392386904Y-172008370D02*
X392339285Y-171817894D01*
X392339285Y-171817894D02*
X392291666Y-171722656D01*
X392291666Y-171722656D02*
X392196428Y-171627418D01*
X392196428Y-171627418D02*
X392053571Y-171579799D01*
X392053571Y-171579799D02*
X391958333Y-171579799D01*
X391958333Y-171579799D02*
X391815476Y-171627418D01*
X391815476Y-171627418D02*
X391767857Y-171675037D01*
X391434523Y-171579799D02*
X390815476Y-171579799D01*
X390815476Y-171579799D02*
X391148809Y-171960751D01*
X391148809Y-171960751D02*
X391005952Y-171960751D01*
X391005952Y-171960751D02*
X390910714Y-172008370D01*
X390910714Y-172008370D02*
X390863095Y-172055989D01*
X390863095Y-172055989D02*
X390815476Y-172151227D01*
X390815476Y-172151227D02*
X390815476Y-172389322D01*
X390815476Y-172389322D02*
X390863095Y-172484560D01*
X390863095Y-172484560D02*
X390910714Y-172532180D01*
X390910714Y-172532180D02*
X391005952Y-172579799D01*
X391005952Y-172579799D02*
X391291666Y-172579799D01*
X391291666Y-172579799D02*
X391386904Y-172532180D01*
X391386904Y-172532180D02*
X391434523Y-172484560D01*
X390244047Y-172008370D02*
X390339285Y-171960751D01*
X390339285Y-171960751D02*
X390386904Y-171913132D01*
X390386904Y-171913132D02*
X390434523Y-171817894D01*
X390434523Y-171817894D02*
X390434523Y-171770275D01*
X390434523Y-171770275D02*
X390386904Y-171675037D01*
X390386904Y-171675037D02*
X390339285Y-171627418D01*
X390339285Y-171627418D02*
X390244047Y-171579799D01*
X390244047Y-171579799D02*
X390053571Y-171579799D01*
X390053571Y-171579799D02*
X389958333Y-171627418D01*
X389958333Y-171627418D02*
X389910714Y-171675037D01*
X389910714Y-171675037D02*
X389863095Y-171770275D01*
X389863095Y-171770275D02*
X389863095Y-171817894D01*
X389863095Y-171817894D02*
X389910714Y-171913132D01*
X389910714Y-171913132D02*
X389958333Y-171960751D01*
X389958333Y-171960751D02*
X390053571Y-172008370D01*
X390053571Y-172008370D02*
X390244047Y-172008370D01*
X390244047Y-172008370D02*
X390339285Y-172055989D01*
X390339285Y-172055989D02*
X390386904Y-172103608D01*
X390386904Y-172103608D02*
X390434523Y-172198846D01*
X390434523Y-172198846D02*
X390434523Y-172389322D01*
X390434523Y-172389322D02*
X390386904Y-172484560D01*
X390386904Y-172484560D02*
X390339285Y-172532180D01*
X390339285Y-172532180D02*
X390244047Y-172579799D01*
X390244047Y-172579799D02*
X390053571Y-172579799D01*
X390053571Y-172579799D02*
X389958333Y-172532180D01*
X389958333Y-172532180D02*
X389910714Y-172484560D01*
X389910714Y-172484560D02*
X389863095Y-172389322D01*
X389863095Y-172389322D02*
X389863095Y-172198846D01*
X389863095Y-172198846D02*
X389910714Y-172103608D01*
X389910714Y-172103608D02*
X389958333Y-172055989D01*
X389958333Y-172055989D02*
X390053571Y-172008370D01*
X418984580Y-224732142D02*
X419032200Y-224684523D01*
X419032200Y-224684523D02*
X419079819Y-224541666D01*
X419079819Y-224541666D02*
X419079819Y-224446428D01*
X419079819Y-224446428D02*
X419032200Y-224303571D01*
X419032200Y-224303571D02*
X418936961Y-224208333D01*
X418936961Y-224208333D02*
X418841723Y-224160714D01*
X418841723Y-224160714D02*
X418651247Y-224113095D01*
X418651247Y-224113095D02*
X418508390Y-224113095D01*
X418508390Y-224113095D02*
X418317914Y-224160714D01*
X418317914Y-224160714D02*
X418222676Y-224208333D01*
X418222676Y-224208333D02*
X418127438Y-224303571D01*
X418127438Y-224303571D02*
X418079819Y-224446428D01*
X418079819Y-224446428D02*
X418079819Y-224541666D01*
X418079819Y-224541666D02*
X418127438Y-224684523D01*
X418127438Y-224684523D02*
X418175057Y-224732142D01*
X418079819Y-225589285D02*
X418079819Y-225398809D01*
X418079819Y-225398809D02*
X418127438Y-225303571D01*
X418127438Y-225303571D02*
X418175057Y-225255952D01*
X418175057Y-225255952D02*
X418317914Y-225160714D01*
X418317914Y-225160714D02*
X418508390Y-225113095D01*
X418508390Y-225113095D02*
X418889342Y-225113095D01*
X418889342Y-225113095D02*
X418984580Y-225160714D01*
X418984580Y-225160714D02*
X419032200Y-225208333D01*
X419032200Y-225208333D02*
X419079819Y-225303571D01*
X419079819Y-225303571D02*
X419079819Y-225494047D01*
X419079819Y-225494047D02*
X419032200Y-225589285D01*
X419032200Y-225589285D02*
X418984580Y-225636904D01*
X418984580Y-225636904D02*
X418889342Y-225684523D01*
X418889342Y-225684523D02*
X418651247Y-225684523D01*
X418651247Y-225684523D02*
X418556009Y-225636904D01*
X418556009Y-225636904D02*
X418508390Y-225589285D01*
X418508390Y-225589285D02*
X418460771Y-225494047D01*
X418460771Y-225494047D02*
X418460771Y-225303571D01*
X418460771Y-225303571D02*
X418508390Y-225208333D01*
X418508390Y-225208333D02*
X418556009Y-225160714D01*
X418556009Y-225160714D02*
X418651247Y-225113095D01*
X418413152Y-226541666D02*
X419079819Y-226541666D01*
X418032200Y-226303571D02*
X418746485Y-226065476D01*
X418746485Y-226065476D02*
X418746485Y-226684523D01*
X347359580Y-231607142D02*
X347407200Y-231559523D01*
X347407200Y-231559523D02*
X347454819Y-231416666D01*
X347454819Y-231416666D02*
X347454819Y-231321428D01*
X347454819Y-231321428D02*
X347407200Y-231178571D01*
X347407200Y-231178571D02*
X347311961Y-231083333D01*
X347311961Y-231083333D02*
X347216723Y-231035714D01*
X347216723Y-231035714D02*
X347026247Y-230988095D01*
X347026247Y-230988095D02*
X346883390Y-230988095D01*
X346883390Y-230988095D02*
X346692914Y-231035714D01*
X346692914Y-231035714D02*
X346597676Y-231083333D01*
X346597676Y-231083333D02*
X346502438Y-231178571D01*
X346502438Y-231178571D02*
X346454819Y-231321428D01*
X346454819Y-231321428D02*
X346454819Y-231416666D01*
X346454819Y-231416666D02*
X346502438Y-231559523D01*
X346502438Y-231559523D02*
X346550057Y-231607142D01*
X346550057Y-231988095D02*
X346502438Y-232035714D01*
X346502438Y-232035714D02*
X346454819Y-232130952D01*
X346454819Y-232130952D02*
X346454819Y-232369047D01*
X346454819Y-232369047D02*
X346502438Y-232464285D01*
X346502438Y-232464285D02*
X346550057Y-232511904D01*
X346550057Y-232511904D02*
X346645295Y-232559523D01*
X346645295Y-232559523D02*
X346740533Y-232559523D01*
X346740533Y-232559523D02*
X346883390Y-232511904D01*
X346883390Y-232511904D02*
X347454819Y-231940476D01*
X347454819Y-231940476D02*
X347454819Y-232559523D01*
X346454819Y-233178571D02*
X346454819Y-233273809D01*
X346454819Y-233273809D02*
X346502438Y-233369047D01*
X346502438Y-233369047D02*
X346550057Y-233416666D01*
X346550057Y-233416666D02*
X346645295Y-233464285D01*
X346645295Y-233464285D02*
X346835771Y-233511904D01*
X346835771Y-233511904D02*
X347073866Y-233511904D01*
X347073866Y-233511904D02*
X347264342Y-233464285D01*
X347264342Y-233464285D02*
X347359580Y-233416666D01*
X347359580Y-233416666D02*
X347407200Y-233369047D01*
X347407200Y-233369047D02*
X347454819Y-233273809D01*
X347454819Y-233273809D02*
X347454819Y-233178571D01*
X347454819Y-233178571D02*
X347407200Y-233083333D01*
X347407200Y-233083333D02*
X347359580Y-233035714D01*
X347359580Y-233035714D02*
X347264342Y-232988095D01*
X347264342Y-232988095D02*
X347073866Y-232940476D01*
X347073866Y-232940476D02*
X346835771Y-232940476D01*
X346835771Y-232940476D02*
X346645295Y-232988095D01*
X346645295Y-232988095D02*
X346550057Y-233035714D01*
X346550057Y-233035714D02*
X346502438Y-233083333D01*
X346502438Y-233083333D02*
X346454819Y-233178571D01*
X442464285Y-231329819D02*
X442464285Y-230329819D01*
X442464285Y-230329819D02*
X442226190Y-230329819D01*
X442226190Y-230329819D02*
X442083333Y-230377438D01*
X442083333Y-230377438D02*
X441988095Y-230472676D01*
X441988095Y-230472676D02*
X441940476Y-230567914D01*
X441940476Y-230567914D02*
X441892857Y-230758390D01*
X441892857Y-230758390D02*
X441892857Y-230901247D01*
X441892857Y-230901247D02*
X441940476Y-231091723D01*
X441940476Y-231091723D02*
X441988095Y-231186961D01*
X441988095Y-231186961D02*
X442083333Y-231282200D01*
X442083333Y-231282200D02*
X442226190Y-231329819D01*
X442226190Y-231329819D02*
X442464285Y-231329819D01*
X441321428Y-230758390D02*
X441416666Y-230710771D01*
X441416666Y-230710771D02*
X441464285Y-230663152D01*
X441464285Y-230663152D02*
X441511904Y-230567914D01*
X441511904Y-230567914D02*
X441511904Y-230520295D01*
X441511904Y-230520295D02*
X441464285Y-230425057D01*
X441464285Y-230425057D02*
X441416666Y-230377438D01*
X441416666Y-230377438D02*
X441321428Y-230329819D01*
X441321428Y-230329819D02*
X441130952Y-230329819D01*
X441130952Y-230329819D02*
X441035714Y-230377438D01*
X441035714Y-230377438D02*
X440988095Y-230425057D01*
X440988095Y-230425057D02*
X440940476Y-230520295D01*
X440940476Y-230520295D02*
X440940476Y-230567914D01*
X440940476Y-230567914D02*
X440988095Y-230663152D01*
X440988095Y-230663152D02*
X441035714Y-230710771D01*
X441035714Y-230710771D02*
X441130952Y-230758390D01*
X441130952Y-230758390D02*
X441321428Y-230758390D01*
X441321428Y-230758390D02*
X441416666Y-230806009D01*
X441416666Y-230806009D02*
X441464285Y-230853628D01*
X441464285Y-230853628D02*
X441511904Y-230948866D01*
X441511904Y-230948866D02*
X441511904Y-231139342D01*
X441511904Y-231139342D02*
X441464285Y-231234580D01*
X441464285Y-231234580D02*
X441416666Y-231282200D01*
X441416666Y-231282200D02*
X441321428Y-231329819D01*
X441321428Y-231329819D02*
X441130952Y-231329819D01*
X441130952Y-231329819D02*
X441035714Y-231282200D01*
X441035714Y-231282200D02*
X440988095Y-231234580D01*
X440988095Y-231234580D02*
X440940476Y-231139342D01*
X440940476Y-231139342D02*
X440940476Y-230948866D01*
X440940476Y-230948866D02*
X440988095Y-230853628D01*
X440988095Y-230853628D02*
X441035714Y-230806009D01*
X441035714Y-230806009D02*
X441130952Y-230758390D01*
X440607142Y-230329819D02*
X439988095Y-230329819D01*
X439988095Y-230329819D02*
X440321428Y-230710771D01*
X440321428Y-230710771D02*
X440178571Y-230710771D01*
X440178571Y-230710771D02*
X440083333Y-230758390D01*
X440083333Y-230758390D02*
X440035714Y-230806009D01*
X440035714Y-230806009D02*
X439988095Y-230901247D01*
X439988095Y-230901247D02*
X439988095Y-231139342D01*
X439988095Y-231139342D02*
X440035714Y-231234580D01*
X440035714Y-231234580D02*
X440083333Y-231282200D01*
X440083333Y-231282200D02*
X440178571Y-231329819D01*
X440178571Y-231329819D02*
X440464285Y-231329819D01*
X440464285Y-231329819D02*
X440559523Y-231282200D01*
X440559523Y-231282200D02*
X440607142Y-231234580D01*
X439392857Y-229204819D02*
X439726190Y-228728628D01*
X439964285Y-229204819D02*
X439964285Y-228204819D01*
X439964285Y-228204819D02*
X439583333Y-228204819D01*
X439583333Y-228204819D02*
X439488095Y-228252438D01*
X439488095Y-228252438D02*
X439440476Y-228300057D01*
X439440476Y-228300057D02*
X439392857Y-228395295D01*
X439392857Y-228395295D02*
X439392857Y-228538152D01*
X439392857Y-228538152D02*
X439440476Y-228633390D01*
X439440476Y-228633390D02*
X439488095Y-228681009D01*
X439488095Y-228681009D02*
X439583333Y-228728628D01*
X439583333Y-228728628D02*
X439964285Y-228728628D01*
X438488095Y-228204819D02*
X438964285Y-228204819D01*
X438964285Y-228204819D02*
X439011904Y-228681009D01*
X439011904Y-228681009D02*
X438964285Y-228633390D01*
X438964285Y-228633390D02*
X438869047Y-228585771D01*
X438869047Y-228585771D02*
X438630952Y-228585771D01*
X438630952Y-228585771D02*
X438535714Y-228633390D01*
X438535714Y-228633390D02*
X438488095Y-228681009D01*
X438488095Y-228681009D02*
X438440476Y-228776247D01*
X438440476Y-228776247D02*
X438440476Y-229014342D01*
X438440476Y-229014342D02*
X438488095Y-229109580D01*
X438488095Y-229109580D02*
X438535714Y-229157200D01*
X438535714Y-229157200D02*
X438630952Y-229204819D01*
X438630952Y-229204819D02*
X438869047Y-229204819D01*
X438869047Y-229204819D02*
X438964285Y-229157200D01*
X438964285Y-229157200D02*
X439011904Y-229109580D01*
X437488095Y-229204819D02*
X438059523Y-229204819D01*
X437773809Y-229204819D02*
X437773809Y-228204819D01*
X437773809Y-228204819D02*
X437869047Y-228347676D01*
X437869047Y-228347676D02*
X437964285Y-228442914D01*
X437964285Y-228442914D02*
X438059523Y-228490533D01*
X323220362Y-233209580D02*
X323267981Y-233257200D01*
X323267981Y-233257200D02*
X323410838Y-233304819D01*
X323410838Y-233304819D02*
X323506076Y-233304819D01*
X323506076Y-233304819D02*
X323648933Y-233257200D01*
X323648933Y-233257200D02*
X323744171Y-233161961D01*
X323744171Y-233161961D02*
X323791790Y-233066723D01*
X323791790Y-233066723D02*
X323839409Y-232876247D01*
X323839409Y-232876247D02*
X323839409Y-232733390D01*
X323839409Y-232733390D02*
X323791790Y-232542914D01*
X323791790Y-232542914D02*
X323744171Y-232447676D01*
X323744171Y-232447676D02*
X323648933Y-232352438D01*
X323648933Y-232352438D02*
X323506076Y-232304819D01*
X323506076Y-232304819D02*
X323410838Y-232304819D01*
X323410838Y-232304819D02*
X323267981Y-232352438D01*
X323267981Y-232352438D02*
X323220362Y-232400057D01*
X322648933Y-232733390D02*
X322744171Y-232685771D01*
X322744171Y-232685771D02*
X322791790Y-232638152D01*
X322791790Y-232638152D02*
X322839409Y-232542914D01*
X322839409Y-232542914D02*
X322839409Y-232495295D01*
X322839409Y-232495295D02*
X322791790Y-232400057D01*
X322791790Y-232400057D02*
X322744171Y-232352438D01*
X322744171Y-232352438D02*
X322648933Y-232304819D01*
X322648933Y-232304819D02*
X322458457Y-232304819D01*
X322458457Y-232304819D02*
X322363219Y-232352438D01*
X322363219Y-232352438D02*
X322315600Y-232400057D01*
X322315600Y-232400057D02*
X322267981Y-232495295D01*
X322267981Y-232495295D02*
X322267981Y-232542914D01*
X322267981Y-232542914D02*
X322315600Y-232638152D01*
X322315600Y-232638152D02*
X322363219Y-232685771D01*
X322363219Y-232685771D02*
X322458457Y-232733390D01*
X322458457Y-232733390D02*
X322648933Y-232733390D01*
X322648933Y-232733390D02*
X322744171Y-232781009D01*
X322744171Y-232781009D02*
X322791790Y-232828628D01*
X322791790Y-232828628D02*
X322839409Y-232923866D01*
X322839409Y-232923866D02*
X322839409Y-233114342D01*
X322839409Y-233114342D02*
X322791790Y-233209580D01*
X322791790Y-233209580D02*
X322744171Y-233257200D01*
X322744171Y-233257200D02*
X322648933Y-233304819D01*
X322648933Y-233304819D02*
X322458457Y-233304819D01*
X322458457Y-233304819D02*
X322363219Y-233257200D01*
X322363219Y-233257200D02*
X322315600Y-233209580D01*
X322315600Y-233209580D02*
X322267981Y-233114342D01*
X322267981Y-233114342D02*
X322267981Y-232923866D01*
X322267981Y-232923866D02*
X322315600Y-232828628D01*
X322315600Y-232828628D02*
X322363219Y-232781009D01*
X322363219Y-232781009D02*
X322458457Y-232733390D01*
X321791790Y-233304819D02*
X321601314Y-233304819D01*
X321601314Y-233304819D02*
X321506076Y-233257200D01*
X321506076Y-233257200D02*
X321458457Y-233209580D01*
X321458457Y-233209580D02*
X321363219Y-233066723D01*
X321363219Y-233066723D02*
X321315600Y-232876247D01*
X321315600Y-232876247D02*
X321315600Y-232495295D01*
X321315600Y-232495295D02*
X321363219Y-232400057D01*
X321363219Y-232400057D02*
X321410838Y-232352438D01*
X321410838Y-232352438D02*
X321506076Y-232304819D01*
X321506076Y-232304819D02*
X321696552Y-232304819D01*
X321696552Y-232304819D02*
X321791790Y-232352438D01*
X321791790Y-232352438D02*
X321839409Y-232400057D01*
X321839409Y-232400057D02*
X321887028Y-232495295D01*
X321887028Y-232495295D02*
X321887028Y-232733390D01*
X321887028Y-232733390D02*
X321839409Y-232828628D01*
X321839409Y-232828628D02*
X321791790Y-232876247D01*
X321791790Y-232876247D02*
X321696552Y-232923866D01*
X321696552Y-232923866D02*
X321506076Y-232923866D01*
X321506076Y-232923866D02*
X321410838Y-232876247D01*
X321410838Y-232876247D02*
X321363219Y-232828628D01*
X321363219Y-232828628D02*
X321315600Y-232733390D01*
X435142857Y-203704819D02*
X435476190Y-203228628D01*
X435714285Y-203704819D02*
X435714285Y-202704819D01*
X435714285Y-202704819D02*
X435333333Y-202704819D01*
X435333333Y-202704819D02*
X435238095Y-202752438D01*
X435238095Y-202752438D02*
X435190476Y-202800057D01*
X435190476Y-202800057D02*
X435142857Y-202895295D01*
X435142857Y-202895295D02*
X435142857Y-203038152D01*
X435142857Y-203038152D02*
X435190476Y-203133390D01*
X435190476Y-203133390D02*
X435238095Y-203181009D01*
X435238095Y-203181009D02*
X435333333Y-203228628D01*
X435333333Y-203228628D02*
X435714285Y-203228628D01*
X434809523Y-202704819D02*
X434190476Y-202704819D01*
X434190476Y-202704819D02*
X434523809Y-203085771D01*
X434523809Y-203085771D02*
X434380952Y-203085771D01*
X434380952Y-203085771D02*
X434285714Y-203133390D01*
X434285714Y-203133390D02*
X434238095Y-203181009D01*
X434238095Y-203181009D02*
X434190476Y-203276247D01*
X434190476Y-203276247D02*
X434190476Y-203514342D01*
X434190476Y-203514342D02*
X434238095Y-203609580D01*
X434238095Y-203609580D02*
X434285714Y-203657200D01*
X434285714Y-203657200D02*
X434380952Y-203704819D01*
X434380952Y-203704819D02*
X434666666Y-203704819D01*
X434666666Y-203704819D02*
X434761904Y-203657200D01*
X434761904Y-203657200D02*
X434809523Y-203609580D01*
X433333333Y-203038152D02*
X433333333Y-203704819D01*
X433571428Y-202657200D02*
X433809523Y-203371485D01*
X433809523Y-203371485D02*
X433190476Y-203371485D01*
X429484580Y-204732142D02*
X429532200Y-204684523D01*
X429532200Y-204684523D02*
X429579819Y-204541666D01*
X429579819Y-204541666D02*
X429579819Y-204446428D01*
X429579819Y-204446428D02*
X429532200Y-204303571D01*
X429532200Y-204303571D02*
X429436961Y-204208333D01*
X429436961Y-204208333D02*
X429341723Y-204160714D01*
X429341723Y-204160714D02*
X429151247Y-204113095D01*
X429151247Y-204113095D02*
X429008390Y-204113095D01*
X429008390Y-204113095D02*
X428817914Y-204160714D01*
X428817914Y-204160714D02*
X428722676Y-204208333D01*
X428722676Y-204208333D02*
X428627438Y-204303571D01*
X428627438Y-204303571D02*
X428579819Y-204446428D01*
X428579819Y-204446428D02*
X428579819Y-204541666D01*
X428579819Y-204541666D02*
X428627438Y-204684523D01*
X428627438Y-204684523D02*
X428675057Y-204732142D01*
X428913152Y-205589285D02*
X429579819Y-205589285D01*
X428532200Y-205351190D02*
X429246485Y-205113095D01*
X429246485Y-205113095D02*
X429246485Y-205732142D01*
X428579819Y-206541666D02*
X428579819Y-206351190D01*
X428579819Y-206351190D02*
X428627438Y-206255952D01*
X428627438Y-206255952D02*
X428675057Y-206208333D01*
X428675057Y-206208333D02*
X428817914Y-206113095D01*
X428817914Y-206113095D02*
X429008390Y-206065476D01*
X429008390Y-206065476D02*
X429389342Y-206065476D01*
X429389342Y-206065476D02*
X429484580Y-206113095D01*
X429484580Y-206113095D02*
X429532200Y-206160714D01*
X429532200Y-206160714D02*
X429579819Y-206255952D01*
X429579819Y-206255952D02*
X429579819Y-206446428D01*
X429579819Y-206446428D02*
X429532200Y-206541666D01*
X429532200Y-206541666D02*
X429484580Y-206589285D01*
X429484580Y-206589285D02*
X429389342Y-206636904D01*
X429389342Y-206636904D02*
X429151247Y-206636904D01*
X429151247Y-206636904D02*
X429056009Y-206589285D01*
X429056009Y-206589285D02*
X429008390Y-206541666D01*
X429008390Y-206541666D02*
X428960771Y-206446428D01*
X428960771Y-206446428D02*
X428960771Y-206255952D01*
X428960771Y-206255952D02*
X429008390Y-206160714D01*
X429008390Y-206160714D02*
X429056009Y-206113095D01*
X429056009Y-206113095D02*
X429151247Y-206065476D01*
X439392857Y-189204819D02*
X439726190Y-188728628D01*
X439964285Y-189204819D02*
X439964285Y-188204819D01*
X439964285Y-188204819D02*
X439583333Y-188204819D01*
X439583333Y-188204819D02*
X439488095Y-188252438D01*
X439488095Y-188252438D02*
X439440476Y-188300057D01*
X439440476Y-188300057D02*
X439392857Y-188395295D01*
X439392857Y-188395295D02*
X439392857Y-188538152D01*
X439392857Y-188538152D02*
X439440476Y-188633390D01*
X439440476Y-188633390D02*
X439488095Y-188681009D01*
X439488095Y-188681009D02*
X439583333Y-188728628D01*
X439583333Y-188728628D02*
X439964285Y-188728628D01*
X439011904Y-188300057D02*
X438964285Y-188252438D01*
X438964285Y-188252438D02*
X438869047Y-188204819D01*
X438869047Y-188204819D02*
X438630952Y-188204819D01*
X438630952Y-188204819D02*
X438535714Y-188252438D01*
X438535714Y-188252438D02*
X438488095Y-188300057D01*
X438488095Y-188300057D02*
X438440476Y-188395295D01*
X438440476Y-188395295D02*
X438440476Y-188490533D01*
X438440476Y-188490533D02*
X438488095Y-188633390D01*
X438488095Y-188633390D02*
X439059523Y-189204819D01*
X439059523Y-189204819D02*
X438440476Y-189204819D01*
X437583333Y-188204819D02*
X437773809Y-188204819D01*
X437773809Y-188204819D02*
X437869047Y-188252438D01*
X437869047Y-188252438D02*
X437916666Y-188300057D01*
X437916666Y-188300057D02*
X438011904Y-188442914D01*
X438011904Y-188442914D02*
X438059523Y-188633390D01*
X438059523Y-188633390D02*
X438059523Y-189014342D01*
X438059523Y-189014342D02*
X438011904Y-189109580D01*
X438011904Y-189109580D02*
X437964285Y-189157200D01*
X437964285Y-189157200D02*
X437869047Y-189204819D01*
X437869047Y-189204819D02*
X437678571Y-189204819D01*
X437678571Y-189204819D02*
X437583333Y-189157200D01*
X437583333Y-189157200D02*
X437535714Y-189109580D01*
X437535714Y-189109580D02*
X437488095Y-189014342D01*
X437488095Y-189014342D02*
X437488095Y-188776247D01*
X437488095Y-188776247D02*
X437535714Y-188681009D01*
X437535714Y-188681009D02*
X437583333Y-188633390D01*
X437583333Y-188633390D02*
X437678571Y-188585771D01*
X437678571Y-188585771D02*
X437869047Y-188585771D01*
X437869047Y-188585771D02*
X437964285Y-188633390D01*
X437964285Y-188633390D02*
X438011904Y-188681009D01*
X438011904Y-188681009D02*
X438059523Y-188776247D01*
X301099585Y-241857142D02*
X301147205Y-241809523D01*
X301147205Y-241809523D02*
X301194824Y-241666666D01*
X301194824Y-241666666D02*
X301194824Y-241571428D01*
X301194824Y-241571428D02*
X301147205Y-241428571D01*
X301147205Y-241428571D02*
X301051966Y-241333333D01*
X301051966Y-241333333D02*
X300956728Y-241285714D01*
X300956728Y-241285714D02*
X300766252Y-241238095D01*
X300766252Y-241238095D02*
X300623395Y-241238095D01*
X300623395Y-241238095D02*
X300432919Y-241285714D01*
X300432919Y-241285714D02*
X300337681Y-241333333D01*
X300337681Y-241333333D02*
X300242443Y-241428571D01*
X300242443Y-241428571D02*
X300194824Y-241571428D01*
X300194824Y-241571428D02*
X300194824Y-241666666D01*
X300194824Y-241666666D02*
X300242443Y-241809523D01*
X300242443Y-241809523D02*
X300290062Y-241857142D01*
X300623395Y-242428571D02*
X300575776Y-242333333D01*
X300575776Y-242333333D02*
X300528157Y-242285714D01*
X300528157Y-242285714D02*
X300432919Y-242238095D01*
X300432919Y-242238095D02*
X300385300Y-242238095D01*
X300385300Y-242238095D02*
X300290062Y-242285714D01*
X300290062Y-242285714D02*
X300242443Y-242333333D01*
X300242443Y-242333333D02*
X300194824Y-242428571D01*
X300194824Y-242428571D02*
X300194824Y-242619047D01*
X300194824Y-242619047D02*
X300242443Y-242714285D01*
X300242443Y-242714285D02*
X300290062Y-242761904D01*
X300290062Y-242761904D02*
X300385300Y-242809523D01*
X300385300Y-242809523D02*
X300432919Y-242809523D01*
X300432919Y-242809523D02*
X300528157Y-242761904D01*
X300528157Y-242761904D02*
X300575776Y-242714285D01*
X300575776Y-242714285D02*
X300623395Y-242619047D01*
X300623395Y-242619047D02*
X300623395Y-242428571D01*
X300623395Y-242428571D02*
X300671014Y-242333333D01*
X300671014Y-242333333D02*
X300718633Y-242285714D01*
X300718633Y-242285714D02*
X300813871Y-242238095D01*
X300813871Y-242238095D02*
X301004347Y-242238095D01*
X301004347Y-242238095D02*
X301099585Y-242285714D01*
X301099585Y-242285714D02*
X301147205Y-242333333D01*
X301147205Y-242333333D02*
X301194824Y-242428571D01*
X301194824Y-242428571D02*
X301194824Y-242619047D01*
X301194824Y-242619047D02*
X301147205Y-242714285D01*
X301147205Y-242714285D02*
X301099585Y-242761904D01*
X301099585Y-242761904D02*
X301004347Y-242809523D01*
X301004347Y-242809523D02*
X300813871Y-242809523D01*
X300813871Y-242809523D02*
X300718633Y-242761904D01*
X300718633Y-242761904D02*
X300671014Y-242714285D01*
X300671014Y-242714285D02*
X300623395Y-242619047D01*
X300194824Y-243142857D02*
X300194824Y-243809523D01*
X300194824Y-243809523D02*
X301194824Y-243380952D01*
X349392857Y-208609580D02*
X349440476Y-208657200D01*
X349440476Y-208657200D02*
X349583333Y-208704819D01*
X349583333Y-208704819D02*
X349678571Y-208704819D01*
X349678571Y-208704819D02*
X349821428Y-208657200D01*
X349821428Y-208657200D02*
X349916666Y-208561961D01*
X349916666Y-208561961D02*
X349964285Y-208466723D01*
X349964285Y-208466723D02*
X350011904Y-208276247D01*
X350011904Y-208276247D02*
X350011904Y-208133390D01*
X350011904Y-208133390D02*
X349964285Y-207942914D01*
X349964285Y-207942914D02*
X349916666Y-207847676D01*
X349916666Y-207847676D02*
X349821428Y-207752438D01*
X349821428Y-207752438D02*
X349678571Y-207704819D01*
X349678571Y-207704819D02*
X349583333Y-207704819D01*
X349583333Y-207704819D02*
X349440476Y-207752438D01*
X349440476Y-207752438D02*
X349392857Y-207800057D01*
X348440476Y-208704819D02*
X349011904Y-208704819D01*
X348726190Y-208704819D02*
X348726190Y-207704819D01*
X348726190Y-207704819D02*
X348821428Y-207847676D01*
X348821428Y-207847676D02*
X348916666Y-207942914D01*
X348916666Y-207942914D02*
X349011904Y-207990533D01*
X347535714Y-207704819D02*
X348011904Y-207704819D01*
X348011904Y-207704819D02*
X348059523Y-208181009D01*
X348059523Y-208181009D02*
X348011904Y-208133390D01*
X348011904Y-208133390D02*
X347916666Y-208085771D01*
X347916666Y-208085771D02*
X347678571Y-208085771D01*
X347678571Y-208085771D02*
X347583333Y-208133390D01*
X347583333Y-208133390D02*
X347535714Y-208181009D01*
X347535714Y-208181009D02*
X347488095Y-208276247D01*
X347488095Y-208276247D02*
X347488095Y-208514342D01*
X347488095Y-208514342D02*
X347535714Y-208609580D01*
X347535714Y-208609580D02*
X347583333Y-208657200D01*
X347583333Y-208657200D02*
X347678571Y-208704819D01*
X347678571Y-208704819D02*
X347916666Y-208704819D01*
X347916666Y-208704819D02*
X348011904Y-208657200D01*
X348011904Y-208657200D02*
X348059523Y-208609580D01*
X344679580Y-227357142D02*
X344727200Y-227309523D01*
X344727200Y-227309523D02*
X344774819Y-227166666D01*
X344774819Y-227166666D02*
X344774819Y-227071428D01*
X344774819Y-227071428D02*
X344727200Y-226928571D01*
X344727200Y-226928571D02*
X344631961Y-226833333D01*
X344631961Y-226833333D02*
X344536723Y-226785714D01*
X344536723Y-226785714D02*
X344346247Y-226738095D01*
X344346247Y-226738095D02*
X344203390Y-226738095D01*
X344203390Y-226738095D02*
X344012914Y-226785714D01*
X344012914Y-226785714D02*
X343917676Y-226833333D01*
X343917676Y-226833333D02*
X343822438Y-226928571D01*
X343822438Y-226928571D02*
X343774819Y-227071428D01*
X343774819Y-227071428D02*
X343774819Y-227166666D01*
X343774819Y-227166666D02*
X343822438Y-227309523D01*
X343822438Y-227309523D02*
X343870057Y-227357142D01*
X343774819Y-227690476D02*
X343774819Y-228357142D01*
X343774819Y-228357142D02*
X344774819Y-227928571D01*
X343774819Y-228928571D02*
X343774819Y-229023809D01*
X343774819Y-229023809D02*
X343822438Y-229119047D01*
X343822438Y-229119047D02*
X343870057Y-229166666D01*
X343870057Y-229166666D02*
X343965295Y-229214285D01*
X343965295Y-229214285D02*
X344155771Y-229261904D01*
X344155771Y-229261904D02*
X344393866Y-229261904D01*
X344393866Y-229261904D02*
X344584342Y-229214285D01*
X344584342Y-229214285D02*
X344679580Y-229166666D01*
X344679580Y-229166666D02*
X344727200Y-229119047D01*
X344727200Y-229119047D02*
X344774819Y-229023809D01*
X344774819Y-229023809D02*
X344774819Y-228928571D01*
X344774819Y-228928571D02*
X344727200Y-228833333D01*
X344727200Y-228833333D02*
X344679580Y-228785714D01*
X344679580Y-228785714D02*
X344584342Y-228738095D01*
X344584342Y-228738095D02*
X344393866Y-228690476D01*
X344393866Y-228690476D02*
X344155771Y-228690476D01*
X344155771Y-228690476D02*
X343965295Y-228738095D01*
X343965295Y-228738095D02*
X343870057Y-228785714D01*
X343870057Y-228785714D02*
X343822438Y-228833333D01*
X343822438Y-228833333D02*
X343774819Y-228928571D01*
X427234580Y-204732142D02*
X427282200Y-204684523D01*
X427282200Y-204684523D02*
X427329819Y-204541666D01*
X427329819Y-204541666D02*
X427329819Y-204446428D01*
X427329819Y-204446428D02*
X427282200Y-204303571D01*
X427282200Y-204303571D02*
X427186961Y-204208333D01*
X427186961Y-204208333D02*
X427091723Y-204160714D01*
X427091723Y-204160714D02*
X426901247Y-204113095D01*
X426901247Y-204113095D02*
X426758390Y-204113095D01*
X426758390Y-204113095D02*
X426567914Y-204160714D01*
X426567914Y-204160714D02*
X426472676Y-204208333D01*
X426472676Y-204208333D02*
X426377438Y-204303571D01*
X426377438Y-204303571D02*
X426329819Y-204446428D01*
X426329819Y-204446428D02*
X426329819Y-204541666D01*
X426329819Y-204541666D02*
X426377438Y-204684523D01*
X426377438Y-204684523D02*
X426425057Y-204732142D01*
X426329819Y-205636904D02*
X426329819Y-205160714D01*
X426329819Y-205160714D02*
X426806009Y-205113095D01*
X426806009Y-205113095D02*
X426758390Y-205160714D01*
X426758390Y-205160714D02*
X426710771Y-205255952D01*
X426710771Y-205255952D02*
X426710771Y-205494047D01*
X426710771Y-205494047D02*
X426758390Y-205589285D01*
X426758390Y-205589285D02*
X426806009Y-205636904D01*
X426806009Y-205636904D02*
X426901247Y-205684523D01*
X426901247Y-205684523D02*
X427139342Y-205684523D01*
X427139342Y-205684523D02*
X427234580Y-205636904D01*
X427234580Y-205636904D02*
X427282200Y-205589285D01*
X427282200Y-205589285D02*
X427329819Y-205494047D01*
X427329819Y-205494047D02*
X427329819Y-205255952D01*
X427329819Y-205255952D02*
X427282200Y-205160714D01*
X427282200Y-205160714D02*
X427234580Y-205113095D01*
X426425057Y-206065476D02*
X426377438Y-206113095D01*
X426377438Y-206113095D02*
X426329819Y-206208333D01*
X426329819Y-206208333D02*
X426329819Y-206446428D01*
X426329819Y-206446428D02*
X426377438Y-206541666D01*
X426377438Y-206541666D02*
X426425057Y-206589285D01*
X426425057Y-206589285D02*
X426520295Y-206636904D01*
X426520295Y-206636904D02*
X426615533Y-206636904D01*
X426615533Y-206636904D02*
X426758390Y-206589285D01*
X426758390Y-206589285D02*
X427329819Y-206017857D01*
X427329819Y-206017857D02*
X427329819Y-206636904D01*
X408304580Y-208232142D02*
X408352200Y-208184523D01*
X408352200Y-208184523D02*
X408399819Y-208041666D01*
X408399819Y-208041666D02*
X408399819Y-207946428D01*
X408399819Y-207946428D02*
X408352200Y-207803571D01*
X408352200Y-207803571D02*
X408256961Y-207708333D01*
X408256961Y-207708333D02*
X408161723Y-207660714D01*
X408161723Y-207660714D02*
X407971247Y-207613095D01*
X407971247Y-207613095D02*
X407828390Y-207613095D01*
X407828390Y-207613095D02*
X407637914Y-207660714D01*
X407637914Y-207660714D02*
X407542676Y-207708333D01*
X407542676Y-207708333D02*
X407447438Y-207803571D01*
X407447438Y-207803571D02*
X407399819Y-207946428D01*
X407399819Y-207946428D02*
X407399819Y-208041666D01*
X407399819Y-208041666D02*
X407447438Y-208184523D01*
X407447438Y-208184523D02*
X407495057Y-208232142D01*
X407733152Y-209089285D02*
X408399819Y-209089285D01*
X407352200Y-208851190D02*
X408066485Y-208613095D01*
X408066485Y-208613095D02*
X408066485Y-209232142D01*
X408399819Y-210136904D02*
X408399819Y-209565476D01*
X408399819Y-209851190D02*
X407399819Y-209851190D01*
X407399819Y-209851190D02*
X407542676Y-209755952D01*
X407542676Y-209755952D02*
X407637914Y-209660714D01*
X407637914Y-209660714D02*
X407685533Y-209565476D01*
X417142857Y-170859580D02*
X417190476Y-170907200D01*
X417190476Y-170907200D02*
X417333333Y-170954819D01*
X417333333Y-170954819D02*
X417428571Y-170954819D01*
X417428571Y-170954819D02*
X417571428Y-170907200D01*
X417571428Y-170907200D02*
X417666666Y-170811961D01*
X417666666Y-170811961D02*
X417714285Y-170716723D01*
X417714285Y-170716723D02*
X417761904Y-170526247D01*
X417761904Y-170526247D02*
X417761904Y-170383390D01*
X417761904Y-170383390D02*
X417714285Y-170192914D01*
X417714285Y-170192914D02*
X417666666Y-170097676D01*
X417666666Y-170097676D02*
X417571428Y-170002438D01*
X417571428Y-170002438D02*
X417428571Y-169954819D01*
X417428571Y-169954819D02*
X417333333Y-169954819D01*
X417333333Y-169954819D02*
X417190476Y-170002438D01*
X417190476Y-170002438D02*
X417142857Y-170050057D01*
X416809523Y-169954819D02*
X416190476Y-169954819D01*
X416190476Y-169954819D02*
X416523809Y-170335771D01*
X416523809Y-170335771D02*
X416380952Y-170335771D01*
X416380952Y-170335771D02*
X416285714Y-170383390D01*
X416285714Y-170383390D02*
X416238095Y-170431009D01*
X416238095Y-170431009D02*
X416190476Y-170526247D01*
X416190476Y-170526247D02*
X416190476Y-170764342D01*
X416190476Y-170764342D02*
X416238095Y-170859580D01*
X416238095Y-170859580D02*
X416285714Y-170907200D01*
X416285714Y-170907200D02*
X416380952Y-170954819D01*
X416380952Y-170954819D02*
X416666666Y-170954819D01*
X416666666Y-170954819D02*
X416761904Y-170907200D01*
X416761904Y-170907200D02*
X416809523Y-170859580D01*
X415857142Y-169954819D02*
X415190476Y-169954819D01*
X415190476Y-169954819D02*
X415619047Y-170954819D01*
X323220362Y-245209580D02*
X323267981Y-245257200D01*
X323267981Y-245257200D02*
X323410838Y-245304819D01*
X323410838Y-245304819D02*
X323506076Y-245304819D01*
X323506076Y-245304819D02*
X323648933Y-245257200D01*
X323648933Y-245257200D02*
X323744171Y-245161961D01*
X323744171Y-245161961D02*
X323791790Y-245066723D01*
X323791790Y-245066723D02*
X323839409Y-244876247D01*
X323839409Y-244876247D02*
X323839409Y-244733390D01*
X323839409Y-244733390D02*
X323791790Y-244542914D01*
X323791790Y-244542914D02*
X323744171Y-244447676D01*
X323744171Y-244447676D02*
X323648933Y-244352438D01*
X323648933Y-244352438D02*
X323506076Y-244304819D01*
X323506076Y-244304819D02*
X323410838Y-244304819D01*
X323410838Y-244304819D02*
X323267981Y-244352438D01*
X323267981Y-244352438D02*
X323220362Y-244400057D01*
X322744171Y-245304819D02*
X322553695Y-245304819D01*
X322553695Y-245304819D02*
X322458457Y-245257200D01*
X322458457Y-245257200D02*
X322410838Y-245209580D01*
X322410838Y-245209580D02*
X322315600Y-245066723D01*
X322315600Y-245066723D02*
X322267981Y-244876247D01*
X322267981Y-244876247D02*
X322267981Y-244495295D01*
X322267981Y-244495295D02*
X322315600Y-244400057D01*
X322315600Y-244400057D02*
X322363219Y-244352438D01*
X322363219Y-244352438D02*
X322458457Y-244304819D01*
X322458457Y-244304819D02*
X322648933Y-244304819D01*
X322648933Y-244304819D02*
X322744171Y-244352438D01*
X322744171Y-244352438D02*
X322791790Y-244400057D01*
X322791790Y-244400057D02*
X322839409Y-244495295D01*
X322839409Y-244495295D02*
X322839409Y-244733390D01*
X322839409Y-244733390D02*
X322791790Y-244828628D01*
X322791790Y-244828628D02*
X322744171Y-244876247D01*
X322744171Y-244876247D02*
X322648933Y-244923866D01*
X322648933Y-244923866D02*
X322458457Y-244923866D01*
X322458457Y-244923866D02*
X322363219Y-244876247D01*
X322363219Y-244876247D02*
X322315600Y-244828628D01*
X322315600Y-244828628D02*
X322267981Y-244733390D01*
X321648933Y-244304819D02*
X321553695Y-244304819D01*
X321553695Y-244304819D02*
X321458457Y-244352438D01*
X321458457Y-244352438D02*
X321410838Y-244400057D01*
X321410838Y-244400057D02*
X321363219Y-244495295D01*
X321363219Y-244495295D02*
X321315600Y-244685771D01*
X321315600Y-244685771D02*
X321315600Y-244923866D01*
X321315600Y-244923866D02*
X321363219Y-245114342D01*
X321363219Y-245114342D02*
X321410838Y-245209580D01*
X321410838Y-245209580D02*
X321458457Y-245257200D01*
X321458457Y-245257200D02*
X321553695Y-245304819D01*
X321553695Y-245304819D02*
X321648933Y-245304819D01*
X321648933Y-245304819D02*
X321744171Y-245257200D01*
X321744171Y-245257200D02*
X321791790Y-245209580D01*
X321791790Y-245209580D02*
X321839409Y-245114342D01*
X321839409Y-245114342D02*
X321887028Y-244923866D01*
X321887028Y-244923866D02*
X321887028Y-244685771D01*
X321887028Y-244685771D02*
X321839409Y-244495295D01*
X321839409Y-244495295D02*
X321791790Y-244400057D01*
X321791790Y-244400057D02*
X321744171Y-244352438D01*
X321744171Y-244352438D02*
X321648933Y-244304819D01*
X408304580Y-188708333D02*
X408352200Y-188660714D01*
X408352200Y-188660714D02*
X408399819Y-188517857D01*
X408399819Y-188517857D02*
X408399819Y-188422619D01*
X408399819Y-188422619D02*
X408352200Y-188279762D01*
X408352200Y-188279762D02*
X408256961Y-188184524D01*
X408256961Y-188184524D02*
X408161723Y-188136905D01*
X408161723Y-188136905D02*
X407971247Y-188089286D01*
X407971247Y-188089286D02*
X407828390Y-188089286D01*
X407828390Y-188089286D02*
X407637914Y-188136905D01*
X407637914Y-188136905D02*
X407542676Y-188184524D01*
X407542676Y-188184524D02*
X407447438Y-188279762D01*
X407447438Y-188279762D02*
X407399819Y-188422619D01*
X407399819Y-188422619D02*
X407399819Y-188517857D01*
X407399819Y-188517857D02*
X407447438Y-188660714D01*
X407447438Y-188660714D02*
X407495057Y-188708333D01*
X407495057Y-189089286D02*
X407447438Y-189136905D01*
X407447438Y-189136905D02*
X407399819Y-189232143D01*
X407399819Y-189232143D02*
X407399819Y-189470238D01*
X407399819Y-189470238D02*
X407447438Y-189565476D01*
X407447438Y-189565476D02*
X407495057Y-189613095D01*
X407495057Y-189613095D02*
X407590295Y-189660714D01*
X407590295Y-189660714D02*
X407685533Y-189660714D01*
X407685533Y-189660714D02*
X407828390Y-189613095D01*
X407828390Y-189613095D02*
X408399819Y-189041667D01*
X408399819Y-189041667D02*
X408399819Y-189660714D01*
X418984580Y-204732142D02*
X419032200Y-204684523D01*
X419032200Y-204684523D02*
X419079819Y-204541666D01*
X419079819Y-204541666D02*
X419079819Y-204446428D01*
X419079819Y-204446428D02*
X419032200Y-204303571D01*
X419032200Y-204303571D02*
X418936961Y-204208333D01*
X418936961Y-204208333D02*
X418841723Y-204160714D01*
X418841723Y-204160714D02*
X418651247Y-204113095D01*
X418651247Y-204113095D02*
X418508390Y-204113095D01*
X418508390Y-204113095D02*
X418317914Y-204160714D01*
X418317914Y-204160714D02*
X418222676Y-204208333D01*
X418222676Y-204208333D02*
X418127438Y-204303571D01*
X418127438Y-204303571D02*
X418079819Y-204446428D01*
X418079819Y-204446428D02*
X418079819Y-204541666D01*
X418079819Y-204541666D02*
X418127438Y-204684523D01*
X418127438Y-204684523D02*
X418175057Y-204732142D01*
X418079819Y-205636904D02*
X418079819Y-205160714D01*
X418079819Y-205160714D02*
X418556009Y-205113095D01*
X418556009Y-205113095D02*
X418508390Y-205160714D01*
X418508390Y-205160714D02*
X418460771Y-205255952D01*
X418460771Y-205255952D02*
X418460771Y-205494047D01*
X418460771Y-205494047D02*
X418508390Y-205589285D01*
X418508390Y-205589285D02*
X418556009Y-205636904D01*
X418556009Y-205636904D02*
X418651247Y-205684523D01*
X418651247Y-205684523D02*
X418889342Y-205684523D01*
X418889342Y-205684523D02*
X418984580Y-205636904D01*
X418984580Y-205636904D02*
X419032200Y-205589285D01*
X419032200Y-205589285D02*
X419079819Y-205494047D01*
X419079819Y-205494047D02*
X419079819Y-205255952D01*
X419079819Y-205255952D02*
X419032200Y-205160714D01*
X419032200Y-205160714D02*
X418984580Y-205113095D01*
X418413152Y-206541666D02*
X419079819Y-206541666D01*
X418032200Y-206303571D02*
X418746485Y-206065476D01*
X418746485Y-206065476D02*
X418746485Y-206684523D01*
X327392857Y-215444819D02*
X327726190Y-214968628D01*
X327964285Y-215444819D02*
X327964285Y-214444819D01*
X327964285Y-214444819D02*
X327583333Y-214444819D01*
X327583333Y-214444819D02*
X327488095Y-214492438D01*
X327488095Y-214492438D02*
X327440476Y-214540057D01*
X327440476Y-214540057D02*
X327392857Y-214635295D01*
X327392857Y-214635295D02*
X327392857Y-214778152D01*
X327392857Y-214778152D02*
X327440476Y-214873390D01*
X327440476Y-214873390D02*
X327488095Y-214921009D01*
X327488095Y-214921009D02*
X327583333Y-214968628D01*
X327583333Y-214968628D02*
X327964285Y-214968628D01*
X326916666Y-215444819D02*
X326726190Y-215444819D01*
X326726190Y-215444819D02*
X326630952Y-215397200D01*
X326630952Y-215397200D02*
X326583333Y-215349580D01*
X326583333Y-215349580D02*
X326488095Y-215206723D01*
X326488095Y-215206723D02*
X326440476Y-215016247D01*
X326440476Y-215016247D02*
X326440476Y-214635295D01*
X326440476Y-214635295D02*
X326488095Y-214540057D01*
X326488095Y-214540057D02*
X326535714Y-214492438D01*
X326535714Y-214492438D02*
X326630952Y-214444819D01*
X326630952Y-214444819D02*
X326821428Y-214444819D01*
X326821428Y-214444819D02*
X326916666Y-214492438D01*
X326916666Y-214492438D02*
X326964285Y-214540057D01*
X326964285Y-214540057D02*
X327011904Y-214635295D01*
X327011904Y-214635295D02*
X327011904Y-214873390D01*
X327011904Y-214873390D02*
X326964285Y-214968628D01*
X326964285Y-214968628D02*
X326916666Y-215016247D01*
X326916666Y-215016247D02*
X326821428Y-215063866D01*
X326821428Y-215063866D02*
X326630952Y-215063866D01*
X326630952Y-215063866D02*
X326535714Y-215016247D01*
X326535714Y-215016247D02*
X326488095Y-214968628D01*
X326488095Y-214968628D02*
X326440476Y-214873390D01*
X326059523Y-214540057D02*
X326011904Y-214492438D01*
X326011904Y-214492438D02*
X325916666Y-214444819D01*
X325916666Y-214444819D02*
X325678571Y-214444819D01*
X325678571Y-214444819D02*
X325583333Y-214492438D01*
X325583333Y-214492438D02*
X325535714Y-214540057D01*
X325535714Y-214540057D02*
X325488095Y-214635295D01*
X325488095Y-214635295D02*
X325488095Y-214730533D01*
X325488095Y-214730533D02*
X325535714Y-214873390D01*
X325535714Y-214873390D02*
X326107142Y-215444819D01*
X326107142Y-215444819D02*
X325488095Y-215444819D01*
X348609580Y-239357142D02*
X348657200Y-239309523D01*
X348657200Y-239309523D02*
X348704819Y-239166666D01*
X348704819Y-239166666D02*
X348704819Y-239071428D01*
X348704819Y-239071428D02*
X348657200Y-238928571D01*
X348657200Y-238928571D02*
X348561961Y-238833333D01*
X348561961Y-238833333D02*
X348466723Y-238785714D01*
X348466723Y-238785714D02*
X348276247Y-238738095D01*
X348276247Y-238738095D02*
X348133390Y-238738095D01*
X348133390Y-238738095D02*
X347942914Y-238785714D01*
X347942914Y-238785714D02*
X347847676Y-238833333D01*
X347847676Y-238833333D02*
X347752438Y-238928571D01*
X347752438Y-238928571D02*
X347704819Y-239071428D01*
X347704819Y-239071428D02*
X347704819Y-239166666D01*
X347704819Y-239166666D02*
X347752438Y-239309523D01*
X347752438Y-239309523D02*
X347800057Y-239357142D01*
X348704819Y-240309523D02*
X348704819Y-239738095D01*
X348704819Y-240023809D02*
X347704819Y-240023809D01*
X347704819Y-240023809D02*
X347847676Y-239928571D01*
X347847676Y-239928571D02*
X347942914Y-239833333D01*
X347942914Y-239833333D02*
X347990533Y-239738095D01*
X348704819Y-241261904D02*
X348704819Y-240690476D01*
X348704819Y-240976190D02*
X347704819Y-240976190D01*
X347704819Y-240976190D02*
X347847676Y-240880952D01*
X347847676Y-240880952D02*
X347942914Y-240785714D01*
X347942914Y-240785714D02*
X347990533Y-240690476D01*
X332902857Y-204364580D02*
X332950476Y-204412200D01*
X332950476Y-204412200D02*
X333093333Y-204459819D01*
X333093333Y-204459819D02*
X333188571Y-204459819D01*
X333188571Y-204459819D02*
X333331428Y-204412200D01*
X333331428Y-204412200D02*
X333426666Y-204316961D01*
X333426666Y-204316961D02*
X333474285Y-204221723D01*
X333474285Y-204221723D02*
X333521904Y-204031247D01*
X333521904Y-204031247D02*
X333521904Y-203888390D01*
X333521904Y-203888390D02*
X333474285Y-203697914D01*
X333474285Y-203697914D02*
X333426666Y-203602676D01*
X333426666Y-203602676D02*
X333331428Y-203507438D01*
X333331428Y-203507438D02*
X333188571Y-203459819D01*
X333188571Y-203459819D02*
X333093333Y-203459819D01*
X333093333Y-203459819D02*
X332950476Y-203507438D01*
X332950476Y-203507438D02*
X332902857Y-203555057D01*
X331950476Y-204459819D02*
X332521904Y-204459819D01*
X332236190Y-204459819D02*
X332236190Y-203459819D01*
X332236190Y-203459819D02*
X332331428Y-203602676D01*
X332331428Y-203602676D02*
X332426666Y-203697914D01*
X332426666Y-203697914D02*
X332521904Y-203745533D01*
X331379047Y-203888390D02*
X331474285Y-203840771D01*
X331474285Y-203840771D02*
X331521904Y-203793152D01*
X331521904Y-203793152D02*
X331569523Y-203697914D01*
X331569523Y-203697914D02*
X331569523Y-203650295D01*
X331569523Y-203650295D02*
X331521904Y-203555057D01*
X331521904Y-203555057D02*
X331474285Y-203507438D01*
X331474285Y-203507438D02*
X331379047Y-203459819D01*
X331379047Y-203459819D02*
X331188571Y-203459819D01*
X331188571Y-203459819D02*
X331093333Y-203507438D01*
X331093333Y-203507438D02*
X331045714Y-203555057D01*
X331045714Y-203555057D02*
X330998095Y-203650295D01*
X330998095Y-203650295D02*
X330998095Y-203697914D01*
X330998095Y-203697914D02*
X331045714Y-203793152D01*
X331045714Y-203793152D02*
X331093333Y-203840771D01*
X331093333Y-203840771D02*
X331188571Y-203888390D01*
X331188571Y-203888390D02*
X331379047Y-203888390D01*
X331379047Y-203888390D02*
X331474285Y-203936009D01*
X331474285Y-203936009D02*
X331521904Y-203983628D01*
X331521904Y-203983628D02*
X331569523Y-204078866D01*
X331569523Y-204078866D02*
X331569523Y-204269342D01*
X331569523Y-204269342D02*
X331521904Y-204364580D01*
X331521904Y-204364580D02*
X331474285Y-204412200D01*
X331474285Y-204412200D02*
X331379047Y-204459819D01*
X331379047Y-204459819D02*
X331188571Y-204459819D01*
X331188571Y-204459819D02*
X331093333Y-204412200D01*
X331093333Y-204412200D02*
X331045714Y-204364580D01*
X331045714Y-204364580D02*
X330998095Y-204269342D01*
X330998095Y-204269342D02*
X330998095Y-204078866D01*
X330998095Y-204078866D02*
X331045714Y-203983628D01*
X331045714Y-203983628D02*
X331093333Y-203936009D01*
X331093333Y-203936009D02*
X331188571Y-203888390D01*
X421234580Y-184732142D02*
X421282200Y-184684523D01*
X421282200Y-184684523D02*
X421329819Y-184541666D01*
X421329819Y-184541666D02*
X421329819Y-184446428D01*
X421329819Y-184446428D02*
X421282200Y-184303571D01*
X421282200Y-184303571D02*
X421186961Y-184208333D01*
X421186961Y-184208333D02*
X421091723Y-184160714D01*
X421091723Y-184160714D02*
X420901247Y-184113095D01*
X420901247Y-184113095D02*
X420758390Y-184113095D01*
X420758390Y-184113095D02*
X420567914Y-184160714D01*
X420567914Y-184160714D02*
X420472676Y-184208333D01*
X420472676Y-184208333D02*
X420377438Y-184303571D01*
X420377438Y-184303571D02*
X420329819Y-184446428D01*
X420329819Y-184446428D02*
X420329819Y-184541666D01*
X420329819Y-184541666D02*
X420377438Y-184684523D01*
X420377438Y-184684523D02*
X420425057Y-184732142D01*
X420425057Y-185113095D02*
X420377438Y-185160714D01*
X420377438Y-185160714D02*
X420329819Y-185255952D01*
X420329819Y-185255952D02*
X420329819Y-185494047D01*
X420329819Y-185494047D02*
X420377438Y-185589285D01*
X420377438Y-185589285D02*
X420425057Y-185636904D01*
X420425057Y-185636904D02*
X420520295Y-185684523D01*
X420520295Y-185684523D02*
X420615533Y-185684523D01*
X420615533Y-185684523D02*
X420758390Y-185636904D01*
X420758390Y-185636904D02*
X421329819Y-185065476D01*
X421329819Y-185065476D02*
X421329819Y-185684523D01*
X420663152Y-186541666D02*
X421329819Y-186541666D01*
X420282200Y-186303571D02*
X420996485Y-186065476D01*
X420996485Y-186065476D02*
X420996485Y-186684523D01*
X421234580Y-204732142D02*
X421282200Y-204684523D01*
X421282200Y-204684523D02*
X421329819Y-204541666D01*
X421329819Y-204541666D02*
X421329819Y-204446428D01*
X421329819Y-204446428D02*
X421282200Y-204303571D01*
X421282200Y-204303571D02*
X421186961Y-204208333D01*
X421186961Y-204208333D02*
X421091723Y-204160714D01*
X421091723Y-204160714D02*
X420901247Y-204113095D01*
X420901247Y-204113095D02*
X420758390Y-204113095D01*
X420758390Y-204113095D02*
X420567914Y-204160714D01*
X420567914Y-204160714D02*
X420472676Y-204208333D01*
X420472676Y-204208333D02*
X420377438Y-204303571D01*
X420377438Y-204303571D02*
X420329819Y-204446428D01*
X420329819Y-204446428D02*
X420329819Y-204541666D01*
X420329819Y-204541666D02*
X420377438Y-204684523D01*
X420377438Y-204684523D02*
X420425057Y-204732142D01*
X420329819Y-205636904D02*
X420329819Y-205160714D01*
X420329819Y-205160714D02*
X420806009Y-205113095D01*
X420806009Y-205113095D02*
X420758390Y-205160714D01*
X420758390Y-205160714D02*
X420710771Y-205255952D01*
X420710771Y-205255952D02*
X420710771Y-205494047D01*
X420710771Y-205494047D02*
X420758390Y-205589285D01*
X420758390Y-205589285D02*
X420806009Y-205636904D01*
X420806009Y-205636904D02*
X420901247Y-205684523D01*
X420901247Y-205684523D02*
X421139342Y-205684523D01*
X421139342Y-205684523D02*
X421234580Y-205636904D01*
X421234580Y-205636904D02*
X421282200Y-205589285D01*
X421282200Y-205589285D02*
X421329819Y-205494047D01*
X421329819Y-205494047D02*
X421329819Y-205255952D01*
X421329819Y-205255952D02*
X421282200Y-205160714D01*
X421282200Y-205160714D02*
X421234580Y-205113095D01*
X420329819Y-206017857D02*
X420329819Y-206636904D01*
X420329819Y-206636904D02*
X420710771Y-206303571D01*
X420710771Y-206303571D02*
X420710771Y-206446428D01*
X420710771Y-206446428D02*
X420758390Y-206541666D01*
X420758390Y-206541666D02*
X420806009Y-206589285D01*
X420806009Y-206589285D02*
X420901247Y-206636904D01*
X420901247Y-206636904D02*
X421139342Y-206636904D01*
X421139342Y-206636904D02*
X421234580Y-206589285D01*
X421234580Y-206589285D02*
X421282200Y-206541666D01*
X421282200Y-206541666D02*
X421329819Y-206446428D01*
X421329819Y-206446428D02*
X421329819Y-206160714D01*
X421329819Y-206160714D02*
X421282200Y-206065476D01*
X421282200Y-206065476D02*
X421234580Y-206017857D01*
X339609580Y-214857142D02*
X339657200Y-214809523D01*
X339657200Y-214809523D02*
X339704819Y-214666666D01*
X339704819Y-214666666D02*
X339704819Y-214571428D01*
X339704819Y-214571428D02*
X339657200Y-214428571D01*
X339657200Y-214428571D02*
X339561961Y-214333333D01*
X339561961Y-214333333D02*
X339466723Y-214285714D01*
X339466723Y-214285714D02*
X339276247Y-214238095D01*
X339276247Y-214238095D02*
X339133390Y-214238095D01*
X339133390Y-214238095D02*
X338942914Y-214285714D01*
X338942914Y-214285714D02*
X338847676Y-214333333D01*
X338847676Y-214333333D02*
X338752438Y-214428571D01*
X338752438Y-214428571D02*
X338704819Y-214571428D01*
X338704819Y-214571428D02*
X338704819Y-214666666D01*
X338704819Y-214666666D02*
X338752438Y-214809523D01*
X338752438Y-214809523D02*
X338800057Y-214857142D01*
X338704819Y-215714285D02*
X338704819Y-215523809D01*
X338704819Y-215523809D02*
X338752438Y-215428571D01*
X338752438Y-215428571D02*
X338800057Y-215380952D01*
X338800057Y-215380952D02*
X338942914Y-215285714D01*
X338942914Y-215285714D02*
X339133390Y-215238095D01*
X339133390Y-215238095D02*
X339514342Y-215238095D01*
X339514342Y-215238095D02*
X339609580Y-215285714D01*
X339609580Y-215285714D02*
X339657200Y-215333333D01*
X339657200Y-215333333D02*
X339704819Y-215428571D01*
X339704819Y-215428571D02*
X339704819Y-215619047D01*
X339704819Y-215619047D02*
X339657200Y-215714285D01*
X339657200Y-215714285D02*
X339609580Y-215761904D01*
X339609580Y-215761904D02*
X339514342Y-215809523D01*
X339514342Y-215809523D02*
X339276247Y-215809523D01*
X339276247Y-215809523D02*
X339181009Y-215761904D01*
X339181009Y-215761904D02*
X339133390Y-215714285D01*
X339133390Y-215714285D02*
X339085771Y-215619047D01*
X339085771Y-215619047D02*
X339085771Y-215428571D01*
X339085771Y-215428571D02*
X339133390Y-215333333D01*
X339133390Y-215333333D02*
X339181009Y-215285714D01*
X339181009Y-215285714D02*
X339276247Y-215238095D01*
X338704819Y-216714285D02*
X338704819Y-216238095D01*
X338704819Y-216238095D02*
X339181009Y-216190476D01*
X339181009Y-216190476D02*
X339133390Y-216238095D01*
X339133390Y-216238095D02*
X339085771Y-216333333D01*
X339085771Y-216333333D02*
X339085771Y-216571428D01*
X339085771Y-216571428D02*
X339133390Y-216666666D01*
X339133390Y-216666666D02*
X339181009Y-216714285D01*
X339181009Y-216714285D02*
X339276247Y-216761904D01*
X339276247Y-216761904D02*
X339514342Y-216761904D01*
X339514342Y-216761904D02*
X339609580Y-216714285D01*
X339609580Y-216714285D02*
X339657200Y-216666666D01*
X339657200Y-216666666D02*
X339704819Y-216571428D01*
X339704819Y-216571428D02*
X339704819Y-216333333D01*
X339704819Y-216333333D02*
X339657200Y-216238095D01*
X339657200Y-216238095D02*
X339609580Y-216190476D01*
X243954819Y-232333333D02*
X243954819Y-231857143D01*
X243954819Y-231857143D02*
X242954819Y-231857143D01*
X242954819Y-232571429D02*
X242954819Y-233190476D01*
X242954819Y-233190476D02*
X243335771Y-232857143D01*
X243335771Y-232857143D02*
X243335771Y-233000000D01*
X243335771Y-233000000D02*
X243383390Y-233095238D01*
X243383390Y-233095238D02*
X243431009Y-233142857D01*
X243431009Y-233142857D02*
X243526247Y-233190476D01*
X243526247Y-233190476D02*
X243764342Y-233190476D01*
X243764342Y-233190476D02*
X243859580Y-233142857D01*
X243859580Y-233142857D02*
X243907200Y-233095238D01*
X243907200Y-233095238D02*
X243954819Y-233000000D01*
X243954819Y-233000000D02*
X243954819Y-232714286D01*
X243954819Y-232714286D02*
X243907200Y-232619048D01*
X243907200Y-232619048D02*
X243859580Y-232571429D01*
X234859580Y-230607142D02*
X234907200Y-230559523D01*
X234907200Y-230559523D02*
X234954819Y-230416666D01*
X234954819Y-230416666D02*
X234954819Y-230321428D01*
X234954819Y-230321428D02*
X234907200Y-230178571D01*
X234907200Y-230178571D02*
X234811961Y-230083333D01*
X234811961Y-230083333D02*
X234716723Y-230035714D01*
X234716723Y-230035714D02*
X234526247Y-229988095D01*
X234526247Y-229988095D02*
X234383390Y-229988095D01*
X234383390Y-229988095D02*
X234192914Y-230035714D01*
X234192914Y-230035714D02*
X234097676Y-230083333D01*
X234097676Y-230083333D02*
X234002438Y-230178571D01*
X234002438Y-230178571D02*
X233954819Y-230321428D01*
X233954819Y-230321428D02*
X233954819Y-230416666D01*
X233954819Y-230416666D02*
X234002438Y-230559523D01*
X234002438Y-230559523D02*
X234050057Y-230607142D01*
X233954819Y-231464285D02*
X233954819Y-231273809D01*
X233954819Y-231273809D02*
X234002438Y-231178571D01*
X234002438Y-231178571D02*
X234050057Y-231130952D01*
X234050057Y-231130952D02*
X234192914Y-231035714D01*
X234192914Y-231035714D02*
X234383390Y-230988095D01*
X234383390Y-230988095D02*
X234764342Y-230988095D01*
X234764342Y-230988095D02*
X234859580Y-231035714D01*
X234859580Y-231035714D02*
X234907200Y-231083333D01*
X234907200Y-231083333D02*
X234954819Y-231178571D01*
X234954819Y-231178571D02*
X234954819Y-231369047D01*
X234954819Y-231369047D02*
X234907200Y-231464285D01*
X234907200Y-231464285D02*
X234859580Y-231511904D01*
X234859580Y-231511904D02*
X234764342Y-231559523D01*
X234764342Y-231559523D02*
X234526247Y-231559523D01*
X234526247Y-231559523D02*
X234431009Y-231511904D01*
X234431009Y-231511904D02*
X234383390Y-231464285D01*
X234383390Y-231464285D02*
X234335771Y-231369047D01*
X234335771Y-231369047D02*
X234335771Y-231178571D01*
X234335771Y-231178571D02*
X234383390Y-231083333D01*
X234383390Y-231083333D02*
X234431009Y-231035714D01*
X234431009Y-231035714D02*
X234526247Y-230988095D01*
X234383390Y-232130952D02*
X234335771Y-232035714D01*
X234335771Y-232035714D02*
X234288152Y-231988095D01*
X234288152Y-231988095D02*
X234192914Y-231940476D01*
X234192914Y-231940476D02*
X234145295Y-231940476D01*
X234145295Y-231940476D02*
X234050057Y-231988095D01*
X234050057Y-231988095D02*
X234002438Y-232035714D01*
X234002438Y-232035714D02*
X233954819Y-232130952D01*
X233954819Y-232130952D02*
X233954819Y-232321428D01*
X233954819Y-232321428D02*
X234002438Y-232416666D01*
X234002438Y-232416666D02*
X234050057Y-232464285D01*
X234050057Y-232464285D02*
X234145295Y-232511904D01*
X234145295Y-232511904D02*
X234192914Y-232511904D01*
X234192914Y-232511904D02*
X234288152Y-232464285D01*
X234288152Y-232464285D02*
X234335771Y-232416666D01*
X234335771Y-232416666D02*
X234383390Y-232321428D01*
X234383390Y-232321428D02*
X234383390Y-232130952D01*
X234383390Y-232130952D02*
X234431009Y-232035714D01*
X234431009Y-232035714D02*
X234478628Y-231988095D01*
X234478628Y-231988095D02*
X234573866Y-231940476D01*
X234573866Y-231940476D02*
X234764342Y-231940476D01*
X234764342Y-231940476D02*
X234859580Y-231988095D01*
X234859580Y-231988095D02*
X234907200Y-232035714D01*
X234907200Y-232035714D02*
X234954819Y-232130952D01*
X234954819Y-232130952D02*
X234954819Y-232321428D01*
X234954819Y-232321428D02*
X234907200Y-232416666D01*
X234907200Y-232416666D02*
X234859580Y-232464285D01*
X234859580Y-232464285D02*
X234764342Y-232511904D01*
X234764342Y-232511904D02*
X234573866Y-232511904D01*
X234573866Y-232511904D02*
X234478628Y-232464285D01*
X234478628Y-232464285D02*
X234431009Y-232416666D01*
X234431009Y-232416666D02*
X234383390Y-232321428D01*
X445642857Y-184204819D02*
X445976190Y-183728628D01*
X446214285Y-184204819D02*
X446214285Y-183204819D01*
X446214285Y-183204819D02*
X445833333Y-183204819D01*
X445833333Y-183204819D02*
X445738095Y-183252438D01*
X445738095Y-183252438D02*
X445690476Y-183300057D01*
X445690476Y-183300057D02*
X445642857Y-183395295D01*
X445642857Y-183395295D02*
X445642857Y-183538152D01*
X445642857Y-183538152D02*
X445690476Y-183633390D01*
X445690476Y-183633390D02*
X445738095Y-183681009D01*
X445738095Y-183681009D02*
X445833333Y-183728628D01*
X445833333Y-183728628D02*
X446214285Y-183728628D01*
X445261904Y-183300057D02*
X445214285Y-183252438D01*
X445214285Y-183252438D02*
X445119047Y-183204819D01*
X445119047Y-183204819D02*
X444880952Y-183204819D01*
X444880952Y-183204819D02*
X444785714Y-183252438D01*
X444785714Y-183252438D02*
X444738095Y-183300057D01*
X444738095Y-183300057D02*
X444690476Y-183395295D01*
X444690476Y-183395295D02*
X444690476Y-183490533D01*
X444690476Y-183490533D02*
X444738095Y-183633390D01*
X444738095Y-183633390D02*
X445309523Y-184204819D01*
X445309523Y-184204819D02*
X444690476Y-184204819D01*
X444357142Y-183204819D02*
X443690476Y-183204819D01*
X443690476Y-183204819D02*
X444119047Y-184204819D01*
X435619047Y-223704819D02*
X435952380Y-223228628D01*
X436190475Y-223704819D02*
X436190475Y-222704819D01*
X436190475Y-222704819D02*
X435809523Y-222704819D01*
X435809523Y-222704819D02*
X435714285Y-222752438D01*
X435714285Y-222752438D02*
X435666666Y-222800057D01*
X435666666Y-222800057D02*
X435619047Y-222895295D01*
X435619047Y-222895295D02*
X435619047Y-223038152D01*
X435619047Y-223038152D02*
X435666666Y-223133390D01*
X435666666Y-223133390D02*
X435714285Y-223181009D01*
X435714285Y-223181009D02*
X435809523Y-223228628D01*
X435809523Y-223228628D02*
X436190475Y-223228628D01*
X434666666Y-223704819D02*
X435238094Y-223704819D01*
X434952380Y-223704819D02*
X434952380Y-222704819D01*
X434952380Y-222704819D02*
X435047618Y-222847676D01*
X435047618Y-222847676D02*
X435142856Y-222942914D01*
X435142856Y-222942914D02*
X435238094Y-222990533D01*
X434333332Y-222704819D02*
X433714285Y-222704819D01*
X433714285Y-222704819D02*
X434047618Y-223085771D01*
X434047618Y-223085771D02*
X433904761Y-223085771D01*
X433904761Y-223085771D02*
X433809523Y-223133390D01*
X433809523Y-223133390D02*
X433761904Y-223181009D01*
X433761904Y-223181009D02*
X433714285Y-223276247D01*
X433714285Y-223276247D02*
X433714285Y-223514342D01*
X433714285Y-223514342D02*
X433761904Y-223609580D01*
X433761904Y-223609580D02*
X433809523Y-223657200D01*
X433809523Y-223657200D02*
X433904761Y-223704819D01*
X433904761Y-223704819D02*
X434190475Y-223704819D01*
X434190475Y-223704819D02*
X434285713Y-223657200D01*
X434285713Y-223657200D02*
X434333332Y-223609580D01*
X433333332Y-222800057D02*
X433285713Y-222752438D01*
X433285713Y-222752438D02*
X433190475Y-222704819D01*
X433190475Y-222704819D02*
X432952380Y-222704819D01*
X432952380Y-222704819D02*
X432857142Y-222752438D01*
X432857142Y-222752438D02*
X432809523Y-222800057D01*
X432809523Y-222800057D02*
X432761904Y-222895295D01*
X432761904Y-222895295D02*
X432761904Y-222990533D01*
X432761904Y-222990533D02*
X432809523Y-223133390D01*
X432809523Y-223133390D02*
X433380951Y-223704819D01*
X433380951Y-223704819D02*
X432761904Y-223704819D01*
X421234580Y-224732142D02*
X421282200Y-224684523D01*
X421282200Y-224684523D02*
X421329819Y-224541666D01*
X421329819Y-224541666D02*
X421329819Y-224446428D01*
X421329819Y-224446428D02*
X421282200Y-224303571D01*
X421282200Y-224303571D02*
X421186961Y-224208333D01*
X421186961Y-224208333D02*
X421091723Y-224160714D01*
X421091723Y-224160714D02*
X420901247Y-224113095D01*
X420901247Y-224113095D02*
X420758390Y-224113095D01*
X420758390Y-224113095D02*
X420567914Y-224160714D01*
X420567914Y-224160714D02*
X420472676Y-224208333D01*
X420472676Y-224208333D02*
X420377438Y-224303571D01*
X420377438Y-224303571D02*
X420329819Y-224446428D01*
X420329819Y-224446428D02*
X420329819Y-224541666D01*
X420329819Y-224541666D02*
X420377438Y-224684523D01*
X420377438Y-224684523D02*
X420425057Y-224732142D01*
X420329819Y-225589285D02*
X420329819Y-225398809D01*
X420329819Y-225398809D02*
X420377438Y-225303571D01*
X420377438Y-225303571D02*
X420425057Y-225255952D01*
X420425057Y-225255952D02*
X420567914Y-225160714D01*
X420567914Y-225160714D02*
X420758390Y-225113095D01*
X420758390Y-225113095D02*
X421139342Y-225113095D01*
X421139342Y-225113095D02*
X421234580Y-225160714D01*
X421234580Y-225160714D02*
X421282200Y-225208333D01*
X421282200Y-225208333D02*
X421329819Y-225303571D01*
X421329819Y-225303571D02*
X421329819Y-225494047D01*
X421329819Y-225494047D02*
X421282200Y-225589285D01*
X421282200Y-225589285D02*
X421234580Y-225636904D01*
X421234580Y-225636904D02*
X421139342Y-225684523D01*
X421139342Y-225684523D02*
X420901247Y-225684523D01*
X420901247Y-225684523D02*
X420806009Y-225636904D01*
X420806009Y-225636904D02*
X420758390Y-225589285D01*
X420758390Y-225589285D02*
X420710771Y-225494047D01*
X420710771Y-225494047D02*
X420710771Y-225303571D01*
X420710771Y-225303571D02*
X420758390Y-225208333D01*
X420758390Y-225208333D02*
X420806009Y-225160714D01*
X420806009Y-225160714D02*
X420901247Y-225113095D01*
X420329819Y-226017857D02*
X420329819Y-226636904D01*
X420329819Y-226636904D02*
X420710771Y-226303571D01*
X420710771Y-226303571D02*
X420710771Y-226446428D01*
X420710771Y-226446428D02*
X420758390Y-226541666D01*
X420758390Y-226541666D02*
X420806009Y-226589285D01*
X420806009Y-226589285D02*
X420901247Y-226636904D01*
X420901247Y-226636904D02*
X421139342Y-226636904D01*
X421139342Y-226636904D02*
X421234580Y-226589285D01*
X421234580Y-226589285D02*
X421282200Y-226541666D01*
X421282200Y-226541666D02*
X421329819Y-226446428D01*
X421329819Y-226446428D02*
X421329819Y-226160714D01*
X421329819Y-226160714D02*
X421282200Y-226065476D01*
X421282200Y-226065476D02*
X421234580Y-226017857D01*
X429854819Y-170857142D02*
X429378628Y-170523809D01*
X429854819Y-170285714D02*
X428854819Y-170285714D01*
X428854819Y-170285714D02*
X428854819Y-170666666D01*
X428854819Y-170666666D02*
X428902438Y-170761904D01*
X428902438Y-170761904D02*
X428950057Y-170809523D01*
X428950057Y-170809523D02*
X429045295Y-170857142D01*
X429045295Y-170857142D02*
X429188152Y-170857142D01*
X429188152Y-170857142D02*
X429283390Y-170809523D01*
X429283390Y-170809523D02*
X429331009Y-170761904D01*
X429331009Y-170761904D02*
X429378628Y-170666666D01*
X429378628Y-170666666D02*
X429378628Y-170285714D01*
X428854819Y-171761904D02*
X428854819Y-171285714D01*
X428854819Y-171285714D02*
X429331009Y-171238095D01*
X429331009Y-171238095D02*
X429283390Y-171285714D01*
X429283390Y-171285714D02*
X429235771Y-171380952D01*
X429235771Y-171380952D02*
X429235771Y-171619047D01*
X429235771Y-171619047D02*
X429283390Y-171714285D01*
X429283390Y-171714285D02*
X429331009Y-171761904D01*
X429331009Y-171761904D02*
X429426247Y-171809523D01*
X429426247Y-171809523D02*
X429664342Y-171809523D01*
X429664342Y-171809523D02*
X429759580Y-171761904D01*
X429759580Y-171761904D02*
X429807200Y-171714285D01*
X429807200Y-171714285D02*
X429854819Y-171619047D01*
X429854819Y-171619047D02*
X429854819Y-171380952D01*
X429854819Y-171380952D02*
X429807200Y-171285714D01*
X429807200Y-171285714D02*
X429759580Y-171238095D01*
X428950057Y-172190476D02*
X428902438Y-172238095D01*
X428902438Y-172238095D02*
X428854819Y-172333333D01*
X428854819Y-172333333D02*
X428854819Y-172571428D01*
X428854819Y-172571428D02*
X428902438Y-172666666D01*
X428902438Y-172666666D02*
X428950057Y-172714285D01*
X428950057Y-172714285D02*
X429045295Y-172761904D01*
X429045295Y-172761904D02*
X429140533Y-172761904D01*
X429140533Y-172761904D02*
X429283390Y-172714285D01*
X429283390Y-172714285D02*
X429854819Y-172142857D01*
X429854819Y-172142857D02*
X429854819Y-172761904D01*
X427234580Y-224732142D02*
X427282200Y-224684523D01*
X427282200Y-224684523D02*
X427329819Y-224541666D01*
X427329819Y-224541666D02*
X427329819Y-224446428D01*
X427329819Y-224446428D02*
X427282200Y-224303571D01*
X427282200Y-224303571D02*
X427186961Y-224208333D01*
X427186961Y-224208333D02*
X427091723Y-224160714D01*
X427091723Y-224160714D02*
X426901247Y-224113095D01*
X426901247Y-224113095D02*
X426758390Y-224113095D01*
X426758390Y-224113095D02*
X426567914Y-224160714D01*
X426567914Y-224160714D02*
X426472676Y-224208333D01*
X426472676Y-224208333D02*
X426377438Y-224303571D01*
X426377438Y-224303571D02*
X426329819Y-224446428D01*
X426329819Y-224446428D02*
X426329819Y-224541666D01*
X426329819Y-224541666D02*
X426377438Y-224684523D01*
X426377438Y-224684523D02*
X426425057Y-224732142D01*
X426329819Y-225589285D02*
X426329819Y-225398809D01*
X426329819Y-225398809D02*
X426377438Y-225303571D01*
X426377438Y-225303571D02*
X426425057Y-225255952D01*
X426425057Y-225255952D02*
X426567914Y-225160714D01*
X426567914Y-225160714D02*
X426758390Y-225113095D01*
X426758390Y-225113095D02*
X427139342Y-225113095D01*
X427139342Y-225113095D02*
X427234580Y-225160714D01*
X427234580Y-225160714D02*
X427282200Y-225208333D01*
X427282200Y-225208333D02*
X427329819Y-225303571D01*
X427329819Y-225303571D02*
X427329819Y-225494047D01*
X427329819Y-225494047D02*
X427282200Y-225589285D01*
X427282200Y-225589285D02*
X427234580Y-225636904D01*
X427234580Y-225636904D02*
X427139342Y-225684523D01*
X427139342Y-225684523D02*
X426901247Y-225684523D01*
X426901247Y-225684523D02*
X426806009Y-225636904D01*
X426806009Y-225636904D02*
X426758390Y-225589285D01*
X426758390Y-225589285D02*
X426710771Y-225494047D01*
X426710771Y-225494047D02*
X426710771Y-225303571D01*
X426710771Y-225303571D02*
X426758390Y-225208333D01*
X426758390Y-225208333D02*
X426806009Y-225160714D01*
X426806009Y-225160714D02*
X426901247Y-225113095D01*
X426425057Y-226065476D02*
X426377438Y-226113095D01*
X426377438Y-226113095D02*
X426329819Y-226208333D01*
X426329819Y-226208333D02*
X426329819Y-226446428D01*
X426329819Y-226446428D02*
X426377438Y-226541666D01*
X426377438Y-226541666D02*
X426425057Y-226589285D01*
X426425057Y-226589285D02*
X426520295Y-226636904D01*
X426520295Y-226636904D02*
X426615533Y-226636904D01*
X426615533Y-226636904D02*
X426758390Y-226589285D01*
X426758390Y-226589285D02*
X427329819Y-226017857D01*
X427329819Y-226017857D02*
X427329819Y-226636904D01*
X301099585Y-229857142D02*
X301147205Y-229809523D01*
X301147205Y-229809523D02*
X301194824Y-229666666D01*
X301194824Y-229666666D02*
X301194824Y-229571428D01*
X301194824Y-229571428D02*
X301147205Y-229428571D01*
X301147205Y-229428571D02*
X301051966Y-229333333D01*
X301051966Y-229333333D02*
X300956728Y-229285714D01*
X300956728Y-229285714D02*
X300766252Y-229238095D01*
X300766252Y-229238095D02*
X300623395Y-229238095D01*
X300623395Y-229238095D02*
X300432919Y-229285714D01*
X300432919Y-229285714D02*
X300337681Y-229333333D01*
X300337681Y-229333333D02*
X300242443Y-229428571D01*
X300242443Y-229428571D02*
X300194824Y-229571428D01*
X300194824Y-229571428D02*
X300194824Y-229666666D01*
X300194824Y-229666666D02*
X300242443Y-229809523D01*
X300242443Y-229809523D02*
X300290062Y-229857142D01*
X300623395Y-230428571D02*
X300575776Y-230333333D01*
X300575776Y-230333333D02*
X300528157Y-230285714D01*
X300528157Y-230285714D02*
X300432919Y-230238095D01*
X300432919Y-230238095D02*
X300385300Y-230238095D01*
X300385300Y-230238095D02*
X300290062Y-230285714D01*
X300290062Y-230285714D02*
X300242443Y-230333333D01*
X300242443Y-230333333D02*
X300194824Y-230428571D01*
X300194824Y-230428571D02*
X300194824Y-230619047D01*
X300194824Y-230619047D02*
X300242443Y-230714285D01*
X300242443Y-230714285D02*
X300290062Y-230761904D01*
X300290062Y-230761904D02*
X300385300Y-230809523D01*
X300385300Y-230809523D02*
X300432919Y-230809523D01*
X300432919Y-230809523D02*
X300528157Y-230761904D01*
X300528157Y-230761904D02*
X300575776Y-230714285D01*
X300575776Y-230714285D02*
X300623395Y-230619047D01*
X300623395Y-230619047D02*
X300623395Y-230428571D01*
X300623395Y-230428571D02*
X300671014Y-230333333D01*
X300671014Y-230333333D02*
X300718633Y-230285714D01*
X300718633Y-230285714D02*
X300813871Y-230238095D01*
X300813871Y-230238095D02*
X301004347Y-230238095D01*
X301004347Y-230238095D02*
X301099585Y-230285714D01*
X301099585Y-230285714D02*
X301147205Y-230333333D01*
X301147205Y-230333333D02*
X301194824Y-230428571D01*
X301194824Y-230428571D02*
X301194824Y-230619047D01*
X301194824Y-230619047D02*
X301147205Y-230714285D01*
X301147205Y-230714285D02*
X301099585Y-230761904D01*
X301099585Y-230761904D02*
X301004347Y-230809523D01*
X301004347Y-230809523D02*
X300813871Y-230809523D01*
X300813871Y-230809523D02*
X300718633Y-230761904D01*
X300718633Y-230761904D02*
X300671014Y-230714285D01*
X300671014Y-230714285D02*
X300623395Y-230619047D01*
X300194824Y-231142857D02*
X300194824Y-231761904D01*
X300194824Y-231761904D02*
X300575776Y-231428571D01*
X300575776Y-231428571D02*
X300575776Y-231571428D01*
X300575776Y-231571428D02*
X300623395Y-231666666D01*
X300623395Y-231666666D02*
X300671014Y-231714285D01*
X300671014Y-231714285D02*
X300766252Y-231761904D01*
X300766252Y-231761904D02*
X301004347Y-231761904D01*
X301004347Y-231761904D02*
X301099585Y-231714285D01*
X301099585Y-231714285D02*
X301147205Y-231666666D01*
X301147205Y-231666666D02*
X301194824Y-231571428D01*
X301194824Y-231571428D02*
X301194824Y-231285714D01*
X301194824Y-231285714D02*
X301147205Y-231190476D01*
X301147205Y-231190476D02*
X301099585Y-231142857D01*
X429484580Y-184732142D02*
X429532200Y-184684523D01*
X429532200Y-184684523D02*
X429579819Y-184541666D01*
X429579819Y-184541666D02*
X429579819Y-184446428D01*
X429579819Y-184446428D02*
X429532200Y-184303571D01*
X429532200Y-184303571D02*
X429436961Y-184208333D01*
X429436961Y-184208333D02*
X429341723Y-184160714D01*
X429341723Y-184160714D02*
X429151247Y-184113095D01*
X429151247Y-184113095D02*
X429008390Y-184113095D01*
X429008390Y-184113095D02*
X428817914Y-184160714D01*
X428817914Y-184160714D02*
X428722676Y-184208333D01*
X428722676Y-184208333D02*
X428627438Y-184303571D01*
X428627438Y-184303571D02*
X428579819Y-184446428D01*
X428579819Y-184446428D02*
X428579819Y-184541666D01*
X428579819Y-184541666D02*
X428627438Y-184684523D01*
X428627438Y-184684523D02*
X428675057Y-184732142D01*
X428675057Y-185113095D02*
X428627438Y-185160714D01*
X428627438Y-185160714D02*
X428579819Y-185255952D01*
X428579819Y-185255952D02*
X428579819Y-185494047D01*
X428579819Y-185494047D02*
X428627438Y-185589285D01*
X428627438Y-185589285D02*
X428675057Y-185636904D01*
X428675057Y-185636904D02*
X428770295Y-185684523D01*
X428770295Y-185684523D02*
X428865533Y-185684523D01*
X428865533Y-185684523D02*
X429008390Y-185636904D01*
X429008390Y-185636904D02*
X429579819Y-185065476D01*
X429579819Y-185065476D02*
X429579819Y-185684523D01*
X428675057Y-186065476D02*
X428627438Y-186113095D01*
X428627438Y-186113095D02*
X428579819Y-186208333D01*
X428579819Y-186208333D02*
X428579819Y-186446428D01*
X428579819Y-186446428D02*
X428627438Y-186541666D01*
X428627438Y-186541666D02*
X428675057Y-186589285D01*
X428675057Y-186589285D02*
X428770295Y-186636904D01*
X428770295Y-186636904D02*
X428865533Y-186636904D01*
X428865533Y-186636904D02*
X429008390Y-186589285D01*
X429008390Y-186589285D02*
X429579819Y-186017857D01*
X429579819Y-186017857D02*
X429579819Y-186636904D01*
X359142857Y-240954819D02*
X359476190Y-240478628D01*
X359714285Y-240954819D02*
X359714285Y-239954819D01*
X359714285Y-239954819D02*
X359333333Y-239954819D01*
X359333333Y-239954819D02*
X359238095Y-240002438D01*
X359238095Y-240002438D02*
X359190476Y-240050057D01*
X359190476Y-240050057D02*
X359142857Y-240145295D01*
X359142857Y-240145295D02*
X359142857Y-240288152D01*
X359142857Y-240288152D02*
X359190476Y-240383390D01*
X359190476Y-240383390D02*
X359238095Y-240431009D01*
X359238095Y-240431009D02*
X359333333Y-240478628D01*
X359333333Y-240478628D02*
X359714285Y-240478628D01*
X358571428Y-240383390D02*
X358666666Y-240335771D01*
X358666666Y-240335771D02*
X358714285Y-240288152D01*
X358714285Y-240288152D02*
X358761904Y-240192914D01*
X358761904Y-240192914D02*
X358761904Y-240145295D01*
X358761904Y-240145295D02*
X358714285Y-240050057D01*
X358714285Y-240050057D02*
X358666666Y-240002438D01*
X358666666Y-240002438D02*
X358571428Y-239954819D01*
X358571428Y-239954819D02*
X358380952Y-239954819D01*
X358380952Y-239954819D02*
X358285714Y-240002438D01*
X358285714Y-240002438D02*
X358238095Y-240050057D01*
X358238095Y-240050057D02*
X358190476Y-240145295D01*
X358190476Y-240145295D02*
X358190476Y-240192914D01*
X358190476Y-240192914D02*
X358238095Y-240288152D01*
X358238095Y-240288152D02*
X358285714Y-240335771D01*
X358285714Y-240335771D02*
X358380952Y-240383390D01*
X358380952Y-240383390D02*
X358571428Y-240383390D01*
X358571428Y-240383390D02*
X358666666Y-240431009D01*
X358666666Y-240431009D02*
X358714285Y-240478628D01*
X358714285Y-240478628D02*
X358761904Y-240573866D01*
X358761904Y-240573866D02*
X358761904Y-240764342D01*
X358761904Y-240764342D02*
X358714285Y-240859580D01*
X358714285Y-240859580D02*
X358666666Y-240907200D01*
X358666666Y-240907200D02*
X358571428Y-240954819D01*
X358571428Y-240954819D02*
X358380952Y-240954819D01*
X358380952Y-240954819D02*
X358285714Y-240907200D01*
X358285714Y-240907200D02*
X358238095Y-240859580D01*
X358238095Y-240859580D02*
X358190476Y-240764342D01*
X358190476Y-240764342D02*
X358190476Y-240573866D01*
X358190476Y-240573866D02*
X358238095Y-240478628D01*
X358238095Y-240478628D02*
X358285714Y-240431009D01*
X358285714Y-240431009D02*
X358380952Y-240383390D01*
X357714285Y-240954819D02*
X357523809Y-240954819D01*
X357523809Y-240954819D02*
X357428571Y-240907200D01*
X357428571Y-240907200D02*
X357380952Y-240859580D01*
X357380952Y-240859580D02*
X357285714Y-240716723D01*
X357285714Y-240716723D02*
X357238095Y-240526247D01*
X357238095Y-240526247D02*
X357238095Y-240145295D01*
X357238095Y-240145295D02*
X357285714Y-240050057D01*
X357285714Y-240050057D02*
X357333333Y-240002438D01*
X357333333Y-240002438D02*
X357428571Y-239954819D01*
X357428571Y-239954819D02*
X357619047Y-239954819D01*
X357619047Y-239954819D02*
X357714285Y-240002438D01*
X357714285Y-240002438D02*
X357761904Y-240050057D01*
X357761904Y-240050057D02*
X357809523Y-240145295D01*
X357809523Y-240145295D02*
X357809523Y-240383390D01*
X357809523Y-240383390D02*
X357761904Y-240478628D01*
X357761904Y-240478628D02*
X357714285Y-240526247D01*
X357714285Y-240526247D02*
X357619047Y-240573866D01*
X357619047Y-240573866D02*
X357428571Y-240573866D01*
X357428571Y-240573866D02*
X357333333Y-240526247D01*
X357333333Y-240526247D02*
X357285714Y-240478628D01*
X357285714Y-240478628D02*
X357238095Y-240383390D01*
X353609580Y-230536142D02*
X353657200Y-230488523D01*
X353657200Y-230488523D02*
X353704819Y-230345666D01*
X353704819Y-230345666D02*
X353704819Y-230250428D01*
X353704819Y-230250428D02*
X353657200Y-230107571D01*
X353657200Y-230107571D02*
X353561961Y-230012333D01*
X353561961Y-230012333D02*
X353466723Y-229964714D01*
X353466723Y-229964714D02*
X353276247Y-229917095D01*
X353276247Y-229917095D02*
X353133390Y-229917095D01*
X353133390Y-229917095D02*
X352942914Y-229964714D01*
X352942914Y-229964714D02*
X352847676Y-230012333D01*
X352847676Y-230012333D02*
X352752438Y-230107571D01*
X352752438Y-230107571D02*
X352704819Y-230250428D01*
X352704819Y-230250428D02*
X352704819Y-230345666D01*
X352704819Y-230345666D02*
X352752438Y-230488523D01*
X352752438Y-230488523D02*
X352800057Y-230536142D01*
X353704819Y-231488523D02*
X353704819Y-230917095D01*
X353704819Y-231202809D02*
X352704819Y-231202809D01*
X352704819Y-231202809D02*
X352847676Y-231107571D01*
X352847676Y-231107571D02*
X352942914Y-231012333D01*
X352942914Y-231012333D02*
X352990533Y-230917095D01*
X353038152Y-232345666D02*
X353704819Y-232345666D01*
X352657200Y-232107571D02*
X353371485Y-231869476D01*
X353371485Y-231869476D02*
X353371485Y-232488523D01*
X328470362Y-245209580D02*
X328517981Y-245257200D01*
X328517981Y-245257200D02*
X328660838Y-245304819D01*
X328660838Y-245304819D02*
X328756076Y-245304819D01*
X328756076Y-245304819D02*
X328898933Y-245257200D01*
X328898933Y-245257200D02*
X328994171Y-245161961D01*
X328994171Y-245161961D02*
X329041790Y-245066723D01*
X329041790Y-245066723D02*
X329089409Y-244876247D01*
X329089409Y-244876247D02*
X329089409Y-244733390D01*
X329089409Y-244733390D02*
X329041790Y-244542914D01*
X329041790Y-244542914D02*
X328994171Y-244447676D01*
X328994171Y-244447676D02*
X328898933Y-244352438D01*
X328898933Y-244352438D02*
X328756076Y-244304819D01*
X328756076Y-244304819D02*
X328660838Y-244304819D01*
X328660838Y-244304819D02*
X328517981Y-244352438D01*
X328517981Y-244352438D02*
X328470362Y-244400057D01*
X327994171Y-245304819D02*
X327803695Y-245304819D01*
X327803695Y-245304819D02*
X327708457Y-245257200D01*
X327708457Y-245257200D02*
X327660838Y-245209580D01*
X327660838Y-245209580D02*
X327565600Y-245066723D01*
X327565600Y-245066723D02*
X327517981Y-244876247D01*
X327517981Y-244876247D02*
X327517981Y-244495295D01*
X327517981Y-244495295D02*
X327565600Y-244400057D01*
X327565600Y-244400057D02*
X327613219Y-244352438D01*
X327613219Y-244352438D02*
X327708457Y-244304819D01*
X327708457Y-244304819D02*
X327898933Y-244304819D01*
X327898933Y-244304819D02*
X327994171Y-244352438D01*
X327994171Y-244352438D02*
X328041790Y-244400057D01*
X328041790Y-244400057D02*
X328089409Y-244495295D01*
X328089409Y-244495295D02*
X328089409Y-244733390D01*
X328089409Y-244733390D02*
X328041790Y-244828628D01*
X328041790Y-244828628D02*
X327994171Y-244876247D01*
X327994171Y-244876247D02*
X327898933Y-244923866D01*
X327898933Y-244923866D02*
X327708457Y-244923866D01*
X327708457Y-244923866D02*
X327613219Y-244876247D01*
X327613219Y-244876247D02*
X327565600Y-244828628D01*
X327565600Y-244828628D02*
X327517981Y-244733390D01*
X327137028Y-244400057D02*
X327089409Y-244352438D01*
X327089409Y-244352438D02*
X326994171Y-244304819D01*
X326994171Y-244304819D02*
X326756076Y-244304819D01*
X326756076Y-244304819D02*
X326660838Y-244352438D01*
X326660838Y-244352438D02*
X326613219Y-244400057D01*
X326613219Y-244400057D02*
X326565600Y-244495295D01*
X326565600Y-244495295D02*
X326565600Y-244590533D01*
X326565600Y-244590533D02*
X326613219Y-244733390D01*
X326613219Y-244733390D02*
X327184647Y-245304819D01*
X327184647Y-245304819D02*
X326565600Y-245304819D01*
X243859580Y-229107142D02*
X243907200Y-229059523D01*
X243907200Y-229059523D02*
X243954819Y-228916666D01*
X243954819Y-228916666D02*
X243954819Y-228821428D01*
X243954819Y-228821428D02*
X243907200Y-228678571D01*
X243907200Y-228678571D02*
X243811961Y-228583333D01*
X243811961Y-228583333D02*
X243716723Y-228535714D01*
X243716723Y-228535714D02*
X243526247Y-228488095D01*
X243526247Y-228488095D02*
X243383390Y-228488095D01*
X243383390Y-228488095D02*
X243192914Y-228535714D01*
X243192914Y-228535714D02*
X243097676Y-228583333D01*
X243097676Y-228583333D02*
X243002438Y-228678571D01*
X243002438Y-228678571D02*
X242954819Y-228821428D01*
X242954819Y-228821428D02*
X242954819Y-228916666D01*
X242954819Y-228916666D02*
X243002438Y-229059523D01*
X243002438Y-229059523D02*
X243050057Y-229107142D01*
X242954819Y-229964285D02*
X242954819Y-229773809D01*
X242954819Y-229773809D02*
X243002438Y-229678571D01*
X243002438Y-229678571D02*
X243050057Y-229630952D01*
X243050057Y-229630952D02*
X243192914Y-229535714D01*
X243192914Y-229535714D02*
X243383390Y-229488095D01*
X243383390Y-229488095D02*
X243764342Y-229488095D01*
X243764342Y-229488095D02*
X243859580Y-229535714D01*
X243859580Y-229535714D02*
X243907200Y-229583333D01*
X243907200Y-229583333D02*
X243954819Y-229678571D01*
X243954819Y-229678571D02*
X243954819Y-229869047D01*
X243954819Y-229869047D02*
X243907200Y-229964285D01*
X243907200Y-229964285D02*
X243859580Y-230011904D01*
X243859580Y-230011904D02*
X243764342Y-230059523D01*
X243764342Y-230059523D02*
X243526247Y-230059523D01*
X243526247Y-230059523D02*
X243431009Y-230011904D01*
X243431009Y-230011904D02*
X243383390Y-229964285D01*
X243383390Y-229964285D02*
X243335771Y-229869047D01*
X243335771Y-229869047D02*
X243335771Y-229678571D01*
X243335771Y-229678571D02*
X243383390Y-229583333D01*
X243383390Y-229583333D02*
X243431009Y-229535714D01*
X243431009Y-229535714D02*
X243526247Y-229488095D01*
X243954819Y-230535714D02*
X243954819Y-230726190D01*
X243954819Y-230726190D02*
X243907200Y-230821428D01*
X243907200Y-230821428D02*
X243859580Y-230869047D01*
X243859580Y-230869047D02*
X243716723Y-230964285D01*
X243716723Y-230964285D02*
X243526247Y-231011904D01*
X243526247Y-231011904D02*
X243145295Y-231011904D01*
X243145295Y-231011904D02*
X243050057Y-230964285D01*
X243050057Y-230964285D02*
X243002438Y-230916666D01*
X243002438Y-230916666D02*
X242954819Y-230821428D01*
X242954819Y-230821428D02*
X242954819Y-230630952D01*
X242954819Y-230630952D02*
X243002438Y-230535714D01*
X243002438Y-230535714D02*
X243050057Y-230488095D01*
X243050057Y-230488095D02*
X243145295Y-230440476D01*
X243145295Y-230440476D02*
X243383390Y-230440476D01*
X243383390Y-230440476D02*
X243478628Y-230488095D01*
X243478628Y-230488095D02*
X243526247Y-230535714D01*
X243526247Y-230535714D02*
X243573866Y-230630952D01*
X243573866Y-230630952D02*
X243573866Y-230821428D01*
X243573866Y-230821428D02*
X243526247Y-230916666D01*
X243526247Y-230916666D02*
X243478628Y-230964285D01*
X243478628Y-230964285D02*
X243383390Y-231011904D01*
X341869580Y-198357142D02*
X341917200Y-198309523D01*
X341917200Y-198309523D02*
X341964819Y-198166666D01*
X341964819Y-198166666D02*
X341964819Y-198071428D01*
X341964819Y-198071428D02*
X341917200Y-197928571D01*
X341917200Y-197928571D02*
X341821961Y-197833333D01*
X341821961Y-197833333D02*
X341726723Y-197785714D01*
X341726723Y-197785714D02*
X341536247Y-197738095D01*
X341536247Y-197738095D02*
X341393390Y-197738095D01*
X341393390Y-197738095D02*
X341202914Y-197785714D01*
X341202914Y-197785714D02*
X341107676Y-197833333D01*
X341107676Y-197833333D02*
X341012438Y-197928571D01*
X341012438Y-197928571D02*
X340964819Y-198071428D01*
X340964819Y-198071428D02*
X340964819Y-198166666D01*
X340964819Y-198166666D02*
X341012438Y-198309523D01*
X341012438Y-198309523D02*
X341060057Y-198357142D01*
X341964819Y-199309523D02*
X341964819Y-198738095D01*
X341964819Y-199023809D02*
X340964819Y-199023809D01*
X340964819Y-199023809D02*
X341107676Y-198928571D01*
X341107676Y-198928571D02*
X341202914Y-198833333D01*
X341202914Y-198833333D02*
X341250533Y-198738095D01*
X340964819Y-199642857D02*
X340964819Y-200309523D01*
X340964819Y-200309523D02*
X341964819Y-199880952D01*
X435142857Y-183704819D02*
X435476190Y-183228628D01*
X435714285Y-183704819D02*
X435714285Y-182704819D01*
X435714285Y-182704819D02*
X435333333Y-182704819D01*
X435333333Y-182704819D02*
X435238095Y-182752438D01*
X435238095Y-182752438D02*
X435190476Y-182800057D01*
X435190476Y-182800057D02*
X435142857Y-182895295D01*
X435142857Y-182895295D02*
X435142857Y-183038152D01*
X435142857Y-183038152D02*
X435190476Y-183133390D01*
X435190476Y-183133390D02*
X435238095Y-183181009D01*
X435238095Y-183181009D02*
X435333333Y-183228628D01*
X435333333Y-183228628D02*
X435714285Y-183228628D01*
X434761904Y-182800057D02*
X434714285Y-182752438D01*
X434714285Y-182752438D02*
X434619047Y-182704819D01*
X434619047Y-182704819D02*
X434380952Y-182704819D01*
X434380952Y-182704819D02*
X434285714Y-182752438D01*
X434285714Y-182752438D02*
X434238095Y-182800057D01*
X434238095Y-182800057D02*
X434190476Y-182895295D01*
X434190476Y-182895295D02*
X434190476Y-182990533D01*
X434190476Y-182990533D02*
X434238095Y-183133390D01*
X434238095Y-183133390D02*
X434809523Y-183704819D01*
X434809523Y-183704819D02*
X434190476Y-183704819D01*
X433285714Y-182704819D02*
X433761904Y-182704819D01*
X433761904Y-182704819D02*
X433809523Y-183181009D01*
X433809523Y-183181009D02*
X433761904Y-183133390D01*
X433761904Y-183133390D02*
X433666666Y-183085771D01*
X433666666Y-183085771D02*
X433428571Y-183085771D01*
X433428571Y-183085771D02*
X433333333Y-183133390D01*
X433333333Y-183133390D02*
X433285714Y-183181009D01*
X433285714Y-183181009D02*
X433238095Y-183276247D01*
X433238095Y-183276247D02*
X433238095Y-183514342D01*
X433238095Y-183514342D02*
X433285714Y-183609580D01*
X433285714Y-183609580D02*
X433333333Y-183657200D01*
X433333333Y-183657200D02*
X433428571Y-183704819D01*
X433428571Y-183704819D02*
X433666666Y-183704819D01*
X433666666Y-183704819D02*
X433761904Y-183657200D01*
X433761904Y-183657200D02*
X433809523Y-183609580D01*
X311609580Y-203872142D02*
X311657200Y-203824523D01*
X311657200Y-203824523D02*
X311704819Y-203681666D01*
X311704819Y-203681666D02*
X311704819Y-203586428D01*
X311704819Y-203586428D02*
X311657200Y-203443571D01*
X311657200Y-203443571D02*
X311561961Y-203348333D01*
X311561961Y-203348333D02*
X311466723Y-203300714D01*
X311466723Y-203300714D02*
X311276247Y-203253095D01*
X311276247Y-203253095D02*
X311133390Y-203253095D01*
X311133390Y-203253095D02*
X310942914Y-203300714D01*
X310942914Y-203300714D02*
X310847676Y-203348333D01*
X310847676Y-203348333D02*
X310752438Y-203443571D01*
X310752438Y-203443571D02*
X310704819Y-203586428D01*
X310704819Y-203586428D02*
X310704819Y-203681666D01*
X310704819Y-203681666D02*
X310752438Y-203824523D01*
X310752438Y-203824523D02*
X310800057Y-203872142D01*
X311038152Y-204729285D02*
X311704819Y-204729285D01*
X310657200Y-204491190D02*
X311371485Y-204253095D01*
X311371485Y-204253095D02*
X311371485Y-204872142D01*
X311133390Y-205395952D02*
X311085771Y-205300714D01*
X311085771Y-205300714D02*
X311038152Y-205253095D01*
X311038152Y-205253095D02*
X310942914Y-205205476D01*
X310942914Y-205205476D02*
X310895295Y-205205476D01*
X310895295Y-205205476D02*
X310800057Y-205253095D01*
X310800057Y-205253095D02*
X310752438Y-205300714D01*
X310752438Y-205300714D02*
X310704819Y-205395952D01*
X310704819Y-205395952D02*
X310704819Y-205586428D01*
X310704819Y-205586428D02*
X310752438Y-205681666D01*
X310752438Y-205681666D02*
X310800057Y-205729285D01*
X310800057Y-205729285D02*
X310895295Y-205776904D01*
X310895295Y-205776904D02*
X310942914Y-205776904D01*
X310942914Y-205776904D02*
X311038152Y-205729285D01*
X311038152Y-205729285D02*
X311085771Y-205681666D01*
X311085771Y-205681666D02*
X311133390Y-205586428D01*
X311133390Y-205586428D02*
X311133390Y-205395952D01*
X311133390Y-205395952D02*
X311181009Y-205300714D01*
X311181009Y-205300714D02*
X311228628Y-205253095D01*
X311228628Y-205253095D02*
X311323866Y-205205476D01*
X311323866Y-205205476D02*
X311514342Y-205205476D01*
X311514342Y-205205476D02*
X311609580Y-205253095D01*
X311609580Y-205253095D02*
X311657200Y-205300714D01*
X311657200Y-205300714D02*
X311704819Y-205395952D01*
X311704819Y-205395952D02*
X311704819Y-205586428D01*
X311704819Y-205586428D02*
X311657200Y-205681666D01*
X311657200Y-205681666D02*
X311609580Y-205729285D01*
X311609580Y-205729285D02*
X311514342Y-205776904D01*
X311514342Y-205776904D02*
X311323866Y-205776904D01*
X311323866Y-205776904D02*
X311228628Y-205729285D01*
X311228628Y-205729285D02*
X311181009Y-205681666D01*
X311181009Y-205681666D02*
X311133390Y-205586428D01*
X341869580Y-214857142D02*
X341917200Y-214809523D01*
X341917200Y-214809523D02*
X341964819Y-214666666D01*
X341964819Y-214666666D02*
X341964819Y-214571428D01*
X341964819Y-214571428D02*
X341917200Y-214428571D01*
X341917200Y-214428571D02*
X341821961Y-214333333D01*
X341821961Y-214333333D02*
X341726723Y-214285714D01*
X341726723Y-214285714D02*
X341536247Y-214238095D01*
X341536247Y-214238095D02*
X341393390Y-214238095D01*
X341393390Y-214238095D02*
X341202914Y-214285714D01*
X341202914Y-214285714D02*
X341107676Y-214333333D01*
X341107676Y-214333333D02*
X341012438Y-214428571D01*
X341012438Y-214428571D02*
X340964819Y-214571428D01*
X340964819Y-214571428D02*
X340964819Y-214666666D01*
X340964819Y-214666666D02*
X341012438Y-214809523D01*
X341012438Y-214809523D02*
X341060057Y-214857142D01*
X341964819Y-215809523D02*
X341964819Y-215238095D01*
X341964819Y-215523809D02*
X340964819Y-215523809D01*
X340964819Y-215523809D02*
X341107676Y-215428571D01*
X341107676Y-215428571D02*
X341202914Y-215333333D01*
X341202914Y-215333333D02*
X341250533Y-215238095D01*
X340964819Y-216666666D02*
X340964819Y-216476190D01*
X340964819Y-216476190D02*
X341012438Y-216380952D01*
X341012438Y-216380952D02*
X341060057Y-216333333D01*
X341060057Y-216333333D02*
X341202914Y-216238095D01*
X341202914Y-216238095D02*
X341393390Y-216190476D01*
X341393390Y-216190476D02*
X341774342Y-216190476D01*
X341774342Y-216190476D02*
X341869580Y-216238095D01*
X341869580Y-216238095D02*
X341917200Y-216285714D01*
X341917200Y-216285714D02*
X341964819Y-216380952D01*
X341964819Y-216380952D02*
X341964819Y-216571428D01*
X341964819Y-216571428D02*
X341917200Y-216666666D01*
X341917200Y-216666666D02*
X341869580Y-216714285D01*
X341869580Y-216714285D02*
X341774342Y-216761904D01*
X341774342Y-216761904D02*
X341536247Y-216761904D01*
X341536247Y-216761904D02*
X341441009Y-216714285D01*
X341441009Y-216714285D02*
X341393390Y-216666666D01*
X341393390Y-216666666D02*
X341345771Y-216571428D01*
X341345771Y-216571428D02*
X341345771Y-216380952D01*
X341345771Y-216380952D02*
X341393390Y-216285714D01*
X341393390Y-216285714D02*
X341441009Y-216238095D01*
X341441009Y-216238095D02*
X341536247Y-216190476D01*
X339619580Y-198357142D02*
X339667200Y-198309523D01*
X339667200Y-198309523D02*
X339714819Y-198166666D01*
X339714819Y-198166666D02*
X339714819Y-198071428D01*
X339714819Y-198071428D02*
X339667200Y-197928571D01*
X339667200Y-197928571D02*
X339571961Y-197833333D01*
X339571961Y-197833333D02*
X339476723Y-197785714D01*
X339476723Y-197785714D02*
X339286247Y-197738095D01*
X339286247Y-197738095D02*
X339143390Y-197738095D01*
X339143390Y-197738095D02*
X338952914Y-197785714D01*
X338952914Y-197785714D02*
X338857676Y-197833333D01*
X338857676Y-197833333D02*
X338762438Y-197928571D01*
X338762438Y-197928571D02*
X338714819Y-198071428D01*
X338714819Y-198071428D02*
X338714819Y-198166666D01*
X338714819Y-198166666D02*
X338762438Y-198309523D01*
X338762438Y-198309523D02*
X338810057Y-198357142D01*
X338810057Y-198738095D02*
X338762438Y-198785714D01*
X338762438Y-198785714D02*
X338714819Y-198880952D01*
X338714819Y-198880952D02*
X338714819Y-199119047D01*
X338714819Y-199119047D02*
X338762438Y-199214285D01*
X338762438Y-199214285D02*
X338810057Y-199261904D01*
X338810057Y-199261904D02*
X338905295Y-199309523D01*
X338905295Y-199309523D02*
X339000533Y-199309523D01*
X339000533Y-199309523D02*
X339143390Y-199261904D01*
X339143390Y-199261904D02*
X339714819Y-198690476D01*
X339714819Y-198690476D02*
X339714819Y-199309523D01*
X338714819Y-199642857D02*
X338714819Y-200309523D01*
X338714819Y-200309523D02*
X339714819Y-199880952D01*
X438916666Y-170179580D02*
X438964285Y-170227200D01*
X438964285Y-170227200D02*
X439107142Y-170274819D01*
X439107142Y-170274819D02*
X439202380Y-170274819D01*
X439202380Y-170274819D02*
X439345237Y-170227200D01*
X439345237Y-170227200D02*
X439440475Y-170131961D01*
X439440475Y-170131961D02*
X439488094Y-170036723D01*
X439488094Y-170036723D02*
X439535713Y-169846247D01*
X439535713Y-169846247D02*
X439535713Y-169703390D01*
X439535713Y-169703390D02*
X439488094Y-169512914D01*
X439488094Y-169512914D02*
X439440475Y-169417676D01*
X439440475Y-169417676D02*
X439345237Y-169322438D01*
X439345237Y-169322438D02*
X439202380Y-169274819D01*
X439202380Y-169274819D02*
X439107142Y-169274819D01*
X439107142Y-169274819D02*
X438964285Y-169322438D01*
X438964285Y-169322438D02*
X438916666Y-169370057D01*
X438011904Y-169274819D02*
X438488094Y-169274819D01*
X438488094Y-169274819D02*
X438535713Y-169751009D01*
X438535713Y-169751009D02*
X438488094Y-169703390D01*
X438488094Y-169703390D02*
X438392856Y-169655771D01*
X438392856Y-169655771D02*
X438154761Y-169655771D01*
X438154761Y-169655771D02*
X438059523Y-169703390D01*
X438059523Y-169703390D02*
X438011904Y-169751009D01*
X438011904Y-169751009D02*
X437964285Y-169846247D01*
X437964285Y-169846247D02*
X437964285Y-170084342D01*
X437964285Y-170084342D02*
X438011904Y-170179580D01*
X438011904Y-170179580D02*
X438059523Y-170227200D01*
X438059523Y-170227200D02*
X438154761Y-170274819D01*
X438154761Y-170274819D02*
X438392856Y-170274819D01*
X438392856Y-170274819D02*
X438488094Y-170227200D01*
X438488094Y-170227200D02*
X438535713Y-170179580D01*
X328470362Y-233209580D02*
X328517981Y-233257200D01*
X328517981Y-233257200D02*
X328660838Y-233304819D01*
X328660838Y-233304819D02*
X328756076Y-233304819D01*
X328756076Y-233304819D02*
X328898933Y-233257200D01*
X328898933Y-233257200D02*
X328994171Y-233161961D01*
X328994171Y-233161961D02*
X329041790Y-233066723D01*
X329041790Y-233066723D02*
X329089409Y-232876247D01*
X329089409Y-232876247D02*
X329089409Y-232733390D01*
X329089409Y-232733390D02*
X329041790Y-232542914D01*
X329041790Y-232542914D02*
X328994171Y-232447676D01*
X328994171Y-232447676D02*
X328898933Y-232352438D01*
X328898933Y-232352438D02*
X328756076Y-232304819D01*
X328756076Y-232304819D02*
X328660838Y-232304819D01*
X328660838Y-232304819D02*
X328517981Y-232352438D01*
X328517981Y-232352438D02*
X328470362Y-232400057D01*
X327994171Y-233304819D02*
X327803695Y-233304819D01*
X327803695Y-233304819D02*
X327708457Y-233257200D01*
X327708457Y-233257200D02*
X327660838Y-233209580D01*
X327660838Y-233209580D02*
X327565600Y-233066723D01*
X327565600Y-233066723D02*
X327517981Y-232876247D01*
X327517981Y-232876247D02*
X327517981Y-232495295D01*
X327517981Y-232495295D02*
X327565600Y-232400057D01*
X327565600Y-232400057D02*
X327613219Y-232352438D01*
X327613219Y-232352438D02*
X327708457Y-232304819D01*
X327708457Y-232304819D02*
X327898933Y-232304819D01*
X327898933Y-232304819D02*
X327994171Y-232352438D01*
X327994171Y-232352438D02*
X328041790Y-232400057D01*
X328041790Y-232400057D02*
X328089409Y-232495295D01*
X328089409Y-232495295D02*
X328089409Y-232733390D01*
X328089409Y-232733390D02*
X328041790Y-232828628D01*
X328041790Y-232828628D02*
X327994171Y-232876247D01*
X327994171Y-232876247D02*
X327898933Y-232923866D01*
X327898933Y-232923866D02*
X327708457Y-232923866D01*
X327708457Y-232923866D02*
X327613219Y-232876247D01*
X327613219Y-232876247D02*
X327565600Y-232828628D01*
X327565600Y-232828628D02*
X327517981Y-232733390D01*
X326565600Y-233304819D02*
X327137028Y-233304819D01*
X326851314Y-233304819D02*
X326851314Y-232304819D01*
X326851314Y-232304819D02*
X326946552Y-232447676D01*
X326946552Y-232447676D02*
X327041790Y-232542914D01*
X327041790Y-232542914D02*
X327137028Y-232590533D01*
X418984580Y-184732142D02*
X419032200Y-184684523D01*
X419032200Y-184684523D02*
X419079819Y-184541666D01*
X419079819Y-184541666D02*
X419079819Y-184446428D01*
X419079819Y-184446428D02*
X419032200Y-184303571D01*
X419032200Y-184303571D02*
X418936961Y-184208333D01*
X418936961Y-184208333D02*
X418841723Y-184160714D01*
X418841723Y-184160714D02*
X418651247Y-184113095D01*
X418651247Y-184113095D02*
X418508390Y-184113095D01*
X418508390Y-184113095D02*
X418317914Y-184160714D01*
X418317914Y-184160714D02*
X418222676Y-184208333D01*
X418222676Y-184208333D02*
X418127438Y-184303571D01*
X418127438Y-184303571D02*
X418079819Y-184446428D01*
X418079819Y-184446428D02*
X418079819Y-184541666D01*
X418079819Y-184541666D02*
X418127438Y-184684523D01*
X418127438Y-184684523D02*
X418175057Y-184732142D01*
X418175057Y-185113095D02*
X418127438Y-185160714D01*
X418127438Y-185160714D02*
X418079819Y-185255952D01*
X418079819Y-185255952D02*
X418079819Y-185494047D01*
X418079819Y-185494047D02*
X418127438Y-185589285D01*
X418127438Y-185589285D02*
X418175057Y-185636904D01*
X418175057Y-185636904D02*
X418270295Y-185684523D01*
X418270295Y-185684523D02*
X418365533Y-185684523D01*
X418365533Y-185684523D02*
X418508390Y-185636904D01*
X418508390Y-185636904D02*
X419079819Y-185065476D01*
X419079819Y-185065476D02*
X419079819Y-185684523D01*
X418079819Y-186589285D02*
X418079819Y-186113095D01*
X418079819Y-186113095D02*
X418556009Y-186065476D01*
X418556009Y-186065476D02*
X418508390Y-186113095D01*
X418508390Y-186113095D02*
X418460771Y-186208333D01*
X418460771Y-186208333D02*
X418460771Y-186446428D01*
X418460771Y-186446428D02*
X418508390Y-186541666D01*
X418508390Y-186541666D02*
X418556009Y-186589285D01*
X418556009Y-186589285D02*
X418651247Y-186636904D01*
X418651247Y-186636904D02*
X418889342Y-186636904D01*
X418889342Y-186636904D02*
X418984580Y-186589285D01*
X418984580Y-186589285D02*
X419032200Y-186541666D01*
X419032200Y-186541666D02*
X419079819Y-186446428D01*
X419079819Y-186446428D02*
X419079819Y-186208333D01*
X419079819Y-186208333D02*
X419032200Y-186113095D01*
X419032200Y-186113095D02*
X418984580Y-186065476D01*
X327392857Y-217694819D02*
X327726190Y-217218628D01*
X327964285Y-217694819D02*
X327964285Y-216694819D01*
X327964285Y-216694819D02*
X327583333Y-216694819D01*
X327583333Y-216694819D02*
X327488095Y-216742438D01*
X327488095Y-216742438D02*
X327440476Y-216790057D01*
X327440476Y-216790057D02*
X327392857Y-216885295D01*
X327392857Y-216885295D02*
X327392857Y-217028152D01*
X327392857Y-217028152D02*
X327440476Y-217123390D01*
X327440476Y-217123390D02*
X327488095Y-217171009D01*
X327488095Y-217171009D02*
X327583333Y-217218628D01*
X327583333Y-217218628D02*
X327964285Y-217218628D01*
X326440476Y-217694819D02*
X327011904Y-217694819D01*
X326726190Y-217694819D02*
X326726190Y-216694819D01*
X326726190Y-216694819D02*
X326821428Y-216837676D01*
X326821428Y-216837676D02*
X326916666Y-216932914D01*
X326916666Y-216932914D02*
X327011904Y-216980533D01*
X326059523Y-216790057D02*
X326011904Y-216742438D01*
X326011904Y-216742438D02*
X325916666Y-216694819D01*
X325916666Y-216694819D02*
X325678571Y-216694819D01*
X325678571Y-216694819D02*
X325583333Y-216742438D01*
X325583333Y-216742438D02*
X325535714Y-216790057D01*
X325535714Y-216790057D02*
X325488095Y-216885295D01*
X325488095Y-216885295D02*
X325488095Y-216980533D01*
X325488095Y-216980533D02*
X325535714Y-217123390D01*
X325535714Y-217123390D02*
X326107142Y-217694819D01*
X326107142Y-217694819D02*
X325488095Y-217694819D01*
X355904819Y-242607142D02*
X355428628Y-242273809D01*
X355904819Y-242035714D02*
X354904819Y-242035714D01*
X354904819Y-242035714D02*
X354904819Y-242416666D01*
X354904819Y-242416666D02*
X354952438Y-242511904D01*
X354952438Y-242511904D02*
X355000057Y-242559523D01*
X355000057Y-242559523D02*
X355095295Y-242607142D01*
X355095295Y-242607142D02*
X355238152Y-242607142D01*
X355238152Y-242607142D02*
X355333390Y-242559523D01*
X355333390Y-242559523D02*
X355381009Y-242511904D01*
X355381009Y-242511904D02*
X355428628Y-242416666D01*
X355428628Y-242416666D02*
X355428628Y-242035714D01*
X355904819Y-243083333D02*
X355904819Y-243273809D01*
X355904819Y-243273809D02*
X355857200Y-243369047D01*
X355857200Y-243369047D02*
X355809580Y-243416666D01*
X355809580Y-243416666D02*
X355666723Y-243511904D01*
X355666723Y-243511904D02*
X355476247Y-243559523D01*
X355476247Y-243559523D02*
X355095295Y-243559523D01*
X355095295Y-243559523D02*
X355000057Y-243511904D01*
X355000057Y-243511904D02*
X354952438Y-243464285D01*
X354952438Y-243464285D02*
X354904819Y-243369047D01*
X354904819Y-243369047D02*
X354904819Y-243178571D01*
X354904819Y-243178571D02*
X354952438Y-243083333D01*
X354952438Y-243083333D02*
X355000057Y-243035714D01*
X355000057Y-243035714D02*
X355095295Y-242988095D01*
X355095295Y-242988095D02*
X355333390Y-242988095D01*
X355333390Y-242988095D02*
X355428628Y-243035714D01*
X355428628Y-243035714D02*
X355476247Y-243083333D01*
X355476247Y-243083333D02*
X355523866Y-243178571D01*
X355523866Y-243178571D02*
X355523866Y-243369047D01*
X355523866Y-243369047D02*
X355476247Y-243464285D01*
X355476247Y-243464285D02*
X355428628Y-243511904D01*
X355428628Y-243511904D02*
X355333390Y-243559523D01*
X355904819Y-244511904D02*
X355904819Y-243940476D01*
X355904819Y-244226190D02*
X354904819Y-244226190D01*
X354904819Y-244226190D02*
X355047676Y-244130952D01*
X355047676Y-244130952D02*
X355142914Y-244035714D01*
X355142914Y-244035714D02*
X355190533Y-243940476D01*
X353609580Y-242536142D02*
X353657200Y-242488523D01*
X353657200Y-242488523D02*
X353704819Y-242345666D01*
X353704819Y-242345666D02*
X353704819Y-242250428D01*
X353704819Y-242250428D02*
X353657200Y-242107571D01*
X353657200Y-242107571D02*
X353561961Y-242012333D01*
X353561961Y-242012333D02*
X353466723Y-241964714D01*
X353466723Y-241964714D02*
X353276247Y-241917095D01*
X353276247Y-241917095D02*
X353133390Y-241917095D01*
X353133390Y-241917095D02*
X352942914Y-241964714D01*
X352942914Y-241964714D02*
X352847676Y-242012333D01*
X352847676Y-242012333D02*
X352752438Y-242107571D01*
X352752438Y-242107571D02*
X352704819Y-242250428D01*
X352704819Y-242250428D02*
X352704819Y-242345666D01*
X352704819Y-242345666D02*
X352752438Y-242488523D01*
X352752438Y-242488523D02*
X352800057Y-242536142D01*
X352704819Y-243440904D02*
X352704819Y-242964714D01*
X352704819Y-242964714D02*
X353181009Y-242917095D01*
X353181009Y-242917095D02*
X353133390Y-242964714D01*
X353133390Y-242964714D02*
X353085771Y-243059952D01*
X353085771Y-243059952D02*
X353085771Y-243298047D01*
X353085771Y-243298047D02*
X353133390Y-243393285D01*
X353133390Y-243393285D02*
X353181009Y-243440904D01*
X353181009Y-243440904D02*
X353276247Y-243488523D01*
X353276247Y-243488523D02*
X353514342Y-243488523D01*
X353514342Y-243488523D02*
X353609580Y-243440904D01*
X353609580Y-243440904D02*
X353657200Y-243393285D01*
X353657200Y-243393285D02*
X353704819Y-243298047D01*
X353704819Y-243298047D02*
X353704819Y-243059952D01*
X353704819Y-243059952D02*
X353657200Y-242964714D01*
X353657200Y-242964714D02*
X353609580Y-242917095D01*
X353704819Y-243964714D02*
X353704819Y-244155190D01*
X353704819Y-244155190D02*
X353657200Y-244250428D01*
X353657200Y-244250428D02*
X353609580Y-244298047D01*
X353609580Y-244298047D02*
X353466723Y-244393285D01*
X353466723Y-244393285D02*
X353276247Y-244440904D01*
X353276247Y-244440904D02*
X352895295Y-244440904D01*
X352895295Y-244440904D02*
X352800057Y-244393285D01*
X352800057Y-244393285D02*
X352752438Y-244345666D01*
X352752438Y-244345666D02*
X352704819Y-244250428D01*
X352704819Y-244250428D02*
X352704819Y-244059952D01*
X352704819Y-244059952D02*
X352752438Y-243964714D01*
X352752438Y-243964714D02*
X352800057Y-243917095D01*
X352800057Y-243917095D02*
X352895295Y-243869476D01*
X352895295Y-243869476D02*
X353133390Y-243869476D01*
X353133390Y-243869476D02*
X353228628Y-243917095D01*
X353228628Y-243917095D02*
X353276247Y-243964714D01*
X353276247Y-243964714D02*
X353323866Y-244059952D01*
X353323866Y-244059952D02*
X353323866Y-244250428D01*
X353323866Y-244250428D02*
X353276247Y-244345666D01*
X353276247Y-244345666D02*
X353228628Y-244393285D01*
X353228628Y-244393285D02*
X353133390Y-244440904D01*
X344679580Y-239357142D02*
X344727200Y-239309523D01*
X344727200Y-239309523D02*
X344774819Y-239166666D01*
X344774819Y-239166666D02*
X344774819Y-239071428D01*
X344774819Y-239071428D02*
X344727200Y-238928571D01*
X344727200Y-238928571D02*
X344631961Y-238833333D01*
X344631961Y-238833333D02*
X344536723Y-238785714D01*
X344536723Y-238785714D02*
X344346247Y-238738095D01*
X344346247Y-238738095D02*
X344203390Y-238738095D01*
X344203390Y-238738095D02*
X344012914Y-238785714D01*
X344012914Y-238785714D02*
X343917676Y-238833333D01*
X343917676Y-238833333D02*
X343822438Y-238928571D01*
X343822438Y-238928571D02*
X343774819Y-239071428D01*
X343774819Y-239071428D02*
X343774819Y-239166666D01*
X343774819Y-239166666D02*
X343822438Y-239309523D01*
X343822438Y-239309523D02*
X343870057Y-239357142D01*
X344203390Y-239928571D02*
X344155771Y-239833333D01*
X344155771Y-239833333D02*
X344108152Y-239785714D01*
X344108152Y-239785714D02*
X344012914Y-239738095D01*
X344012914Y-239738095D02*
X343965295Y-239738095D01*
X343965295Y-239738095D02*
X343870057Y-239785714D01*
X343870057Y-239785714D02*
X343822438Y-239833333D01*
X343822438Y-239833333D02*
X343774819Y-239928571D01*
X343774819Y-239928571D02*
X343774819Y-240119047D01*
X343774819Y-240119047D02*
X343822438Y-240214285D01*
X343822438Y-240214285D02*
X343870057Y-240261904D01*
X343870057Y-240261904D02*
X343965295Y-240309523D01*
X343965295Y-240309523D02*
X344012914Y-240309523D01*
X344012914Y-240309523D02*
X344108152Y-240261904D01*
X344108152Y-240261904D02*
X344155771Y-240214285D01*
X344155771Y-240214285D02*
X344203390Y-240119047D01*
X344203390Y-240119047D02*
X344203390Y-239928571D01*
X344203390Y-239928571D02*
X344251009Y-239833333D01*
X344251009Y-239833333D02*
X344298628Y-239785714D01*
X344298628Y-239785714D02*
X344393866Y-239738095D01*
X344393866Y-239738095D02*
X344584342Y-239738095D01*
X344584342Y-239738095D02*
X344679580Y-239785714D01*
X344679580Y-239785714D02*
X344727200Y-239833333D01*
X344727200Y-239833333D02*
X344774819Y-239928571D01*
X344774819Y-239928571D02*
X344774819Y-240119047D01*
X344774819Y-240119047D02*
X344727200Y-240214285D01*
X344727200Y-240214285D02*
X344679580Y-240261904D01*
X344679580Y-240261904D02*
X344584342Y-240309523D01*
X344584342Y-240309523D02*
X344393866Y-240309523D01*
X344393866Y-240309523D02*
X344298628Y-240261904D01*
X344298628Y-240261904D02*
X344251009Y-240214285D01*
X344251009Y-240214285D02*
X344203390Y-240119047D01*
X343774819Y-240928571D02*
X343774819Y-241023809D01*
X343774819Y-241023809D02*
X343822438Y-241119047D01*
X343822438Y-241119047D02*
X343870057Y-241166666D01*
X343870057Y-241166666D02*
X343965295Y-241214285D01*
X343965295Y-241214285D02*
X344155771Y-241261904D01*
X344155771Y-241261904D02*
X344393866Y-241261904D01*
X344393866Y-241261904D02*
X344584342Y-241214285D01*
X344584342Y-241214285D02*
X344679580Y-241166666D01*
X344679580Y-241166666D02*
X344727200Y-241119047D01*
X344727200Y-241119047D02*
X344774819Y-241023809D01*
X344774819Y-241023809D02*
X344774819Y-240928571D01*
X344774819Y-240928571D02*
X344727200Y-240833333D01*
X344727200Y-240833333D02*
X344679580Y-240785714D01*
X344679580Y-240785714D02*
X344584342Y-240738095D01*
X344584342Y-240738095D02*
X344393866Y-240690476D01*
X344393866Y-240690476D02*
X344155771Y-240690476D01*
X344155771Y-240690476D02*
X343965295Y-240738095D01*
X343965295Y-240738095D02*
X343870057Y-240785714D01*
X343870057Y-240785714D02*
X343822438Y-240833333D01*
X343822438Y-240833333D02*
X343774819Y-240928571D01*
X400166666Y-174704819D02*
X400642856Y-174704819D01*
X400642856Y-174704819D02*
X400642856Y-173704819D01*
X399880951Y-173800057D02*
X399833332Y-173752438D01*
X399833332Y-173752438D02*
X399738094Y-173704819D01*
X399738094Y-173704819D02*
X399499999Y-173704819D01*
X399499999Y-173704819D02*
X399404761Y-173752438D01*
X399404761Y-173752438D02*
X399357142Y-173800057D01*
X399357142Y-173800057D02*
X399309523Y-173895295D01*
X399309523Y-173895295D02*
X399309523Y-173990533D01*
X399309523Y-173990533D02*
X399357142Y-174133390D01*
X399357142Y-174133390D02*
X399928570Y-174704819D01*
X399928570Y-174704819D02*
X399309523Y-174704819D01*
X427234580Y-184732142D02*
X427282200Y-184684523D01*
X427282200Y-184684523D02*
X427329819Y-184541666D01*
X427329819Y-184541666D02*
X427329819Y-184446428D01*
X427329819Y-184446428D02*
X427282200Y-184303571D01*
X427282200Y-184303571D02*
X427186961Y-184208333D01*
X427186961Y-184208333D02*
X427091723Y-184160714D01*
X427091723Y-184160714D02*
X426901247Y-184113095D01*
X426901247Y-184113095D02*
X426758390Y-184113095D01*
X426758390Y-184113095D02*
X426567914Y-184160714D01*
X426567914Y-184160714D02*
X426472676Y-184208333D01*
X426472676Y-184208333D02*
X426377438Y-184303571D01*
X426377438Y-184303571D02*
X426329819Y-184446428D01*
X426329819Y-184446428D02*
X426329819Y-184541666D01*
X426329819Y-184541666D02*
X426377438Y-184684523D01*
X426377438Y-184684523D02*
X426425057Y-184732142D01*
X426425057Y-185113095D02*
X426377438Y-185160714D01*
X426377438Y-185160714D02*
X426329819Y-185255952D01*
X426329819Y-185255952D02*
X426329819Y-185494047D01*
X426329819Y-185494047D02*
X426377438Y-185589285D01*
X426377438Y-185589285D02*
X426425057Y-185636904D01*
X426425057Y-185636904D02*
X426520295Y-185684523D01*
X426520295Y-185684523D02*
X426615533Y-185684523D01*
X426615533Y-185684523D02*
X426758390Y-185636904D01*
X426758390Y-185636904D02*
X427329819Y-185065476D01*
X427329819Y-185065476D02*
X427329819Y-185684523D01*
X426329819Y-186017857D02*
X426329819Y-186636904D01*
X426329819Y-186636904D02*
X426710771Y-186303571D01*
X426710771Y-186303571D02*
X426710771Y-186446428D01*
X426710771Y-186446428D02*
X426758390Y-186541666D01*
X426758390Y-186541666D02*
X426806009Y-186589285D01*
X426806009Y-186589285D02*
X426901247Y-186636904D01*
X426901247Y-186636904D02*
X427139342Y-186636904D01*
X427139342Y-186636904D02*
X427234580Y-186589285D01*
X427234580Y-186589285D02*
X427282200Y-186541666D01*
X427282200Y-186541666D02*
X427329819Y-186446428D01*
X427329819Y-186446428D02*
X427329819Y-186160714D01*
X427329819Y-186160714D02*
X427282200Y-186065476D01*
X427282200Y-186065476D02*
X427234580Y-186017857D01*
X348474666Y-206359580D02*
X348522285Y-206407200D01*
X348522285Y-206407200D02*
X348665142Y-206454819D01*
X348665142Y-206454819D02*
X348760380Y-206454819D01*
X348760380Y-206454819D02*
X348903237Y-206407200D01*
X348903237Y-206407200D02*
X348998475Y-206311961D01*
X348998475Y-206311961D02*
X349046094Y-206216723D01*
X349046094Y-206216723D02*
X349093713Y-206026247D01*
X349093713Y-206026247D02*
X349093713Y-205883390D01*
X349093713Y-205883390D02*
X349046094Y-205692914D01*
X349046094Y-205692914D02*
X348998475Y-205597676D01*
X348998475Y-205597676D02*
X348903237Y-205502438D01*
X348903237Y-205502438D02*
X348760380Y-205454819D01*
X348760380Y-205454819D02*
X348665142Y-205454819D01*
X348665142Y-205454819D02*
X348522285Y-205502438D01*
X348522285Y-205502438D02*
X348474666Y-205550057D01*
X347617523Y-205788152D02*
X347617523Y-206454819D01*
X347855618Y-205407200D02*
X348093713Y-206121485D01*
X348093713Y-206121485D02*
X347474666Y-206121485D01*
X348609580Y-227833333D02*
X348657200Y-227785714D01*
X348657200Y-227785714D02*
X348704819Y-227642857D01*
X348704819Y-227642857D02*
X348704819Y-227547619D01*
X348704819Y-227547619D02*
X348657200Y-227404762D01*
X348657200Y-227404762D02*
X348561961Y-227309524D01*
X348561961Y-227309524D02*
X348466723Y-227261905D01*
X348466723Y-227261905D02*
X348276247Y-227214286D01*
X348276247Y-227214286D02*
X348133390Y-227214286D01*
X348133390Y-227214286D02*
X347942914Y-227261905D01*
X347942914Y-227261905D02*
X347847676Y-227309524D01*
X347847676Y-227309524D02*
X347752438Y-227404762D01*
X347752438Y-227404762D02*
X347704819Y-227547619D01*
X347704819Y-227547619D02*
X347704819Y-227642857D01*
X347704819Y-227642857D02*
X347752438Y-227785714D01*
X347752438Y-227785714D02*
X347800057Y-227833333D01*
X347704819Y-228166667D02*
X347704819Y-228833333D01*
X347704819Y-228833333D02*
X348704819Y-228404762D01*
X255354819Y-214107142D02*
X254878628Y-213773809D01*
X255354819Y-213535714D02*
X254354819Y-213535714D01*
X254354819Y-213535714D02*
X254354819Y-213916666D01*
X254354819Y-213916666D02*
X254402438Y-214011904D01*
X254402438Y-214011904D02*
X254450057Y-214059523D01*
X254450057Y-214059523D02*
X254545295Y-214107142D01*
X254545295Y-214107142D02*
X254688152Y-214107142D01*
X254688152Y-214107142D02*
X254783390Y-214059523D01*
X254783390Y-214059523D02*
X254831009Y-214011904D01*
X254831009Y-214011904D02*
X254878628Y-213916666D01*
X254878628Y-213916666D02*
X254878628Y-213535714D01*
X254783390Y-214678571D02*
X254735771Y-214583333D01*
X254735771Y-214583333D02*
X254688152Y-214535714D01*
X254688152Y-214535714D02*
X254592914Y-214488095D01*
X254592914Y-214488095D02*
X254545295Y-214488095D01*
X254545295Y-214488095D02*
X254450057Y-214535714D01*
X254450057Y-214535714D02*
X254402438Y-214583333D01*
X254402438Y-214583333D02*
X254354819Y-214678571D01*
X254354819Y-214678571D02*
X254354819Y-214869047D01*
X254354819Y-214869047D02*
X254402438Y-214964285D01*
X254402438Y-214964285D02*
X254450057Y-215011904D01*
X254450057Y-215011904D02*
X254545295Y-215059523D01*
X254545295Y-215059523D02*
X254592914Y-215059523D01*
X254592914Y-215059523D02*
X254688152Y-215011904D01*
X254688152Y-215011904D02*
X254735771Y-214964285D01*
X254735771Y-214964285D02*
X254783390Y-214869047D01*
X254783390Y-214869047D02*
X254783390Y-214678571D01*
X254783390Y-214678571D02*
X254831009Y-214583333D01*
X254831009Y-214583333D02*
X254878628Y-214535714D01*
X254878628Y-214535714D02*
X254973866Y-214488095D01*
X254973866Y-214488095D02*
X255164342Y-214488095D01*
X255164342Y-214488095D02*
X255259580Y-214535714D01*
X255259580Y-214535714D02*
X255307200Y-214583333D01*
X255307200Y-214583333D02*
X255354819Y-214678571D01*
X255354819Y-214678571D02*
X255354819Y-214869047D01*
X255354819Y-214869047D02*
X255307200Y-214964285D01*
X255307200Y-214964285D02*
X255259580Y-215011904D01*
X255259580Y-215011904D02*
X255164342Y-215059523D01*
X255164342Y-215059523D02*
X254973866Y-215059523D01*
X254973866Y-215059523D02*
X254878628Y-215011904D01*
X254878628Y-215011904D02*
X254831009Y-214964285D01*
X254831009Y-214964285D02*
X254783390Y-214869047D01*
X254354819Y-215964285D02*
X254354819Y-215488095D01*
X254354819Y-215488095D02*
X254831009Y-215440476D01*
X254831009Y-215440476D02*
X254783390Y-215488095D01*
X254783390Y-215488095D02*
X254735771Y-215583333D01*
X254735771Y-215583333D02*
X254735771Y-215821428D01*
X254735771Y-215821428D02*
X254783390Y-215916666D01*
X254783390Y-215916666D02*
X254831009Y-215964285D01*
X254831009Y-215964285D02*
X254926247Y-216011904D01*
X254926247Y-216011904D02*
X255164342Y-216011904D01*
X255164342Y-216011904D02*
X255259580Y-215964285D01*
X255259580Y-215964285D02*
X255307200Y-215916666D01*
X255307200Y-215916666D02*
X255354819Y-215821428D01*
X255354819Y-215821428D02*
X255354819Y-215583333D01*
X255354819Y-215583333D02*
X255307200Y-215488095D01*
X255307200Y-215488095D02*
X255259580Y-215440476D01*
X347359580Y-243607142D02*
X347407200Y-243559523D01*
X347407200Y-243559523D02*
X347454819Y-243416666D01*
X347454819Y-243416666D02*
X347454819Y-243321428D01*
X347454819Y-243321428D02*
X347407200Y-243178571D01*
X347407200Y-243178571D02*
X347311961Y-243083333D01*
X347311961Y-243083333D02*
X347216723Y-243035714D01*
X347216723Y-243035714D02*
X347026247Y-242988095D01*
X347026247Y-242988095D02*
X346883390Y-242988095D01*
X346883390Y-242988095D02*
X346692914Y-243035714D01*
X346692914Y-243035714D02*
X346597676Y-243083333D01*
X346597676Y-243083333D02*
X346502438Y-243178571D01*
X346502438Y-243178571D02*
X346454819Y-243321428D01*
X346454819Y-243321428D02*
X346454819Y-243416666D01*
X346454819Y-243416666D02*
X346502438Y-243559523D01*
X346502438Y-243559523D02*
X346550057Y-243607142D01*
X346454819Y-244464285D02*
X346454819Y-244273809D01*
X346454819Y-244273809D02*
X346502438Y-244178571D01*
X346502438Y-244178571D02*
X346550057Y-244130952D01*
X346550057Y-244130952D02*
X346692914Y-244035714D01*
X346692914Y-244035714D02*
X346883390Y-243988095D01*
X346883390Y-243988095D02*
X347264342Y-243988095D01*
X347264342Y-243988095D02*
X347359580Y-244035714D01*
X347359580Y-244035714D02*
X347407200Y-244083333D01*
X347407200Y-244083333D02*
X347454819Y-244178571D01*
X347454819Y-244178571D02*
X347454819Y-244369047D01*
X347454819Y-244369047D02*
X347407200Y-244464285D01*
X347407200Y-244464285D02*
X347359580Y-244511904D01*
X347359580Y-244511904D02*
X347264342Y-244559523D01*
X347264342Y-244559523D02*
X347026247Y-244559523D01*
X347026247Y-244559523D02*
X346931009Y-244511904D01*
X346931009Y-244511904D02*
X346883390Y-244464285D01*
X346883390Y-244464285D02*
X346835771Y-244369047D01*
X346835771Y-244369047D02*
X346835771Y-244178571D01*
X346835771Y-244178571D02*
X346883390Y-244083333D01*
X346883390Y-244083333D02*
X346931009Y-244035714D01*
X346931009Y-244035714D02*
X347026247Y-243988095D01*
X346454819Y-244892857D02*
X346454819Y-245559523D01*
X346454819Y-245559523D02*
X347454819Y-245130952D01*
X359142857Y-228954819D02*
X359476190Y-228478628D01*
X359714285Y-228954819D02*
X359714285Y-227954819D01*
X359714285Y-227954819D02*
X359333333Y-227954819D01*
X359333333Y-227954819D02*
X359238095Y-228002438D01*
X359238095Y-228002438D02*
X359190476Y-228050057D01*
X359190476Y-228050057D02*
X359142857Y-228145295D01*
X359142857Y-228145295D02*
X359142857Y-228288152D01*
X359142857Y-228288152D02*
X359190476Y-228383390D01*
X359190476Y-228383390D02*
X359238095Y-228431009D01*
X359238095Y-228431009D02*
X359333333Y-228478628D01*
X359333333Y-228478628D02*
X359714285Y-228478628D01*
X358571428Y-228383390D02*
X358666666Y-228335771D01*
X358666666Y-228335771D02*
X358714285Y-228288152D01*
X358714285Y-228288152D02*
X358761904Y-228192914D01*
X358761904Y-228192914D02*
X358761904Y-228145295D01*
X358761904Y-228145295D02*
X358714285Y-228050057D01*
X358714285Y-228050057D02*
X358666666Y-228002438D01*
X358666666Y-228002438D02*
X358571428Y-227954819D01*
X358571428Y-227954819D02*
X358380952Y-227954819D01*
X358380952Y-227954819D02*
X358285714Y-228002438D01*
X358285714Y-228002438D02*
X358238095Y-228050057D01*
X358238095Y-228050057D02*
X358190476Y-228145295D01*
X358190476Y-228145295D02*
X358190476Y-228192914D01*
X358190476Y-228192914D02*
X358238095Y-228288152D01*
X358238095Y-228288152D02*
X358285714Y-228335771D01*
X358285714Y-228335771D02*
X358380952Y-228383390D01*
X358380952Y-228383390D02*
X358571428Y-228383390D01*
X358571428Y-228383390D02*
X358666666Y-228431009D01*
X358666666Y-228431009D02*
X358714285Y-228478628D01*
X358714285Y-228478628D02*
X358761904Y-228573866D01*
X358761904Y-228573866D02*
X358761904Y-228764342D01*
X358761904Y-228764342D02*
X358714285Y-228859580D01*
X358714285Y-228859580D02*
X358666666Y-228907200D01*
X358666666Y-228907200D02*
X358571428Y-228954819D01*
X358571428Y-228954819D02*
X358380952Y-228954819D01*
X358380952Y-228954819D02*
X358285714Y-228907200D01*
X358285714Y-228907200D02*
X358238095Y-228859580D01*
X358238095Y-228859580D02*
X358190476Y-228764342D01*
X358190476Y-228764342D02*
X358190476Y-228573866D01*
X358190476Y-228573866D02*
X358238095Y-228478628D01*
X358238095Y-228478628D02*
X358285714Y-228431009D01*
X358285714Y-228431009D02*
X358380952Y-228383390D01*
X357619047Y-228383390D02*
X357714285Y-228335771D01*
X357714285Y-228335771D02*
X357761904Y-228288152D01*
X357761904Y-228288152D02*
X357809523Y-228192914D01*
X357809523Y-228192914D02*
X357809523Y-228145295D01*
X357809523Y-228145295D02*
X357761904Y-228050057D01*
X357761904Y-228050057D02*
X357714285Y-228002438D01*
X357714285Y-228002438D02*
X357619047Y-227954819D01*
X357619047Y-227954819D02*
X357428571Y-227954819D01*
X357428571Y-227954819D02*
X357333333Y-228002438D01*
X357333333Y-228002438D02*
X357285714Y-228050057D01*
X357285714Y-228050057D02*
X357238095Y-228145295D01*
X357238095Y-228145295D02*
X357238095Y-228192914D01*
X357238095Y-228192914D02*
X357285714Y-228288152D01*
X357285714Y-228288152D02*
X357333333Y-228335771D01*
X357333333Y-228335771D02*
X357428571Y-228383390D01*
X357428571Y-228383390D02*
X357619047Y-228383390D01*
X357619047Y-228383390D02*
X357714285Y-228431009D01*
X357714285Y-228431009D02*
X357761904Y-228478628D01*
X357761904Y-228478628D02*
X357809523Y-228573866D01*
X357809523Y-228573866D02*
X357809523Y-228764342D01*
X357809523Y-228764342D02*
X357761904Y-228859580D01*
X357761904Y-228859580D02*
X357714285Y-228907200D01*
X357714285Y-228907200D02*
X357619047Y-228954819D01*
X357619047Y-228954819D02*
X357428571Y-228954819D01*
X357428571Y-228954819D02*
X357333333Y-228907200D01*
X357333333Y-228907200D02*
X357285714Y-228859580D01*
X357285714Y-228859580D02*
X357238095Y-228764342D01*
X357238095Y-228764342D02*
X357238095Y-228573866D01*
X357238095Y-228573866D02*
X357285714Y-228478628D01*
X357285714Y-228478628D02*
X357333333Y-228431009D01*
X357333333Y-228431009D02*
X357428571Y-228383390D01*
X344119580Y-214881333D02*
X344167200Y-214833714D01*
X344167200Y-214833714D02*
X344214819Y-214690857D01*
X344214819Y-214690857D02*
X344214819Y-214595619D01*
X344214819Y-214595619D02*
X344167200Y-214452762D01*
X344167200Y-214452762D02*
X344071961Y-214357524D01*
X344071961Y-214357524D02*
X343976723Y-214309905D01*
X343976723Y-214309905D02*
X343786247Y-214262286D01*
X343786247Y-214262286D02*
X343643390Y-214262286D01*
X343643390Y-214262286D02*
X343452914Y-214309905D01*
X343452914Y-214309905D02*
X343357676Y-214357524D01*
X343357676Y-214357524D02*
X343262438Y-214452762D01*
X343262438Y-214452762D02*
X343214819Y-214595619D01*
X343214819Y-214595619D02*
X343214819Y-214690857D01*
X343214819Y-214690857D02*
X343262438Y-214833714D01*
X343262438Y-214833714D02*
X343310057Y-214881333D01*
X343214819Y-215214667D02*
X343214819Y-215833714D01*
X343214819Y-215833714D02*
X343595771Y-215500381D01*
X343595771Y-215500381D02*
X343595771Y-215643238D01*
X343595771Y-215643238D02*
X343643390Y-215738476D01*
X343643390Y-215738476D02*
X343691009Y-215786095D01*
X343691009Y-215786095D02*
X343786247Y-215833714D01*
X343786247Y-215833714D02*
X344024342Y-215833714D01*
X344024342Y-215833714D02*
X344119580Y-215786095D01*
X344119580Y-215786095D02*
X344167200Y-215738476D01*
X344167200Y-215738476D02*
X344214819Y-215643238D01*
X344214819Y-215643238D02*
X344214819Y-215357524D01*
X344214819Y-215357524D02*
X344167200Y-215262286D01*
X344167200Y-215262286D02*
X344119580Y-215214667D01*
%TO.C,C19*%
D12*
X335498748Y-207765000D02*
X336021252Y-207765000D01*
X335498748Y-209235000D02*
X336021252Y-209235000D01*
%TO.C,R28*%
X447177064Y-199040000D02*
X442822936Y-199040000D01*
X447177064Y-202460000D02*
X442822936Y-202460000D01*
%TO.C,C66*%
X252288748Y-228840000D02*
X253711252Y-228840000D01*
X252288748Y-230660000D02*
X253711252Y-230660000D01*
%TO.C,R39*%
X269265000Y-229227064D02*
X269265000Y-228772936D01*
X270735000Y-229227064D02*
X270735000Y-228772936D01*
%TO.C,C47*%
X312903195Y-199573748D02*
X312903195Y-200996252D01*
X314723195Y-199573748D02*
X314723195Y-200996252D01*
%TO.C,C56*%
X408890000Y-228613748D02*
X408890000Y-229136252D01*
X410360000Y-228613748D02*
X410360000Y-229136252D01*
%TO.C,D7*%
X445760000Y-191725000D02*
X438750000Y-191725000D01*
X445760000Y-191725000D02*
X445760000Y-195025000D01*
X445760000Y-195025000D02*
X438750000Y-195025000D01*
%TO.C,C61*%
X428390000Y-228613748D02*
X428390000Y-229136252D01*
X429860000Y-228613748D02*
X429860000Y-229136252D01*
%TO.C,R90*%
X354765000Y-227977064D02*
X354765000Y-227522936D01*
X356235000Y-227977064D02*
X356235000Y-227522936D01*
%TO.C,C35*%
X411961252Y-167090000D02*
X410538748Y-167090000D01*
X411961252Y-168910000D02*
X410538748Y-168910000D01*
%TO.C,C39*%
X396086262Y-166964990D02*
X394663758Y-166964990D01*
X396086262Y-168784990D02*
X394663758Y-168784990D01*
%TO.C,R14*%
X336515000Y-217477064D02*
X336515000Y-217022936D01*
X337985000Y-217477064D02*
X337985000Y-217022936D01*
%TO.C,R31*%
X437040000Y-201822936D02*
X437040000Y-206177064D01*
X440460000Y-201822936D02*
X440460000Y-206177064D01*
%TO.C,D16*%
X445760000Y-211725000D02*
X438750000Y-211725000D01*
X445760000Y-211725000D02*
X445760000Y-215025000D01*
X445760000Y-215025000D02*
X438750000Y-215025000D01*
%TO.C,R57*%
X260265000Y-229227064D02*
X260265000Y-228772936D01*
X261735000Y-229227064D02*
X261735000Y-228772936D01*
%TO.C,C21*%
X345521252Y-203015000D02*
X344998748Y-203015000D01*
X345521252Y-204485000D02*
X344998748Y-204485000D01*
%TO.C,R48*%
X447177064Y-219040000D02*
X442822936Y-219040000D01*
X447177064Y-222460000D02*
X442822936Y-222460000D01*
%TO.C,C13*%
X335498748Y-205515000D02*
X336021252Y-205515000D01*
X335498748Y-206985000D02*
X336021252Y-206985000D01*
%TO.C,C38*%
X396086262Y-171214990D02*
X394663758Y-171214990D01*
X396086262Y-173034990D02*
X394663758Y-173034990D01*
%TO.C,C64*%
X417890000Y-229136252D02*
X417890000Y-228613748D01*
X419360000Y-229136252D02*
X419360000Y-228613748D01*
%TO.C,C20*%
X348015000Y-231988748D02*
X348015000Y-232511252D01*
X349485000Y-231988748D02*
X349485000Y-232511252D01*
%TO.C,D83*%
X445760000Y-231725000D02*
X438750000Y-231725000D01*
X445760000Y-231725000D02*
X445760000Y-235025000D01*
X445760000Y-235025000D02*
X438750000Y-235025000D01*
%TO.C,R51*%
X437040000Y-221822936D02*
X437040000Y-226177064D01*
X440460000Y-221822936D02*
X440460000Y-226177064D01*
D13*
%TO.C,G\u002A\u002A\u002A*%
G36*
X438424590Y-240118128D02*
G01*
X438447353Y-240205531D01*
X438481543Y-240336925D01*
X438517111Y-240473717D01*
X438550998Y-240604147D01*
X438580147Y-240716456D01*
X438620611Y-240872365D01*
X438670463Y-241064067D01*
X438715381Y-241236287D01*
X438756936Y-241395053D01*
X438796703Y-241546395D01*
X438810848Y-241600234D01*
X438837930Y-241703747D01*
X438865494Y-241809534D01*
X438889348Y-241901532D01*
X438941888Y-242104616D01*
X439007826Y-242358812D01*
X439080634Y-242638827D01*
X439105234Y-242733442D01*
X439134672Y-242846845D01*
X439163759Y-242959054D01*
X439188775Y-243055726D01*
X439210996Y-243141602D01*
X439239990Y-243253437D01*
X439269561Y-243367320D01*
X439295887Y-243468521D01*
X439302700Y-243494848D01*
X439321741Y-243570416D01*
X439337112Y-243634374D01*
X439347383Y-243680645D01*
X439351125Y-243703154D01*
X439351046Y-243705405D01*
X439348928Y-243710646D01*
X439341878Y-243711648D01*
X439327181Y-243706988D01*
X439302125Y-243695242D01*
X439263998Y-243674988D01*
X439210085Y-243644802D01*
X439137674Y-243603261D01*
X439044052Y-243548942D01*
X438926505Y-243480422D01*
X438919624Y-243476408D01*
X438809798Y-243412466D01*
X438695046Y-243345875D01*
X438580633Y-243279673D01*
X438471824Y-243216897D01*
X438373884Y-243160585D01*
X438292079Y-243113776D01*
X438231672Y-243079507D01*
X438178869Y-243049604D01*
X438094564Y-243001410D01*
X438005144Y-242949898D01*
X437922858Y-242902104D01*
X437912508Y-242896094D01*
X437849671Y-242861148D01*
X437797815Y-242834880D01*
X437762075Y-242819747D01*
X437747585Y-242818207D01*
X437747043Y-242827729D01*
X437749986Y-242863495D01*
X437756954Y-242917790D01*
X437767073Y-242983217D01*
X437768075Y-242989277D01*
X437780020Y-243065370D01*
X437793961Y-243159592D01*
X437808246Y-243260542D01*
X437821223Y-243356821D01*
X437821812Y-243361331D01*
X437848520Y-243561559D01*
X437878998Y-243782897D01*
X437911973Y-244016215D01*
X437946171Y-244252383D01*
X437954202Y-244307867D01*
X437968644Y-244409809D01*
X437984695Y-244525089D01*
X438000914Y-244643343D01*
X438015863Y-244754207D01*
X438016299Y-244757470D01*
X438028955Y-244850473D01*
X438040756Y-244933932D01*
X438050922Y-245002576D01*
X438058673Y-245051136D01*
X438063228Y-245074341D01*
X438070158Y-245076874D01*
X438089150Y-245060107D01*
X438120786Y-245020623D01*
X438166086Y-244957131D01*
X438226071Y-244868339D01*
X438273023Y-244798236D01*
X438316862Y-244733981D01*
X438352050Y-244683700D01*
X438375822Y-244651340D01*
X438385413Y-244640849D01*
X438385424Y-244640862D01*
X438384250Y-244657440D01*
X438377766Y-244699892D01*
X438366802Y-244763853D01*
X438352186Y-244844960D01*
X438334747Y-244938850D01*
X438315313Y-245041158D01*
X438294715Y-245147521D01*
X438273779Y-245253574D01*
X438253337Y-245354955D01*
X438234215Y-245447299D01*
X438217243Y-245526243D01*
X438210434Y-245558327D01*
X438197396Y-245622506D01*
X438181156Y-245704461D01*
X438163134Y-245797002D01*
X438144753Y-245892934D01*
X438128722Y-245974997D01*
X438112775Y-246051811D01*
X438099125Y-246112610D01*
X438088849Y-246152605D01*
X438083027Y-246167006D01*
X438074159Y-246156417D01*
X438049723Y-246122489D01*
X438011547Y-246067671D01*
X437961358Y-245994491D01*
X437900877Y-245905476D01*
X437831831Y-245803155D01*
X437755943Y-245690055D01*
X437674937Y-245568705D01*
X437603222Y-245461183D01*
X437525053Y-245344404D01*
X437452895Y-245237046D01*
X437388590Y-245141827D01*
X437333982Y-245061468D01*
X437290913Y-244998687D01*
X437261225Y-244956204D01*
X437246761Y-244936739D01*
X437222952Y-244906069D01*
X437221346Y-244892115D01*
X437243904Y-244897135D01*
X437290546Y-244921096D01*
X437361196Y-244963965D01*
X437455776Y-245025708D01*
X437523451Y-245070373D01*
X437595556Y-245115931D01*
X437645349Y-245144290D01*
X437674212Y-245156217D01*
X437683526Y-245152483D01*
X437680787Y-245137951D01*
X437671111Y-245096253D01*
X437655339Y-245031392D01*
X437634400Y-244946994D01*
X437609223Y-244846683D01*
X437580734Y-244734086D01*
X437549864Y-244612828D01*
X437517540Y-244486533D01*
X437484690Y-244358828D01*
X437452242Y-244233338D01*
X437421125Y-244113688D01*
X437392267Y-244003504D01*
X437366597Y-243906411D01*
X437345041Y-243826035D01*
X437328530Y-243766000D01*
X437312577Y-243707908D01*
X437292291Y-243631135D01*
X437275677Y-243565270D01*
X437264808Y-243521315D01*
X437247029Y-243450921D01*
X437226205Y-243369542D01*
X437204923Y-243287337D01*
X437188050Y-243222592D01*
X437148650Y-243071365D01*
X437115407Y-242943698D01*
X437087132Y-242835011D01*
X437062632Y-242740729D01*
X437040719Y-242656272D01*
X437020201Y-242577064D01*
X437013911Y-242552785D01*
X436991691Y-242467259D01*
X436965376Y-242366221D01*
X436937738Y-242260310D01*
X436911549Y-242160164D01*
X436885281Y-242059773D01*
X436862274Y-241971535D01*
X436845350Y-241906012D01*
X436833574Y-241859413D01*
X436826009Y-241827950D01*
X436821718Y-241807833D01*
X436819765Y-241795273D01*
X436819214Y-241786481D01*
X436821174Y-241784165D01*
X436841883Y-241788798D01*
X436880409Y-241806279D01*
X436930791Y-241834064D01*
X436938748Y-241838761D01*
X437002470Y-241876127D01*
X437064422Y-241912103D01*
X437112219Y-241939491D01*
X437112401Y-241939594D01*
X437171889Y-241973447D01*
X437249881Y-242018135D01*
X437338221Y-242068972D01*
X437428754Y-242121276D01*
X437525648Y-242177356D01*
X437662953Y-242256768D01*
X437799046Y-242335418D01*
X437930284Y-242411205D01*
X438053021Y-242482026D01*
X438163613Y-242545778D01*
X438258417Y-242600358D01*
X438333787Y-242643665D01*
X438386080Y-242673595D01*
X438434612Y-242701657D01*
X438473606Y-242724934D01*
X438494165Y-242738125D01*
X438504533Y-242744737D01*
X438535964Y-242759216D01*
X438539630Y-242760585D01*
X438548214Y-242763654D01*
X438553590Y-242763196D01*
X438554660Y-242756096D01*
X438550324Y-242739236D01*
X438539484Y-242709502D01*
X438521040Y-242663776D01*
X438493893Y-242598944D01*
X438456945Y-242511889D01*
X438409097Y-242399495D01*
X438408973Y-242399203D01*
X438350100Y-242260778D01*
X438302363Y-242148319D01*
X438264748Y-242059407D01*
X438236244Y-241991623D01*
X438215836Y-241942548D01*
X438202514Y-241909761D01*
X438195262Y-241890842D01*
X438193070Y-241883374D01*
X438189439Y-241872010D01*
X438175917Y-241839141D01*
X438155828Y-241793904D01*
X438142633Y-241764528D01*
X438113214Y-241696626D01*
X438087777Y-241635179D01*
X438066907Y-241583872D01*
X438038789Y-241516223D01*
X438010726Y-241449890D01*
X437993392Y-241409263D01*
X437953905Y-241316220D01*
X437908318Y-241208334D01*
X437860271Y-241094257D01*
X437813407Y-240982638D01*
X437771365Y-240882129D01*
X437737787Y-240801380D01*
X437734680Y-240793881D01*
X437707564Y-240728802D01*
X437673081Y-240646510D01*
X437635338Y-240556785D01*
X437598437Y-240469404D01*
X437561100Y-240381006D01*
X437506140Y-240250155D01*
X437456535Y-240131159D01*
X437413416Y-240026777D01*
X437377912Y-239939764D01*
X437351153Y-239872878D01*
X437334269Y-239828876D01*
X437328390Y-239810515D01*
X437334949Y-239809703D01*
X437368202Y-239808554D01*
X437426350Y-239807534D01*
X437505785Y-239806677D01*
X437602902Y-239806021D01*
X437714093Y-239805601D01*
X437835754Y-239805453D01*
X438343118Y-239805453D01*
X438424590Y-240118128D01*
G37*
G36*
X442853541Y-246404023D02*
G01*
X442852816Y-246419766D01*
X442847890Y-246488866D01*
X442839553Y-246539081D01*
X442825493Y-246580522D01*
X442803398Y-246623298D01*
X442773686Y-246670811D01*
X442688102Y-246773426D01*
X442588480Y-246851426D01*
X442477873Y-246902196D01*
X442467784Y-246903975D01*
X442446093Y-246905815D01*
X442412477Y-246907523D01*
X442366032Y-246909102D01*
X442305856Y-246910554D01*
X442231046Y-246911883D01*
X442140700Y-246913093D01*
X442033915Y-246914185D01*
X441909788Y-246915165D01*
X441767417Y-246916034D01*
X441605899Y-246916797D01*
X441424331Y-246917456D01*
X441221811Y-246918014D01*
X440997436Y-246918476D01*
X440750304Y-246918843D01*
X440479511Y-246919120D01*
X440184155Y-246919309D01*
X439863334Y-246919414D01*
X439516145Y-246919438D01*
X439141685Y-246919384D01*
X438739052Y-246919256D01*
X438307342Y-246919057D01*
X437845654Y-246918789D01*
X433275198Y-246915909D01*
X433197994Y-246877923D01*
X433113601Y-246826473D01*
X433016923Y-246738568D01*
X432939926Y-246632215D01*
X432929236Y-246613120D01*
X432908406Y-246569867D01*
X432895659Y-246527551D01*
X432888406Y-246475567D01*
X432884058Y-246403309D01*
X432883338Y-246383106D01*
X433344681Y-246383106D01*
X433352890Y-246401836D01*
X433375563Y-246429526D01*
X433376535Y-246430485D01*
X433380013Y-246433462D01*
X433384804Y-246436234D01*
X433391962Y-246438809D01*
X433402544Y-246441195D01*
X433417606Y-246443398D01*
X433438204Y-246445426D01*
X433465394Y-246447285D01*
X433500232Y-246448985D01*
X433543774Y-246450531D01*
X433597076Y-246451930D01*
X433661194Y-246453191D01*
X433737185Y-246454320D01*
X433826104Y-246455325D01*
X433929007Y-246456212D01*
X434046951Y-246456990D01*
X434180992Y-246457665D01*
X434332185Y-246458245D01*
X434501587Y-246458737D01*
X434690254Y-246459148D01*
X434899241Y-246459485D01*
X435129605Y-246459756D01*
X435382403Y-246459968D01*
X435658689Y-246460128D01*
X435959520Y-246460243D01*
X436285953Y-246460322D01*
X436639042Y-246460370D01*
X437019845Y-246460395D01*
X437429417Y-246460405D01*
X437868815Y-246460407D01*
X438007494Y-246460407D01*
X438437586Y-246460404D01*
X438838178Y-246460390D01*
X439210326Y-246460358D01*
X439555087Y-246460301D01*
X439873516Y-246460212D01*
X440166669Y-246460084D01*
X440435602Y-246459908D01*
X440681373Y-246459679D01*
X440905035Y-246459388D01*
X441107647Y-246459029D01*
X441290263Y-246458594D01*
X441453940Y-246458076D01*
X441599733Y-246457468D01*
X441728700Y-246456762D01*
X441841895Y-246455951D01*
X441940376Y-246455028D01*
X442025197Y-246453986D01*
X442097416Y-246452817D01*
X442158088Y-246451514D01*
X442208269Y-246450070D01*
X442249016Y-246448478D01*
X442281383Y-246446730D01*
X442306429Y-246444819D01*
X442325208Y-246442738D01*
X442338776Y-246440479D01*
X442348190Y-246438036D01*
X442354506Y-246435401D01*
X442358780Y-246432566D01*
X442362067Y-246429526D01*
X442382979Y-246404484D01*
X442392949Y-246383106D01*
X442387587Y-246368360D01*
X442367156Y-246327600D01*
X442332246Y-246263187D01*
X442283694Y-246176633D01*
X442222338Y-246069448D01*
X442149016Y-245943143D01*
X442121040Y-245894910D01*
X442087073Y-245835672D01*
X442060573Y-245788735D01*
X442039416Y-245751139D01*
X442006219Y-245692953D01*
X441972395Y-245634328D01*
X441958497Y-245610405D01*
X441845622Y-245415964D01*
X441745284Y-245242863D01*
X441658099Y-245092163D01*
X441584679Y-244964926D01*
X441525637Y-244862214D01*
X441481589Y-244785088D01*
X441454037Y-244736715D01*
X441410774Y-244661154D01*
X441370606Y-244591419D01*
X441339585Y-244538036D01*
X441334260Y-244528943D01*
X441288003Y-244449640D01*
X441230616Y-244350842D01*
X441165812Y-244238956D01*
X441097303Y-244120391D01*
X441028801Y-244001555D01*
X441000613Y-243952645D01*
X440955973Y-243875299D01*
X440903842Y-243785059D01*
X440848591Y-243689490D01*
X440794587Y-243596152D01*
X440748928Y-243517242D01*
X440681976Y-243401463D01*
X440610433Y-243277681D01*
X440540351Y-243156371D01*
X440477785Y-243048006D01*
X440429185Y-242963807D01*
X440360219Y-242844352D01*
X440288542Y-242720227D01*
X440220204Y-242601906D01*
X440161250Y-242499860D01*
X440119035Y-242426791D01*
X440044343Y-242297470D01*
X439964415Y-242159040D01*
X439881317Y-242015084D01*
X439797118Y-241869188D01*
X439713886Y-241724937D01*
X439633691Y-241585917D01*
X439558599Y-241455713D01*
X439490679Y-241337909D01*
X439432001Y-241236091D01*
X439384631Y-241153844D01*
X439350638Y-241094754D01*
X439330670Y-241060019D01*
X439283409Y-240977926D01*
X439240255Y-240903122D01*
X439204960Y-240842106D01*
X439181277Y-240801380D01*
X439162413Y-240768974D01*
X439132658Y-240717607D01*
X439100798Y-240662413D01*
X439077647Y-240622260D01*
X439041404Y-240559447D01*
X438996639Y-240481894D01*
X438946917Y-240395778D01*
X438895805Y-240307276D01*
X438893509Y-240303302D01*
X438844900Y-240219134D01*
X438800089Y-240141519D01*
X438761988Y-240075504D01*
X438733510Y-240026137D01*
X438717568Y-239998462D01*
X438697600Y-239963727D01*
X438650339Y-239881634D01*
X438607185Y-239806830D01*
X438571891Y-239745815D01*
X438548207Y-239705088D01*
X438536229Y-239684588D01*
X438491061Y-239606973D01*
X438435804Y-239511682D01*
X438374421Y-239405578D01*
X438310874Y-239295522D01*
X438249128Y-239188375D01*
X438193144Y-239090999D01*
X438146887Y-239010255D01*
X438119738Y-238962754D01*
X438075401Y-238885230D01*
X438033752Y-238812462D01*
X438001103Y-238755483D01*
X437985177Y-238728045D01*
X437946879Y-238666471D01*
X437917014Y-238627463D01*
X437892140Y-238607003D01*
X437868815Y-238601076D01*
X437860665Y-238601740D01*
X437837191Y-238612265D01*
X437810972Y-238638720D01*
X437778564Y-238685120D01*
X437736528Y-238755483D01*
X437716759Y-238789973D01*
X437677567Y-238858425D01*
X437633458Y-238935529D01*
X437590744Y-239010255D01*
X437551296Y-239079173D01*
X437479052Y-239204891D01*
X437404055Y-239334874D01*
X437332297Y-239458743D01*
X437269772Y-239566121D01*
X437241560Y-239614834D01*
X437209825Y-239670542D01*
X437186315Y-239712808D01*
X437166466Y-239748379D01*
X437135132Y-239802902D01*
X437101890Y-239859495D01*
X437072742Y-239908672D01*
X437042045Y-239960815D01*
X437020112Y-239998462D01*
X437019692Y-239999191D01*
X437003090Y-240027982D01*
X436974089Y-240078232D01*
X436935602Y-240144896D01*
X436890543Y-240222926D01*
X436841825Y-240307276D01*
X436793660Y-240390674D01*
X436743761Y-240477096D01*
X436698613Y-240555312D01*
X436661781Y-240619143D01*
X436636832Y-240662413D01*
X436608762Y-240711051D01*
X436578391Y-240763505D01*
X436556353Y-240801380D01*
X436548158Y-240815431D01*
X436519192Y-240865381D01*
X436480174Y-240932919D01*
X436434856Y-241011543D01*
X436386992Y-241094754D01*
X436367903Y-241127948D01*
X436325483Y-241201628D01*
X436270951Y-241296271D01*
X436206374Y-241408293D01*
X436133822Y-241534107D01*
X436055363Y-241670129D01*
X435973065Y-241812774D01*
X435888996Y-241958457D01*
X435805225Y-242103592D01*
X435723820Y-242244594D01*
X435646849Y-242377879D01*
X435576380Y-242499860D01*
X435530777Y-242578794D01*
X435463906Y-242694569D01*
X435392429Y-242818344D01*
X435322393Y-242939648D01*
X435259845Y-243048006D01*
X435211251Y-243132179D01*
X435142246Y-243251639D01*
X435070507Y-243375770D01*
X435002088Y-243494100D01*
X434943043Y-243596152D01*
X434898187Y-243673671D01*
X434843249Y-243768675D01*
X434790881Y-243859297D01*
X434745384Y-243938092D01*
X434711062Y-243997611D01*
X434691864Y-244030933D01*
X434623198Y-244149956D01*
X434556017Y-244266172D01*
X434493793Y-244373587D01*
X434439998Y-244466206D01*
X434398102Y-244538036D01*
X434391976Y-244548531D01*
X434355767Y-244611281D01*
X434314052Y-244684421D01*
X434274680Y-244754207D01*
X434262151Y-244776481D01*
X434227603Y-244837073D01*
X434197152Y-244889387D01*
X434176228Y-244924055D01*
X434173255Y-244928851D01*
X434153278Y-244962303D01*
X434121490Y-245016521D01*
X434080671Y-245086731D01*
X434033598Y-245168158D01*
X433983048Y-245256030D01*
X433974210Y-245271431D01*
X433921579Y-245363069D01*
X433871057Y-245450932D01*
X433825956Y-245529265D01*
X433789589Y-245592315D01*
X433765269Y-245634328D01*
X433737440Y-245682484D01*
X433703541Y-245741763D01*
X433677057Y-245788735D01*
X433655827Y-245826409D01*
X433622553Y-245884562D01*
X433588614Y-245943143D01*
X433527324Y-246048612D01*
X433463806Y-246159263D01*
X433412946Y-246249549D01*
X433375580Y-246317959D01*
X433352546Y-246362981D01*
X433344681Y-246383106D01*
X432883338Y-246383106D01*
X432882001Y-246345579D01*
X432882845Y-246292655D01*
X432889214Y-246251041D01*
X432902960Y-246209905D01*
X432925936Y-246158413D01*
X432932804Y-246144036D01*
X432967172Y-246076730D01*
X433008553Y-246000738D01*
X433049462Y-245929907D01*
X433063836Y-245905853D01*
X433101577Y-245841899D01*
X433135121Y-245784033D01*
X433158556Y-245742413D01*
X433163048Y-245734186D01*
X433182403Y-245699119D01*
X433204225Y-245660357D01*
X433231793Y-245612157D01*
X433268387Y-245548779D01*
X433317284Y-245464480D01*
X433362342Y-245386866D01*
X433446432Y-245241823D01*
X433518527Y-245117165D01*
X433581075Y-245008652D01*
X433636526Y-244912047D01*
X433661888Y-244867879D01*
X433705846Y-244791774D01*
X433747307Y-244720475D01*
X433779879Y-244664995D01*
X433810939Y-244612034D01*
X433842944Y-244556493D01*
X433866326Y-244514875D01*
X433886018Y-244479579D01*
X433917153Y-244424943D01*
X433950015Y-244368188D01*
X433972690Y-244329344D01*
X434046446Y-244202534D01*
X434124540Y-244067683D01*
X434200294Y-243936337D01*
X434267032Y-243820042D01*
X434289875Y-243780192D01*
X434332973Y-243705399D01*
X434373674Y-243635197D01*
X434405542Y-243580711D01*
X434433865Y-243532303D01*
X434468005Y-243473160D01*
X434494566Y-243426304D01*
X434515881Y-243388564D01*
X434549244Y-243330439D01*
X434583294Y-243271897D01*
X434612110Y-243222650D01*
X434682899Y-243101051D01*
X434759026Y-242969586D01*
X434833742Y-242839928D01*
X434900296Y-242723751D01*
X434923049Y-242683970D01*
X434966078Y-242609155D01*
X435006731Y-242538926D01*
X435038576Y-242484419D01*
X435067385Y-242435398D01*
X435097934Y-242383165D01*
X435119828Y-242345453D01*
X435120253Y-242344714D01*
X435136868Y-242315915D01*
X435165889Y-242265663D01*
X435204402Y-242199002D01*
X435249492Y-242120979D01*
X435298245Y-242036638D01*
X435342013Y-241960860D01*
X435398038Y-241863694D01*
X435452052Y-241769853D01*
X435499566Y-241687136D01*
X435536091Y-241623342D01*
X435555167Y-241589947D01*
X435627669Y-241463295D01*
X435701447Y-241334804D01*
X435773191Y-241210209D01*
X435839596Y-241095250D01*
X435897354Y-240995663D01*
X435943157Y-240917185D01*
X435956035Y-240895213D01*
X435999541Y-240820782D01*
X436042816Y-240746490D01*
X436078145Y-240685574D01*
X436128254Y-240598840D01*
X436190752Y-240490624D01*
X436254800Y-240379689D01*
X436318273Y-240269716D01*
X436379047Y-240164390D01*
X436434998Y-240067392D01*
X436484001Y-239982405D01*
X436523931Y-239913111D01*
X436552665Y-239863193D01*
X436568076Y-239836334D01*
X436591266Y-239795814D01*
X436623225Y-239740153D01*
X436656733Y-239681927D01*
X436689522Y-239624879D01*
X436725189Y-239562561D01*
X436753465Y-239512890D01*
X436768880Y-239485892D01*
X436804315Y-239424730D01*
X436838749Y-239366203D01*
X436846024Y-239353890D01*
X436872935Y-239307853D01*
X436911031Y-239242285D01*
X436957356Y-239162283D01*
X437008956Y-239072946D01*
X437062877Y-238979374D01*
X437084974Y-238941009D01*
X437138804Y-238847763D01*
X437189420Y-238760370D01*
X437233782Y-238684062D01*
X437268850Y-238624073D01*
X437291584Y-238585635D01*
X437314817Y-238546114D01*
X437348191Y-238487055D01*
X437374098Y-238438652D01*
X437397063Y-238399725D01*
X437459959Y-238321459D01*
X437538310Y-238249047D01*
X437622639Y-238191897D01*
X437627759Y-238189084D01*
X437667074Y-238169001D01*
X437702028Y-238156266D01*
X437741431Y-238149221D01*
X437794091Y-238146210D01*
X437868815Y-238145574D01*
X437878667Y-238145579D01*
X437950449Y-238146401D01*
X438001164Y-238149786D01*
X438039621Y-238157392D01*
X438074627Y-238170876D01*
X438114992Y-238191897D01*
X438157920Y-238218390D01*
X438240401Y-238284456D01*
X438312097Y-238361013D01*
X438363533Y-238438652D01*
X438380594Y-238470908D01*
X438412671Y-238528439D01*
X438446046Y-238585635D01*
X438453602Y-238598320D01*
X438481715Y-238646147D01*
X438520926Y-238713398D01*
X438568196Y-238794841D01*
X438620485Y-238885244D01*
X438674753Y-238979374D01*
X438697558Y-239018976D01*
X438750862Y-239111386D01*
X438800600Y-239197412D01*
X438843819Y-239271956D01*
X438877564Y-239329919D01*
X438898881Y-239366203D01*
X438916344Y-239395755D01*
X438952686Y-239458047D01*
X438984166Y-239512890D01*
X439010180Y-239558601D01*
X439045598Y-239620503D01*
X439080897Y-239681927D01*
X439081369Y-239682746D01*
X439113999Y-239739389D01*
X439144150Y-239791759D01*
X439165349Y-239828614D01*
X439165775Y-239829354D01*
X439182375Y-239858155D01*
X439211385Y-239908408D01*
X439249890Y-239975067D01*
X439294976Y-240053089D01*
X439343730Y-240137428D01*
X439387852Y-240213769D01*
X439443549Y-240310198D01*
X439497078Y-240402933D01*
X439544007Y-240484296D01*
X439579902Y-240546608D01*
X439647148Y-240663361D01*
X439720269Y-240790042D01*
X439796090Y-240921090D01*
X439878911Y-241063933D01*
X439973028Y-241226000D01*
X440012603Y-241294220D01*
X440067904Y-241389873D01*
X440121306Y-241482568D01*
X440168255Y-241564399D01*
X440204199Y-241627459D01*
X440232368Y-241676959D01*
X440277268Y-241755433D01*
X440329649Y-241846650D01*
X440385104Y-241942942D01*
X440439230Y-242036638D01*
X440441588Y-242040714D01*
X440490275Y-242124858D01*
X440535156Y-242202447D01*
X440573315Y-242268438D01*
X440601836Y-242317787D01*
X440617802Y-242345453D01*
X440636786Y-242378172D01*
X440666739Y-242429417D01*
X440699054Y-242484419D01*
X440715436Y-242512373D01*
X440753011Y-242577063D01*
X440795788Y-242651234D01*
X440837334Y-242723751D01*
X440866399Y-242774589D01*
X440937533Y-242898396D01*
X441013734Y-243030331D01*
X441088252Y-243158722D01*
X441154336Y-243271897D01*
X441182468Y-243320205D01*
X441216522Y-243379402D01*
X441243064Y-243426304D01*
X441264461Y-243464132D01*
X441297910Y-243522219D01*
X441332089Y-243580711D01*
X441348517Y-243608718D01*
X441386138Y-243673399D01*
X441428978Y-243747549D01*
X441470598Y-243820042D01*
X441491637Y-243856783D01*
X441562154Y-243979432D01*
X441639442Y-244113246D01*
X441716821Y-244246680D01*
X441787615Y-244368188D01*
X441815844Y-244416885D01*
X441847669Y-244472602D01*
X441871304Y-244514875D01*
X441892597Y-244552828D01*
X441924218Y-244607777D01*
X441957751Y-244664995D01*
X441976256Y-244696425D01*
X442015021Y-244762885D01*
X442058768Y-244838431D01*
X442101104Y-244912047D01*
X442126830Y-244956920D01*
X442185361Y-245058677D01*
X442252159Y-245174364D01*
X442329671Y-245308219D01*
X442420346Y-245464480D01*
X442432973Y-245486227D01*
X442478720Y-245565155D01*
X442512925Y-245624496D01*
X442538866Y-245669992D01*
X442559823Y-245707384D01*
X442579074Y-245742413D01*
X442586510Y-245755842D01*
X442614530Y-245804908D01*
X442650386Y-245866316D01*
X442688169Y-245929907D01*
X442698349Y-245947067D01*
X442740101Y-246020573D01*
X442780378Y-246095638D01*
X442811694Y-246158413D01*
X442831224Y-246201601D01*
X442846479Y-246243677D01*
X442854060Y-246284263D01*
X442855803Y-246334123D01*
X442854218Y-246383106D01*
X442853541Y-246404023D01*
G37*
%TO.C,C89*%
D12*
X321866253Y-230090000D02*
X323288757Y-230090000D01*
X321866253Y-231910000D02*
X323288757Y-231910000D01*
%TO.C,R34*%
X432790000Y-205822936D02*
X432790000Y-210177064D01*
X436210000Y-205822936D02*
X436210000Y-210177064D01*
%TO.C,C46*%
X428390000Y-208613748D02*
X428390000Y-209136252D01*
X429860000Y-208613748D02*
X429860000Y-209136252D01*
%TO.C,R26*%
X437040000Y-181822936D02*
X437040000Y-186177064D01*
X440460000Y-181822936D02*
X440460000Y-186177064D01*
%TO.C,C87*%
X297980005Y-243211252D02*
X297980005Y-241788748D01*
X299800005Y-243211252D02*
X299800005Y-241788748D01*
%TO.C,C15*%
X345521252Y-207515000D02*
X344998748Y-207515000D01*
X345521252Y-208985000D02*
X344998748Y-208985000D01*
%TO.C,C70*%
X345265000Y-227738748D02*
X345265000Y-228261252D01*
X346735000Y-227738748D02*
X346735000Y-228261252D01*
%TO.C,C52*%
X426140000Y-209136252D02*
X426140000Y-208613748D01*
X427610000Y-209136252D02*
X427610000Y-208613748D01*
%TO.C,C41*%
X408890000Y-208613748D02*
X408890000Y-209136252D01*
X410360000Y-208613748D02*
X410360000Y-209136252D01*
%TO.C,C37*%
X415788748Y-167090000D02*
X417211252Y-167090000D01*
X415788748Y-168910000D02*
X417211252Y-168910000D01*
%TO.C,C90*%
X321866253Y-242090000D02*
X323288757Y-242090000D01*
X321866253Y-243910000D02*
X323288757Y-243910000D01*
%TO.C,C2*%
X408890000Y-189136252D02*
X408890000Y-188613748D01*
X410360000Y-189136252D02*
X410360000Y-188613748D01*
%TO.C,C54*%
X417890000Y-209136252D02*
X417890000Y-208613748D01*
X419360000Y-209136252D02*
X419360000Y-208613748D01*
%TO.C,R92*%
X330022936Y-214265000D02*
X330477064Y-214265000D01*
X330022936Y-215735000D02*
X330477064Y-215735000D01*
%TO.C,C11*%
X349265000Y-240261252D02*
X349265000Y-239738748D01*
X350735000Y-240261252D02*
X350735000Y-239738748D01*
%TO.C,C18*%
X335498748Y-203265000D02*
X336021252Y-203265000D01*
X335498748Y-204735000D02*
X336021252Y-204735000D01*
%TO.C,C24*%
X420140000Y-188613748D02*
X420140000Y-189136252D01*
X421610000Y-188613748D02*
X421610000Y-189136252D01*
%TO.C,C53*%
X420140000Y-208613748D02*
X420140000Y-209136252D01*
X421610000Y-208613748D02*
X421610000Y-209136252D01*
%TO.C,C65*%
X338515000Y-211738748D02*
X338515000Y-212261252D01*
X339985000Y-211738748D02*
X339985000Y-212261252D01*
%TO.C,L3*%
X239647936Y-231390000D02*
X240852064Y-231390000D01*
X239647936Y-234110000D02*
X240852064Y-234110000D01*
%TO.C,C68*%
X235340000Y-231961252D02*
X235340000Y-230538748D01*
X237160000Y-231961252D02*
X237160000Y-230538748D01*
%TO.C,R27*%
X447177064Y-179040000D02*
X442822936Y-179040000D01*
X447177064Y-182460000D02*
X442822936Y-182460000D01*
%TO.C,R132*%
X432790000Y-225822936D02*
X432790000Y-230177064D01*
X436210000Y-225822936D02*
X436210000Y-230177064D01*
%TO.C,C63*%
X420140000Y-228613748D02*
X420140000Y-229136252D01*
X421610000Y-228613748D02*
X421610000Y-229136252D01*
%TO.C,R52*%
X427015000Y-171727064D02*
X427015000Y-171272936D01*
X428485000Y-171727064D02*
X428485000Y-171272936D01*
%TO.C,C62*%
X426140000Y-229136252D02*
X426140000Y-228613748D01*
X427610000Y-229136252D02*
X427610000Y-228613748D01*
%TO.C,C83*%
X297980005Y-231211252D02*
X297980005Y-229788748D01*
X299800005Y-231211252D02*
X299800005Y-229788748D01*
%TO.C,C22*%
X428390000Y-189136252D02*
X428390000Y-188613748D01*
X429860000Y-189136252D02*
X429860000Y-188613748D01*
%TO.C,R89*%
X358727064Y-238015000D02*
X358272936Y-238015000D01*
X358727064Y-239485000D02*
X358272936Y-239485000D01*
%TO.C,C14*%
X352515000Y-227488748D02*
X352515000Y-228011252D01*
X353985000Y-227488748D02*
X353985000Y-228011252D01*
%TO.C,C92*%
X327116253Y-242090000D02*
X328538757Y-242090000D01*
X327116253Y-243910000D02*
X328538757Y-243910000D01*
%TO.C,C69*%
X240961252Y-228840000D02*
X239538748Y-228840000D01*
X240961252Y-230660000D02*
X239538748Y-230660000D01*
%TO.C,C17*%
X340775000Y-202238748D02*
X340775000Y-202761252D01*
X342245000Y-202238748D02*
X342245000Y-202761252D01*
%TO.C,R25*%
X432790000Y-185822936D02*
X432790000Y-190177064D01*
X436210000Y-185822936D02*
X436210000Y-190177064D01*
%TO.C,C48*%
X310403195Y-199573748D02*
X310403195Y-200996252D01*
X312223195Y-199573748D02*
X312223195Y-200996252D01*
%TO.C,C16*%
X340775000Y-212261252D02*
X340775000Y-211738748D01*
X342245000Y-212261252D02*
X342245000Y-211738748D01*
%TO.C,C27*%
X338525000Y-202238748D02*
X338525000Y-202761252D01*
X339995000Y-202238748D02*
X339995000Y-202761252D01*
%TO.C,C5*%
X439011252Y-170765000D02*
X438488748Y-170765000D01*
X439011252Y-172235000D02*
X438488748Y-172235000D01*
%TO.C,C91*%
X327116253Y-230090000D02*
X328538757Y-230090000D01*
X327116253Y-231910000D02*
X328538757Y-231910000D01*
%TO.C,C25*%
X417890000Y-189136252D02*
X417890000Y-188613748D01*
X419360000Y-189136252D02*
X419360000Y-188613748D01*
%TO.C,R12*%
X330022936Y-216515000D02*
X330477064Y-216515000D01*
X330022936Y-217985000D02*
X330477064Y-217985000D01*
%TO.C,R91*%
X354765000Y-239977064D02*
X354765000Y-239522936D01*
X356235000Y-239977064D02*
X356235000Y-239522936D01*
%TO.C,C59*%
X352515000Y-239488748D02*
X352515000Y-240011252D01*
X353985000Y-239488748D02*
X353985000Y-240011252D01*
%TO.C,C80*%
X345265000Y-239738748D02*
X345265000Y-240261252D01*
X346735000Y-239738748D02*
X346735000Y-240261252D01*
%TO.C,L2*%
X398290000Y-171511242D02*
X398290000Y-168738738D01*
X401710000Y-171511242D02*
X401710000Y-168738738D01*
%TO.C,C23*%
X426140000Y-189136252D02*
X426140000Y-188613748D01*
X427610000Y-189136252D02*
X427610000Y-188613748D01*
%TO.C,C4*%
X344998748Y-205265000D02*
X345521252Y-205265000D01*
X344998748Y-206735000D02*
X345521252Y-206735000D01*
%TO.C,C7*%
X349265000Y-227738748D02*
X349265000Y-228261252D01*
X350735000Y-227738748D02*
X350735000Y-228261252D01*
%TO.C,R85*%
X252515000Y-214977064D02*
X252515000Y-214522936D01*
X253985000Y-214977064D02*
X253985000Y-214522936D01*
%TO.C,C67*%
X348015000Y-243988748D02*
X348015000Y-244511252D01*
X349485000Y-243988748D02*
X349485000Y-244511252D01*
%TO.C,R88*%
X358727064Y-226015000D02*
X358272936Y-226015000D01*
X358727064Y-227485000D02*
X358272936Y-227485000D01*
%TO.C,C3*%
X343025000Y-211738748D02*
X343025000Y-212261252D01*
X344495000Y-211738748D02*
X344495000Y-212261252D01*
%TD*%
D14*
X220162003Y-167500003D02*
X220162003Y-243500000D01*
X220162003Y-167500003D02*
G75*
G02*
X225750003Y-161912003I5587997J3D01*
G01*
X225750004Y-249087996D02*
G75*
G02*
X220162004Y-243499996I-4J5587996D01*
G01*
X243750000Y-179750000D02*
G75*
G02*
X243750000Y-178750000I0J500000D01*
G01*
X245500000Y-224250000D02*
X245500000Y-234250000D01*
X245500000Y-224250000D02*
G75*
G02*
X248000000Y-224250000I1250000J0D01*
G01*
X248000000Y-224250000D02*
X248000000Y-234250000D01*
X248000000Y-234250000D02*
G75*
G02*
X245500000Y-234250000I-1250000J0D01*
G01*
X249250000Y-178750000D02*
X243750000Y-178750000D01*
X249250000Y-178750000D02*
G75*
G02*
X249250000Y-179750000I0J-500000D01*
G01*
X249250000Y-179750000D02*
X243750000Y-179750000D01*
X262250000Y-179750000D02*
G75*
G02*
X262250000Y-178750000I0J500000D01*
G01*
X267750000Y-178750000D02*
X262250000Y-178750000D01*
X267750000Y-178750000D02*
G75*
G02*
X267750000Y-179750000I0J-500000D01*
G01*
X267750000Y-179750000D02*
X262250000Y-179750000D01*
X280750000Y-179750000D02*
G75*
G02*
X280750000Y-178750000I0J500000D01*
G01*
X286250000Y-178750000D02*
X280750000Y-178750000D01*
X286250000Y-178750000D02*
G75*
G02*
X286250000Y-179750000I0J-500000D01*
G01*
X286250000Y-179750000D02*
X280750000Y-179750000D01*
X299250000Y-179750000D02*
G75*
G02*
X299250000Y-178750000I0J500000D01*
G01*
X304000000Y-196500000D02*
G75*
G02*
X306000000Y-196500000I1000000J0D01*
G01*
X304000000Y-209000000D02*
X304000000Y-196500000D01*
X304750000Y-178750000D02*
X299250000Y-178750000D01*
X304750000Y-178750000D02*
G75*
G02*
X304750000Y-179750000I0J-500000D01*
G01*
X304750000Y-179750000D02*
X299250000Y-179750000D01*
X306000000Y-209000000D02*
G75*
G02*
X304000000Y-209000000I-1000000J0D01*
G01*
X306000000Y-209000000D02*
X306000000Y-196500000D01*
X316500000Y-225250000D02*
X316500000Y-246250000D01*
X316500000Y-225250000D02*
G75*
G02*
X319000000Y-225250000I1250000J0D01*
G01*
X317750000Y-179750000D02*
G75*
G02*
X317750000Y-178750000I0J500000D01*
G01*
X319000000Y-225250000D02*
X319000000Y-246250000D01*
X319000000Y-246250000D02*
G75*
G02*
X316500000Y-246250000I-1250000J0D01*
G01*
X323250000Y-178750000D02*
X317750000Y-178750000D01*
X323250000Y-178750000D02*
G75*
G02*
X323250000Y-179750000I0J-500000D01*
G01*
X323250000Y-179750000D02*
X317750000Y-179750000D01*
X336250000Y-179750000D02*
G75*
G02*
X336250000Y-178750000I0J500000D01*
G01*
X341750000Y-178750000D02*
X336250000Y-178750000D01*
X341750000Y-178750000D02*
G75*
G02*
X341750000Y-179750000I0J-500000D01*
G01*
X341750000Y-179750000D02*
X336250000Y-179750000D01*
X354750000Y-179750000D02*
G75*
G02*
X354750000Y-178750000I0J500000D01*
G01*
X360250000Y-178750000D02*
X354750000Y-178750000D01*
X360250000Y-178750000D02*
G75*
G02*
X360250000Y-179750000I0J-500000D01*
G01*
X360250000Y-179750000D02*
X354750000Y-179750000D01*
X373250000Y-179750000D02*
G75*
G02*
X373250000Y-178750000I0J500000D01*
G01*
X378750000Y-178750000D02*
X373250000Y-178750000D01*
X378750000Y-178750000D02*
G75*
G02*
X378750000Y-179750000I0J-500000D01*
G01*
X378750000Y-179750000D02*
X373250000Y-179750000D01*
X404000000Y-164500000D02*
X404000000Y-172750000D01*
X404000000Y-164500000D02*
G75*
G02*
X406500000Y-164500000I1250000J0D01*
G01*
X406500000Y-164500000D02*
X406500000Y-172750000D01*
X406500000Y-172750000D02*
G75*
G02*
X404000000Y-172750000I-1250000J0D01*
G01*
X422750000Y-186000000D02*
X422750000Y-191750000D01*
X422750000Y-186000000D02*
G75*
G02*
X424750000Y-186000000I1000000J0D01*
G01*
X422750000Y-206125000D02*
X422750000Y-211875000D01*
X422750000Y-206125000D02*
G75*
G02*
X424750000Y-206125000I1000000J0D01*
G01*
X422750000Y-226125000D02*
X422750000Y-231875000D01*
X422750000Y-226125000D02*
G75*
G02*
X424750000Y-226125000I1000000J0D01*
G01*
X424750000Y-186000000D02*
X424750000Y-191750000D01*
X424750000Y-191750000D02*
G75*
G02*
X422750000Y-191750000I-1000000J0D01*
G01*
X424750000Y-206125000D02*
X424750000Y-211875000D01*
X424750000Y-211875000D02*
G75*
G02*
X422750000Y-211875000I-1000000J0D01*
G01*
X424750000Y-226125000D02*
X424750000Y-231875000D01*
X424750000Y-231875000D02*
G75*
G02*
X422750000Y-231875000I-1000000J0D01*
G01*
X440750000Y-192500000D02*
X440750000Y-194250000D01*
X440750000Y-192500000D02*
G75*
G02*
X441750000Y-192500000I500000J0D01*
G01*
X440750000Y-212625000D02*
X440750000Y-214375000D01*
X440750000Y-212625000D02*
G75*
G02*
X441750000Y-212625000I500000J0D01*
G01*
X440750000Y-232625000D02*
X440750000Y-234375000D01*
X440750000Y-232625000D02*
G75*
G02*
X441750000Y-232625000I500000J0D01*
G01*
X441750000Y-192500000D02*
X441750000Y-194250000D01*
X441750000Y-194250000D02*
G75*
G02*
X440750000Y-194250000I-500000J0D01*
G01*
X441750000Y-212625000D02*
X441750000Y-214375000D01*
X441750000Y-214375000D02*
G75*
G02*
X440750000Y-214375000I-500000J0D01*
G01*
X441750000Y-232625000D02*
X441750000Y-234375000D01*
X441750000Y-234375000D02*
G75*
G02*
X440750000Y-234375000I-500000J0D01*
G01*
X451749996Y-161912004D02*
G75*
G02*
X457337996Y-167500004I4J-5587996D01*
G01*
X451749996Y-249087996D02*
X225750004Y-249087996D01*
X451750000Y-161912003D02*
X225750003Y-161912003D01*
X457337996Y-167500004D02*
X457337996Y-243499996D01*
X457337996Y-243499996D02*
G75*
G02*
X451749996Y-249087996I-5587996J-4D01*
G01*
M02*
