%TF.GenerationSoftware,KiCad,Pcbnew,10.0.1*%
%TF.CreationDate,2026-06-11T10:53:21+03:00*%
%TF.ProjectId,PDU_Container_MCU_PCB,5044555f-436f-46e7-9461-696e65725f4d,rev?*%
%TF.SameCoordinates,Original*%
%TF.FileFunction,Copper,L4,Bot*%
%TF.FilePolarity,Positive*%
%FSLAX46Y46*%
G04 Gerber Fmt 4.6, Leading zero omitted, Abs format (unit mm)*
G04 Created by KiCad (PCBNEW 10.0.1) date 2026-06-11 10:53:21*
%MOMM*%
%LPD*%
G01*
G04 APERTURE LIST*
G04 Aperture macros list*
%AMRoundRect*
0 Rectangle with rounded corners*
0 $1 Rounding radius*
0 $2 $3 $4 $5 $6 $7 $8 $9 X,Y pos of 4 corners*
0 Add a 4 corners polygon primitive as box body*
4,1,4,$2,$3,$4,$5,$6,$7,$8,$9,$2,$3,0*
0 Add four circle primitives for the rounded corners*
1,1,$1+$1,$2,$3*
1,1,$1+$1,$4,$5*
1,1,$1+$1,$6,$7*
1,1,$1+$1,$8,$9*
0 Add four rect primitives between the rounded corners*
20,1,$1+$1,$2,$3,$4,$5,0*
20,1,$1+$1,$4,$5,$6,$7,0*
20,1,$1+$1,$6,$7,$8,$9,0*
20,1,$1+$1,$8,$9,$2,$3,0*%
G04 Aperture macros list end*
%TA.AperFunction,ComponentPad*%
%ADD10RoundRect,0.250000X0.750000X0.750000X-0.750000X0.750000X-0.750000X-0.750000X0.750000X-0.750000X0*%
%TD*%
%TA.AperFunction,ComponentPad*%
%ADD11C,2.000000*%
%TD*%
%TA.AperFunction,ComponentPad*%
%ADD12RoundRect,0.250001X1.099999X1.399999X-1.099999X1.399999X-1.099999X-1.399999X1.099999X-1.399999X0*%
%TD*%
%TA.AperFunction,ComponentPad*%
%ADD13O,2.700000X3.300000*%
%TD*%
%TA.AperFunction,ComponentPad*%
%ADD14RoundRect,0.250001X1.399999X-1.099999X1.399999X1.099999X-1.399999X1.099999X-1.399999X-1.099999X0*%
%TD*%
%TA.AperFunction,ComponentPad*%
%ADD15O,3.300000X2.700000*%
%TD*%
%TA.AperFunction,ComponentPad*%
%ADD16R,1.700000X1.700000*%
%TD*%
%TA.AperFunction,ComponentPad*%
%ADD17C,1.700000*%
%TD*%
%TA.AperFunction,ComponentPad*%
%ADD18C,0.900000*%
%TD*%
%TA.AperFunction,ComponentPad*%
%ADD19C,8.600000*%
%TD*%
%TA.AperFunction,ComponentPad*%
%ADD20RoundRect,0.250001X-1.399999X1.099999X-1.399999X-1.099999X1.399999X-1.099999X1.399999X1.099999X0*%
%TD*%
%TA.AperFunction,ComponentPad*%
%ADD21RoundRect,0.250000X0.550000X-0.550000X0.550000X0.550000X-0.550000X0.550000X-0.550000X-0.550000X0*%
%TD*%
%TA.AperFunction,ComponentPad*%
%ADD22C,1.600000*%
%TD*%
%TA.AperFunction,ComponentPad*%
%ADD23RoundRect,0.250000X-0.550000X0.550000X-0.550000X-0.550000X0.550000X-0.550000X0.550000X0.550000X0*%
%TD*%
%TA.AperFunction,ComponentPad*%
%ADD24RoundRect,0.250000X0.750000X-0.750000X0.750000X0.750000X-0.750000X0.750000X-0.750000X-0.750000X0*%
%TD*%
%TA.AperFunction,ComponentPad*%
%ADD25O,1.600000X2.300000*%
%TD*%
%TA.AperFunction,ComponentPad*%
%ADD26O,2.200000X1.500000*%
%TD*%
%TA.AperFunction,SMDPad,CuDef*%
%ADD27RoundRect,0.250000X-0.337500X-0.475000X0.337500X-0.475000X0.337500X0.475000X-0.337500X0.475000X0*%
%TD*%
%TA.AperFunction,SMDPad,CuDef*%
%ADD28RoundRect,0.249999X0.450001X1.425001X-0.450001X1.425001X-0.450001X-1.425001X0.450001X-1.425001X0*%
%TD*%
%TA.AperFunction,SMDPad,CuDef*%
%ADD29RoundRect,0.250000X-0.412500X-0.650000X0.412500X-0.650000X0.412500X0.650000X-0.412500X0.650000X0*%
%TD*%
%TA.AperFunction,SMDPad,CuDef*%
%ADD30RoundRect,0.250000X0.450000X-0.350000X0.450000X0.350000X-0.450000X0.350000X-0.450000X-0.350000X0*%
%TD*%
%TA.AperFunction,SMDPad,CuDef*%
%ADD31RoundRect,0.250000X-0.650000X0.412500X-0.650000X-0.412500X0.650000X-0.412500X0.650000X0.412500X0*%
%TD*%
%TA.AperFunction,SMDPad,CuDef*%
%ADD32RoundRect,0.250000X-0.475000X0.337500X-0.475000X-0.337500X0.475000X-0.337500X0.475000X0.337500X0*%
%TD*%
%TA.AperFunction,SMDPad,CuDef*%
%ADD33RoundRect,0.250000X1.500000X0.650000X-1.500000X0.650000X-1.500000X-0.650000X1.500000X-0.650000X0*%
%TD*%
%TA.AperFunction,SMDPad,CuDef*%
%ADD34RoundRect,0.250000X0.412500X0.650000X-0.412500X0.650000X-0.412500X-0.650000X0.412500X-0.650000X0*%
%TD*%
%TA.AperFunction,SMDPad,CuDef*%
%ADD35RoundRect,0.249999X-1.425001X0.450001X-1.425001X-0.450001X1.425001X-0.450001X1.425001X0.450001X0*%
%TD*%
%TA.AperFunction,SMDPad,CuDef*%
%ADD36RoundRect,0.250000X0.337500X0.475000X-0.337500X0.475000X-0.337500X-0.475000X0.337500X-0.475000X0*%
%TD*%
%TA.AperFunction,SMDPad,CuDef*%
%ADD37RoundRect,0.250000X0.475000X-0.337500X0.475000X0.337500X-0.475000X0.337500X-0.475000X-0.337500X0*%
%TD*%
%TA.AperFunction,SMDPad,CuDef*%
%ADD38RoundRect,0.250000X0.650000X-0.412500X0.650000X0.412500X-0.650000X0.412500X-0.650000X-0.412500X0*%
%TD*%
%TA.AperFunction,SMDPad,CuDef*%
%ADD39RoundRect,0.250000X-0.350000X-0.450000X0.350000X-0.450000X0.350000X0.450000X-0.350000X0.450000X0*%
%TD*%
%TA.AperFunction,SMDPad,CuDef*%
%ADD40RoundRect,0.250001X-0.462499X-1.074999X0.462499X-1.074999X0.462499X1.074999X-0.462499X1.074999X0*%
%TD*%
%TA.AperFunction,SMDPad,CuDef*%
%ADD41RoundRect,0.250000X0.350000X0.450000X-0.350000X0.450000X-0.350000X-0.450000X0.350000X-0.450000X0*%
%TD*%
%TA.AperFunction,SMDPad,CuDef*%
%ADD42RoundRect,0.250000X1.450000X-0.400000X1.450000X0.400000X-1.450000X0.400000X-1.450000X-0.400000X0*%
%TD*%
%TA.AperFunction,ViaPad*%
%ADD43C,0.600000*%
%TD*%
%TA.AperFunction,Conductor*%
%ADD44C,1.000000*%
%TD*%
%TA.AperFunction,Conductor*%
%ADD45C,0.500000*%
%TD*%
%TA.AperFunction,Profile*%
%ADD46C,0.050000*%
%TD*%
G04 APERTURE END LIST*
D10*
%TO.P,C79,1*%
%TO.N,+24V*%
X247867677Y-214750000D03*
D11*
%TO.P,C79,2*%
%TO.N,GNDD*%
X242867677Y-214750000D03*
%TD*%
D12*
%TO.P,J12,1,Pin_1_1*%
%TO.N,Net-(D32-A)*%
X313250000Y-172500000D03*
D13*
%TO.P,J12,2,Pin_2_2*%
%TO.N,+24V*%
X313250000Y-167000000D03*
%TD*%
D14*
%TO.P,J5,1,Pin_1_1*%
%TO.N,GNDPWR*%
X448125000Y-213375000D03*
D15*
%TO.P,J5,2,Pin_2_2*%
X453625000Y-213375000D03*
%TD*%
D12*
%TO.P,J15,1,Pin_1_1*%
%TO.N,Net-(D39-A)*%
X368750000Y-172500000D03*
D13*
%TO.P,J15,2,Pin_2_2*%
%TO.N,+24V*%
X368750000Y-167000000D03*
%TD*%
D16*
%TO.P,J1,1,Pin_1_1*%
%TO.N,GND*%
X323790000Y-211500000D03*
D17*
%TO.P,J1,2,Pin_2_2*%
%TO.N,Net-(J1-Pin_2)*%
X321250000Y-211500000D03*
%TO.P,J1,3,Pin_3_3*%
%TO.N,Net-(J1-Pin_3)*%
X318710000Y-211500000D03*
%TO.P,J1,4,Pin_4_4*%
%TO.N,Net-(D5-A)*%
X316170000Y-211500000D03*
%TD*%
D12*
%TO.P,J11,1,Pin_1_1*%
%TO.N,Net-(D31-A)*%
X294750000Y-172500000D03*
D13*
%TO.P,J11,2,Pin_2_2*%
%TO.N,+24V*%
X294750000Y-167000000D03*
%TD*%
D18*
%TO.P,H1,1,1_1*%
%TO.N,GNDD*%
X225750000Y-240275000D03*
X228030419Y-241219581D03*
X223469581Y-241219581D03*
X228975000Y-243500000D03*
D19*
X225750000Y-243500000D03*
D18*
X222525000Y-243500000D03*
X228030419Y-245780419D03*
X223469581Y-245780419D03*
X225750000Y-246725000D03*
%TD*%
D20*
%TO.P,J35,1,Pin_1_1*%
%TO.N,/CANL*%
X262750000Y-200650000D03*
D15*
%TO.P,J35,2,Pin_2_2*%
%TO.N,/CANH*%
X262750000Y-204850000D03*
%TO.P,J35,3,Pin_3_3*%
%TO.N,GND_CAN*%
X257250000Y-200650000D03*
%TO.P,J35,4,Pin_4_4*%
X257250000Y-204850000D03*
%TD*%
D21*
%TO.P,U11,1*%
%TO.N,Net-(R72-Pad2)*%
X319250000Y-183120000D03*
D22*
%TO.P,U11,2*%
%TO.N,GND*%
X321790000Y-183120000D03*
%TO.P,U11,3*%
%TO.N,Net-(Q4-G)*%
X321790000Y-175500000D03*
%TO.P,U11,4*%
%TO.N,+5VD*%
X319250000Y-175500000D03*
%TD*%
D12*
%TO.P,J10,1,Pin_1_1*%
%TO.N,Net-(D28-A)*%
X276250000Y-172500000D03*
D13*
%TO.P,J10,2,Pin_2_2*%
%TO.N,+24V*%
X276250000Y-167000000D03*
%TD*%
D23*
%TO.P,U8,1*%
%TO.N,Net-(R63-Pad1)*%
X266275000Y-175445000D03*
D22*
%TO.P,U8,2*%
%TO.N,GNDD*%
X263735000Y-175445000D03*
%TO.P,U8,3*%
%TO.N,/Relay_FeedBack_1*%
X263735000Y-183065000D03*
%TO.P,U8,4*%
%TO.N,+3.3V*%
X266275000Y-183065000D03*
%TD*%
D18*
%TO.P,H2,1,1_1*%
%TO.N,GNDD*%
X225750000Y-164275000D03*
X228030419Y-165219581D03*
X223469581Y-165219581D03*
X228975000Y-167500000D03*
D19*
X225750000Y-167500000D03*
D18*
X222525000Y-167500000D03*
X228030419Y-169780419D03*
X223469581Y-169780419D03*
X225750000Y-170725000D03*
%TD*%
D21*
%TO.P,U9,1*%
%TO.N,Net-(R66-Pad2)*%
X282250000Y-183120000D03*
D22*
%TO.P,U9,2*%
%TO.N,GND*%
X284790000Y-183120000D03*
%TO.P,U9,3*%
%TO.N,Net-(Q3-G)*%
X284790000Y-175500000D03*
%TO.P,U9,4*%
%TO.N,+5VD*%
X282250000Y-175500000D03*
%TD*%
D24*
%TO.P,C88,1*%
%TO.N,Net-(D23-Vin)*%
X301890005Y-244867677D03*
D11*
%TO.P,C88,2*%
%TO.N,Net-(D23-GND)*%
X301890005Y-239867677D03*
%TD*%
D25*
%TO.P,D18,1,GND_1*%
%TO.N,GNDD*%
X397359990Y-165249990D03*
%TO.P,D18,2,Vin_2*%
%TO.N,Net-(D18-Vin)*%
X399899990Y-165249990D03*
%TO.P,D18,3,Ctrl_3*%
%TO.N,unconnected-(D18-Ctrl-Pad3)*%
X402439990Y-165249990D03*
%TO.P,D18,5,NC_5*%
%TO.N,unconnected-(D18-NC-Pad5)*%
X407519990Y-165249990D03*
%TO.P,D18,6,+Vo_6*%
%TO.N,Net-(D18-+Vo)*%
X410059990Y-165249990D03*
%TO.P,D18,7,0V_7*%
%TO.N,GNDPWR*%
X412599990Y-165249990D03*
%TO.P,D18,8,CS_8*%
%TO.N,Net-(D18-CS)*%
X415139990Y-165249990D03*
%TD*%
D23*
%TO.P,U12,1*%
%TO.N,Net-(R75-Pad1)*%
X340275000Y-175445000D03*
D22*
%TO.P,U12,2*%
%TO.N,GNDD*%
X337735000Y-175445000D03*
%TO.P,U12,3*%
%TO.N,/Relay_FeedBack_3*%
X337735000Y-183065000D03*
%TO.P,U12,4*%
%TO.N,+3.3V*%
X340275000Y-183065000D03*
%TD*%
D24*
%TO.P,C84,1*%
%TO.N,Net-(D21-Vin)*%
X301890005Y-232867677D03*
D11*
%TO.P,C84,2*%
%TO.N,Net-(D21-GND)*%
X301890005Y-227867677D03*
%TD*%
D20*
%TO.P,J6,1,Pin_1_1*%
%TO.N,-24V_IN*%
X229500000Y-196750000D03*
D15*
%TO.P,J6,2,Pin_2_2*%
%TO.N,+24V*%
X229500000Y-200950000D03*
%TO.P,J6,3,Pin_3_3*%
%TO.N,-24V_IN*%
X224000000Y-196750000D03*
%TO.P,J6,4,Pin_4_4*%
%TO.N,+24V*%
X224000000Y-200950000D03*
%TD*%
D12*
%TO.P,J14,1,Pin_1_1*%
%TO.N,Net-(D36-A)*%
X350250000Y-172500000D03*
D13*
%TO.P,J14,2,Pin_2_2*%
%TO.N,+24V*%
X350250000Y-167000000D03*
%TD*%
D12*
%TO.P,J8,1,Pin_1_1*%
%TO.N,Net-(D24-A)*%
X239250000Y-172500000D03*
D13*
%TO.P,J8,2,Pin_2_2*%
%TO.N,+24V*%
X239250000Y-167000000D03*
%TD*%
D25*
%TO.P,D23,1,GND_1*%
%TO.N,Net-(D23-GND)*%
X310000000Y-240199990D03*
%TO.P,D23,2,Vin_2*%
%TO.N,Net-(D23-Vin)*%
X312540000Y-240199990D03*
%TO.P,D23,3,NC_3*%
%TO.N,unconnected-(D23-NC-Pad3)*%
X315080000Y-240199990D03*
%TO.P,D23,5,NC_5*%
%TO.N,unconnected-(D23-NC-Pad5)*%
X320160000Y-240199990D03*
%TO.P,D23,6,+Vo_6*%
%TO.N,/Current_measure_2/+15V*%
X322700000Y-240199990D03*
%TO.P,D23,7,0V_7*%
%TO.N,GND*%
X325240000Y-240199990D03*
%TO.P,D23,8,-Vo_8*%
%TO.N,/Current_measure_2/-15V*%
X327780000Y-240199990D03*
%TD*%
D14*
%TO.P,J3,1,Pin_1_1*%
%TO.N,Net-(J3-Pin_1)*%
X448125000Y-184375000D03*
D15*
%TO.P,J3,2,Pin_2_2*%
X453625000Y-184375000D03*
%TD*%
D14*
%TO.P,J4,1,Pin_1_1*%
%TO.N,Net-(J4-Pin_1)*%
X448125000Y-204375000D03*
D15*
%TO.P,J4,2,Pin_2_2*%
X453625000Y-204375000D03*
%TD*%
D14*
%TO.P,J7,1,Pin_1_1*%
%TO.N,GNDPWR*%
X448125000Y-193375000D03*
D15*
%TO.P,J7,2,Pin_2_2*%
X453625000Y-193375000D03*
%TD*%
D21*
%TO.P,U13,1*%
%TO.N,Net-(R78-Pad2)*%
X356250000Y-183120000D03*
D22*
%TO.P,U13,2*%
%TO.N,GND*%
X358790000Y-183120000D03*
%TO.P,U13,3*%
%TO.N,Net-(Q5-G)*%
X358790000Y-175500000D03*
%TO.P,U13,4*%
%TO.N,+5VD*%
X356250000Y-175500000D03*
%TD*%
D12*
%TO.P,J13,1,Pin_1_1*%
%TO.N,Net-(D35-A)*%
X331750000Y-172500000D03*
D13*
%TO.P,J13,2,Pin_2_2*%
%TO.N,+24V*%
X331750000Y-167000000D03*
%TD*%
D25*
%TO.P,D21,1,GND_1*%
%TO.N,Net-(D21-GND)*%
X310000000Y-228199990D03*
%TO.P,D21,2,Vin_2*%
%TO.N,Net-(D21-Vin)*%
X312540000Y-228199990D03*
%TO.P,D21,3,NC_3*%
%TO.N,unconnected-(D21-NC-Pad3)*%
X315080000Y-228199990D03*
%TO.P,D21,5,NC_5*%
%TO.N,unconnected-(D21-NC-Pad5)*%
X320160000Y-228199990D03*
%TO.P,D21,6,+Vo_6*%
%TO.N,/Current_measure_1/+15V*%
X322700000Y-228199990D03*
%TO.P,D21,7,0V_7*%
%TO.N,GND*%
X325240000Y-228199990D03*
%TO.P,D21,8,-Vo_8*%
%TO.N,/Current_measure_1/-15V*%
X327780000Y-228199990D03*
%TD*%
D14*
%TO.P,J16,1,Pin_1_1*%
%TO.N,/Current_measure_1/+15V*%
X333250000Y-232350000D03*
D15*
%TO.P,J16,2,Pin_2_2*%
%TO.N,/Current_measure_1/-15V*%
X333250000Y-228150000D03*
%TO.P,J16,3,Pin_3_3*%
%TO.N,/Current_measure_1/M*%
X338750000Y-232350000D03*
%TO.P,J16,4,Pin_4_4*%
%TO.N,unconnected-(J16-Pin_4-Pad4)*%
X338750000Y-228150000D03*
%TD*%
D14*
%TO.P,J32,1,Pin_1_1*%
%TO.N,Net-(J32-Pin_1)*%
X448125000Y-224375000D03*
D15*
%TO.P,J32,2,Pin_2_2*%
X453625000Y-224375000D03*
%TD*%
D25*
%TO.P,D19,1,GND_1*%
%TO.N,GNDD*%
X239109990Y-226999990D03*
%TO.P,D19,2,Vin_2*%
%TO.N,Net-(D19-Vin)*%
X241649990Y-226999990D03*
%TO.P,D19,3,Ctrl_3*%
%TO.N,unconnected-(D19-Ctrl-Pad3)*%
X244189990Y-226999990D03*
%TO.P,D19,5,NC_5*%
%TO.N,unconnected-(D19-NC-Pad5)*%
X249269990Y-226999990D03*
%TO.P,D19,6,+Vo_6*%
%TO.N,+5V*%
X251809990Y-226999990D03*
%TO.P,D19,7,0V_7*%
%TO.N,GND*%
X254349990Y-226999990D03*
%TO.P,D19,8,CS_8*%
%TO.N,unconnected-(D19-CS-Pad8)*%
X256889990Y-226999990D03*
%TD*%
D20*
%TO.P,J34,1,Pin_1_1*%
%TO.N,/CANL*%
X281500000Y-200650000D03*
D15*
%TO.P,J34,2,Pin_2_2*%
%TO.N,/CANH*%
X281500000Y-204850000D03*
%TO.P,J34,3,Pin_3_3*%
%TO.N,GND_CAN*%
X276000000Y-200650000D03*
%TO.P,J34,4,Pin_4_4*%
X276000000Y-204850000D03*
%TD*%
D23*
%TO.P,U10,1*%
%TO.N,Net-(R69-Pad1)*%
X303275000Y-175445000D03*
D22*
%TO.P,U10,2*%
%TO.N,GNDD*%
X300735000Y-175445000D03*
%TO.P,U10,3*%
%TO.N,/Relay_FeedBack_2*%
X300735000Y-183065000D03*
%TO.P,U10,4*%
%TO.N,+3.3V*%
X303275000Y-183065000D03*
%TD*%
D12*
%TO.P,J9,1,Pin_1_1*%
%TO.N,Net-(D27-A)*%
X257750000Y-172500000D03*
D13*
%TO.P,J9,2,Pin_2_2*%
%TO.N,+24V*%
X257750000Y-167000000D03*
%TD*%
D21*
%TO.P,U7,1*%
%TO.N,Net-(R60-Pad2)*%
X245250000Y-183120000D03*
D22*
%TO.P,U7,2*%
%TO.N,GND*%
X247790000Y-183120000D03*
%TO.P,U7,3*%
%TO.N,Net-(Q2-G)*%
X247790000Y-175500000D03*
%TO.P,U7,4*%
%TO.N,+5VD*%
X245250000Y-175500000D03*
%TD*%
D23*
%TO.P,U14,1*%
%TO.N,Net-(R81-Pad1)*%
X377275000Y-175445000D03*
D22*
%TO.P,U14,2*%
%TO.N,GNDD*%
X374735000Y-175445000D03*
%TO.P,U14,3*%
%TO.N,/Relay_FeedBack_4*%
X374735000Y-183065000D03*
%TO.P,U14,4*%
%TO.N,+3.3V*%
X377275000Y-183065000D03*
%TD*%
D14*
%TO.P,J17,1,Pin_1_1*%
%TO.N,/Current_measure_2/+15V*%
X333250000Y-244350000D03*
D15*
%TO.P,J17,2,Pin_2_2*%
%TO.N,/Current_measure_2/-15V*%
X333250000Y-240150000D03*
%TO.P,J17,3,Pin_3_3*%
%TO.N,/Current_measure_2/M*%
X338750000Y-244350000D03*
%TO.P,J17,4,Pin_4_4*%
%TO.N,unconnected-(J17-Pin_4-Pad4)*%
X338750000Y-240150000D03*
%TD*%
D14*
%TO.P,J33,1,Pin_1_1*%
%TO.N,GNDPWR*%
X448125000Y-233375000D03*
D15*
%TO.P,J33,2,Pin_2_2*%
X453625000Y-233375000D03*
%TD*%
D26*
%TO.P,D12,1,RXD_1*%
%TO.N,/CAN_RXD_MCU*%
X308813195Y-206575000D03*
%TO.P,D12,2,TXD_2*%
%TO.N,/CAN_TXD_MCU*%
X308813195Y-204035000D03*
%TO.P,D12,3,GND_3*%
%TO.N,GND*%
X308813195Y-201495000D03*
%TO.P,D12,4,VCC_4*%
%TO.N,+3.3V*%
X308813195Y-198955000D03*
%TO.P,D12,5,CANG_5*%
%TO.N,GND_CAN*%
X301193195Y-198955000D03*
%TO.P,D12,6,CANL_6*%
%TO.N,Net-(D12-CANL)*%
X301193195Y-201495000D03*
%TO.P,D12,7,CANH_7*%
%TO.N,Net-(D12-CANH)*%
X301193195Y-204035000D03*
%TD*%
D27*
%TO.P,C19,1*%
%TO.N,+3.3V*%
X334722500Y-208500000D03*
%TO.P,C19,2*%
%TO.N,GND*%
X336797500Y-208500000D03*
%TD*%
D28*
%TO.P,R28,1*%
%TO.N,Net-(J4-Pin_1)*%
X448050000Y-200750000D03*
%TO.P,R28,2*%
%TO.N,Net-(R28-Pad2)*%
X441950000Y-200750000D03*
%TD*%
D29*
%TO.P,C66,1*%
%TO.N,+5V*%
X251437500Y-229750000D03*
%TO.P,C66,2*%
%TO.N,GND*%
X254562500Y-229750000D03*
%TD*%
D30*
%TO.P,R39,1*%
%TO.N,Net-(D11-K)*%
X270000000Y-230000000D03*
%TO.P,R39,2*%
%TO.N,GND*%
X270000000Y-228000000D03*
%TD*%
D31*
%TO.P,C47,1*%
%TO.N,+3.3V*%
X313813195Y-198722500D03*
%TO.P,C47,2*%
%TO.N,GND*%
X313813195Y-201847500D03*
%TD*%
D32*
%TO.P,C56,1*%
%TO.N,+3.3V*%
X409625000Y-227837500D03*
%TO.P,C56,2*%
%TO.N,GND*%
X409625000Y-229912500D03*
%TD*%
D33*
%TO.P,D7,1,K_1*%
%TO.N,GNDPWR*%
X443750000Y-193375000D03*
%TO.P,D7,2,A_2*%
%TO.N,Net-(D6-K)*%
X438750000Y-193375000D03*
%TD*%
D32*
%TO.P,C61,1*%
%TO.N,GNDPWR*%
X429125000Y-227837500D03*
%TO.P,C61,2*%
%TO.N,+3.3VP*%
X429125000Y-229912500D03*
%TD*%
D30*
%TO.P,R90,1*%
%TO.N,GND*%
X355500000Y-228750000D03*
%TO.P,R90,2*%
%TO.N,Net-(U2-+)*%
X355500000Y-226750000D03*
%TD*%
D34*
%TO.P,C35,1*%
%TO.N,GNDPWR*%
X412812500Y-168000000D03*
%TO.P,C35,2*%
%TO.N,Net-(D18-+Vo)*%
X409687500Y-168000000D03*
%TD*%
%TO.P,C39,1*%
%TO.N,Net-(D18-Vin)*%
X396937510Y-167874990D03*
%TO.P,C39,2*%
%TO.N,GNDD*%
X393812510Y-167874990D03*
%TD*%
D30*
%TO.P,R14,1*%
%TO.N,+3.3V*%
X337250000Y-218250000D03*
%TO.P,R14,2*%
%TO.N,NRST*%
X337250000Y-216250000D03*
%TD*%
D35*
%TO.P,R31,1*%
%TO.N,Net-(R28-Pad2)*%
X438750000Y-200950000D03*
%TO.P,R31,2*%
%TO.N,Net-(R31-Pad2)*%
X438750000Y-207050000D03*
%TD*%
D33*
%TO.P,D16,1,K_1*%
%TO.N,GNDPWR*%
X443750000Y-213375000D03*
%TO.P,D16,2,A_2*%
%TO.N,Net-(D10-K)*%
X438750000Y-213375000D03*
%TD*%
D30*
%TO.P,R57,1*%
%TO.N,Net-(D22-K)*%
X261000000Y-230000000D03*
%TO.P,R57,2*%
%TO.N,GND*%
X261000000Y-228000000D03*
%TD*%
D36*
%TO.P,C21,1*%
%TO.N,Net-(U5-VCAP_1)*%
X346297500Y-203750000D03*
%TO.P,C21,2*%
%TO.N,GND*%
X344222500Y-203750000D03*
%TD*%
D28*
%TO.P,R48,1*%
%TO.N,Net-(J32-Pin_1)*%
X448050000Y-220750000D03*
%TO.P,R48,2*%
%TO.N,Net-(R48-Pad2)*%
X441950000Y-220750000D03*
%TD*%
D27*
%TO.P,C13,1*%
%TO.N,+3.3V*%
X334722500Y-206250000D03*
%TO.P,C13,2*%
%TO.N,GND*%
X336797500Y-206250000D03*
%TD*%
D34*
%TO.P,C38,1*%
%TO.N,+24V*%
X396937510Y-172124990D03*
%TO.P,C38,2*%
%TO.N,GNDD*%
X393812510Y-172124990D03*
%TD*%
D37*
%TO.P,C64,1*%
%TO.N,+3.3V*%
X418625000Y-229912500D03*
%TO.P,C64,2*%
%TO.N,GND*%
X418625000Y-227837500D03*
%TD*%
D32*
%TO.P,C20,1*%
%TO.N,/Current_1_measure*%
X348750000Y-231212500D03*
%TO.P,C20,2*%
%TO.N,GND*%
X348750000Y-233287500D03*
%TD*%
D33*
%TO.P,D83,1,K_1*%
%TO.N,GNDPWR*%
X443750000Y-233375000D03*
%TO.P,D83,2,A_2*%
%TO.N,Net-(D81-K)*%
X438750000Y-233375000D03*
%TD*%
D35*
%TO.P,R51,1*%
%TO.N,Net-(R48-Pad2)*%
X438750000Y-220950000D03*
%TO.P,R51,2*%
%TO.N,Net-(R132-Pad1)*%
X438750000Y-227050000D03*
%TD*%
D29*
%TO.P,C89,1*%
%TO.N,/Current_measure_1/+15V*%
X321015005Y-231000000D03*
%TO.P,C89,2*%
%TO.N,GND*%
X324140005Y-231000000D03*
%TD*%
D35*
%TO.P,R34,1*%
%TO.N,Net-(R31-Pad2)*%
X434500000Y-204950000D03*
%TO.P,R34,2*%
%TO.N,Net-(D10-A)*%
X434500000Y-211050000D03*
%TD*%
D32*
%TO.P,C46,1*%
%TO.N,GNDPWR*%
X429125000Y-207837500D03*
%TO.P,C46,2*%
%TO.N,+3.3VP*%
X429125000Y-209912500D03*
%TD*%
D35*
%TO.P,R26,1*%
%TO.N,Net-(R26-Pad1)*%
X438750000Y-180950000D03*
%TO.P,R26,2*%
%TO.N,Net-(R25-Pad1)*%
X438750000Y-187050000D03*
%TD*%
D38*
%TO.P,C87,1*%
%TO.N,Net-(D23-Vin)*%
X298890005Y-244062500D03*
%TO.P,C87,2*%
%TO.N,Net-(D23-GND)*%
X298890005Y-240937500D03*
%TD*%
D36*
%TO.P,C15,1*%
%TO.N,+3.3V*%
X346297500Y-208250000D03*
%TO.P,C15,2*%
%TO.N,GND*%
X344222500Y-208250000D03*
%TD*%
D32*
%TO.P,C70,1*%
%TO.N,Net-(Q7-E)*%
X346000000Y-226962500D03*
%TO.P,C70,2*%
%TO.N,GND*%
X346000000Y-229037500D03*
%TD*%
D37*
%TO.P,C52,1*%
%TO.N,+3.3VP*%
X426875000Y-209912500D03*
%TO.P,C52,2*%
%TO.N,GNDPWR*%
X426875000Y-207837500D03*
%TD*%
D32*
%TO.P,C41,1*%
%TO.N,+3.3V*%
X409625000Y-207837500D03*
%TO.P,C41,2*%
%TO.N,GND*%
X409625000Y-209912500D03*
%TD*%
D29*
%TO.P,C37,1*%
%TO.N,GNDPWR*%
X414937500Y-168000000D03*
%TO.P,C37,2*%
%TO.N,Net-(D18-CS)*%
X418062500Y-168000000D03*
%TD*%
%TO.P,C90,1*%
%TO.N,/Current_measure_2/+15V*%
X321015005Y-243000000D03*
%TO.P,C90,2*%
%TO.N,GND*%
X324140005Y-243000000D03*
%TD*%
D32*
%TO.P,C2,1*%
%TO.N,+3.3V*%
X409625000Y-187837500D03*
%TO.P,C2,2*%
%TO.N,GND*%
X409625000Y-189912500D03*
%TD*%
D37*
%TO.P,C54,1*%
%TO.N,+3.3V*%
X418625000Y-209912500D03*
%TO.P,C54,2*%
%TO.N,GND*%
X418625000Y-207837500D03*
%TD*%
D39*
%TO.P,R92,1*%
%TO.N,Net-(D42-K)*%
X329250000Y-215000000D03*
%TO.P,R92,2*%
%TO.N,GND*%
X331250000Y-215000000D03*
%TD*%
D37*
%TO.P,C11,1*%
%TO.N,+3.3V*%
X350000000Y-241037500D03*
%TO.P,C11,2*%
%TO.N,GND*%
X350000000Y-238962500D03*
%TD*%
D27*
%TO.P,C18,1*%
%TO.N,+3.3V*%
X334722500Y-204000000D03*
%TO.P,C18,2*%
%TO.N,GND*%
X336797500Y-204000000D03*
%TD*%
D32*
%TO.P,C24,1*%
%TO.N,GND*%
X420875000Y-187837500D03*
%TO.P,C24,2*%
%TO.N,+3.3V*%
X420875000Y-189912500D03*
%TD*%
%TO.P,C53,1*%
%TO.N,GND*%
X420875000Y-207837500D03*
%TO.P,C53,2*%
%TO.N,+3.3V*%
X420875000Y-209912500D03*
%TD*%
%TO.P,C65,1*%
%TO.N,GND*%
X339250000Y-210962500D03*
%TO.P,C65,2*%
%TO.N,NRST*%
X339250000Y-213037500D03*
%TD*%
D40*
%TO.P,L3,1*%
%TO.N,+24V*%
X238762500Y-232750000D03*
%TO.P,L3,2*%
%TO.N,Net-(D19-Vin)*%
X241737500Y-232750000D03*
%TD*%
D38*
%TO.P,C68,1*%
%TO.N,+24V*%
X236250000Y-232812500D03*
%TO.P,C68,2*%
%TO.N,GNDD*%
X236250000Y-229687500D03*
%TD*%
D28*
%TO.P,R27,1*%
%TO.N,Net-(J3-Pin_1)*%
X448050000Y-180750000D03*
%TO.P,R27,2*%
%TO.N,Net-(R26-Pad1)*%
X441950000Y-180750000D03*
%TD*%
D35*
%TO.P,R132,1*%
%TO.N,Net-(R132-Pad1)*%
X434500000Y-224950000D03*
%TO.P,R132,2*%
%TO.N,Net-(D81-A)*%
X434500000Y-231050000D03*
%TD*%
D32*
%TO.P,C63,1*%
%TO.N,GND*%
X420875000Y-227837500D03*
%TO.P,C63,2*%
%TO.N,+3.3V*%
X420875000Y-229912500D03*
%TD*%
D30*
%TO.P,R52,1*%
%TO.N,Net-(D17-K)*%
X427750000Y-172500000D03*
%TO.P,R52,2*%
%TO.N,GNDPWR*%
X427750000Y-170500000D03*
%TD*%
D37*
%TO.P,C62,1*%
%TO.N,+3.3VP*%
X426875000Y-229912500D03*
%TO.P,C62,2*%
%TO.N,GNDPWR*%
X426875000Y-227837500D03*
%TD*%
D38*
%TO.P,C83,1*%
%TO.N,Net-(D21-Vin)*%
X298890005Y-232062500D03*
%TO.P,C83,2*%
%TO.N,Net-(D21-GND)*%
X298890005Y-228937500D03*
%TD*%
D32*
%TO.P,C22,1*%
%TO.N,GNDPWR*%
X429125000Y-187837500D03*
%TO.P,C22,2*%
%TO.N,+3.3VP*%
X429125000Y-189912500D03*
%TD*%
D41*
%TO.P,R89,1*%
%TO.N,+3.3V*%
X359500000Y-238750000D03*
%TO.P,R89,2*%
%TO.N,Net-(U3-+)*%
X357500000Y-238750000D03*
%TD*%
D37*
%TO.P,C14,1*%
%TO.N,GND*%
X353250000Y-228787500D03*
%TO.P,C14,2*%
%TO.N,Net-(U2-+)*%
X353250000Y-226712500D03*
%TD*%
D29*
%TO.P,C92,1*%
%TO.N,GND*%
X326265005Y-243000000D03*
%TO.P,C92,2*%
%TO.N,/Current_measure_2/-15V*%
X329390005Y-243000000D03*
%TD*%
D34*
%TO.P,C69,1*%
%TO.N,Net-(D19-Vin)*%
X241812500Y-229750000D03*
%TO.P,C69,2*%
%TO.N,GNDD*%
X238687500Y-229750000D03*
%TD*%
D32*
%TO.P,C17,1*%
%TO.N,+3.3V*%
X341510000Y-201462500D03*
%TO.P,C17,2*%
%TO.N,GND*%
X341510000Y-203537500D03*
%TD*%
D35*
%TO.P,R25,1*%
%TO.N,Net-(R25-Pad1)*%
X434500000Y-184950000D03*
%TO.P,R25,2*%
%TO.N,Net-(D6-A)*%
X434500000Y-191050000D03*
%TD*%
D31*
%TO.P,C48,1*%
%TO.N,+3.3V*%
X311313195Y-198722500D03*
%TO.P,C48,2*%
%TO.N,GND*%
X311313195Y-201847500D03*
%TD*%
D37*
%TO.P,C16,1*%
%TO.N,+3.3V*%
X341510000Y-213037500D03*
%TO.P,C16,2*%
%TO.N,GND*%
X341510000Y-210962500D03*
%TD*%
D32*
%TO.P,C27,1*%
%TO.N,Net-(U5-VCAP_2)*%
X339260000Y-201462500D03*
%TO.P,C27,2*%
%TO.N,GND*%
X339260000Y-203537500D03*
%TD*%
D36*
%TO.P,C5,1*%
%TO.N,+3.3VP*%
X439787500Y-171500000D03*
%TO.P,C5,2*%
%TO.N,GNDPWR*%
X437712500Y-171500000D03*
%TD*%
D29*
%TO.P,C91,1*%
%TO.N,GND*%
X326265005Y-231000000D03*
%TO.P,C91,2*%
%TO.N,/Current_measure_1/-15V*%
X329390005Y-231000000D03*
%TD*%
D37*
%TO.P,C25,1*%
%TO.N,+3.3V*%
X418625000Y-189912500D03*
%TO.P,C25,2*%
%TO.N,GND*%
X418625000Y-187837500D03*
%TD*%
D39*
%TO.P,R12,1*%
%TO.N,Net-(D8-K)*%
X329250000Y-217250000D03*
%TO.P,R12,2*%
%TO.N,GND*%
X331250000Y-217250000D03*
%TD*%
D30*
%TO.P,R91,1*%
%TO.N,GND*%
X355500000Y-240750000D03*
%TO.P,R91,2*%
%TO.N,Net-(U3-+)*%
X355500000Y-238750000D03*
%TD*%
D37*
%TO.P,C59,1*%
%TO.N,GND*%
X353250000Y-240787500D03*
%TO.P,C59,2*%
%TO.N,Net-(U3-+)*%
X353250000Y-238712500D03*
%TD*%
D32*
%TO.P,C80,1*%
%TO.N,Net-(Q10-C)*%
X346000000Y-238962500D03*
%TO.P,C80,2*%
%TO.N,GND*%
X346000000Y-241037500D03*
%TD*%
D42*
%TO.P,L2,1,1_1*%
%TO.N,+24V*%
X400000000Y-172349990D03*
%TO.P,L2,2,2_2*%
%TO.N,Net-(D18-Vin)*%
X400000000Y-167899990D03*
%TD*%
D37*
%TO.P,C23,1*%
%TO.N,+3.3VP*%
X426875000Y-189912500D03*
%TO.P,C23,2*%
%TO.N,GNDPWR*%
X426875000Y-187837500D03*
%TD*%
D36*
%TO.P,C4,1*%
%TO.N,+3.3V*%
X346297500Y-206000000D03*
%TO.P,C4,2*%
%TO.N,GND*%
X344222500Y-206000000D03*
%TD*%
D37*
%TO.P,C7,1*%
%TO.N,+3.3V*%
X350000000Y-229037500D03*
%TO.P,C7,2*%
%TO.N,GND*%
X350000000Y-226962500D03*
%TD*%
D30*
%TO.P,R85,1*%
%TO.N,Net-(D41-K)*%
X253250000Y-215750000D03*
%TO.P,R85,2*%
%TO.N,GNDD*%
X253250000Y-213750000D03*
%TD*%
D32*
%TO.P,C67,1*%
%TO.N,/Current_2_measure*%
X348750000Y-243212500D03*
%TO.P,C67,2*%
%TO.N,GND*%
X348750000Y-245287500D03*
%TD*%
D41*
%TO.P,R88,1*%
%TO.N,+3.3V*%
X359500000Y-226750000D03*
%TO.P,R88,2*%
%TO.N,Net-(U2-+)*%
X357500000Y-226750000D03*
%TD*%
D37*
%TO.P,C3,1*%
%TO.N,+3.3V*%
X343760000Y-213037500D03*
%TO.P,C3,2*%
%TO.N,GND*%
X343760000Y-210962500D03*
%TD*%
D43*
%TO.N,GND*%
X409625000Y-230875000D03*
X416625000Y-194625000D03*
X260750000Y-215750000D03*
X340500000Y-207250000D03*
X329750000Y-209000000D03*
X339750000Y-208000000D03*
X406375000Y-231625000D03*
X348750000Y-246350000D03*
X406375000Y-191375000D03*
X258000000Y-185250000D03*
X346000000Y-242000000D03*
X295000000Y-185250000D03*
X260000000Y-214250000D03*
X260000000Y-215750000D03*
X409625000Y-210875000D03*
X263750000Y-216500000D03*
X340160000Y-220160000D03*
X332000000Y-185250000D03*
X340500000Y-208000000D03*
X339750000Y-207250000D03*
X262250000Y-214250000D03*
X350800000Y-234200000D03*
X263000000Y-216500000D03*
X262250000Y-215750000D03*
X295000000Y-183000000D03*
X369000000Y-185250000D03*
X320000000Y-202750000D03*
X340500000Y-206500000D03*
X271250000Y-228000000D03*
X376200000Y-187950000D03*
X339200000Y-187950000D03*
X260000000Y-215000000D03*
X258000000Y-183000000D03*
X346000000Y-230000000D03*
X417220000Y-206970000D03*
X336537500Y-220712500D03*
X352000000Y-228000000D03*
X261500000Y-215750000D03*
X261500000Y-214250000D03*
X341250000Y-208000000D03*
X352000000Y-240000000D03*
X369000000Y-183000000D03*
X261500000Y-215000000D03*
X263750000Y-215000000D03*
X355200000Y-241700000D03*
X325240000Y-241750000D03*
X341250000Y-207250000D03*
X348750000Y-234350000D03*
X263000000Y-215000000D03*
X265200000Y-187950000D03*
X409625000Y-190875000D03*
X262250000Y-216500000D03*
X315250000Y-201250000D03*
X325240000Y-230500000D03*
X260750000Y-215000000D03*
X325240000Y-229750000D03*
X416625000Y-214625000D03*
X260750000Y-216500000D03*
X417220000Y-226970000D03*
X263000000Y-214250000D03*
X262250000Y-215000000D03*
X331250000Y-218500000D03*
X355200000Y-229700000D03*
X263750000Y-214250000D03*
X262200000Y-228016920D03*
X341250000Y-206500000D03*
X345712500Y-222787500D03*
X302200000Y-187950000D03*
X261500000Y-216500000D03*
X263750000Y-215750000D03*
X332000000Y-183000000D03*
X325240000Y-242500000D03*
X339750000Y-206500000D03*
X260000000Y-216500000D03*
X260750000Y-214250000D03*
X406375000Y-211625000D03*
X350800000Y-246200000D03*
X416625000Y-234625000D03*
X417220000Y-186970000D03*
X263000000Y-215750000D03*
%TO.N,+3.3V*%
X272000000Y-218750000D03*
X271250000Y-217250000D03*
X266750000Y-221000000D03*
X347500000Y-210000000D03*
X315222500Y-198722500D03*
X408675000Y-186875000D03*
X271250000Y-215000000D03*
X408675000Y-206875000D03*
X268250000Y-223250000D03*
X268250000Y-218000000D03*
X271250000Y-216500000D03*
X269750000Y-223750000D03*
X267500000Y-223250000D03*
X347800000Y-240950000D03*
X333500000Y-211000000D03*
X272000000Y-219500000D03*
X267500000Y-222500000D03*
X271250000Y-223750000D03*
X268250000Y-220250000D03*
X417220000Y-210780000D03*
X272000000Y-222500000D03*
X270000000Y-226750000D03*
X270500000Y-215000000D03*
X268250000Y-221000000D03*
X272000000Y-221750000D03*
X268250000Y-221750000D03*
X272000000Y-216500000D03*
X269000000Y-223750000D03*
X268250000Y-218750000D03*
X352700000Y-246200000D03*
X271250000Y-215750000D03*
X268250000Y-219500000D03*
X272000000Y-215750000D03*
X270500000Y-215750000D03*
X272000000Y-220250000D03*
X335750000Y-200000000D03*
X352700000Y-234200000D03*
X271250000Y-218000000D03*
X272000000Y-223250000D03*
X270500000Y-214250000D03*
X347750000Y-203000000D03*
X316250000Y-205500000D03*
X269000000Y-218000000D03*
X272000000Y-214250000D03*
X268250000Y-222500000D03*
X336250000Y-214250000D03*
X272000000Y-221000000D03*
X266750000Y-222500000D03*
X269750000Y-217250000D03*
X337250000Y-219000000D03*
X270500000Y-216500000D03*
X360500000Y-226750000D03*
X272000000Y-217250000D03*
X267500000Y-221000000D03*
X342750000Y-214250000D03*
X266750000Y-221750000D03*
X402425000Y-191325000D03*
X320000000Y-205000000D03*
X408675000Y-226875000D03*
X417220000Y-190780000D03*
X272000000Y-218000000D03*
X417220000Y-230780000D03*
X270500000Y-218000000D03*
X271250000Y-214250000D03*
X402425000Y-231325000D03*
X267500000Y-220250000D03*
X266750000Y-220250000D03*
X270500000Y-217250000D03*
X347800000Y-228950000D03*
X402425000Y-211325000D03*
X360500000Y-238750000D03*
X270500000Y-223750000D03*
X272000000Y-215000000D03*
X269750000Y-218000000D03*
X267500000Y-221750000D03*
%TO.N,Net-(U2-+)*%
X351950000Y-227050000D03*
%TO.N,Net-(Q7-E)*%
X347750000Y-227000000D03*
%TO.N,+24V*%
X222000000Y-180250000D03*
X225000000Y-175750000D03*
X222750000Y-178750000D03*
X234750000Y-202000000D03*
X253250000Y-212500000D03*
X222750000Y-175000000D03*
X223500000Y-181750000D03*
X222750000Y-178000000D03*
X222000000Y-182500000D03*
X236500000Y-202000000D03*
X233750000Y-232500000D03*
X223500000Y-180250000D03*
X225500000Y-223250000D03*
X222000000Y-178750000D03*
X223500000Y-177250000D03*
X224250000Y-177250000D03*
X222000000Y-177250000D03*
X223500000Y-175750000D03*
X237250000Y-202000000D03*
X224250000Y-180250000D03*
X225000000Y-180250000D03*
X235500000Y-202000000D03*
X222000000Y-176500000D03*
X222750000Y-176500000D03*
X233750000Y-233250000D03*
X397375010Y-173750000D03*
X225000000Y-175000000D03*
X225000000Y-176500000D03*
X222000000Y-175000000D03*
X222000000Y-178000000D03*
X223500000Y-176500000D03*
X223500000Y-183250000D03*
X222750000Y-177250000D03*
X222750000Y-183250000D03*
X222000000Y-181000000D03*
X396625010Y-173750000D03*
X222000000Y-183250000D03*
X225000000Y-177250000D03*
X234500000Y-232500000D03*
X223500000Y-175000000D03*
X222750000Y-182500000D03*
X222000000Y-181750000D03*
X277390005Y-227890005D03*
X222750000Y-180250000D03*
X222750000Y-181750000D03*
X225000000Y-181000000D03*
X224250000Y-175000000D03*
X222750000Y-175750000D03*
X223500000Y-182500000D03*
X224250000Y-175750000D03*
X222000000Y-175750000D03*
X222750000Y-181000000D03*
X222750000Y-179500000D03*
X234500000Y-233250000D03*
X277390005Y-239890005D03*
X224250000Y-176500000D03*
X222000000Y-179500000D03*
X223500000Y-181000000D03*
X224250000Y-181000000D03*
%TO.N,GNDD*%
X221750000Y-206000000D03*
X252750000Y-167500000D03*
X393375010Y-173750000D03*
X289750000Y-166000000D03*
X292390005Y-241250000D03*
X228250000Y-181750000D03*
X252750000Y-166750000D03*
X283390005Y-228000000D03*
X326750000Y-167500000D03*
X292390005Y-229250000D03*
X221750000Y-208500000D03*
X221750000Y-209750000D03*
X326000000Y-167500000D03*
X230500000Y-182500000D03*
X224250000Y-212250000D03*
X230500000Y-181750000D03*
X221750000Y-212250000D03*
X228250000Y-181000000D03*
X277390005Y-233140005D03*
X223000000Y-208500000D03*
X229250000Y-207250000D03*
X326750000Y-166750000D03*
X289750000Y-165250000D03*
X224250000Y-209750000D03*
X223000000Y-213500000D03*
X289750000Y-166750000D03*
X289750000Y-167500000D03*
X234500000Y-229750000D03*
X228000000Y-206000000D03*
X224250000Y-208500000D03*
X229750000Y-183250000D03*
X229000000Y-183250000D03*
X224250000Y-206000000D03*
X252750000Y-165250000D03*
X233750000Y-229750000D03*
X289000000Y-167500000D03*
X229000000Y-182500000D03*
X224250000Y-213500000D03*
X228250000Y-183250000D03*
X225500000Y-206000000D03*
X228250000Y-182500000D03*
X229750000Y-181000000D03*
X223000000Y-209750000D03*
X394125010Y-173750000D03*
X229750000Y-182500000D03*
X221750000Y-213500000D03*
X363750000Y-166000000D03*
X230500000Y-183250000D03*
X326750000Y-165250000D03*
X223000000Y-211000000D03*
X252000000Y-167500000D03*
X363750000Y-165250000D03*
X277390005Y-245140005D03*
X229000000Y-181750000D03*
X234500000Y-229000000D03*
X223000000Y-206000000D03*
X233750000Y-229000000D03*
X230500000Y-181000000D03*
X251750000Y-213750000D03*
X363750000Y-167500000D03*
X252750000Y-166000000D03*
X221750000Y-211000000D03*
X229750000Y-181750000D03*
X229000000Y-181000000D03*
X228000000Y-207250000D03*
X223000000Y-212250000D03*
X224250000Y-207250000D03*
X226750000Y-207250000D03*
X224250000Y-211000000D03*
X221750000Y-207250000D03*
X226750000Y-206000000D03*
X363750000Y-166750000D03*
X363000000Y-167500000D03*
X283390005Y-240000000D03*
X225500000Y-207250000D03*
X223000000Y-207250000D03*
X326750000Y-166000000D03*
%TO.N,GNDPWR*%
X435250000Y-169750000D03*
X427250000Y-164000000D03*
X413250000Y-169750000D03*
X414000000Y-169750000D03*
X425750000Y-164000000D03*
X430375000Y-206970000D03*
X426500000Y-170500000D03*
X426500000Y-164000000D03*
X425000000Y-164000000D03*
X430375000Y-226970000D03*
X432750000Y-169750000D03*
X436500000Y-171500000D03*
X415500000Y-169750000D03*
X424250000Y-164000000D03*
X412500000Y-169750000D03*
X428750000Y-164000000D03*
X414750000Y-169750000D03*
X428000000Y-164000000D03*
X430375000Y-186970000D03*
%TO.N,Net-(D17-K)*%
X427750000Y-173250000D03*
%TO.N,+3.3VP*%
X420250000Y-174750000D03*
X421750000Y-173250000D03*
X420500000Y-169750000D03*
X420250000Y-170500000D03*
X423500000Y-173250000D03*
X421750000Y-174750000D03*
X420250000Y-173250000D03*
X424000000Y-169750000D03*
X430250000Y-169750000D03*
X423250000Y-169750000D03*
X422250000Y-174000000D03*
X424750000Y-172750000D03*
X421250000Y-169750000D03*
X422750000Y-173250000D03*
X421750000Y-170500000D03*
X423250000Y-174000000D03*
X430280000Y-210780000D03*
X423500000Y-174750000D03*
X419750000Y-174000000D03*
X422250000Y-169750000D03*
X424250000Y-174750000D03*
X419750000Y-172750000D03*
X419750000Y-172000000D03*
X422750000Y-170500000D03*
X421000000Y-173250000D03*
X424750000Y-174000000D03*
X424750000Y-171250000D03*
X421000000Y-170500000D03*
X430280000Y-190780000D03*
X424250000Y-170500000D03*
X424250000Y-173250000D03*
X421250000Y-174000000D03*
X424750000Y-172000000D03*
X424000000Y-174000000D03*
X421000000Y-174750000D03*
X430280000Y-230780000D03*
X423500000Y-170500000D03*
X419750000Y-171250000D03*
X422750000Y-174750000D03*
X440950000Y-170550000D03*
X420500000Y-174000000D03*
%TO.N,Net-(Q10-C)*%
X347750000Y-239000000D03*
%TO.N,Net-(U3-+)*%
X351950000Y-239050000D03*
%TO.N,Net-(D81-K)*%
X436250000Y-233500000D03*
%TO.N,Net-(D81-A)*%
X433500000Y-233500000D03*
%TO.N,GND_CAN*%
X284250000Y-202750000D03*
X299465000Y-202785000D03*
%TO.N,+5VD*%
X229000000Y-176500000D03*
X226750000Y-175000000D03*
X228250000Y-175750000D03*
X226750000Y-175750000D03*
X227500000Y-176500000D03*
X228250000Y-176500000D03*
X228250000Y-175000000D03*
X227500000Y-175750000D03*
X229000000Y-175000000D03*
X229000000Y-175750000D03*
X226750000Y-176500000D03*
X227500000Y-175000000D03*
%TO.N,Net-(D21-Vin)*%
X296890005Y-231750000D03*
%TO.N,Net-(D21-GND)*%
X296890005Y-227000000D03*
%TO.N,Net-(D23-Vin)*%
X296890005Y-243750000D03*
%TO.N,Net-(D23-GND)*%
X296890005Y-239000000D03*
%TO.N,+5V*%
X263250000Y-224750000D03*
X264750000Y-224750000D03*
X264000000Y-225500000D03*
X262500000Y-227000000D03*
X263250000Y-226250000D03*
X265500000Y-224750000D03*
X264750000Y-225500000D03*
X264000000Y-227000000D03*
X265500000Y-226250000D03*
X262500000Y-224750000D03*
X265500000Y-225500000D03*
X263250000Y-227000000D03*
X264000000Y-226250000D03*
X262500000Y-225500000D03*
X265500000Y-227000000D03*
X264750000Y-227000000D03*
X262500000Y-226250000D03*
X263250000Y-225500000D03*
X264750000Y-226250000D03*
X357312500Y-240687500D03*
X264000000Y-224750000D03*
X357312500Y-228687500D03*
%TO.N,Net-(D6-K)*%
X436250000Y-193500000D03*
%TO.N,Net-(D6-A)*%
X433500000Y-193500000D03*
%TO.N,Net-(D22-K)*%
X261000000Y-231000000D03*
%TO.N,NRST*%
X340000000Y-214500000D03*
%TO.N,Net-(U5-VCAP_1)*%
X347750000Y-204000000D03*
%TO.N,Net-(U5-VCAP_2)*%
X336834620Y-199915380D03*
%TO.N,+1V0*%
X427500000Y-232750000D03*
X427500000Y-192750000D03*
X438750000Y-173250000D03*
X427500000Y-212750000D03*
%TO.N,Net-(D8-K)*%
X328250000Y-217250000D03*
%TO.N,Net-(D10-K)*%
X436250000Y-213500000D03*
%TO.N,Net-(D10-A)*%
X433500000Y-213500000D03*
%TO.N,Net-(D42-K)*%
X328250000Y-215000000D03*
%TO.N,Net-(D11-K)*%
X270000000Y-231000000D03*
%TO.N,Net-(D41-K)*%
X253250000Y-216500000D03*
%TO.N,/Current_1_measure*%
X350250000Y-231250000D03*
%TO.N,/Current_2_measure*%
X350250000Y-243250000D03*
%TD*%
%TO.N,GND*%
D44*
X325240000Y-242500000D02*
X325240000Y-242900005D01*
D45*
X417220000Y-206970000D02*
X417757500Y-206970000D01*
X417220000Y-186970000D02*
X417757500Y-186970000D01*
D44*
X313813195Y-201847500D02*
X314652500Y-201847500D01*
D45*
X352000000Y-228000000D02*
X351037500Y-228000000D01*
D44*
X313813195Y-201847500D02*
X311313195Y-201847500D01*
X254349990Y-226999990D02*
X254349990Y-229537490D01*
D45*
X417757500Y-206970000D02*
X418625000Y-207837500D01*
X346000000Y-229037500D02*
X346000000Y-230000000D01*
X262130734Y-228016920D02*
X262113814Y-228000000D01*
X352787500Y-228787500D02*
X352000000Y-228000000D01*
X417757500Y-186970000D02*
X418625000Y-187837500D01*
X351037500Y-228000000D02*
X350000000Y-226962500D01*
D44*
X314652500Y-201847500D02*
X315250000Y-201250000D01*
D45*
X351037500Y-240000000D02*
X350000000Y-238962500D01*
D44*
X325240000Y-241750000D02*
X325240000Y-242500000D01*
X308813195Y-201495000D02*
X310960695Y-201495000D01*
X325240000Y-229750000D02*
X325240000Y-230500000D01*
X325140005Y-231000000D02*
X324140005Y-231000000D01*
D45*
X348750000Y-246350000D02*
X348750000Y-245287500D01*
D44*
X310960695Y-201495000D02*
X311313195Y-201847500D01*
D45*
X331250000Y-215000000D02*
X331250000Y-217250000D01*
X346000000Y-241037500D02*
X346000000Y-242000000D01*
X409625000Y-209912500D02*
X409625000Y-210875000D01*
D44*
X325240000Y-230900005D02*
X325140005Y-231000000D01*
X254349990Y-229537490D02*
X254562500Y-229750000D01*
X326265005Y-243000000D02*
X325140005Y-243000000D01*
X326265005Y-231000000D02*
X325140005Y-231000000D01*
D45*
X409625000Y-229912500D02*
X409625000Y-230875000D01*
X417220000Y-226970000D02*
X417757500Y-226970000D01*
D44*
X325140005Y-243000000D02*
X324140005Y-243000000D01*
D45*
X331250000Y-217250000D02*
X331250000Y-218500000D01*
X417757500Y-226970000D02*
X418625000Y-227837500D01*
X355200000Y-241700000D02*
X355200000Y-241050000D01*
D44*
X325240000Y-228199990D02*
X325240000Y-229750000D01*
D45*
X262200000Y-228016920D02*
X262130734Y-228016920D01*
X352000000Y-240000000D02*
X351037500Y-240000000D01*
X352787500Y-240787500D02*
X352000000Y-240000000D01*
X420875000Y-207837500D02*
X418625000Y-207837500D01*
X270000000Y-228000000D02*
X271250000Y-228000000D01*
X262113814Y-228000000D02*
X261000000Y-228000000D01*
X348750000Y-234350000D02*
X348750000Y-233287500D01*
D44*
X325240000Y-230500000D02*
X325240000Y-230900005D01*
X325240000Y-242900005D02*
X325140005Y-243000000D01*
D45*
X420875000Y-227837500D02*
X418625000Y-227837500D01*
D44*
X325240000Y-240199990D02*
X325240000Y-241750000D01*
D45*
X355200000Y-229700000D02*
X355200000Y-229050000D01*
X409625000Y-189912500D02*
X409625000Y-190875000D01*
X420875000Y-187837500D02*
X418625000Y-187837500D01*
%TO.N,+3.3V*%
X408675000Y-226887500D02*
X409625000Y-227837500D01*
X337250000Y-218250000D02*
X337250000Y-219000000D01*
X334722500Y-209777500D02*
X333500000Y-211000000D01*
X341510000Y-201462500D02*
X341510000Y-200260000D01*
X346297500Y-209547500D02*
X346750000Y-210000000D01*
X346297500Y-206000000D02*
X346297500Y-208250000D01*
X408675000Y-206875000D02*
X408675000Y-206887500D01*
X334722500Y-204000000D02*
X334722500Y-206250000D01*
X359500000Y-238750000D02*
X360500000Y-238750000D01*
X417757500Y-210780000D02*
X418625000Y-209912500D01*
X336500000Y-199000000D02*
X335750000Y-199750000D01*
D44*
X308813195Y-198955000D02*
X311080695Y-198955000D01*
D45*
X334722500Y-208500000D02*
X334722500Y-209777500D01*
D44*
X313813195Y-198722500D02*
X311313195Y-198722500D01*
D45*
X341510000Y-213037500D02*
X341510000Y-214010000D01*
X417757500Y-190780000D02*
X418625000Y-189912500D01*
X417220000Y-230780000D02*
X417757500Y-230780000D01*
X408675000Y-186875000D02*
X408675000Y-186887500D01*
X347800000Y-228950000D02*
X349912500Y-228950000D01*
X341510000Y-213037500D02*
X343760000Y-213037500D01*
X408675000Y-186887500D02*
X409625000Y-187837500D01*
X341510000Y-200260000D02*
X340250000Y-199000000D01*
X359500000Y-226750000D02*
X360500000Y-226750000D01*
X341750000Y-214250000D02*
X342750000Y-214250000D01*
X340250000Y-199000000D02*
X336500000Y-199000000D01*
D44*
X311080695Y-198955000D02*
X311313195Y-198722500D01*
D45*
X346297500Y-208250000D02*
X346297500Y-209547500D01*
D44*
X315222500Y-198722500D02*
X313813195Y-198722500D01*
D45*
X417220000Y-190780000D02*
X417757500Y-190780000D01*
X408675000Y-226875000D02*
X408675000Y-226887500D01*
X420875000Y-189912500D02*
X418625000Y-189912500D01*
X347800000Y-240950000D02*
X349912500Y-240950000D01*
X334722500Y-206250000D02*
X334722500Y-208500000D01*
X335750000Y-199750000D02*
X335750000Y-200000000D01*
X420875000Y-209912500D02*
X418625000Y-209912500D01*
X417757500Y-230780000D02*
X418625000Y-229912500D01*
X346750000Y-210000000D02*
X347500000Y-210000000D01*
X420875000Y-229912500D02*
X418625000Y-229912500D01*
X417220000Y-210780000D02*
X417757500Y-210780000D01*
X408675000Y-206887500D02*
X409625000Y-207837500D01*
X341510000Y-214010000D02*
X341750000Y-214250000D01*
%TO.N,Net-(U2-+)*%
X357500000Y-226750000D02*
X355500000Y-226750000D01*
X353250000Y-226712500D02*
X355462500Y-226712500D01*
X351950000Y-227050000D02*
X352912500Y-227050000D01*
%TO.N,Net-(Q7-E)*%
X346037500Y-227000000D02*
X347750000Y-227000000D01*
%TO.N,+24V*%
D44*
X236250000Y-232812500D02*
X238700000Y-232812500D01*
X397162510Y-172349990D02*
X396937510Y-172124990D01*
X400000000Y-172349990D02*
X397162510Y-172349990D01*
%TO.N,GNDD*%
X236250000Y-229687500D02*
X238625000Y-229687500D01*
X393812510Y-172124990D02*
X393812510Y-167874990D01*
X393812510Y-166437490D02*
X395000010Y-165249990D01*
X395000010Y-165249990D02*
X397359990Y-165249990D01*
X238687500Y-229750000D02*
X238687500Y-227422480D01*
X238687500Y-227422480D02*
X239109990Y-226999990D01*
X393812510Y-167874990D02*
X393812510Y-166437490D01*
D45*
X253250000Y-213750000D02*
X251750000Y-213750000D01*
%TO.N,GNDPWR*%
X437712500Y-171500000D02*
X436500000Y-171500000D01*
X448125000Y-233375000D02*
X443750000Y-233375000D01*
X448125000Y-213375000D02*
X443750000Y-213375000D01*
D44*
X412599990Y-165249990D02*
X412599990Y-167787490D01*
D45*
X430375000Y-226970000D02*
X429992500Y-226970000D01*
X426875000Y-187837500D02*
X429125000Y-187837500D01*
X453625000Y-233375000D02*
X448125000Y-233375000D01*
D44*
X412599990Y-167787490D02*
X412812500Y-168000000D01*
D45*
X426875000Y-207837500D02*
X429125000Y-207837500D01*
D44*
X414937500Y-168000000D02*
X412812500Y-168000000D01*
D45*
X453625000Y-213375000D02*
X448125000Y-213375000D01*
X427750000Y-170500000D02*
X426500000Y-170500000D01*
X426875000Y-227837500D02*
X429125000Y-227837500D01*
X429992500Y-186970000D02*
X429125000Y-187837500D01*
X448125000Y-193375000D02*
X443750000Y-193375000D01*
X430375000Y-186970000D02*
X429992500Y-186970000D01*
X429992500Y-226970000D02*
X429125000Y-227837500D01*
X453625000Y-193375000D02*
X448125000Y-193375000D01*
X429992500Y-206970000D02*
X429125000Y-207837500D01*
X430375000Y-206970000D02*
X429992500Y-206970000D01*
%TO.N,Net-(D17-K)*%
X427750000Y-172500000D02*
X427750000Y-173250000D01*
%TO.N,+3.3VP*%
X426875000Y-209912500D02*
X429125000Y-209912500D01*
X430280000Y-210780000D02*
X429992500Y-210780000D01*
X440737500Y-170550000D02*
X439787500Y-171500000D01*
X429992500Y-210780000D02*
X429125000Y-209912500D01*
X429992500Y-190780000D02*
X429125000Y-189912500D01*
X426875000Y-229912500D02*
X429125000Y-229912500D01*
X440950000Y-170550000D02*
X440737500Y-170550000D01*
X426875000Y-189912500D02*
X429125000Y-189912500D01*
X429992500Y-230780000D02*
X429125000Y-229912500D01*
X430280000Y-230780000D02*
X429992500Y-230780000D01*
X430280000Y-190780000D02*
X429992500Y-190780000D01*
%TO.N,Net-(Q10-C)*%
X346037500Y-239000000D02*
X347750000Y-239000000D01*
%TO.N,Net-(U3-+)*%
X353250000Y-238712500D02*
X355462500Y-238712500D01*
X351950000Y-239050000D02*
X352912500Y-239050000D01*
X357500000Y-238750000D02*
X355500000Y-238750000D01*
%TO.N,Net-(D81-K)*%
X436250000Y-233500000D02*
X438625000Y-233500000D01*
%TO.N,Net-(D81-A)*%
X433500000Y-233500000D02*
X434500000Y-232500000D01*
X434500000Y-232500000D02*
X434500000Y-231050000D01*
%TO.N,Net-(J3-Pin_1)*%
X448125000Y-184375000D02*
X448125000Y-180825000D01*
X453625000Y-184375000D02*
X448125000Y-184375000D01*
%TO.N,+5VD*%
D44*
X292250000Y-175500000D02*
X289750000Y-173000000D01*
X305000000Y-173000000D02*
X299750000Y-173000000D01*
X356250000Y-175500000D02*
X344500000Y-175500000D01*
X262750000Y-173000000D02*
X260250000Y-175500000D01*
X260250000Y-175500000D02*
X255250000Y-175500000D01*
X319250000Y-175500000D02*
X307500000Y-175500000D01*
X245250000Y-175500000D02*
X229250000Y-175500000D01*
X284750000Y-173000000D02*
X282250000Y-175500000D01*
X229250000Y-175500000D02*
X229000000Y-175750000D01*
X299750000Y-173000000D02*
X297250000Y-175500000D01*
X255250000Y-175500000D02*
X252750000Y-173000000D01*
X334250000Y-175500000D02*
X329250000Y-175500000D01*
X270500000Y-175500000D02*
X268000000Y-173000000D01*
X344500000Y-175500000D02*
X342000000Y-173000000D01*
X282250000Y-175500000D02*
X270500000Y-175500000D01*
X326750000Y-173000000D02*
X321750000Y-173000000D01*
X307500000Y-175500000D02*
X305000000Y-173000000D01*
X268000000Y-173000000D02*
X262750000Y-173000000D01*
X247750000Y-173000000D02*
X245250000Y-175500000D01*
X321750000Y-173000000D02*
X319250000Y-175500000D01*
X329250000Y-175500000D02*
X326750000Y-173000000D01*
X336750000Y-173000000D02*
X334250000Y-175500000D01*
X252750000Y-173000000D02*
X247750000Y-173000000D01*
X289750000Y-173000000D02*
X284750000Y-173000000D01*
X342000000Y-173000000D02*
X336750000Y-173000000D01*
X297250000Y-175500000D02*
X292250000Y-175500000D01*
%TO.N,Net-(D21-Vin)*%
X298890005Y-232062500D02*
X301084828Y-232062500D01*
X298202505Y-232062500D02*
X297890005Y-231750000D01*
X310272328Y-232867677D02*
X301890005Y-232867677D01*
X301084828Y-232062500D02*
X301890005Y-232867677D01*
X312540000Y-230600005D02*
X310272328Y-232867677D01*
X312540000Y-228199990D02*
X312540000Y-230600005D01*
X298890005Y-232062500D02*
X298202505Y-232062500D01*
X297890005Y-231750000D02*
X296890005Y-231750000D01*
%TO.N,Net-(D21-GND)*%
X300820182Y-228937500D02*
X301890005Y-227867677D01*
X310000000Y-228199990D02*
X302222318Y-228199990D01*
X298827505Y-228937500D02*
X296890005Y-227000000D01*
X298890005Y-228937500D02*
X300820182Y-228937500D01*
%TO.N,Net-(D23-Vin)*%
X298202505Y-244062500D02*
X297890005Y-243750000D01*
X301084828Y-244062500D02*
X301890005Y-244867677D01*
X310272328Y-244867677D02*
X301890005Y-244867677D01*
X297890005Y-243750000D02*
X296890005Y-243750000D01*
X298890005Y-244062500D02*
X301084828Y-244062500D01*
X312540000Y-242600005D02*
X310272328Y-244867677D01*
X312540000Y-240199990D02*
X312540000Y-242600005D01*
X298890005Y-244062500D02*
X298202505Y-244062500D01*
%TO.N,Net-(D23-GND)*%
X310000000Y-240199990D02*
X302222318Y-240199990D01*
X298827505Y-240937500D02*
X296890005Y-239000000D01*
X300820182Y-240937500D02*
X301890005Y-239867677D01*
X298890005Y-240937500D02*
X300820182Y-240937500D01*
%TO.N,+5V*%
X273250000Y-225500000D02*
X274750000Y-224000000D01*
X319750000Y-222000000D02*
X321750000Y-224000000D01*
X357375000Y-228750000D02*
X357312500Y-228687500D01*
X363750000Y-226750000D02*
X363750000Y-228750000D01*
X265500000Y-225500000D02*
X273250000Y-225500000D01*
X363750000Y-228750000D02*
X363750000Y-238750000D01*
X363750000Y-239125000D02*
X362187500Y-240687500D01*
X361750000Y-228750000D02*
X363750000Y-226750000D01*
X313750000Y-224000000D02*
X315750000Y-222000000D01*
X251809990Y-226999990D02*
X251809990Y-229377510D01*
X315750000Y-222000000D02*
X319750000Y-222000000D01*
X362187500Y-240687500D02*
X357312500Y-240687500D01*
X361750000Y-228750000D02*
X357375000Y-228750000D01*
X363750000Y-238750000D02*
X363750000Y-239125000D01*
X251809990Y-229377510D02*
X251437500Y-229750000D01*
X363750000Y-225500000D02*
X363750000Y-226750000D01*
X274750000Y-224000000D02*
X313750000Y-224000000D01*
X362250000Y-224000000D02*
X363750000Y-225500000D01*
X321750000Y-224000000D02*
X362250000Y-224000000D01*
%TO.N,Net-(D6-K)*%
D45*
X436250000Y-193500000D02*
X438625000Y-193500000D01*
%TO.N,Net-(D6-A)*%
X433500000Y-193500000D02*
X434500000Y-192500000D01*
X434500000Y-192500000D02*
X434500000Y-191050000D01*
%TO.N,Net-(D18-Vin)*%
D44*
X396937510Y-167874990D02*
X399975000Y-167874990D01*
X399975000Y-167874990D02*
X400000000Y-167899990D01*
X399899990Y-167799980D02*
X400000000Y-167899990D01*
X399899990Y-165249990D02*
X399899990Y-167799980D01*
%TO.N,Net-(D18-+Vo)*%
X409687500Y-168000000D02*
X409687500Y-165622480D01*
X409687500Y-165622480D02*
X410059990Y-165249990D01*
%TO.N,Net-(D18-CS)*%
X418062500Y-166312500D02*
X418062500Y-168000000D01*
X415139990Y-165249990D02*
X416999990Y-165249990D01*
X416999990Y-165249990D02*
X418062500Y-166312500D01*
%TO.N,Net-(D22-K)*%
D45*
X261000000Y-231000000D02*
X261000000Y-230000000D01*
%TO.N,NRST*%
X339250000Y-213037500D02*
X339250000Y-213750000D01*
X337250000Y-215037500D02*
X339250000Y-213037500D01*
X337250000Y-216250000D02*
X337250000Y-215037500D01*
X339250000Y-213750000D02*
X340000000Y-214500000D01*
%TO.N,Net-(U5-VCAP_1)*%
X346297500Y-203750000D02*
X347500000Y-203750000D01*
X347500000Y-203750000D02*
X347750000Y-204000000D01*
%TO.N,Net-(U5-VCAP_2)*%
X337712500Y-201462500D02*
X336834620Y-200584620D01*
X336834620Y-200584620D02*
X336834620Y-199915380D01*
X339260000Y-201462500D02*
X337712500Y-201462500D01*
%TO.N,+1V0*%
X425250000Y-191750000D02*
X426250000Y-192750000D01*
X425250000Y-193750000D02*
X426250000Y-192750000D01*
X425250000Y-213750000D02*
X426250000Y-212750000D01*
X426250000Y-192750000D02*
X427500000Y-192750000D01*
X426250000Y-212750000D02*
X427500000Y-212750000D01*
X426250000Y-232750000D02*
X425250000Y-231750000D01*
X425250000Y-231750000D02*
X425250000Y-213750000D01*
X433500000Y-178500000D02*
X428000000Y-178500000D01*
X425250000Y-181250000D02*
X425250000Y-191750000D01*
X438750000Y-173250000D02*
X433500000Y-178500000D01*
X425250000Y-211750000D02*
X425250000Y-193750000D01*
X426250000Y-212750000D02*
X425250000Y-211750000D01*
X428000000Y-178500000D02*
X425250000Y-181250000D01*
X427500000Y-232750000D02*
X426250000Y-232750000D01*
%TO.N,Net-(J4-Pin_1)*%
X453625000Y-204375000D02*
X448125000Y-204375000D01*
X448125000Y-204375000D02*
X448125000Y-200825000D01*
%TO.N,/Current_measure_2/+15V*%
D44*
X330750000Y-245250000D02*
X321890005Y-245250000D01*
X322700000Y-241315005D02*
X321015005Y-243000000D01*
X331650000Y-244350000D02*
X330750000Y-245250000D01*
X333250000Y-244350000D02*
X331650000Y-244350000D01*
X322700000Y-240199990D02*
X322700000Y-241315005D01*
X321015005Y-244375000D02*
X321015005Y-243000000D01*
X321890005Y-245250000D02*
X321015005Y-244375000D01*
%TO.N,/Current_measure_2/-15V*%
X333250000Y-240150000D02*
X329990005Y-240150000D01*
X328839995Y-240199990D02*
X327780000Y-240199990D01*
X329990005Y-240150000D02*
X329390005Y-240750000D01*
X329390005Y-240750000D02*
X328839995Y-240199990D01*
X329390005Y-243000000D02*
X329390005Y-240750000D01*
%TO.N,/Current_measure_1/+15V*%
X322700000Y-228199990D02*
X322700000Y-229315005D01*
X321890005Y-233250000D02*
X321015005Y-232375000D01*
X321015005Y-232375000D02*
X321015005Y-231000000D01*
X330750000Y-233250000D02*
X321890005Y-233250000D01*
X331650000Y-232350000D02*
X330750000Y-233250000D01*
X322700000Y-229315005D02*
X321015005Y-231000000D01*
X333250000Y-232350000D02*
X331650000Y-232350000D01*
%TO.N,/Current_measure_1/-15V*%
X328839995Y-228199990D02*
X327780000Y-228199990D01*
X329390005Y-228750000D02*
X328839995Y-228199990D01*
X329990005Y-228150000D02*
X329390005Y-228750000D01*
X329390005Y-231000000D02*
X329390005Y-228750000D01*
X333250000Y-228150000D02*
X329990005Y-228150000D01*
%TO.N,Net-(J32-Pin_1)*%
D45*
X453625000Y-224375000D02*
X448125000Y-224375000D01*
X448125000Y-224375000D02*
X448125000Y-220825000D01*
%TO.N,Net-(D8-K)*%
X328250000Y-217250000D02*
X329250000Y-217250000D01*
%TO.N,Net-(D19-Vin)*%
D44*
X241737500Y-232750000D02*
X241737500Y-229825000D01*
X241649990Y-226999990D02*
X241649990Y-229587490D01*
%TO.N,Net-(D10-K)*%
D45*
X436250000Y-213500000D02*
X438625000Y-213500000D01*
%TO.N,Net-(D10-A)*%
X433500000Y-213500000D02*
X434500000Y-212500000D01*
X434500000Y-212500000D02*
X434500000Y-211050000D01*
%TO.N,Net-(D42-K)*%
X328250000Y-215000000D02*
X329250000Y-215000000D01*
%TO.N,Net-(D11-K)*%
X270000000Y-230000000D02*
X270000000Y-231000000D01*
%TO.N,Net-(D41-K)*%
X253250000Y-216500000D02*
X253250000Y-215750000D01*
%TO.N,Net-(R28-Pad2)*%
X441950000Y-200750000D02*
X438950000Y-200750000D01*
%TO.N,Net-(R31-Pad2)*%
X436650000Y-204950000D02*
X438750000Y-207050000D01*
X434500000Y-204950000D02*
X436650000Y-204950000D01*
%TO.N,Net-(R48-Pad2)*%
X441950000Y-220750000D02*
X438950000Y-220750000D01*
%TO.N,Net-(R132-Pad1)*%
X434500000Y-224950000D02*
X436650000Y-224950000D01*
X436650000Y-224950000D02*
X438750000Y-227050000D01*
%TO.N,Net-(R26-Pad1)*%
X441950000Y-180750000D02*
X438950000Y-180750000D01*
%TO.N,Net-(R25-Pad1)*%
X436650000Y-184950000D02*
X438750000Y-187050000D01*
X434500000Y-184950000D02*
X436650000Y-184950000D01*
%TO.N,/Current_1_measure*%
X348750000Y-231212500D02*
X350212500Y-231212500D01*
X350212500Y-231212500D02*
X350250000Y-231250000D01*
%TO.N,/Current_2_measure*%
X350212500Y-243212500D02*
X350250000Y-243250000D01*
X348750000Y-243212500D02*
X350212500Y-243212500D01*
%TD*%
%TA.AperFunction,Conductor*%
%TO.N,GNDPWR*%
G36*
X415508059Y-167001061D02*
G01*
X415613223Y-167014906D01*
X415644491Y-167023284D01*
X415734918Y-167060740D01*
X415762952Y-167076925D01*
X415840602Y-167136509D01*
X415863491Y-167159398D01*
X415923074Y-167237048D01*
X415939259Y-167265081D01*
X415976715Y-167355508D01*
X415985093Y-167386775D01*
X415998939Y-167491939D01*
X416000000Y-167508125D01*
X416000000Y-169741874D01*
X415998939Y-169758059D01*
X415998939Y-169758060D01*
X415985093Y-169863224D01*
X415976715Y-169894491D01*
X415939259Y-169984918D01*
X415923074Y-170012951D01*
X415863491Y-170090601D01*
X415840601Y-170113491D01*
X415762951Y-170173074D01*
X415734918Y-170189259D01*
X415644491Y-170226715D01*
X415613224Y-170235093D01*
X415519398Y-170247446D01*
X415508058Y-170248939D01*
X415491874Y-170250000D01*
X412508126Y-170250000D01*
X412491941Y-170248939D01*
X412478917Y-170247224D01*
X412386775Y-170235093D01*
X412355508Y-170226715D01*
X412265081Y-170189259D01*
X412237048Y-170173074D01*
X412159398Y-170113491D01*
X412136508Y-170090601D01*
X412076925Y-170012951D01*
X412060740Y-169984918D01*
X412023284Y-169894491D01*
X412014906Y-169863223D01*
X412001061Y-169758059D01*
X412000000Y-169741874D01*
X412000000Y-167508125D01*
X412001061Y-167491940D01*
X412014906Y-167386776D01*
X412014906Y-167386775D01*
X412023284Y-167355508D01*
X412060740Y-167265081D01*
X412076923Y-167237050D01*
X412136513Y-167159392D01*
X412159392Y-167136513D01*
X412237050Y-167076923D01*
X412265079Y-167060740D01*
X412355509Y-167023283D01*
X412386775Y-167014906D01*
X412491941Y-167001061D01*
X412508126Y-167000000D01*
X415491874Y-167000000D01*
X415508059Y-167001061D01*
G37*
%TD.AperFunction*%
%TD*%
%TA.AperFunction,Conductor*%
%TO.N,+24V*%
G36*
X397370913Y-171000264D02*
G01*
X397379043Y-171000797D01*
X397387084Y-171001589D01*
X397480183Y-171013846D01*
X397496075Y-171017007D01*
X397511655Y-171021181D01*
X397527005Y-171026392D01*
X397602421Y-171057630D01*
X397616963Y-171064802D01*
X397630924Y-171072862D01*
X397644413Y-171081875D01*
X397709164Y-171131561D01*
X397721358Y-171142255D01*
X397732752Y-171153649D01*
X397743447Y-171165844D01*
X397793136Y-171230600D01*
X397802147Y-171244086D01*
X397810204Y-171258041D01*
X397817378Y-171272589D01*
X397848613Y-171347998D01*
X397853825Y-171363351D01*
X397857998Y-171378922D01*
X397861164Y-171394836D01*
X397873419Y-171487921D01*
X397874214Y-171495982D01*
X397874744Y-171504080D01*
X397875010Y-171512178D01*
X397875010Y-173737819D01*
X397874744Y-173745938D01*
X397874214Y-173754015D01*
X397873419Y-173762082D01*
X397861164Y-173855163D01*
X397857998Y-173871076D01*
X397853825Y-173886647D01*
X397848613Y-173902000D01*
X397817378Y-173977409D01*
X397810204Y-173991957D01*
X397802147Y-174005912D01*
X397793136Y-174019398D01*
X397743447Y-174084154D01*
X397732752Y-174096349D01*
X397721359Y-174107742D01*
X397709164Y-174118437D01*
X397644408Y-174168126D01*
X397630922Y-174177137D01*
X397616967Y-174185194D01*
X397602419Y-174192368D01*
X397527010Y-174223603D01*
X397511657Y-174228815D01*
X397496086Y-174232988D01*
X397480173Y-174236154D01*
X397396094Y-174247224D01*
X397394408Y-174247446D01*
X397393070Y-174247622D01*
X397387073Y-174248411D01*
X397379025Y-174249204D01*
X397378494Y-174249238D01*
X397370929Y-174249734D01*
X397362829Y-174250000D01*
X396637189Y-174250000D01*
X396629083Y-174249734D01*
X396621006Y-174249204D01*
X396612941Y-174248410D01*
X396603931Y-174247224D01*
X396603928Y-174247224D01*
X396519845Y-174236154D01*
X396503932Y-174232988D01*
X396488361Y-174228815D01*
X396473008Y-174223603D01*
X396397599Y-174192368D01*
X396383051Y-174185194D01*
X396369096Y-174177137D01*
X396355610Y-174168126D01*
X396290854Y-174118437D01*
X396278659Y-174107742D01*
X396267266Y-174096349D01*
X396256571Y-174084154D01*
X396206882Y-174019398D01*
X396197871Y-174005912D01*
X396189814Y-173991957D01*
X396182640Y-173977410D01*
X396151404Y-173902000D01*
X396146191Y-173886643D01*
X396142020Y-173871076D01*
X396142017Y-173871065D01*
X396138856Y-173855173D01*
X396126599Y-173762074D01*
X396125806Y-173754030D01*
X396125274Y-173745905D01*
X396125010Y-173737820D01*
X396125010Y-171512178D01*
X396125274Y-171504095D01*
X396125807Y-171495965D01*
X396126600Y-171487920D01*
X396138855Y-171394834D01*
X396142020Y-171378923D01*
X396146192Y-171363354D01*
X396151405Y-171347998D01*
X396182641Y-171272587D01*
X396189811Y-171258046D01*
X396189814Y-171258041D01*
X396197874Y-171244079D01*
X396206866Y-171230620D01*
X396256588Y-171165822D01*
X396267261Y-171153653D01*
X396278663Y-171142251D01*
X396290840Y-171131572D01*
X396355623Y-171081862D01*
X396369085Y-171072866D01*
X396383062Y-171064796D01*
X396397576Y-171057638D01*
X396473022Y-171026387D01*
X396488362Y-171021181D01*
X396503941Y-171017007D01*
X396519831Y-171013846D01*
X396612937Y-171001589D01*
X396620976Y-171000797D01*
X396629105Y-171000264D01*
X396637189Y-171000000D01*
X397362831Y-171000000D01*
X397370913Y-171000264D01*
G37*
%TD.AperFunction*%
%TD*%
%TA.AperFunction,Conductor*%
%TO.N,GND*%
G36*
X338192016Y-202519685D02*
G01*
X338237771Y-202572489D01*
X338247715Y-202641647D01*
X338218690Y-202705203D01*
X338212658Y-202711681D01*
X338192684Y-202731654D01*
X338100643Y-202880875D01*
X338100641Y-202880880D01*
X338048743Y-203037500D01*
X342721256Y-203037500D01*
X342669358Y-202880880D01*
X342669356Y-202880875D01*
X342577315Y-202731654D01*
X342557342Y-202711681D01*
X342523857Y-202650358D01*
X342528841Y-202580666D01*
X342570713Y-202524733D01*
X342636177Y-202500316D01*
X342645023Y-202500000D01*
X343299977Y-202500000D01*
X343367016Y-202519685D01*
X343412771Y-202572489D01*
X343422715Y-202641647D01*
X343393690Y-202705203D01*
X343387658Y-202711681D01*
X343292684Y-202806654D01*
X343200643Y-202955875D01*
X343200641Y-202955880D01*
X343145494Y-203122302D01*
X343145493Y-203122309D01*
X343135000Y-203225013D01*
X343135000Y-203250000D01*
X344098500Y-203250000D01*
X344165539Y-203269685D01*
X344211294Y-203322489D01*
X344222500Y-203374000D01*
X344222500Y-203750000D01*
X344598500Y-203750000D01*
X344665539Y-203769685D01*
X344711294Y-203822489D01*
X344722500Y-203874000D01*
X344722500Y-209461256D01*
X344879119Y-209409358D01*
X344879124Y-209409356D01*
X345028345Y-209317315D01*
X345038319Y-209307342D01*
X345099642Y-209273857D01*
X345169334Y-209278841D01*
X345225267Y-209320713D01*
X345249684Y-209386177D01*
X345250000Y-209395023D01*
X345250000Y-211491874D01*
X345248939Y-211508059D01*
X345248939Y-211508060D01*
X345235093Y-211613224D01*
X345226715Y-211644491D01*
X345189259Y-211734918D01*
X345173074Y-211762951D01*
X345113491Y-211840601D01*
X345090602Y-211863490D01*
X345014437Y-211921934D01*
X344949268Y-211947129D01*
X344880823Y-211933091D01*
X344830833Y-211884277D01*
X344815169Y-211816186D01*
X344833412Y-211758462D01*
X344919353Y-211619130D01*
X344919358Y-211619119D01*
X344971257Y-211462500D01*
X338038743Y-211462500D01*
X338090641Y-211619119D01*
X338090643Y-211619124D01*
X338182684Y-211768345D01*
X338202658Y-211788319D01*
X338236143Y-211849642D01*
X338231159Y-211919334D01*
X338189287Y-211975267D01*
X338123823Y-211999684D01*
X338114977Y-212000000D01*
X336258126Y-212000000D01*
X336241941Y-211998939D01*
X336228917Y-211997224D01*
X336136775Y-211985093D01*
X336105508Y-211976715D01*
X336015081Y-211939259D01*
X335987048Y-211923074D01*
X335909398Y-211863491D01*
X335886508Y-211840601D01*
X335826925Y-211762951D01*
X335810740Y-211734918D01*
X335773284Y-211644491D01*
X335764906Y-211613223D01*
X335751061Y-211508059D01*
X335750000Y-211491874D01*
X335750000Y-210462500D01*
X338038743Y-210462500D01*
X338750000Y-210462500D01*
X338750000Y-209875000D01*
X339750000Y-209875000D01*
X339750000Y-210462500D01*
X341010000Y-210462500D01*
X341010000Y-209875000D01*
X342010000Y-209875000D01*
X342010000Y-210462500D01*
X343260000Y-210462500D01*
X344260000Y-210462500D01*
X344971256Y-210462500D01*
X344919358Y-210305880D01*
X344919356Y-210305875D01*
X344827315Y-210156654D01*
X344703345Y-210032684D01*
X344554124Y-209940643D01*
X344554119Y-209940641D01*
X344387697Y-209885494D01*
X344387690Y-209885493D01*
X344284986Y-209875000D01*
X344260000Y-209875000D01*
X344260000Y-210462500D01*
X343260000Y-210462500D01*
X343260000Y-209874999D01*
X343235029Y-209875000D01*
X343235010Y-209875001D01*
X343132302Y-209885494D01*
X342965880Y-209940641D01*
X342965875Y-209940643D01*
X342816654Y-210032684D01*
X342722681Y-210126658D01*
X342661358Y-210160143D01*
X342591666Y-210155159D01*
X342547319Y-210126658D01*
X342453345Y-210032684D01*
X342304124Y-209940643D01*
X342304119Y-209940641D01*
X342137697Y-209885494D01*
X342137690Y-209885493D01*
X342034986Y-209875000D01*
X342010000Y-209875000D01*
X341010000Y-209875000D01*
X341010000Y-209874999D01*
X340985029Y-209875000D01*
X340985010Y-209875001D01*
X340882302Y-209885494D01*
X340715880Y-209940641D01*
X340715875Y-209940643D01*
X340566654Y-210032684D01*
X340467681Y-210131658D01*
X340406358Y-210165143D01*
X340336666Y-210160159D01*
X340292319Y-210131658D01*
X340193345Y-210032684D01*
X340044124Y-209940643D01*
X340044119Y-209940641D01*
X339877697Y-209885494D01*
X339877690Y-209885493D01*
X339774986Y-209875000D01*
X339750000Y-209875000D01*
X338750000Y-209875000D01*
X338750000Y-209874999D01*
X338725029Y-209875000D01*
X338725010Y-209875001D01*
X338622302Y-209885494D01*
X338455880Y-209940641D01*
X338455875Y-209940643D01*
X338306654Y-210032684D01*
X338182684Y-210156654D01*
X338090643Y-210305875D01*
X338090641Y-210305880D01*
X338038743Y-210462500D01*
X335750000Y-210462500D01*
X335750000Y-209625023D01*
X335769685Y-209557984D01*
X335822489Y-209512229D01*
X335891647Y-209502285D01*
X335955203Y-209531310D01*
X335961681Y-209537342D01*
X335991654Y-209567315D01*
X336140875Y-209659356D01*
X336140880Y-209659358D01*
X336297500Y-209711256D01*
X337297500Y-209711256D01*
X337454119Y-209659358D01*
X337454124Y-209659356D01*
X337603345Y-209567315D01*
X337727315Y-209443345D01*
X337819356Y-209294124D01*
X337819358Y-209294119D01*
X337874505Y-209127697D01*
X337874506Y-209127690D01*
X337884999Y-209024986D01*
X337885000Y-209024973D01*
X337885000Y-209000000D01*
X337297500Y-209000000D01*
X337297500Y-209711256D01*
X336297500Y-209711256D01*
X336297500Y-208774986D01*
X343135001Y-208774986D01*
X343145494Y-208877697D01*
X343200641Y-209044119D01*
X343200643Y-209044124D01*
X343292684Y-209193345D01*
X343416654Y-209317315D01*
X343565875Y-209409356D01*
X343565880Y-209409358D01*
X343722500Y-209461256D01*
X343722500Y-208750000D01*
X343135001Y-208750000D01*
X343135001Y-208774986D01*
X336297500Y-208774986D01*
X336297500Y-208000000D01*
X337297500Y-208000000D01*
X337884999Y-208000000D01*
X337884999Y-207975028D01*
X337884998Y-207975013D01*
X337874505Y-207872302D01*
X337837580Y-207760868D01*
X337825698Y-207725013D01*
X343135000Y-207725013D01*
X343135000Y-207750000D01*
X343722500Y-207750000D01*
X343722500Y-206500000D01*
X343135001Y-206500000D01*
X343135001Y-206524986D01*
X343145494Y-206627697D01*
X343200641Y-206794119D01*
X343200643Y-206794124D01*
X343292684Y-206943345D01*
X343386658Y-207037319D01*
X343420143Y-207098642D01*
X343415159Y-207168334D01*
X343386658Y-207212681D01*
X343292684Y-207306654D01*
X343200643Y-207455875D01*
X343200641Y-207455880D01*
X343145494Y-207622302D01*
X343145493Y-207622309D01*
X343135000Y-207725013D01*
X337825698Y-207725013D01*
X337819357Y-207705878D01*
X337819356Y-207705875D01*
X337727315Y-207556654D01*
X337633342Y-207462681D01*
X337599857Y-207401358D01*
X337604841Y-207331666D01*
X337633342Y-207287319D01*
X337727315Y-207193345D01*
X337819356Y-207044124D01*
X337819358Y-207044119D01*
X337874505Y-206877697D01*
X337874506Y-206877690D01*
X337884999Y-206774986D01*
X337885000Y-206774973D01*
X337885000Y-206750000D01*
X337297500Y-206750000D01*
X337297500Y-208000000D01*
X336297500Y-208000000D01*
X336297500Y-205750000D01*
X337297500Y-205750000D01*
X337884999Y-205750000D01*
X337884999Y-205725028D01*
X337884998Y-205725013D01*
X337874505Y-205622302D01*
X337837580Y-205510868D01*
X337825698Y-205475013D01*
X343135000Y-205475013D01*
X343135000Y-205500000D01*
X343722500Y-205500000D01*
X343722500Y-204250000D01*
X343135001Y-204250000D01*
X343135001Y-204274986D01*
X343145494Y-204377697D01*
X343200641Y-204544119D01*
X343200643Y-204544124D01*
X343292684Y-204693345D01*
X343386658Y-204787319D01*
X343420143Y-204848642D01*
X343415159Y-204918334D01*
X343386658Y-204962681D01*
X343292684Y-205056654D01*
X343200643Y-205205875D01*
X343200641Y-205205880D01*
X343145494Y-205372302D01*
X343145493Y-205372309D01*
X343135000Y-205475013D01*
X337825698Y-205475013D01*
X337819357Y-205455878D01*
X337819356Y-205455875D01*
X337727315Y-205306654D01*
X337633342Y-205212681D01*
X337599857Y-205151358D01*
X337604841Y-205081666D01*
X337633342Y-205037319D01*
X337727315Y-204943345D01*
X337819356Y-204794124D01*
X337819358Y-204794119D01*
X337874505Y-204627697D01*
X337874506Y-204627690D01*
X337884999Y-204524986D01*
X337885000Y-204524973D01*
X337885000Y-204500000D01*
X337297500Y-204500000D01*
X337297500Y-205750000D01*
X336297500Y-205750000D01*
X336297500Y-204037500D01*
X338048743Y-204037500D01*
X338100641Y-204194119D01*
X338100643Y-204194124D01*
X338192684Y-204343345D01*
X338316654Y-204467315D01*
X338465875Y-204559356D01*
X338465880Y-204559358D01*
X338632302Y-204614505D01*
X338632309Y-204614506D01*
X338735019Y-204624999D01*
X339760000Y-204624999D01*
X339784972Y-204624999D01*
X339784986Y-204624998D01*
X339887697Y-204614505D01*
X340054119Y-204559358D01*
X340054124Y-204559356D01*
X340203345Y-204467315D01*
X340297319Y-204373342D01*
X340358642Y-204339857D01*
X340428334Y-204344841D01*
X340472681Y-204373342D01*
X340566654Y-204467315D01*
X340715875Y-204559356D01*
X340715880Y-204559358D01*
X340882302Y-204614505D01*
X340882309Y-204614506D01*
X340985019Y-204624999D01*
X342010000Y-204624999D01*
X342034972Y-204624999D01*
X342034986Y-204624998D01*
X342137697Y-204614505D01*
X342304119Y-204559358D01*
X342304124Y-204559356D01*
X342453345Y-204467315D01*
X342577315Y-204343345D01*
X342669356Y-204194124D01*
X342669358Y-204194119D01*
X342721257Y-204037500D01*
X342010000Y-204037500D01*
X342010000Y-204624999D01*
X340985019Y-204624999D01*
X341010000Y-204624998D01*
X341010000Y-204037500D01*
X339760000Y-204037500D01*
X339760000Y-204624999D01*
X338735019Y-204624999D01*
X338760000Y-204624998D01*
X338760000Y-204037500D01*
X338048743Y-204037500D01*
X336297500Y-204037500D01*
X336297500Y-203500000D01*
X337297500Y-203500000D01*
X337884999Y-203500000D01*
X337884999Y-203475028D01*
X337884998Y-203475013D01*
X337874505Y-203372302D01*
X337819358Y-203205880D01*
X337819356Y-203205875D01*
X337727315Y-203056654D01*
X337603345Y-202932684D01*
X337454120Y-202840641D01*
X337297500Y-202788742D01*
X337297500Y-203500000D01*
X336297500Y-203500000D01*
X336297500Y-202794337D01*
X336291620Y-202790690D01*
X336140879Y-202840641D01*
X335987851Y-202935030D01*
X335987064Y-202936007D01*
X335957417Y-202945873D01*
X335928438Y-202957558D01*
X335924536Y-202956816D01*
X335920769Y-202958070D01*
X335890490Y-202950340D01*
X335859799Y-202944504D01*
X335856918Y-202941771D01*
X335853070Y-202940789D01*
X335831776Y-202917917D01*
X335809113Y-202896414D01*
X335808167Y-202892556D01*
X335805461Y-202889650D01*
X335799914Y-202858901D01*
X335792473Y-202828554D01*
X335793559Y-202823670D01*
X335793058Y-202820890D01*
X335801784Y-202786700D01*
X335810742Y-202765074D01*
X335826923Y-202737050D01*
X335886513Y-202659392D01*
X335909392Y-202636513D01*
X335987050Y-202576923D01*
X336015079Y-202560740D01*
X336105509Y-202523283D01*
X336136775Y-202514906D01*
X336241941Y-202501061D01*
X336258126Y-202500000D01*
X338124977Y-202500000D01*
X338192016Y-202519685D01*
G37*
%TD.AperFunction*%
%TD*%
%TA.AperFunction,Conductor*%
%TO.N,GNDD*%
G36*
X394133069Y-171001061D02*
G01*
X394238233Y-171014906D01*
X394269501Y-171023284D01*
X394359928Y-171060740D01*
X394387962Y-171076925D01*
X394465612Y-171136509D01*
X394488501Y-171159398D01*
X394548084Y-171237048D01*
X394564269Y-171265081D01*
X394601725Y-171355508D01*
X394610103Y-171386775D01*
X394623949Y-171491939D01*
X394625010Y-171508125D01*
X394625010Y-173741874D01*
X394623949Y-173758059D01*
X394623949Y-173758060D01*
X394610103Y-173863224D01*
X394601725Y-173894491D01*
X394564269Y-173984918D01*
X394548084Y-174012951D01*
X394488501Y-174090601D01*
X394465611Y-174113491D01*
X394387961Y-174173074D01*
X394359928Y-174189259D01*
X394269501Y-174226715D01*
X394238234Y-174235093D01*
X394144408Y-174247446D01*
X394133068Y-174248939D01*
X394116884Y-174250000D01*
X393383136Y-174250000D01*
X393366951Y-174248939D01*
X393353927Y-174247224D01*
X393261785Y-174235093D01*
X393230518Y-174226715D01*
X393140091Y-174189259D01*
X393112058Y-174173074D01*
X393034408Y-174113491D01*
X393011518Y-174090601D01*
X392951935Y-174012951D01*
X392935750Y-173984918D01*
X392898294Y-173894491D01*
X392889916Y-173863223D01*
X392876071Y-173758059D01*
X392875010Y-173741874D01*
X392875010Y-171508125D01*
X392876071Y-171491940D01*
X392889916Y-171386776D01*
X392889916Y-171386775D01*
X392898294Y-171355508D01*
X392935750Y-171265081D01*
X392951933Y-171237050D01*
X393011523Y-171159392D01*
X393034402Y-171136513D01*
X393112060Y-171076923D01*
X393140089Y-171060740D01*
X393230519Y-171023283D01*
X393261785Y-171014906D01*
X393366951Y-171001061D01*
X393383136Y-171000000D01*
X394116884Y-171000000D01*
X394133069Y-171001061D01*
G37*
%TD.AperFunction*%
%TD*%
%TA.AperFunction,Conductor*%
%TO.N,GNDD*%
G36*
X236495903Y-228500264D02*
G01*
X236504033Y-228500797D01*
X236512074Y-228501589D01*
X236605173Y-228513846D01*
X236621065Y-228517007D01*
X236636645Y-228521181D01*
X236651995Y-228526392D01*
X236727411Y-228557630D01*
X236741953Y-228564802D01*
X236755914Y-228572862D01*
X236769403Y-228581875D01*
X236834154Y-228631561D01*
X236846348Y-228642255D01*
X236857742Y-228653649D01*
X236868437Y-228665844D01*
X236918126Y-228730600D01*
X236927137Y-228744086D01*
X236935194Y-228758041D01*
X236942368Y-228772589D01*
X236973603Y-228847998D01*
X236978815Y-228863351D01*
X236982988Y-228878922D01*
X236986154Y-228894836D01*
X236998409Y-228987921D01*
X236999204Y-228995982D01*
X236999734Y-229004080D01*
X237000000Y-229012178D01*
X237000000Y-230237819D01*
X236999734Y-230245938D01*
X236999204Y-230254015D01*
X236998409Y-230262082D01*
X236986154Y-230355163D01*
X236982988Y-230371076D01*
X236978815Y-230386647D01*
X236973603Y-230402000D01*
X236942368Y-230477409D01*
X236935194Y-230491957D01*
X236927137Y-230505912D01*
X236918126Y-230519398D01*
X236868437Y-230584154D01*
X236857742Y-230596349D01*
X236846349Y-230607742D01*
X236834154Y-230618437D01*
X236769398Y-230668126D01*
X236755912Y-230677137D01*
X236741957Y-230685194D01*
X236727409Y-230692368D01*
X236652000Y-230723603D01*
X236636647Y-230728815D01*
X236621076Y-230732988D01*
X236605163Y-230736154D01*
X236521084Y-230747224D01*
X236519398Y-230747446D01*
X236518060Y-230747622D01*
X236512063Y-230748411D01*
X236504015Y-230749204D01*
X236503484Y-230749238D01*
X236495919Y-230749734D01*
X236487819Y-230750000D01*
X233762179Y-230750000D01*
X233754073Y-230749734D01*
X233745996Y-230749204D01*
X233737931Y-230748410D01*
X233728921Y-230747224D01*
X233728918Y-230747224D01*
X233644835Y-230736154D01*
X233628922Y-230732988D01*
X233613351Y-230728815D01*
X233597998Y-230723603D01*
X233522589Y-230692368D01*
X233508041Y-230685194D01*
X233494086Y-230677137D01*
X233480600Y-230668126D01*
X233415844Y-230618437D01*
X233403649Y-230607742D01*
X233392256Y-230596349D01*
X233381561Y-230584154D01*
X233331872Y-230519398D01*
X233322861Y-230505912D01*
X233314804Y-230491957D01*
X233307630Y-230477410D01*
X233276394Y-230402000D01*
X233271181Y-230386643D01*
X233267010Y-230371076D01*
X233267007Y-230371065D01*
X233263846Y-230355173D01*
X233251589Y-230262074D01*
X233250796Y-230254030D01*
X233250264Y-230245905D01*
X233250000Y-230237820D01*
X233250000Y-229012178D01*
X233250264Y-229004095D01*
X233250797Y-228995965D01*
X233251590Y-228987920D01*
X233263845Y-228894834D01*
X233267010Y-228878923D01*
X233271182Y-228863354D01*
X233276395Y-228847998D01*
X233307631Y-228772587D01*
X233314801Y-228758046D01*
X233314804Y-228758041D01*
X233322864Y-228744079D01*
X233331856Y-228730620D01*
X233381578Y-228665822D01*
X233392251Y-228653653D01*
X233403653Y-228642251D01*
X233415830Y-228631572D01*
X233480613Y-228581862D01*
X233494075Y-228572866D01*
X233508052Y-228564796D01*
X233522566Y-228557638D01*
X233598012Y-228526387D01*
X233613352Y-228521181D01*
X233628931Y-228517007D01*
X233644821Y-228513846D01*
X233737927Y-228501589D01*
X233745966Y-228500797D01*
X233754095Y-228500264D01*
X233762179Y-228500000D01*
X236487821Y-228500000D01*
X236495903Y-228500264D01*
G37*
%TD.AperFunction*%
%TD*%
%TA.AperFunction,Conductor*%
%TO.N,+5V*%
G36*
X265006061Y-224250597D02*
G01*
X265182941Y-224268018D01*
X265206769Y-224272757D01*
X265371001Y-224322576D01*
X265393453Y-224331877D01*
X265544798Y-224412772D01*
X265565010Y-224426277D01*
X265697666Y-224535145D01*
X265714854Y-224552333D01*
X265823722Y-224684989D01*
X265837227Y-224705201D01*
X265918121Y-224856543D01*
X265927424Y-224879001D01*
X265977240Y-225043224D01*
X265981982Y-225067065D01*
X265999403Y-225243938D01*
X266000000Y-225256092D01*
X266000000Y-226493907D01*
X265999403Y-226506061D01*
X265981982Y-226682934D01*
X265977240Y-226706775D01*
X265927424Y-226870998D01*
X265918121Y-226893456D01*
X265837227Y-227044798D01*
X265823722Y-227065010D01*
X265714854Y-227197666D01*
X265697666Y-227214854D01*
X265565010Y-227323722D01*
X265544798Y-227337227D01*
X265393456Y-227418121D01*
X265370998Y-227427424D01*
X265206775Y-227477240D01*
X265182934Y-227481982D01*
X265006061Y-227499403D01*
X264993907Y-227500000D01*
X263006093Y-227500000D01*
X262993939Y-227499403D01*
X262839117Y-227484154D01*
X262774329Y-227457993D01*
X262763589Y-227448431D01*
X262710292Y-227395133D01*
X262710288Y-227395130D01*
X262579185Y-227307529D01*
X262579172Y-227307522D01*
X262433501Y-227247184D01*
X262433491Y-227247181D01*
X262348282Y-227230232D01*
X262326287Y-227218726D01*
X262302666Y-227211098D01*
X262290588Y-227200053D01*
X262286371Y-227197847D01*
X262276621Y-227187280D01*
X262176277Y-227065010D01*
X262162772Y-227044798D01*
X262081878Y-226893456D01*
X262072575Y-226870998D01*
X262022757Y-226706769D01*
X262018018Y-226682941D01*
X262000597Y-226506061D01*
X262000000Y-226493907D01*
X262000000Y-225256092D01*
X262000597Y-225243938D01*
X262018018Y-225067056D01*
X262022757Y-225043232D01*
X262072577Y-224878994D01*
X262081875Y-224856549D01*
X262162775Y-224705195D01*
X262176272Y-224684995D01*
X262285149Y-224552328D01*
X262302328Y-224535149D01*
X262434995Y-224426272D01*
X262455195Y-224412775D01*
X262606549Y-224331875D01*
X262628994Y-224322577D01*
X262793232Y-224272757D01*
X262817056Y-224268018D01*
X262993939Y-224250597D01*
X263006093Y-224250000D01*
X264993907Y-224250000D01*
X265006061Y-224250597D01*
G37*
%TD.AperFunction*%
%TD*%
%TA.AperFunction,Conductor*%
%TO.N,+24V*%
G36*
X236508059Y-231751061D02*
G01*
X236613223Y-231764906D01*
X236644491Y-231773284D01*
X236734918Y-231810740D01*
X236762952Y-231826925D01*
X236840602Y-231886509D01*
X236863491Y-231909398D01*
X236923074Y-231987048D01*
X236939259Y-232015081D01*
X236976715Y-232105508D01*
X236985093Y-232136775D01*
X236998939Y-232241939D01*
X237000000Y-232258125D01*
X237000000Y-233491874D01*
X236998939Y-233508059D01*
X236998939Y-233508060D01*
X236985093Y-233613224D01*
X236976715Y-233644491D01*
X236939259Y-233734918D01*
X236923074Y-233762951D01*
X236863491Y-233840601D01*
X236840601Y-233863491D01*
X236762951Y-233923074D01*
X236734918Y-233939259D01*
X236644491Y-233976715D01*
X236613224Y-233985093D01*
X236519398Y-233997446D01*
X236508058Y-233998939D01*
X236491874Y-234000000D01*
X233758126Y-234000000D01*
X233741941Y-233998939D01*
X233728917Y-233997224D01*
X233636775Y-233985093D01*
X233605508Y-233976715D01*
X233515081Y-233939259D01*
X233487048Y-233923074D01*
X233409398Y-233863491D01*
X233386508Y-233840601D01*
X233326925Y-233762951D01*
X233310740Y-233734918D01*
X233273284Y-233644491D01*
X233264906Y-233613223D01*
X233251061Y-233508059D01*
X233250000Y-233491874D01*
X233250000Y-232258125D01*
X233251061Y-232241940D01*
X233264906Y-232136776D01*
X233264906Y-232136775D01*
X233273284Y-232105508D01*
X233310740Y-232015081D01*
X233326923Y-231987050D01*
X233386513Y-231909392D01*
X233409392Y-231886513D01*
X233487050Y-231826923D01*
X233515079Y-231810740D01*
X233605509Y-231773283D01*
X233636775Y-231764906D01*
X233741941Y-231751061D01*
X233758126Y-231750000D01*
X236491874Y-231750000D01*
X236508059Y-231751061D01*
G37*
%TD.AperFunction*%
%TD*%
%TA.AperFunction,Conductor*%
%TO.N,+5VD*%
G36*
X228506061Y-174500597D02*
G01*
X228682941Y-174518018D01*
X228706769Y-174522757D01*
X228871001Y-174572576D01*
X228893453Y-174581877D01*
X229044798Y-174662772D01*
X229065010Y-174676277D01*
X229197666Y-174785145D01*
X229214854Y-174802333D01*
X229323722Y-174934989D01*
X229337227Y-174955201D01*
X229418121Y-175106543D01*
X229427424Y-175129001D01*
X229477240Y-175293224D01*
X229481982Y-175317065D01*
X229499403Y-175493938D01*
X229500000Y-175506092D01*
X229500000Y-175993907D01*
X229499403Y-176006061D01*
X229481982Y-176182934D01*
X229477240Y-176206775D01*
X229427424Y-176370998D01*
X229418121Y-176393456D01*
X229337227Y-176544798D01*
X229323722Y-176565010D01*
X229214854Y-176697666D01*
X229197666Y-176714854D01*
X229065010Y-176823722D01*
X229044798Y-176837227D01*
X228893456Y-176918121D01*
X228870998Y-176927424D01*
X228706775Y-176977240D01*
X228682934Y-176981982D01*
X228506061Y-176999403D01*
X228493907Y-177000000D01*
X227256093Y-177000000D01*
X227243939Y-176999403D01*
X227067065Y-176981982D01*
X227043224Y-176977240D01*
X226879001Y-176927424D01*
X226856543Y-176918121D01*
X226705201Y-176837227D01*
X226684989Y-176823722D01*
X226552333Y-176714854D01*
X226535145Y-176697666D01*
X226426277Y-176565010D01*
X226412772Y-176544798D01*
X226331878Y-176393456D01*
X226322575Y-176370998D01*
X226272757Y-176206769D01*
X226268018Y-176182941D01*
X226250597Y-176006061D01*
X226250000Y-175993907D01*
X226250000Y-175506092D01*
X226250597Y-175493938D01*
X226268018Y-175317056D01*
X226272757Y-175293232D01*
X226322577Y-175128994D01*
X226331875Y-175106549D01*
X226412775Y-174955195D01*
X226426272Y-174934995D01*
X226535149Y-174802328D01*
X226552328Y-174785149D01*
X226684995Y-174676272D01*
X226705195Y-174662775D01*
X226856549Y-174581875D01*
X226878994Y-174572577D01*
X227043232Y-174522757D01*
X227067056Y-174518018D01*
X227243939Y-174500597D01*
X227256093Y-174500000D01*
X228493907Y-174500000D01*
X228506061Y-174500597D01*
G37*
%TD.AperFunction*%
%TD*%
D46*
X220162003Y-167500003D02*
X220162003Y-243500000D01*
X220162003Y-167500003D02*
G75*
G02*
X225750003Y-161912003I5587997J3D01*
G01*
X225750004Y-249087996D02*
G75*
G02*
X220162004Y-243499996I-4J5587996D01*
G01*
X243750000Y-179750000D02*
G75*
G02*
X243750000Y-178750000I0J500000D01*
G01*
X245500000Y-224250000D02*
X245500000Y-234250000D01*
X245500000Y-224250000D02*
G75*
G02*
X248000000Y-224250000I1250000J0D01*
G01*
X248000000Y-224250000D02*
X248000000Y-234250000D01*
X248000000Y-234250000D02*
G75*
G02*
X245500000Y-234250000I-1250000J0D01*
G01*
X249250000Y-178750000D02*
X243750000Y-178750000D01*
X249250000Y-178750000D02*
G75*
G02*
X249250000Y-179750000I0J-500000D01*
G01*
X249250000Y-179750000D02*
X243750000Y-179750000D01*
X262250000Y-179750000D02*
G75*
G02*
X262250000Y-178750000I0J500000D01*
G01*
X267750000Y-178750000D02*
X262250000Y-178750000D01*
X267750000Y-178750000D02*
G75*
G02*
X267750000Y-179750000I0J-500000D01*
G01*
X267750000Y-179750000D02*
X262250000Y-179750000D01*
X280750000Y-179750000D02*
G75*
G02*
X280750000Y-178750000I0J500000D01*
G01*
X286250000Y-178750000D02*
X280750000Y-178750000D01*
X286250000Y-178750000D02*
G75*
G02*
X286250000Y-179750000I0J-500000D01*
G01*
X286250000Y-179750000D02*
X280750000Y-179750000D01*
X299250000Y-179750000D02*
G75*
G02*
X299250000Y-178750000I0J500000D01*
G01*
X304000000Y-196500000D02*
G75*
G02*
X306000000Y-196500000I1000000J0D01*
G01*
X304000000Y-209000000D02*
X304000000Y-196500000D01*
X304750000Y-178750000D02*
X299250000Y-178750000D01*
X304750000Y-178750000D02*
G75*
G02*
X304750000Y-179750000I0J-500000D01*
G01*
X304750000Y-179750000D02*
X299250000Y-179750000D01*
X306000000Y-209000000D02*
G75*
G02*
X304000000Y-209000000I-1000000J0D01*
G01*
X306000000Y-209000000D02*
X306000000Y-196500000D01*
X316500000Y-225250000D02*
X316500000Y-246250000D01*
X316500000Y-225250000D02*
G75*
G02*
X319000000Y-225250000I1250000J0D01*
G01*
X317750000Y-179750000D02*
G75*
G02*
X317750000Y-178750000I0J500000D01*
G01*
X319000000Y-225250000D02*
X319000000Y-246250000D01*
X319000000Y-246250000D02*
G75*
G02*
X316500000Y-246250000I-1250000J0D01*
G01*
X323250000Y-178750000D02*
X317750000Y-178750000D01*
X323250000Y-178750000D02*
G75*
G02*
X323250000Y-179750000I0J-500000D01*
G01*
X323250000Y-179750000D02*
X317750000Y-179750000D01*
X336250000Y-179750000D02*
G75*
G02*
X336250000Y-178750000I0J500000D01*
G01*
X341750000Y-178750000D02*
X336250000Y-178750000D01*
X341750000Y-178750000D02*
G75*
G02*
X341750000Y-179750000I0J-500000D01*
G01*
X341750000Y-179750000D02*
X336250000Y-179750000D01*
X354750000Y-179750000D02*
G75*
G02*
X354750000Y-178750000I0J500000D01*
G01*
X360250000Y-178750000D02*
X354750000Y-178750000D01*
X360250000Y-178750000D02*
G75*
G02*
X360250000Y-179750000I0J-500000D01*
G01*
X360250000Y-179750000D02*
X354750000Y-179750000D01*
X373250000Y-179750000D02*
G75*
G02*
X373250000Y-178750000I0J500000D01*
G01*
X378750000Y-178750000D02*
X373250000Y-178750000D01*
X378750000Y-178750000D02*
G75*
G02*
X378750000Y-179750000I0J-500000D01*
G01*
X378750000Y-179750000D02*
X373250000Y-179750000D01*
X404000000Y-164500000D02*
X404000000Y-172750000D01*
X404000000Y-164500000D02*
G75*
G02*
X406500000Y-164500000I1250000J0D01*
G01*
X406500000Y-164500000D02*
X406500000Y-172750000D01*
X406500000Y-172750000D02*
G75*
G02*
X404000000Y-172750000I-1250000J0D01*
G01*
X422750000Y-186000000D02*
X422750000Y-191750000D01*
X422750000Y-186000000D02*
G75*
G02*
X424750000Y-186000000I1000000J0D01*
G01*
X422750000Y-206125000D02*
X422750000Y-211875000D01*
X422750000Y-206125000D02*
G75*
G02*
X424750000Y-206125000I1000000J0D01*
G01*
X422750000Y-226125000D02*
X422750000Y-231875000D01*
X422750000Y-226125000D02*
G75*
G02*
X424750000Y-226125000I1000000J0D01*
G01*
X424750000Y-186000000D02*
X424750000Y-191750000D01*
X424750000Y-191750000D02*
G75*
G02*
X422750000Y-191750000I-1000000J0D01*
G01*
X424750000Y-206125000D02*
X424750000Y-211875000D01*
X424750000Y-211875000D02*
G75*
G02*
X422750000Y-211875000I-1000000J0D01*
G01*
X424750000Y-226125000D02*
X424750000Y-231875000D01*
X424750000Y-231875000D02*
G75*
G02*
X422750000Y-231875000I-1000000J0D01*
G01*
X440750000Y-192500000D02*
X440750000Y-194250000D01*
X440750000Y-192500000D02*
G75*
G02*
X441750000Y-192500000I500000J0D01*
G01*
X440750000Y-212625000D02*
X440750000Y-214375000D01*
X440750000Y-212625000D02*
G75*
G02*
X441750000Y-212625000I500000J0D01*
G01*
X440750000Y-232625000D02*
X440750000Y-234375000D01*
X440750000Y-232625000D02*
G75*
G02*
X441750000Y-232625000I500000J0D01*
G01*
X441750000Y-192500000D02*
X441750000Y-194250000D01*
X441750000Y-194250000D02*
G75*
G02*
X440750000Y-194250000I-500000J0D01*
G01*
X441750000Y-212625000D02*
X441750000Y-214375000D01*
X441750000Y-214375000D02*
G75*
G02*
X440750000Y-214375000I-500000J0D01*
G01*
X441750000Y-232625000D02*
X441750000Y-234375000D01*
X441750000Y-234375000D02*
G75*
G02*
X440750000Y-234375000I-500000J0D01*
G01*
X451749996Y-161912004D02*
G75*
G02*
X457337996Y-167500004I4J-5587996D01*
G01*
X451749996Y-249087996D02*
X225750004Y-249087996D01*
X451750000Y-161912003D02*
X225750003Y-161912003D01*
X457337996Y-167500004D02*
X457337996Y-243499996D01*
X457337996Y-243499996D02*
G75*
G02*
X451749996Y-249087996I-5587996J-4D01*
G01*
M02*
