M48
; DRILL file KiCad 10.0.1 date 2026-06-11T10:53:24
; FORMAT={-:-/ absolute / metric / decimal}
; #@! TF.CreationDate,2026-06-11T10:53:24+03:00
; #@! TF.GenerationSoftware,Kicad,Pcbnew,10.0.1
; #@! TF.FileFunction,Plated,1,4,PTH
FMAT,2
METRIC
; #@! TA.AperFunction,Plated,PTH,ViaDrill
T1C0.300
; #@! TA.AperFunction,Plated,PTH,ComponentDrill
T2C0.600
; #@! TA.AperFunction,Plated,PTH,ComponentDrill
T3C0.800
; #@! TA.AperFunction,Plated,PTH,ComponentDrill
T4C1.000
; #@! TA.AperFunction,Plated,PTH,ComponentDrill
T5C1.200
; #@! TA.AperFunction,Plated,PTH,ComponentDrill
T6C1.400
; #@! TA.AperFunction,Plated,PTH,ComponentDrill
T7C4.300
%
G90
G05
T1
X221.75Y-206.0
X221.75Y-207.25
X221.75Y-208.5
X221.75Y-209.75
X221.75Y-211.0
X221.75Y-212.25
X221.75Y-213.5
X222.0Y-175.0
X222.0Y-175.75
X222.0Y-176.5
X222.0Y-177.25
X222.0Y-178.0
X222.0Y-178.75
X222.0Y-179.5
X222.0Y-180.25
X222.0Y-181.0
X222.0Y-181.75
X222.0Y-182.5
X222.0Y-183.25
X222.75Y-175.0
X222.75Y-175.75
X222.75Y-176.5
X222.75Y-177.25
X222.75Y-178.0
X222.75Y-178.75
X222.75Y-179.5
X222.75Y-180.25
X222.75Y-181.0
X222.75Y-181.75
X222.75Y-182.5
X222.75Y-183.25
X223.0Y-206.0
X223.0Y-207.25
X223.0Y-208.5
X223.0Y-209.75
X223.0Y-211.0
X223.0Y-212.25
X223.0Y-213.5
X223.5Y-175.0
X223.5Y-175.75
X223.5Y-176.5
X223.5Y-177.25
X223.5Y-180.25
X223.5Y-181.0
X223.5Y-181.75
X223.5Y-182.5
X223.5Y-183.25
X224.25Y-175.0
X224.25Y-175.75
X224.25Y-176.5
X224.25Y-177.25
X224.25Y-180.25
X224.25Y-181.0
X224.25Y-206.0
X224.25Y-207.25
X224.25Y-208.5
X224.25Y-209.75
X224.25Y-211.0
X224.25Y-212.25
X224.25Y-213.5
X225.0Y-175.0
X225.0Y-175.75
X225.0Y-176.5
X225.0Y-177.25
X225.0Y-180.25
X225.0Y-181.0
X225.5Y-206.0
X225.5Y-207.25
X225.5Y-223.25
X226.75Y-175.0
X226.75Y-175.75
X226.75Y-176.5
X226.75Y-206.0
X226.75Y-207.25
X227.5Y-175.0
X227.5Y-175.75
X227.5Y-176.5
X228.0Y-206.0
X228.0Y-207.25
X228.25Y-175.0
X228.25Y-175.75
X228.25Y-176.5
X228.25Y-181.0
X228.25Y-181.75
X228.25Y-182.5
X228.25Y-183.25
X229.0Y-175.0
X229.0Y-175.75
X229.0Y-176.5
X229.0Y-181.0
X229.0Y-181.75
X229.0Y-182.5
X229.0Y-183.25
X229.25Y-207.25
X229.75Y-181.0
X229.75Y-181.75
X229.75Y-182.5
X229.75Y-183.25
X230.5Y-181.0
X230.5Y-181.75
X230.5Y-182.5
X230.5Y-183.25
X233.75Y-229.0
X233.75Y-229.75
X233.75Y-232.5
X233.75Y-233.25
X234.5Y-229.0
X234.5Y-229.75
X234.5Y-232.5
X234.5Y-233.25
X234.75Y-202.0
X235.5Y-202.0
X236.5Y-202.0
X237.25Y-202.0
X251.75Y-213.75
X252.0Y-167.5
X252.75Y-165.25
X252.75Y-166.0
X252.75Y-166.75
X252.75Y-167.5
X253.25Y-212.5
X253.25Y-216.5
X258.0Y-183.0
X258.0Y-185.25
X260.0Y-214.25
X260.0Y-215.0
X260.0Y-215.75
X260.0Y-216.5
X260.75Y-214.25
X260.75Y-215.0
X260.75Y-215.75
X260.75Y-216.5
X261.0Y-231.0
X261.5Y-214.25
X261.5Y-215.0
X261.5Y-215.75
X261.5Y-216.5
X262.2Y-228.017
X262.25Y-214.25
X262.25Y-215.0
X262.25Y-215.75
X262.25Y-216.5
X262.5Y-224.75
X262.5Y-225.5
X262.5Y-226.25
X262.5Y-227.0
X263.0Y-214.25
X263.0Y-215.0
X263.0Y-215.75
X263.0Y-216.5
X263.25Y-224.75
X263.25Y-225.5
X263.25Y-226.25
X263.25Y-227.0
X263.75Y-214.25
X263.75Y-215.0
X263.75Y-215.75
X263.75Y-216.5
X264.0Y-224.75
X264.0Y-225.5
X264.0Y-226.25
X264.0Y-227.0
X264.75Y-224.75
X264.75Y-225.5
X264.75Y-226.25
X264.75Y-227.0
X265.2Y-187.95
X265.5Y-224.75
X265.5Y-225.5
X265.5Y-226.25
X265.5Y-227.0
X266.75Y-220.25
X266.75Y-221.0
X266.75Y-221.75
X266.75Y-222.5
X267.5Y-220.25
X267.5Y-221.0
X267.5Y-221.75
X267.5Y-222.5
X267.5Y-223.25
X268.25Y-218.0
X268.25Y-218.75
X268.25Y-219.5
X268.25Y-220.25
X268.25Y-221.0
X268.25Y-221.75
X268.25Y-222.5
X268.25Y-223.25
X269.0Y-218.0
X269.0Y-223.75
X269.75Y-217.25
X269.75Y-218.0
X269.75Y-223.75
X270.0Y-226.75
X270.0Y-231.0
X270.5Y-214.25
X270.5Y-215.0
X270.5Y-215.75
X270.5Y-216.5
X270.5Y-217.25
X270.5Y-218.0
X270.5Y-223.75
X271.25Y-214.25
X271.25Y-215.0
X271.25Y-215.75
X271.25Y-216.5
X271.25Y-217.25
X271.25Y-218.0
X271.25Y-223.75
X271.25Y-228.0
X272.0Y-214.25
X272.0Y-215.0
X272.0Y-215.75
X272.0Y-216.5
X272.0Y-217.25
X272.0Y-218.0
X272.0Y-218.75
X272.0Y-219.5
X272.0Y-220.25
X272.0Y-221.0
X272.0Y-221.75
X272.0Y-222.5
X272.0Y-223.25
X277.39Y-227.89
X277.39Y-233.14
X277.39Y-239.89
X277.39Y-245.14
X283.39Y-228.0
X283.39Y-240.0
X284.25Y-202.75
X289.0Y-167.5
X289.75Y-165.25
X289.75Y-166.0
X289.75Y-166.75
X289.75Y-167.5
X292.39Y-229.25
X292.39Y-241.25
X295.0Y-183.0
X295.0Y-185.25
X296.89Y-227.0
X296.89Y-231.75
X296.89Y-239.0
X296.89Y-243.75
X299.465Y-202.785
X302.2Y-187.95
X315.222Y-198.722
X315.25Y-201.25
X316.25Y-205.5
X320.0Y-202.75
X320.0Y-205.0
X325.24Y-229.75
X325.24Y-230.5
X325.24Y-241.75
X325.24Y-242.5
X326.0Y-167.5
X326.75Y-165.25
X326.75Y-166.0
X326.75Y-166.75
X326.75Y-167.5
X328.25Y-215.0
X328.25Y-217.25
X329.75Y-209.0
X331.25Y-218.5
X332.0Y-183.0
X332.0Y-185.25
X333.5Y-211.0
X335.75Y-200.0
X336.25Y-214.25
X336.537Y-220.712
X336.835Y-199.915
X337.25Y-219.0
X339.2Y-187.95
X339.75Y-206.5
X339.75Y-207.25
X339.75Y-208.0
X340.0Y-214.5
X340.16Y-220.16
X340.5Y-206.5
X340.5Y-207.25
X340.5Y-208.0
X341.25Y-206.5
X341.25Y-207.25
X341.25Y-208.0
X342.75Y-214.25
X345.712Y-222.787
X346.0Y-230.0
X346.0Y-242.0
X347.5Y-210.0
X347.75Y-203.0
X347.75Y-204.0
X347.75Y-227.0
X347.75Y-239.0
X347.8Y-228.95
X347.8Y-240.95
X348.75Y-234.35
X348.75Y-246.35
X350.25Y-231.25
X350.25Y-243.25
X350.8Y-234.2
X350.8Y-246.2
X351.95Y-227.05
X351.95Y-239.05
X352.0Y-228.0
X352.0Y-240.0
X352.7Y-234.2
X352.7Y-246.2
X355.2Y-229.7
X355.2Y-241.7
X357.312Y-228.688
X357.312Y-240.688
X360.5Y-226.75
X360.5Y-238.75
X363.0Y-167.5
X363.75Y-165.25
X363.75Y-166.0
X363.75Y-166.75
X363.75Y-167.5
X369.0Y-183.0
X369.0Y-185.25
X376.2Y-187.95
X393.375Y-173.75
X394.125Y-173.75
X396.625Y-173.75
X397.375Y-173.75
X402.425Y-191.325
X402.425Y-211.325
X402.425Y-231.325
X406.375Y-191.375
X406.375Y-211.625
X406.375Y-231.625
X408.675Y-186.875
X408.675Y-206.875
X408.675Y-226.875
X409.625Y-190.875
X409.625Y-210.875
X409.625Y-230.875
X412.5Y-169.75
X413.25Y-169.75
X414.0Y-169.75
X414.75Y-169.75
X415.5Y-169.75
X416.625Y-194.625
X416.625Y-214.625
X416.625Y-234.625
X417.22Y-186.97
X417.22Y-190.78
X417.22Y-206.97
X417.22Y-210.78
X417.22Y-226.97
X417.22Y-230.78
X419.75Y-171.25
X419.75Y-172.0
X419.75Y-172.75
X419.75Y-174.0
X420.25Y-170.5
X420.25Y-173.25
X420.25Y-174.75
X420.5Y-169.75
X420.5Y-174.0
X421.0Y-170.5
X421.0Y-173.25
X421.0Y-174.75
X421.25Y-169.75
X421.25Y-174.0
X421.75Y-170.5
X421.75Y-173.25
X421.75Y-174.75
X422.25Y-169.75
X422.25Y-174.0
X422.75Y-170.5
X422.75Y-173.25
X422.75Y-174.75
X423.25Y-169.75
X423.25Y-174.0
X423.5Y-170.5
X423.5Y-173.25
X423.5Y-174.75
X424.0Y-169.75
X424.0Y-174.0
X424.25Y-164.0
X424.25Y-170.5
X424.25Y-173.25
X424.25Y-174.75
X424.75Y-171.25
X424.75Y-172.0
X424.75Y-172.75
X424.75Y-174.0
X425.0Y-164.0
X425.75Y-164.0
X426.5Y-164.0
X426.5Y-170.5
X427.25Y-164.0
X427.5Y-192.75
X427.5Y-212.75
X427.5Y-232.75
X427.75Y-173.25
X428.0Y-164.0
X428.75Y-164.0
X430.25Y-169.75
X430.28Y-190.78
X430.28Y-210.78
X430.28Y-230.78
X430.375Y-186.97
X430.375Y-206.97
X430.375Y-226.97
X432.75Y-169.75
X433.5Y-193.5
X433.5Y-213.5
X433.5Y-233.5
X435.25Y-169.75
X436.25Y-193.5
X436.25Y-213.5
X436.25Y-233.5
X436.5Y-171.5
X438.75Y-173.25
X440.95Y-170.55
T2
X222.525Y-167.5
X222.525Y-243.5
X223.47Y-165.22
X223.47Y-169.78
X223.47Y-241.22
X223.47Y-245.78
X225.75Y-164.275
X225.75Y-170.725
X225.75Y-240.275
X225.75Y-246.725
X228.03Y-165.22
X228.03Y-169.78
X228.03Y-241.22
X228.03Y-245.78
X228.975Y-167.5
X228.975Y-243.5
T3
X245.25Y-175.5
X245.25Y-183.12
X247.79Y-175.5
X247.79Y-183.12
X263.735Y-175.445
X263.735Y-183.065
X266.275Y-175.445
X266.275Y-183.065
X282.25Y-175.5
X282.25Y-183.12
X284.79Y-175.5
X284.79Y-183.12
X300.735Y-175.445
X300.735Y-183.065
X303.275Y-175.445
X303.275Y-183.065
X319.25Y-175.5
X319.25Y-183.12
X321.79Y-175.5
X321.79Y-183.12
X337.735Y-175.445
X337.735Y-183.065
X340.275Y-175.445
X340.275Y-183.065
X356.25Y-175.5
X356.25Y-183.12
X358.79Y-175.5
X358.79Y-183.12
X374.735Y-175.445
X374.735Y-183.065
X377.275Y-175.445
X377.275Y-183.065
T4
X239.11Y-227.0
X241.65Y-227.0
X242.868Y-214.75
X244.19Y-227.0
X247.868Y-214.75
X249.27Y-227.0
X251.81Y-227.0
X254.35Y-227.0
X256.89Y-227.0
X301.193Y-198.955
X301.193Y-201.495
X301.193Y-204.035
X301.89Y-227.868
X301.89Y-232.868
X301.89Y-239.868
X301.89Y-244.868
X308.813Y-198.955
X308.813Y-201.495
X308.813Y-204.035
X308.813Y-206.575
X316.17Y-211.5
X318.71Y-211.5
X321.25Y-211.5
X323.79Y-211.5
X397.36Y-165.25
X399.9Y-165.25
X402.44Y-165.25
X407.52Y-165.25
X410.06Y-165.25
X412.6Y-165.25
X415.14Y-165.25
T5
X310.0Y-228.2
X310.0Y-240.2
X312.54Y-228.2
X312.54Y-240.2
X315.08Y-228.2
X315.08Y-240.2
X320.16Y-228.2
X320.16Y-240.2
X322.7Y-228.2
X322.7Y-240.2
X325.24Y-228.2
X325.24Y-240.2
X327.78Y-228.2
X327.78Y-240.2
T6
X224.0Y-196.75
X224.0Y-200.95
X229.5Y-196.75
X229.5Y-200.95
X239.25Y-167.0
X239.25Y-172.5
X257.25Y-200.65
X257.25Y-204.85
X257.75Y-167.0
X257.75Y-172.5
X262.75Y-200.65
X262.75Y-204.85
X276.0Y-200.65
X276.0Y-204.85
X276.25Y-167.0
X276.25Y-172.5
X281.5Y-200.65
X281.5Y-204.85
X294.75Y-167.0
X294.75Y-172.5
X313.25Y-167.0
X313.25Y-172.5
X331.75Y-167.0
X331.75Y-172.5
X333.25Y-228.15
X333.25Y-232.35
X333.25Y-240.15
X333.25Y-244.35
X338.75Y-228.15
X338.75Y-232.35
X338.75Y-240.15
X338.75Y-244.35
X350.25Y-167.0
X350.25Y-172.5
X368.75Y-167.0
X368.75Y-172.5
X448.125Y-184.375
X448.125Y-193.375
X448.125Y-204.375
X448.125Y-213.375
X448.125Y-224.375
X448.125Y-233.375
X453.625Y-184.375
X453.625Y-193.375
X453.625Y-204.375
X453.625Y-213.375
X453.625Y-224.375
X453.625Y-233.375
T7
X225.75Y-167.5
X225.75Y-243.5
M30
