%TF.GenerationSoftware,KiCad,Pcbnew,10.0.1*%
%TF.CreationDate,2026-06-11T10:53:21+03:00*%
%TF.ProjectId,PDU_Container_MCU_PCB,5044555f-436f-46e7-9461-696e65725f4d,rev?*%
%TF.SameCoordinates,Original*%
%TF.FileFunction,Soldermask,Bot*%
%TF.FilePolarity,Negative*%
%FSLAX46Y46*%
G04 Gerber Fmt 4.6, Leading zero omitted, Abs format (unit mm)*
G04 Created by KiCad (PCBNEW 10.0.1) date 2026-06-11 10:53:21*
%MOMM*%
%LPD*%
G01*
G04 APERTURE LIST*
G04 Aperture macros list*
%AMRoundRect*
0 Rectangle with rounded corners*
0 $1 Rounding radius*
0 $2 $3 $4 $5 $6 $7 $8 $9 X,Y pos of 4 corners*
0 Add a 4 corners polygon primitive as box body*
4,1,4,$2,$3,$4,$5,$6,$7,$8,$9,$2,$3,0*
0 Add four circle primitives for the rounded corners*
1,1,$1+$1,$2,$3*
1,1,$1+$1,$4,$5*
1,1,$1+$1,$6,$7*
1,1,$1+$1,$8,$9*
0 Add four rect primitives between the rounded corners*
20,1,$1+$1,$2,$3,$4,$5,0*
20,1,$1+$1,$4,$5,$6,$7,0*
20,1,$1+$1,$6,$7,$8,$9,0*
20,1,$1+$1,$8,$9,$2,$3,0*%
G04 Aperture macros list end*
%ADD10RoundRect,0.250000X0.750000X0.750000X-0.750000X0.750000X-0.750000X-0.750000X0.750000X-0.750000X0*%
%ADD11C,2.000000*%
%ADD12RoundRect,0.250001X1.099999X1.399999X-1.099999X1.399999X-1.099999X-1.399999X1.099999X-1.399999X0*%
%ADD13O,2.700000X3.300000*%
%ADD14RoundRect,0.250001X1.399999X-1.099999X1.399999X1.099999X-1.399999X1.099999X-1.399999X-1.099999X0*%
%ADD15O,3.300000X2.700000*%
%ADD16R,1.700000X1.700000*%
%ADD17C,1.700000*%
%ADD18C,0.900000*%
%ADD19C,8.600000*%
%ADD20RoundRect,0.250001X-1.399999X1.099999X-1.399999X-1.099999X1.399999X-1.099999X1.399999X1.099999X0*%
%ADD21RoundRect,0.250000X0.550000X-0.550000X0.550000X0.550000X-0.550000X0.550000X-0.550000X-0.550000X0*%
%ADD22C,1.600000*%
%ADD23RoundRect,0.250000X-0.550000X0.550000X-0.550000X-0.550000X0.550000X-0.550000X0.550000X0.550000X0*%
%ADD24RoundRect,0.250000X0.750000X-0.750000X0.750000X0.750000X-0.750000X0.750000X-0.750000X-0.750000X0*%
%ADD25O,1.600000X2.300000*%
%ADD26C,4.300000*%
%ADD27O,2.200000X1.500000*%
%ADD28RoundRect,0.250000X-0.337500X-0.475000X0.337500X-0.475000X0.337500X0.475000X-0.337500X0.475000X0*%
%ADD29RoundRect,0.249999X0.450001X1.425001X-0.450001X1.425001X-0.450001X-1.425001X0.450001X-1.425001X0*%
%ADD30RoundRect,0.250000X-0.412500X-0.650000X0.412500X-0.650000X0.412500X0.650000X-0.412500X0.650000X0*%
%ADD31RoundRect,0.250000X0.450000X-0.350000X0.450000X0.350000X-0.450000X0.350000X-0.450000X-0.350000X0*%
%ADD32RoundRect,0.250000X-0.650000X0.412500X-0.650000X-0.412500X0.650000X-0.412500X0.650000X0.412500X0*%
%ADD33RoundRect,0.250000X-0.475000X0.337500X-0.475000X-0.337500X0.475000X-0.337500X0.475000X0.337500X0*%
%ADD34RoundRect,0.250000X1.500000X0.650000X-1.500000X0.650000X-1.500000X-0.650000X1.500000X-0.650000X0*%
%ADD35RoundRect,0.250000X0.412500X0.650000X-0.412500X0.650000X-0.412500X-0.650000X0.412500X-0.650000X0*%
%ADD36RoundRect,0.249999X-1.425001X0.450001X-1.425001X-0.450001X1.425001X-0.450001X1.425001X0.450001X0*%
%ADD37RoundRect,0.250000X0.337500X0.475000X-0.337500X0.475000X-0.337500X-0.475000X0.337500X-0.475000X0*%
%ADD38RoundRect,0.250000X0.475000X-0.337500X0.475000X0.337500X-0.475000X0.337500X-0.475000X-0.337500X0*%
%ADD39RoundRect,0.250000X0.650000X-0.412500X0.650000X0.412500X-0.650000X0.412500X-0.650000X-0.412500X0*%
%ADD40RoundRect,0.250000X-0.350000X-0.450000X0.350000X-0.450000X0.350000X0.450000X-0.350000X0.450000X0*%
%ADD41RoundRect,0.250001X-0.462499X-1.074999X0.462499X-1.074999X0.462499X1.074999X-0.462499X1.074999X0*%
%ADD42RoundRect,0.250000X0.350000X0.450000X-0.350000X0.450000X-0.350000X-0.450000X0.350000X-0.450000X0*%
%ADD43RoundRect,0.250000X1.450000X-0.400000X1.450000X0.400000X-1.450000X0.400000X-1.450000X-0.400000X0*%
%TA.AperFunction,Profile*%
%ADD44C,0.050000*%
%TD*%
G04 APERTURE END LIST*
D10*
%TO.C,C79*%
X247867677Y-214750000D03*
D11*
X242867677Y-214750000D03*
%TD*%
D12*
%TO.C,J12*%
X313250000Y-172500000D03*
D13*
X313250000Y-167000000D03*
%TD*%
D14*
%TO.C,J5*%
X448125000Y-213375000D03*
D15*
X453625000Y-213375000D03*
%TD*%
D12*
%TO.C,J15*%
X368750000Y-172500000D03*
D13*
X368750000Y-167000000D03*
%TD*%
D16*
%TO.C,J1*%
X323790000Y-211500000D03*
D17*
X321250000Y-211500000D03*
X318710000Y-211500000D03*
X316170000Y-211500000D03*
%TD*%
D12*
%TO.C,J11*%
X294750000Y-172500000D03*
D13*
X294750000Y-167000000D03*
%TD*%
D18*
%TO.C,H1*%
X225750000Y-240275000D03*
X228030419Y-241219581D03*
X223469581Y-241219581D03*
X228975000Y-243500000D03*
D19*
X225750000Y-243500000D03*
D18*
X222525000Y-243500000D03*
X228030419Y-245780419D03*
X223469581Y-245780419D03*
X225750000Y-246725000D03*
%TD*%
D20*
%TO.C,J35*%
X262750000Y-200650000D03*
D15*
X262750000Y-204850000D03*
X257250000Y-200650000D03*
X257250000Y-204850000D03*
%TD*%
D21*
%TO.C,U11*%
X319250000Y-183120000D03*
D22*
X321790000Y-183120000D03*
X321790000Y-175500000D03*
X319250000Y-175500000D03*
%TD*%
D12*
%TO.C,J10*%
X276250000Y-172500000D03*
D13*
X276250000Y-167000000D03*
%TD*%
D23*
%TO.C,U8*%
X266275000Y-175445000D03*
D22*
X263735000Y-175445000D03*
X263735000Y-183065000D03*
X266275000Y-183065000D03*
%TD*%
D18*
%TO.C,H2*%
X225750000Y-164275000D03*
X228030419Y-165219581D03*
X223469581Y-165219581D03*
X228975000Y-167500000D03*
D19*
X225750000Y-167500000D03*
D18*
X222525000Y-167500000D03*
X228030419Y-169780419D03*
X223469581Y-169780419D03*
X225750000Y-170725000D03*
%TD*%
D21*
%TO.C,U9*%
X282250000Y-183120000D03*
D22*
X284790000Y-183120000D03*
X284790000Y-175500000D03*
X282250000Y-175500000D03*
%TD*%
D24*
%TO.C,C88*%
X301890005Y-244867677D03*
D11*
X301890005Y-239867677D03*
%TD*%
D25*
%TO.C,D18*%
X397359990Y-165249990D03*
X399899990Y-165249990D03*
X402439990Y-165249990D03*
X407519990Y-165249990D03*
X410059990Y-165249990D03*
X412599990Y-165249990D03*
X415139990Y-165249990D03*
%TD*%
D23*
%TO.C,U12*%
X340275000Y-175445000D03*
D22*
X337735000Y-175445000D03*
X337735000Y-183065000D03*
X340275000Y-183065000D03*
%TD*%
D24*
%TO.C,C84*%
X301890005Y-232867677D03*
D11*
X301890005Y-227867677D03*
%TD*%
D20*
%TO.C,J6*%
X229500000Y-196750000D03*
D15*
X229500000Y-200950000D03*
X224000000Y-196750000D03*
X224000000Y-200950000D03*
%TD*%
D12*
%TO.C,J14*%
X350250000Y-172500000D03*
D13*
X350250000Y-167000000D03*
%TD*%
D26*
%TO.C,H3*%
X451750000Y-243500000D03*
%TD*%
D12*
%TO.C,J8*%
X239250000Y-172500000D03*
D13*
X239250000Y-167000000D03*
%TD*%
D25*
%TO.C,D23*%
X310000000Y-240199990D03*
X312540000Y-240199990D03*
X315080000Y-240199990D03*
X320160000Y-240199990D03*
X322700000Y-240199990D03*
X325240000Y-240199990D03*
X327780000Y-240199990D03*
%TD*%
D14*
%TO.C,J3*%
X448125000Y-184375000D03*
D15*
X453625000Y-184375000D03*
%TD*%
D26*
%TO.C,H4*%
X451750000Y-167500000D03*
%TD*%
D14*
%TO.C,J4*%
X448125000Y-204375000D03*
D15*
X453625000Y-204375000D03*
%TD*%
D14*
%TO.C,J7*%
X448125000Y-193375000D03*
D15*
X453625000Y-193375000D03*
%TD*%
D21*
%TO.C,U13*%
X356250000Y-183120000D03*
D22*
X358790000Y-183120000D03*
X358790000Y-175500000D03*
X356250000Y-175500000D03*
%TD*%
D12*
%TO.C,J13*%
X331750000Y-172500000D03*
D13*
X331750000Y-167000000D03*
%TD*%
D25*
%TO.C,D21*%
X310000000Y-228199990D03*
X312540000Y-228199990D03*
X315080000Y-228199990D03*
X320160000Y-228199990D03*
X322700000Y-228199990D03*
X325240000Y-228199990D03*
X327780000Y-228199990D03*
%TD*%
D14*
%TO.C,J16*%
X333250000Y-232350000D03*
D15*
X333250000Y-228150000D03*
X338750000Y-232350000D03*
X338750000Y-228150000D03*
%TD*%
D14*
%TO.C,J32*%
X448125000Y-224375000D03*
D15*
X453625000Y-224375000D03*
%TD*%
D25*
%TO.C,D19*%
X239109990Y-226999990D03*
X241649990Y-226999990D03*
X244189990Y-226999990D03*
X249269990Y-226999990D03*
X251809990Y-226999990D03*
X254349990Y-226999990D03*
X256889990Y-226999990D03*
%TD*%
D20*
%TO.C,J34*%
X281500000Y-200650000D03*
D15*
X281500000Y-204850000D03*
X276000000Y-200650000D03*
X276000000Y-204850000D03*
%TD*%
D23*
%TO.C,U10*%
X303275000Y-175445000D03*
D22*
X300735000Y-175445000D03*
X300735000Y-183065000D03*
X303275000Y-183065000D03*
%TD*%
D12*
%TO.C,J9*%
X257750000Y-172500000D03*
D13*
X257750000Y-167000000D03*
%TD*%
D21*
%TO.C,U7*%
X245250000Y-183120000D03*
D22*
X247790000Y-183120000D03*
X247790000Y-175500000D03*
X245250000Y-175500000D03*
%TD*%
D23*
%TO.C,U14*%
X377275000Y-175445000D03*
D22*
X374735000Y-175445000D03*
X374735000Y-183065000D03*
X377275000Y-183065000D03*
%TD*%
D14*
%TO.C,J17*%
X333250000Y-244350000D03*
D15*
X333250000Y-240150000D03*
X338750000Y-244350000D03*
X338750000Y-240150000D03*
%TD*%
D14*
%TO.C,J33*%
X448125000Y-233375000D03*
D15*
X453625000Y-233375000D03*
%TD*%
D27*
%TO.C,D12*%
X308813195Y-206575000D03*
X308813195Y-204035000D03*
X308813195Y-201495000D03*
X308813195Y-198955000D03*
X301193195Y-198955000D03*
X301193195Y-201495000D03*
X301193195Y-204035000D03*
%TD*%
D28*
%TO.C,C19*%
X334722500Y-208500000D03*
X336797500Y-208500000D03*
%TD*%
D29*
%TO.C,R28*%
X448050000Y-200750000D03*
X441950000Y-200750000D03*
%TD*%
D30*
%TO.C,C66*%
X251437500Y-229750000D03*
X254562500Y-229750000D03*
%TD*%
D31*
%TO.C,R39*%
X270000000Y-230000000D03*
X270000000Y-228000000D03*
%TD*%
D32*
%TO.C,C47*%
X313813195Y-198722500D03*
X313813195Y-201847500D03*
%TD*%
D33*
%TO.C,C56*%
X409625000Y-227837500D03*
X409625000Y-229912500D03*
%TD*%
D34*
%TO.C,D7*%
X443750000Y-193375000D03*
X438750000Y-193375000D03*
%TD*%
D33*
%TO.C,C61*%
X429125000Y-227837500D03*
X429125000Y-229912500D03*
%TD*%
D31*
%TO.C,R90*%
X355500000Y-228750000D03*
X355500000Y-226750000D03*
%TD*%
D35*
%TO.C,C35*%
X412812500Y-168000000D03*
X409687500Y-168000000D03*
%TD*%
%TO.C,C39*%
X396937510Y-167874990D03*
X393812510Y-167874990D03*
%TD*%
D31*
%TO.C,R14*%
X337250000Y-218250000D03*
X337250000Y-216250000D03*
%TD*%
D36*
%TO.C,R31*%
X438750000Y-200950000D03*
X438750000Y-207050000D03*
%TD*%
D34*
%TO.C,D16*%
X443750000Y-213375000D03*
X438750000Y-213375000D03*
%TD*%
D31*
%TO.C,R57*%
X261000000Y-230000000D03*
X261000000Y-228000000D03*
%TD*%
D37*
%TO.C,C21*%
X346297500Y-203750000D03*
X344222500Y-203750000D03*
%TD*%
D29*
%TO.C,R48*%
X448050000Y-220750000D03*
X441950000Y-220750000D03*
%TD*%
D28*
%TO.C,C13*%
X334722500Y-206250000D03*
X336797500Y-206250000D03*
%TD*%
D35*
%TO.C,C38*%
X396937510Y-172124990D03*
X393812510Y-172124990D03*
%TD*%
D38*
%TO.C,C64*%
X418625000Y-229912500D03*
X418625000Y-227837500D03*
%TD*%
D33*
%TO.C,C20*%
X348750000Y-231212500D03*
X348750000Y-233287500D03*
%TD*%
D34*
%TO.C,D83*%
X443750000Y-233375000D03*
X438750000Y-233375000D03*
%TD*%
D36*
%TO.C,R51*%
X438750000Y-220950000D03*
X438750000Y-227050000D03*
%TD*%
D30*
%TO.C,C89*%
X321015005Y-231000000D03*
X324140005Y-231000000D03*
%TD*%
D36*
%TO.C,R34*%
X434500000Y-204950000D03*
X434500000Y-211050000D03*
%TD*%
D33*
%TO.C,C46*%
X429125000Y-207837500D03*
X429125000Y-209912500D03*
%TD*%
D36*
%TO.C,R26*%
X438750000Y-180950000D03*
X438750000Y-187050000D03*
%TD*%
D39*
%TO.C,C87*%
X298890005Y-244062500D03*
X298890005Y-240937500D03*
%TD*%
D37*
%TO.C,C15*%
X346297500Y-208250000D03*
X344222500Y-208250000D03*
%TD*%
D33*
%TO.C,C70*%
X346000000Y-226962500D03*
X346000000Y-229037500D03*
%TD*%
D38*
%TO.C,C52*%
X426875000Y-209912500D03*
X426875000Y-207837500D03*
%TD*%
D33*
%TO.C,C41*%
X409625000Y-207837500D03*
X409625000Y-209912500D03*
%TD*%
D30*
%TO.C,C37*%
X414937500Y-168000000D03*
X418062500Y-168000000D03*
%TD*%
%TO.C,C90*%
X321015005Y-243000000D03*
X324140005Y-243000000D03*
%TD*%
D33*
%TO.C,C2*%
X409625000Y-187837500D03*
X409625000Y-189912500D03*
%TD*%
D38*
%TO.C,C54*%
X418625000Y-209912500D03*
X418625000Y-207837500D03*
%TD*%
D40*
%TO.C,R92*%
X329250000Y-215000000D03*
X331250000Y-215000000D03*
%TD*%
D38*
%TO.C,C11*%
X350000000Y-241037500D03*
X350000000Y-238962500D03*
%TD*%
D28*
%TO.C,C18*%
X334722500Y-204000000D03*
X336797500Y-204000000D03*
%TD*%
D33*
%TO.C,C24*%
X420875000Y-187837500D03*
X420875000Y-189912500D03*
%TD*%
%TO.C,C53*%
X420875000Y-207837500D03*
X420875000Y-209912500D03*
%TD*%
%TO.C,C65*%
X339250000Y-210962500D03*
X339250000Y-213037500D03*
%TD*%
D41*
%TO.C,L3*%
X238762500Y-232750000D03*
X241737500Y-232750000D03*
%TD*%
D39*
%TO.C,C68*%
X236250000Y-232812500D03*
X236250000Y-229687500D03*
%TD*%
D29*
%TO.C,R27*%
X448050000Y-180750000D03*
X441950000Y-180750000D03*
%TD*%
D36*
%TO.C,R132*%
X434500000Y-224950000D03*
X434500000Y-231050000D03*
%TD*%
D33*
%TO.C,C63*%
X420875000Y-227837500D03*
X420875000Y-229912500D03*
%TD*%
D31*
%TO.C,R52*%
X427750000Y-172500000D03*
X427750000Y-170500000D03*
%TD*%
D38*
%TO.C,C62*%
X426875000Y-229912500D03*
X426875000Y-227837500D03*
%TD*%
D39*
%TO.C,C83*%
X298890005Y-232062500D03*
X298890005Y-228937500D03*
%TD*%
D33*
%TO.C,C22*%
X429125000Y-187837500D03*
X429125000Y-189912500D03*
%TD*%
D42*
%TO.C,R89*%
X359500000Y-238750000D03*
X357500000Y-238750000D03*
%TD*%
D38*
%TO.C,C14*%
X353250000Y-228787500D03*
X353250000Y-226712500D03*
%TD*%
D30*
%TO.C,C92*%
X326265005Y-243000000D03*
X329390005Y-243000000D03*
%TD*%
D35*
%TO.C,C69*%
X241812500Y-229750000D03*
X238687500Y-229750000D03*
%TD*%
D33*
%TO.C,C17*%
X341510000Y-201462500D03*
X341510000Y-203537500D03*
%TD*%
D36*
%TO.C,R25*%
X434500000Y-184950000D03*
X434500000Y-191050000D03*
%TD*%
D32*
%TO.C,C48*%
X311313195Y-198722500D03*
X311313195Y-201847500D03*
%TD*%
D38*
%TO.C,C16*%
X341510000Y-213037500D03*
X341510000Y-210962500D03*
%TD*%
D33*
%TO.C,C27*%
X339260000Y-201462500D03*
X339260000Y-203537500D03*
%TD*%
D37*
%TO.C,C5*%
X439787500Y-171500000D03*
X437712500Y-171500000D03*
%TD*%
D30*
%TO.C,C91*%
X326265005Y-231000000D03*
X329390005Y-231000000D03*
%TD*%
D38*
%TO.C,C25*%
X418625000Y-189912500D03*
X418625000Y-187837500D03*
%TD*%
D40*
%TO.C,R12*%
X329250000Y-217250000D03*
X331250000Y-217250000D03*
%TD*%
D31*
%TO.C,R91*%
X355500000Y-240750000D03*
X355500000Y-238750000D03*
%TD*%
D38*
%TO.C,C59*%
X353250000Y-240787500D03*
X353250000Y-238712500D03*
%TD*%
D33*
%TO.C,C80*%
X346000000Y-238962500D03*
X346000000Y-241037500D03*
%TD*%
D43*
%TO.C,L2*%
X400000000Y-172349990D03*
X400000000Y-167899990D03*
%TD*%
D38*
%TO.C,C23*%
X426875000Y-189912500D03*
X426875000Y-187837500D03*
%TD*%
D37*
%TO.C,C4*%
X346297500Y-206000000D03*
X344222500Y-206000000D03*
%TD*%
D38*
%TO.C,C7*%
X350000000Y-229037500D03*
X350000000Y-226962500D03*
%TD*%
D31*
%TO.C,R85*%
X253250000Y-215750000D03*
X253250000Y-213750000D03*
%TD*%
D33*
%TO.C,C67*%
X348750000Y-243212500D03*
X348750000Y-245287500D03*
%TD*%
D42*
%TO.C,R88*%
X359500000Y-226750000D03*
X357500000Y-226750000D03*
%TD*%
D38*
%TO.C,C3*%
X343760000Y-213037500D03*
X343760000Y-210962500D03*
%TD*%
D44*
X220162003Y-167500003D02*
X220162003Y-243500000D01*
X220162003Y-167500003D02*
G75*
G02*
X225750003Y-161912003I5587997J3D01*
G01*
X225750004Y-249087996D02*
G75*
G02*
X220162004Y-243499996I-4J5587996D01*
G01*
X243750000Y-179750000D02*
G75*
G02*
X243750000Y-178750000I0J500000D01*
G01*
X245500000Y-224250000D02*
X245500000Y-234250000D01*
X245500000Y-224250000D02*
G75*
G02*
X248000000Y-224250000I1250000J0D01*
G01*
X248000000Y-224250000D02*
X248000000Y-234250000D01*
X248000000Y-234250000D02*
G75*
G02*
X245500000Y-234250000I-1250000J0D01*
G01*
X249250000Y-178750000D02*
X243750000Y-178750000D01*
X249250000Y-178750000D02*
G75*
G02*
X249250000Y-179750000I0J-500000D01*
G01*
X249250000Y-179750000D02*
X243750000Y-179750000D01*
X262250000Y-179750000D02*
G75*
G02*
X262250000Y-178750000I0J500000D01*
G01*
X267750000Y-178750000D02*
X262250000Y-178750000D01*
X267750000Y-178750000D02*
G75*
G02*
X267750000Y-179750000I0J-500000D01*
G01*
X267750000Y-179750000D02*
X262250000Y-179750000D01*
X280750000Y-179750000D02*
G75*
G02*
X280750000Y-178750000I0J500000D01*
G01*
X286250000Y-178750000D02*
X280750000Y-178750000D01*
X286250000Y-178750000D02*
G75*
G02*
X286250000Y-179750000I0J-500000D01*
G01*
X286250000Y-179750000D02*
X280750000Y-179750000D01*
X299250000Y-179750000D02*
G75*
G02*
X299250000Y-178750000I0J500000D01*
G01*
X304000000Y-196500000D02*
G75*
G02*
X306000000Y-196500000I1000000J0D01*
G01*
X304000000Y-209000000D02*
X304000000Y-196500000D01*
X304750000Y-178750000D02*
X299250000Y-178750000D01*
X304750000Y-178750000D02*
G75*
G02*
X304750000Y-179750000I0J-500000D01*
G01*
X304750000Y-179750000D02*
X299250000Y-179750000D01*
X306000000Y-209000000D02*
G75*
G02*
X304000000Y-209000000I-1000000J0D01*
G01*
X306000000Y-209000000D02*
X306000000Y-196500000D01*
X316500000Y-225250000D02*
X316500000Y-246250000D01*
X316500000Y-225250000D02*
G75*
G02*
X319000000Y-225250000I1250000J0D01*
G01*
X317750000Y-179750000D02*
G75*
G02*
X317750000Y-178750000I0J500000D01*
G01*
X319000000Y-225250000D02*
X319000000Y-246250000D01*
X319000000Y-246250000D02*
G75*
G02*
X316500000Y-246250000I-1250000J0D01*
G01*
X323250000Y-178750000D02*
X317750000Y-178750000D01*
X323250000Y-178750000D02*
G75*
G02*
X323250000Y-179750000I0J-500000D01*
G01*
X323250000Y-179750000D02*
X317750000Y-179750000D01*
X336250000Y-179750000D02*
G75*
G02*
X336250000Y-178750000I0J500000D01*
G01*
X341750000Y-178750000D02*
X336250000Y-178750000D01*
X341750000Y-178750000D02*
G75*
G02*
X341750000Y-179750000I0J-500000D01*
G01*
X341750000Y-179750000D02*
X336250000Y-179750000D01*
X354750000Y-179750000D02*
G75*
G02*
X354750000Y-178750000I0J500000D01*
G01*
X360250000Y-178750000D02*
X354750000Y-178750000D01*
X360250000Y-178750000D02*
G75*
G02*
X360250000Y-179750000I0J-500000D01*
G01*
X360250000Y-179750000D02*
X354750000Y-179750000D01*
X373250000Y-179750000D02*
G75*
G02*
X373250000Y-178750000I0J500000D01*
G01*
X378750000Y-178750000D02*
X373250000Y-178750000D01*
X378750000Y-178750000D02*
G75*
G02*
X378750000Y-179750000I0J-500000D01*
G01*
X378750000Y-179750000D02*
X373250000Y-179750000D01*
X404000000Y-164500000D02*
X404000000Y-172750000D01*
X404000000Y-164500000D02*
G75*
G02*
X406500000Y-164500000I1250000J0D01*
G01*
X406500000Y-164500000D02*
X406500000Y-172750000D01*
X406500000Y-172750000D02*
G75*
G02*
X404000000Y-172750000I-1250000J0D01*
G01*
X422750000Y-186000000D02*
X422750000Y-191750000D01*
X422750000Y-186000000D02*
G75*
G02*
X424750000Y-186000000I1000000J0D01*
G01*
X422750000Y-206125000D02*
X422750000Y-211875000D01*
X422750000Y-206125000D02*
G75*
G02*
X424750000Y-206125000I1000000J0D01*
G01*
X422750000Y-226125000D02*
X422750000Y-231875000D01*
X422750000Y-226125000D02*
G75*
G02*
X424750000Y-226125000I1000000J0D01*
G01*
X424750000Y-186000000D02*
X424750000Y-191750000D01*
X424750000Y-191750000D02*
G75*
G02*
X422750000Y-191750000I-1000000J0D01*
G01*
X424750000Y-206125000D02*
X424750000Y-211875000D01*
X424750000Y-211875000D02*
G75*
G02*
X422750000Y-211875000I-1000000J0D01*
G01*
X424750000Y-226125000D02*
X424750000Y-231875000D01*
X424750000Y-231875000D02*
G75*
G02*
X422750000Y-231875000I-1000000J0D01*
G01*
X440750000Y-192500000D02*
X440750000Y-194250000D01*
X440750000Y-192500000D02*
G75*
G02*
X441750000Y-192500000I500000J0D01*
G01*
X440750000Y-212625000D02*
X440750000Y-214375000D01*
X440750000Y-212625000D02*
G75*
G02*
X441750000Y-212625000I500000J0D01*
G01*
X440750000Y-232625000D02*
X440750000Y-234375000D01*
X440750000Y-232625000D02*
G75*
G02*
X441750000Y-232625000I500000J0D01*
G01*
X441750000Y-192500000D02*
X441750000Y-194250000D01*
X441750000Y-194250000D02*
G75*
G02*
X440750000Y-194250000I-500000J0D01*
G01*
X441750000Y-212625000D02*
X441750000Y-214375000D01*
X441750000Y-214375000D02*
G75*
G02*
X440750000Y-214375000I-500000J0D01*
G01*
X441750000Y-232625000D02*
X441750000Y-234375000D01*
X441750000Y-234375000D02*
G75*
G02*
X440750000Y-234375000I-500000J0D01*
G01*
X451749996Y-161912004D02*
G75*
G02*
X457337996Y-167500004I4J-5587996D01*
G01*
X451749996Y-249087996D02*
X225750004Y-249087996D01*
X451750000Y-161912003D02*
X225750003Y-161912003D01*
X457337996Y-167500004D02*
X457337996Y-243499996D01*
X457337996Y-243499996D02*
G75*
G02*
X451749996Y-249087996I-5587996J-4D01*
G01*
M02*
