%TF.GenerationSoftware,KiCad,Pcbnew,10.0.1*%
%TF.CreationDate,2026-06-11T10:53:21+03:00*%
%TF.ProjectId,PDU_Container_MCU_PCB,5044555f-436f-46e7-9461-696e65725f4d,rev?*%
%TF.SameCoordinates,Original*%
%TF.FileFunction,Copper,L1,Top*%
%TF.FilePolarity,Positive*%
%FSLAX46Y46*%
G04 Gerber Fmt 4.6, Leading zero omitted, Abs format (unit mm)*
G04 Created by KiCad (PCBNEW 10.0.1) date 2026-06-11 10:53:21*
%MOMM*%
%LPD*%
G01*
G04 APERTURE LIST*
G04 Aperture macros list*
%AMRoundRect*
0 Rectangle with rounded corners*
0 $1 Rounding radius*
0 $2 $3 $4 $5 $6 $7 $8 $9 X,Y pos of 4 corners*
0 Add a 4 corners polygon primitive as box body*
4,1,4,$2,$3,$4,$5,$6,$7,$8,$9,$2,$3,0*
0 Add four circle primitives for the rounded corners*
1,1,$1+$1,$2,$3*
1,1,$1+$1,$4,$5*
1,1,$1+$1,$6,$7*
1,1,$1+$1,$8,$9*
0 Add four rect primitives between the rounded corners*
20,1,$1+$1,$2,$3,$4,$5,0*
20,1,$1+$1,$4,$5,$6,$7,0*
20,1,$1+$1,$6,$7,$8,$9,0*
20,1,$1+$1,$8,$9,$2,$3,0*%
%AMFreePoly0*
4,1,9,3.862500,-0.866500,0.737500,-0.866500,0.737500,-0.450000,-0.737500,-0.450000,-0.737500,0.450000,0.737500,0.450000,0.737500,0.866500,3.862500,0.866500,3.862500,-0.866500,3.862500,-0.866500,$1*%
G04 Aperture macros list end*
%TA.AperFunction,SMDPad,CuDef*%
%ADD10RoundRect,0.150000X-0.150000X0.587500X-0.150000X-0.587500X0.150000X-0.587500X0.150000X0.587500X0*%
%TD*%
%TA.AperFunction,SMDPad,CuDef*%
%ADD11RoundRect,0.250000X-0.475000X0.337500X-0.475000X-0.337500X0.475000X-0.337500X0.475000X0.337500X0*%
%TD*%
%TA.AperFunction,SMDPad,CuDef*%
%ADD12RoundRect,0.150000X0.512500X0.150000X-0.512500X0.150000X-0.512500X-0.150000X0.512500X-0.150000X0*%
%TD*%
%TA.AperFunction,SMDPad,CuDef*%
%ADD13RoundRect,0.250000X0.350000X0.450000X-0.350000X0.450000X-0.350000X-0.450000X0.350000X-0.450000X0*%
%TD*%
%TA.AperFunction,SMDPad,CuDef*%
%ADD14RoundRect,0.250000X0.450000X0.350000X-0.450000X0.350000X-0.450000X-0.350000X0.450000X-0.350000X0*%
%TD*%
%TA.AperFunction,ComponentPad*%
%ADD15RoundRect,0.250000X0.750000X0.750000X-0.750000X0.750000X-0.750000X-0.750000X0.750000X-0.750000X0*%
%TD*%
%TA.AperFunction,ComponentPad*%
%ADD16C,2.000000*%
%TD*%
%TA.AperFunction,SMDPad,CuDef*%
%ADD17RoundRect,0.250000X0.312500X0.625000X-0.312500X0.625000X-0.312500X-0.625000X0.312500X-0.625000X0*%
%TD*%
%TA.AperFunction,SMDPad,CuDef*%
%ADD18RoundRect,0.250000X-0.450000X0.350000X-0.450000X-0.350000X0.450000X-0.350000X0.450000X0.350000X0*%
%TD*%
%TA.AperFunction,SMDPad,CuDef*%
%ADD19RoundRect,0.243750X0.456250X-0.243750X0.456250X0.243750X-0.456250X0.243750X-0.456250X-0.243750X0*%
%TD*%
%TA.AperFunction,SMDPad,CuDef*%
%ADD20RoundRect,0.250000X1.400000X2.000000X-1.400000X2.000000X-1.400000X-2.000000X1.400000X-2.000000X0*%
%TD*%
%TA.AperFunction,SMDPad,CuDef*%
%ADD21RoundRect,0.150000X0.750000X0.150000X-0.750000X0.150000X-0.750000X-0.150000X0.750000X-0.150000X0*%
%TD*%
%TA.AperFunction,SMDPad,CuDef*%
%ADD22RoundRect,0.249999X-1.425001X0.450001X-1.425001X-0.450001X1.425001X-0.450001X1.425001X0.450001X0*%
%TD*%
%TA.AperFunction,ComponentPad*%
%ADD23RoundRect,0.250001X1.099999X1.399999X-1.099999X1.399999X-1.099999X-1.399999X1.099999X-1.399999X0*%
%TD*%
%TA.AperFunction,ComponentPad*%
%ADD24O,2.700000X3.300000*%
%TD*%
%TA.AperFunction,SMDPad,CuDef*%
%ADD25RoundRect,0.150000X0.150000X-0.587500X0.150000X0.587500X-0.150000X0.587500X-0.150000X-0.587500X0*%
%TD*%
%TA.AperFunction,ComponentPad*%
%ADD26RoundRect,0.250001X1.399999X-1.099999X1.399999X1.099999X-1.399999X1.099999X-1.399999X-1.099999X0*%
%TD*%
%TA.AperFunction,ComponentPad*%
%ADD27O,3.300000X2.700000*%
%TD*%
%TA.AperFunction,SMDPad,CuDef*%
%ADD28RoundRect,0.375000X0.375000X-0.625000X0.375000X0.625000X-0.375000X0.625000X-0.375000X-0.625000X0*%
%TD*%
%TA.AperFunction,SMDPad,CuDef*%
%ADD29RoundRect,0.500000X1.400000X-0.500000X1.400000X0.500000X-1.400000X0.500000X-1.400000X-0.500000X0*%
%TD*%
%TA.AperFunction,ComponentPad*%
%ADD30R,1.700000X1.700000*%
%TD*%
%TA.AperFunction,ComponentPad*%
%ADD31C,1.700000*%
%TD*%
%TA.AperFunction,SMDPad,CuDef*%
%ADD32RoundRect,0.150000X0.150000X-0.512500X0.150000X0.512500X-0.150000X0.512500X-0.150000X-0.512500X0*%
%TD*%
%TA.AperFunction,SMDPad,CuDef*%
%ADD33RoundRect,0.250000X0.625000X-0.312500X0.625000X0.312500X-0.625000X0.312500X-0.625000X-0.312500X0*%
%TD*%
%TA.AperFunction,SMDPad,CuDef*%
%ADD34RoundRect,0.225000X-0.225000X-0.375000X0.225000X-0.375000X0.225000X0.375000X-0.225000X0.375000X0*%
%TD*%
%TA.AperFunction,SMDPad,CuDef*%
%ADD35RoundRect,0.250000X0.450000X-0.350000X0.450000X0.350000X-0.450000X0.350000X-0.450000X-0.350000X0*%
%TD*%
%TA.AperFunction,SMDPad,CuDef*%
%ADD36RoundRect,0.250000X0.337500X0.475000X-0.337500X0.475000X-0.337500X-0.475000X0.337500X-0.475000X0*%
%TD*%
%TA.AperFunction,SMDPad,CuDef*%
%ADD37RoundRect,0.250000X-0.650000X0.412500X-0.650000X-0.412500X0.650000X-0.412500X0.650000X0.412500X0*%
%TD*%
%TA.AperFunction,SMDPad,CuDef*%
%ADD38RoundRect,0.243750X0.243750X0.456250X-0.243750X0.456250X-0.243750X-0.456250X0.243750X-0.456250X0*%
%TD*%
%TA.AperFunction,SMDPad,CuDef*%
%ADD39RoundRect,0.250001X0.462499X0.624999X-0.462499X0.624999X-0.462499X-0.624999X0.462499X-0.624999X0*%
%TD*%
%TA.AperFunction,SMDPad,CuDef*%
%ADD40RoundRect,0.250000X-0.312500X-0.625000X0.312500X-0.625000X0.312500X0.625000X-0.312500X0.625000X0*%
%TD*%
%TA.AperFunction,ComponentPad*%
%ADD41C,0.900000*%
%TD*%
%TA.AperFunction,ComponentPad*%
%ADD42C,8.600000*%
%TD*%
%TA.AperFunction,ComponentPad*%
%ADD43RoundRect,0.250001X-1.399999X1.099999X-1.399999X-1.099999X1.399999X-1.099999X1.399999X1.099999X0*%
%TD*%
%TA.AperFunction,SMDPad,CuDef*%
%ADD44RoundRect,0.250000X-0.350000X-0.450000X0.350000X-0.450000X0.350000X0.450000X-0.350000X0.450000X0*%
%TD*%
%TA.AperFunction,ComponentPad*%
%ADD45RoundRect,0.250000X0.550000X-0.550000X0.550000X0.550000X-0.550000X0.550000X-0.550000X-0.550000X0*%
%TD*%
%TA.AperFunction,ComponentPad*%
%ADD46C,1.600000*%
%TD*%
%TA.AperFunction,SMDPad,CuDef*%
%ADD47RoundRect,0.100000X0.300000X0.100000X-0.300000X0.100000X-0.300000X-0.100000X0.300000X-0.100000X0*%
%TD*%
%TA.AperFunction,ComponentPad*%
%ADD48RoundRect,0.250000X-0.550000X0.550000X-0.550000X-0.550000X0.550000X-0.550000X0.550000X0.550000X0*%
%TD*%
%TA.AperFunction,SMDPad,CuDef*%
%ADD49RoundRect,0.250000X0.650000X-0.412500X0.650000X0.412500X-0.650000X0.412500X-0.650000X-0.412500X0*%
%TD*%
%TA.AperFunction,SMDPad,CuDef*%
%ADD50RoundRect,0.250000X-0.337500X-0.475000X0.337500X-0.475000X0.337500X0.475000X-0.337500X0.475000X0*%
%TD*%
%TA.AperFunction,SMDPad,CuDef*%
%ADD51R,2.850000X1.200000*%
%TD*%
%TA.AperFunction,ComponentPad*%
%ADD52RoundRect,0.250000X0.750000X-0.750000X0.750000X0.750000X-0.750000X0.750000X-0.750000X-0.750000X0*%
%TD*%
%TA.AperFunction,SMDPad,CuDef*%
%ADD53RoundRect,0.250000X0.475000X-0.337500X0.475000X0.337500X-0.475000X0.337500X-0.475000X-0.337500X0*%
%TD*%
%TA.AperFunction,SMDPad,CuDef*%
%ADD54RoundRect,0.375000X-0.625000X-0.375000X0.625000X-0.375000X0.625000X0.375000X-0.625000X0.375000X0*%
%TD*%
%TA.AperFunction,SMDPad,CuDef*%
%ADD55RoundRect,0.500000X-0.500000X-1.400000X0.500000X-1.400000X0.500000X1.400000X-0.500000X1.400000X0*%
%TD*%
%TA.AperFunction,SMDPad,CuDef*%
%ADD56RoundRect,0.250000X-0.650000X1.500000X-0.650000X-1.500000X0.650000X-1.500000X0.650000X1.500000X0*%
%TD*%
%TA.AperFunction,ComponentPad*%
%ADD57O,1.600000X2.300000*%
%TD*%
%TA.AperFunction,SMDPad,CuDef*%
%ADD58RoundRect,0.250000X-0.250000X0.250000X-0.250000X-0.250000X0.250000X-0.250000X0.250000X0.250000X0*%
%TD*%
%TA.AperFunction,SMDPad,CuDef*%
%ADD59RoundRect,0.250001X-1.074999X0.462499X-1.074999X-0.462499X1.074999X-0.462499X1.074999X0.462499X0*%
%TD*%
%TA.AperFunction,SMDPad,CuDef*%
%ADD60RoundRect,0.075000X0.075000X-0.700000X0.075000X0.700000X-0.075000X0.700000X-0.075000X-0.700000X0*%
%TD*%
%TA.AperFunction,SMDPad,CuDef*%
%ADD61RoundRect,0.075000X0.700000X-0.075000X0.700000X0.075000X-0.700000X0.075000X-0.700000X-0.075000X0*%
%TD*%
%TA.AperFunction,SMDPad,CuDef*%
%ADD62RoundRect,0.150000X-0.512500X-0.150000X0.512500X-0.150000X0.512500X0.150000X-0.512500X0.150000X0*%
%TD*%
%TA.AperFunction,SMDPad,CuDef*%
%ADD63RoundRect,0.250000X0.350000X-0.850000X0.350000X0.850000X-0.350000X0.850000X-0.350000X-0.850000X0*%
%TD*%
%TA.AperFunction,SMDPad,CuDef*%
%ADD64RoundRect,0.249997X2.650003X-2.950003X2.650003X2.950003X-2.650003X2.950003X-2.650003X-2.950003X0*%
%TD*%
%TA.AperFunction,SMDPad,CuDef*%
%ADD65RoundRect,0.250000X-0.412500X-0.650000X0.412500X-0.650000X0.412500X0.650000X-0.412500X0.650000X0*%
%TD*%
%TA.AperFunction,SMDPad,CuDef*%
%ADD66RoundRect,0.375000X-0.375000X0.625000X-0.375000X-0.625000X0.375000X-0.625000X0.375000X0.625000X0*%
%TD*%
%TA.AperFunction,SMDPad,CuDef*%
%ADD67RoundRect,0.500000X-1.400000X0.500000X-1.400000X-0.500000X1.400000X-0.500000X1.400000X0.500000X0*%
%TD*%
%TA.AperFunction,SMDPad,CuDef*%
%ADD68RoundRect,0.150000X0.587500X0.150000X-0.587500X0.150000X-0.587500X-0.150000X0.587500X-0.150000X0*%
%TD*%
%TA.AperFunction,SMDPad,CuDef*%
%ADD69RoundRect,0.243750X-0.243750X-0.456250X0.243750X-0.456250X0.243750X0.456250X-0.243750X0.456250X0*%
%TD*%
%TA.AperFunction,SMDPad,CuDef*%
%ADD70RoundRect,0.150000X-0.150000X0.512500X-0.150000X-0.512500X0.150000X-0.512500X0.150000X0.512500X0*%
%TD*%
%TA.AperFunction,ComponentPad*%
%ADD71O,2.200000X1.500000*%
%TD*%
%TA.AperFunction,SMDPad,CuDef*%
%ADD72RoundRect,0.225000X0.425000X0.225000X-0.425000X0.225000X-0.425000X-0.225000X0.425000X-0.225000X0*%
%TD*%
%TA.AperFunction,SMDPad,CuDef*%
%ADD73FreePoly0,180.000000*%
%TD*%
%TA.AperFunction,ViaPad*%
%ADD74C,0.600000*%
%TD*%
%TA.AperFunction,Conductor*%
%ADD75C,0.500000*%
%TD*%
%TA.AperFunction,Conductor*%
%ADD76C,0.300000*%
%TD*%
%TA.AperFunction,Conductor*%
%ADD77C,1.000000*%
%TD*%
%TA.AperFunction,Profile*%
%ADD78C,0.050000*%
%TD*%
G04 APERTURE END LIST*
D10*
%TO.P,D80,1,A_1*%
%TO.N,GND*%
X404325000Y-232437500D03*
%TO.P,D80,2,K_2*%
%TO.N,+3.3V*%
X402425000Y-232437500D03*
%TO.P,D80,3,common_3*%
%TO.N,/VDC_3_measure*%
X403375000Y-234312500D03*
%TD*%
D11*
%TO.P,C30,1*%
%TO.N,Net-(U5-PH1)*%
X344760000Y-220712500D03*
%TO.P,C30,2*%
%TO.N,GND*%
X344760000Y-222787500D03*
%TD*%
D12*
%TO.P,U2,1*%
%TO.N,Net-(Q7-B)*%
X351137500Y-228950000D03*
%TO.P,U2,2,V-_2*%
%TO.N,GND*%
X351137500Y-228000000D03*
%TO.P,U2,3,+_3*%
%TO.N,Net-(U2-+)*%
X351137500Y-227050000D03*
%TO.P,U2,4,-_4*%
%TO.N,Net-(Q7-E)*%
X348862500Y-227050000D03*
%TO.P,U2,5,V+_5*%
%TO.N,+3.3V*%
X348862500Y-228950000D03*
%TD*%
D13*
%TO.P,R75,1*%
%TO.N,Net-(R75-Pad1)*%
X338750000Y-172500000D03*
%TO.P,R75,2*%
%TO.N,Net-(D35-A)*%
X336750000Y-172500000D03*
%TD*%
D14*
%TO.P,Y1,1,1_1*%
%TO.N,Net-(U5-PH1)*%
X342360000Y-220950000D03*
%TO.P,Y1,2,2_2*%
%TO.N,GND*%
X340160000Y-220950000D03*
%TO.P,Y1,3,3_3*%
%TO.N,Net-(U5-PH0)*%
X340160000Y-222550000D03*
%TO.P,Y1,4,4_4*%
%TO.N,GND*%
X342360000Y-222550000D03*
%TD*%
D15*
%TO.P,C79,1*%
%TO.N,+24V*%
X247867677Y-214750000D03*
D16*
%TO.P,C79,2*%
%TO.N,GNDD*%
X242867677Y-214750000D03*
%TD*%
D17*
%TO.P,R9,1*%
%TO.N,GNDPWR*%
X442712500Y-193375000D03*
%TO.P,R9,2*%
%TO.N,Net-(R5-Pad1)*%
X439787500Y-193375000D03*
%TD*%
D18*
%TO.P,R37,1*%
%TO.N,Net-(C49-Pad1)*%
X294313195Y-203785000D03*
%TO.P,R37,2*%
%TO.N,Net-(D12-CANH)*%
X294313195Y-205785000D03*
%TD*%
D19*
%TO.P,D17,1,K_1*%
%TO.N,Net-(D17-K)*%
X427750000Y-172437500D03*
%TO.P,D17,2,A_2*%
%TO.N,+3.3VP*%
X427750000Y-170562500D03*
%TD*%
D13*
%TO.P,R63,1*%
%TO.N,Net-(R63-Pad1)*%
X264750000Y-172500000D03*
%TO.P,R63,2*%
%TO.N,Net-(D27-A)*%
X262750000Y-172500000D03*
%TD*%
D20*
%TO.P,D20,1,A1_1*%
%TO.N,+24V*%
X236000000Y-204900000D03*
%TO.P,D20,2,A2_2*%
%TO.N,-24V_IN*%
X236000000Y-196100000D03*
%TD*%
D21*
%TO.P,D15,1,VDD1_1*%
%TO.N,+3.3VP*%
X429200000Y-210780000D03*
%TO.P,D15,2,VIN_2*%
%TO.N,Net-(D15-VIN)*%
X429200000Y-209510000D03*
%TO.P,D15,3,SHTDN_3*%
%TO.N,GNDPWR*%
X429200000Y-208240000D03*
%TO.P,D15,4,GND1_4*%
X429200000Y-206970000D03*
%TO.P,D15,5,GND2_5*%
%TO.N,GND*%
X418550000Y-206970000D03*
%TO.P,D15,6,OUTN_6*%
%TO.N,Net-(D15-OUTN)*%
X418550000Y-208240000D03*
%TO.P,D15,7,OUTP_7*%
%TO.N,Net-(D15-OUTP)*%
X418550000Y-209510000D03*
%TO.P,D15,8,VDD2_8*%
%TO.N,+3.3V*%
X418550000Y-210780000D03*
%TD*%
D22*
%TO.P,R87,1*%
%TO.N,Net-(Q10-C)*%
X345000000Y-239200000D03*
%TO.P,R87,2*%
%TO.N,/Current_measure_2/M*%
X345000000Y-245300000D03*
%TD*%
D23*
%TO.P,J12,1,Pin_1_1*%
%TO.N,Net-(D32-A)*%
X313250000Y-172500000D03*
D24*
%TO.P,J12,2,Pin_2_2*%
%TO.N,+24V*%
X313250000Y-167000000D03*
%TD*%
D13*
%TO.P,R136,1*%
%TO.N,Net-(D82-OUTP)*%
X415625000Y-230125000D03*
%TO.P,R136,2*%
%TO.N,Net-(U33-+)*%
X413625000Y-230125000D03*
%TD*%
%TO.P,R62,1*%
%TO.N,GNDD*%
X252250000Y-175500000D03*
%TO.P,R62,2*%
%TO.N,Net-(Q2-G)*%
X250250000Y-175500000D03*
%TD*%
D25*
%TO.P,Q9,1,B_1*%
%TO.N,Net-(Q7-B)*%
X353300000Y-228687500D03*
%TO.P,Q9,2,E_2*%
%TO.N,GND*%
X355200000Y-228687500D03*
%TO.P,Q9,3,C_3*%
%TO.N,Net-(Q7-E)*%
X354250000Y-226812500D03*
%TD*%
D13*
%TO.P,R69,1*%
%TO.N,Net-(R69-Pad1)*%
X301750000Y-172500000D03*
%TO.P,R69,2*%
%TO.N,Net-(D31-A)*%
X299750000Y-172500000D03*
%TD*%
D26*
%TO.P,J5,1,Pin_1_1*%
%TO.N,GNDPWR*%
X448125000Y-213375000D03*
D27*
%TO.P,J5,2,Pin_2_2*%
X453625000Y-213375000D03*
%TD*%
D13*
%TO.P,R43,1*%
%TO.N,Net-(D15-OUTP)*%
X415625000Y-210125000D03*
%TO.P,R43,2*%
%TO.N,Net-(U32-+)*%
X413625000Y-210125000D03*
%TD*%
D23*
%TO.P,J15,1,Pin_1_1*%
%TO.N,Net-(D39-A)*%
X368750000Y-172500000D03*
D24*
%TO.P,J15,2,Pin_2_2*%
%TO.N,+24V*%
X368750000Y-167000000D03*
%TD*%
D28*
%TO.P,Q2,1,G_1*%
%TO.N,Net-(Q2-G)*%
X247750000Y-172400000D03*
%TO.P,Q2,2,D_2*%
%TO.N,Net-(D24-A)*%
X250050000Y-172400000D03*
%TO.P,Q2,3,S_3*%
%TO.N,GNDD*%
X252350000Y-172400000D03*
D29*
%TO.P,Q2,4,S_4*%
X250050000Y-166100000D03*
%TD*%
D30*
%TO.P,J1,1,Pin_1_1*%
%TO.N,GND*%
X323790000Y-211500000D03*
D31*
%TO.P,J1,2,Pin_2_2*%
%TO.N,Net-(J1-Pin_2)*%
X321250000Y-211500000D03*
%TO.P,J1,3,Pin_3_3*%
%TO.N,Net-(J1-Pin_3)*%
X318710000Y-211500000D03*
%TO.P,J1,4,Pin_4_4*%
%TO.N,Net-(D5-A)*%
X316170000Y-211500000D03*
%TD*%
D22*
%TO.P,R56,1*%
%TO.N,Net-(Q7-E)*%
X345000000Y-227200000D03*
%TO.P,R56,2*%
%TO.N,/Current_measure_1/M*%
X345000000Y-233300000D03*
%TD*%
D13*
%TO.P,R81,1*%
%TO.N,Net-(R81-Pad1)*%
X375750000Y-172500000D03*
%TO.P,R81,2*%
%TO.N,Net-(D39-A)*%
X373750000Y-172500000D03*
%TD*%
D32*
%TO.P,U6,1*%
%TO.N,Net-(C12-Pad2)*%
X408675000Y-190012500D03*
%TO.P,U6,2,V-_2*%
%TO.N,GND*%
X409625000Y-190012500D03*
%TO.P,U6,3,+_3*%
%TO.N,Net-(U6-+)*%
X410575000Y-190012500D03*
%TO.P,U6,4,-_4*%
%TO.N,Net-(U6--)*%
X410575000Y-187737500D03*
%TO.P,U6,5,V+_5*%
%TO.N,+3.3V*%
X408675000Y-187737500D03*
%TD*%
D33*
%TO.P,R6,1*%
%TO.N,Net-(R5-Pad1)*%
X437750000Y-191962500D03*
%TO.P,R6,2*%
%TO.N,Net-(R3-Pad1)*%
X437750000Y-189037500D03*
%TD*%
D34*
%TO.P,D40,1,K_1*%
%TO.N,Net-(D40-K)*%
X234350000Y-220250000D03*
%TO.P,D40,2,A_2*%
%TO.N,Net-(D40-A)*%
X237650000Y-220250000D03*
%TD*%
D10*
%TO.P,D1,1,A_1*%
%TO.N,GND*%
X404325000Y-192437500D03*
%TO.P,D1,2,K_2*%
%TO.N,+3.3V*%
X402425000Y-192437500D03*
%TO.P,D1,3,common_3*%
%TO.N,/VDC_1_measure*%
X403375000Y-194312500D03*
%TD*%
D32*
%TO.P,U32,1*%
%TO.N,Net-(C45-Pad2)*%
X408675000Y-210012500D03*
%TO.P,U32,2,V-_2*%
%TO.N,GND*%
X409625000Y-210012500D03*
%TO.P,U32,3,+_3*%
%TO.N,Net-(U32-+)*%
X410575000Y-210012500D03*
%TO.P,U32,4,-_4*%
%TO.N,Net-(U32--)*%
X410575000Y-207737500D03*
%TO.P,U32,5,V+_5*%
%TO.N,+3.3V*%
X408675000Y-207737500D03*
%TD*%
D35*
%TO.P,R24,1*%
%TO.N,Net-(U17-+)*%
X432750000Y-172500000D03*
%TO.P,R24,2*%
%TO.N,GNDPWR*%
X432750000Y-170500000D03*
%TD*%
D12*
%TO.P,U3,1*%
%TO.N,Net-(Q10-B)*%
X351137500Y-240950000D03*
%TO.P,U3,2,V-_2*%
%TO.N,GND*%
X351137500Y-240000000D03*
%TO.P,U3,3,+_3*%
%TO.N,Net-(U3-+)*%
X351137500Y-239050000D03*
%TO.P,U3,4,-_4*%
%TO.N,Net-(Q10-C)*%
X348862500Y-239050000D03*
%TO.P,U3,5,V+_5*%
%TO.N,+3.3V*%
X348862500Y-240950000D03*
%TD*%
D36*
%TO.P,C40,1*%
%TO.N,GND*%
X415662500Y-214625000D03*
%TO.P,C40,2*%
%TO.N,Net-(U32-+)*%
X413587500Y-214625000D03*
%TD*%
D37*
%TO.P,C81,1*%
%TO.N,+24V*%
X277390005Y-228937500D03*
%TO.P,C81,2*%
%TO.N,GNDD*%
X277390005Y-232062500D03*
%TD*%
D38*
%TO.P,D29,1,K_1*%
%TO.N,Net-(D29-K)*%
X275437500Y-176500000D03*
%TO.P,D29,2,A_2*%
%TO.N,+24V*%
X273562500Y-176500000D03*
%TD*%
D18*
%TO.P,R23,1*%
%TO.N,+3.3VP*%
X430250000Y-170500000D03*
%TO.P,R23,2*%
%TO.N,Net-(U17-+)*%
X430250000Y-172500000D03*
%TD*%
D33*
%TO.P,R53,1*%
%TO.N,Net-(R134-Pad2)*%
X435250000Y-229087500D03*
%TO.P,R53,2*%
%TO.N,Net-(R50-Pad1)*%
X435250000Y-226162500D03*
%TD*%
D28*
%TO.P,Q5,1,G_1*%
%TO.N,Net-(Q5-G)*%
X358750000Y-172400000D03*
%TO.P,Q5,2,D_2*%
%TO.N,Net-(D36-A)*%
X361050000Y-172400000D03*
%TO.P,Q5,3,S_3*%
%TO.N,GNDD*%
X363350000Y-172400000D03*
D29*
%TO.P,Q5,4,S_4*%
X361050000Y-166100000D03*
%TD*%
D23*
%TO.P,J11,1,Pin_1_1*%
%TO.N,Net-(D31-A)*%
X294750000Y-172500000D03*
D24*
%TO.P,J11,2,Pin_2_2*%
%TO.N,+24V*%
X294750000Y-167000000D03*
%TD*%
D35*
%TO.P,R86,1*%
%TO.N,/Current_measure_2/M*%
X348750000Y-245250000D03*
%TO.P,R86,2*%
%TO.N,/Current_2_measure*%
X348750000Y-243250000D03*
%TD*%
D39*
%TO.P,D81,1,K_1*%
%TO.N,Net-(D81-K)*%
X435487500Y-233500000D03*
%TO.P,D81,2,A_2*%
%TO.N,Net-(D81-A)*%
X432512500Y-233500000D03*
%TD*%
D18*
%TO.P,R7,1*%
%TO.N,Net-(D2-VIN)*%
X430250000Y-194000000D03*
%TO.P,R7,2*%
%TO.N,Net-(R5-Pad1)*%
X430250000Y-196000000D03*
%TD*%
D40*
%TO.P,R1,1*%
%TO.N,Net-(R1-Pad1)*%
X439787500Y-182625000D03*
%TO.P,R1,2*%
%TO.N,Net-(J3-Pin_1)*%
X442712500Y-182625000D03*
%TD*%
D41*
%TO.P,H1,1,1_1*%
%TO.N,GNDD*%
X225750000Y-240275000D03*
X228030419Y-241219581D03*
X223469581Y-241219581D03*
X228975000Y-243500000D03*
D42*
X225750000Y-243500000D03*
D41*
X222525000Y-243500000D03*
X228030419Y-245780419D03*
X223469581Y-245780419D03*
X225750000Y-246725000D03*
%TD*%
D43*
%TO.P,J35,1,Pin_1_1*%
%TO.N,/CANL*%
X262750000Y-200650000D03*
D27*
%TO.P,J35,2,Pin_2_2*%
%TO.N,/CANH*%
X262750000Y-204850000D03*
%TO.P,J35,3,Pin_3_3*%
%TO.N,GND_CAN*%
X257250000Y-200650000D03*
%TO.P,J35,4,Pin_4_4*%
X257250000Y-204850000D03*
%TD*%
D44*
%TO.P,R61,1*%
%TO.N,Net-(D25-K)*%
X240500000Y-176500000D03*
%TO.P,R61,2*%
%TO.N,Net-(D24-A)*%
X242500000Y-176500000D03*
%TD*%
D17*
%TO.P,R137,1*%
%TO.N,GNDPWR*%
X442712500Y-233375000D03*
%TO.P,R137,2*%
%TO.N,Net-(R133-Pad1)*%
X439787500Y-233375000D03*
%TD*%
D45*
%TO.P,U11,1*%
%TO.N,Net-(R72-Pad2)*%
X319250000Y-183120000D03*
D46*
%TO.P,U11,2*%
%TO.N,GND*%
X321790000Y-183120000D03*
%TO.P,U11,3*%
%TO.N,Net-(Q4-G)*%
X321790000Y-175500000D03*
%TO.P,U11,4*%
%TO.N,+5VD*%
X319250000Y-175500000D03*
%TD*%
D38*
%TO.P,D25,1,K_1*%
%TO.N,Net-(D25-K)*%
X238437500Y-176500000D03*
%TO.P,D25,2,A_2*%
%TO.N,+24V*%
X236562500Y-176500000D03*
%TD*%
D23*
%TO.P,J10,1,Pin_1_1*%
%TO.N,Net-(D28-A)*%
X276250000Y-172500000D03*
D24*
%TO.P,J10,2,Pin_2_2*%
%TO.N,+24V*%
X276250000Y-167000000D03*
%TD*%
D47*
%TO.P,L1,1,1_1*%
%TO.N,Net-(D12-CANH)*%
X291963195Y-203435000D03*
%TO.P,L1,2,2_2*%
%TO.N,Net-(D12-CANL)*%
X291963195Y-202135000D03*
%TO.P,L1,3,3_3*%
%TO.N,/CANL*%
X289663195Y-202135000D03*
%TO.P,L1,4,4_4*%
%TO.N,/CANH*%
X289663195Y-203435000D03*
%TD*%
D13*
%TO.P,R74,1*%
%TO.N,GNDD*%
X326250000Y-175500000D03*
%TO.P,R74,2*%
%TO.N,Net-(Q4-G)*%
X324250000Y-175500000D03*
%TD*%
D38*
%TO.P,D39,1,K_1*%
%TO.N,Net-(D39-K)*%
X367937500Y-176500000D03*
%TO.P,D39,2,A_2*%
%TO.N,Net-(D39-A)*%
X366062500Y-176500000D03*
%TD*%
D18*
%TO.P,R45,1*%
%TO.N,Net-(C45-Pad2)*%
X408625000Y-212375000D03*
%TO.P,R45,2*%
%TO.N,/VDC_2_measure*%
X408625000Y-214375000D03*
%TD*%
%TO.P,R40,1*%
%TO.N,Net-(D12-CANL)*%
X294313195Y-199785000D03*
%TO.P,R40,2*%
%TO.N,Net-(C49-Pad1)*%
X294313195Y-201785000D03*
%TD*%
%TO.P,R138,1*%
%TO.N,Net-(C60-Pad2)*%
X408625000Y-232375000D03*
%TO.P,R138,2*%
%TO.N,/VDC_3_measure*%
X408625000Y-234375000D03*
%TD*%
D48*
%TO.P,U8,1*%
%TO.N,Net-(R63-Pad1)*%
X266275000Y-175445000D03*
D46*
%TO.P,U8,2*%
%TO.N,GNDD*%
X263735000Y-175445000D03*
%TO.P,U8,3*%
%TO.N,/Relay_FeedBack_1*%
X263735000Y-183065000D03*
%TO.P,U8,4*%
%TO.N,+3.3V*%
X266275000Y-183065000D03*
%TD*%
D49*
%TO.P,C82,1*%
%TO.N,Net-(C82-Pad1)*%
X283390005Y-232062500D03*
%TO.P,C82,2*%
%TO.N,GNDD*%
X283390005Y-228937500D03*
%TD*%
D50*
%TO.P,C49,1*%
%TO.N,Net-(C49-Pad1)*%
X296525695Y-202785000D03*
%TO.P,C49,2*%
%TO.N,GND_CAN*%
X298600695Y-202785000D03*
%TD*%
D18*
%TO.P,R135,1*%
%TO.N,Net-(D82-VIN)*%
X430250000Y-234000000D03*
%TO.P,R135,2*%
%TO.N,Net-(R133-Pad1)*%
X430250000Y-236000000D03*
%TD*%
D41*
%TO.P,H2,1,1_1*%
%TO.N,GNDD*%
X225750000Y-164275000D03*
X228030419Y-165219581D03*
X223469581Y-165219581D03*
X228975000Y-167500000D03*
D42*
X225750000Y-167500000D03*
D41*
X222525000Y-167500000D03*
X228030419Y-169780419D03*
X223469581Y-169780419D03*
X225750000Y-170725000D03*
%TD*%
D45*
%TO.P,U9,1*%
%TO.N,Net-(R66-Pad2)*%
X282250000Y-183120000D03*
D46*
%TO.P,U9,2*%
%TO.N,GND*%
X284790000Y-183120000D03*
%TO.P,U9,3*%
%TO.N,Net-(Q3-G)*%
X284790000Y-175500000D03*
%TO.P,U9,4*%
%TO.N,+5VD*%
X282250000Y-175500000D03*
%TD*%
D51*
%TO.P,L5,1,1_1*%
%TO.N,Net-(C82-Pad1)*%
X286965005Y-231750000D03*
%TO.P,L5,2,2_2*%
%TO.N,Net-(D21-Vin)*%
X294315005Y-231750000D03*
%TO.P,L5,3,3_3*%
%TO.N,GNDD*%
X294315005Y-229250000D03*
%TO.P,L5,4,4_4*%
%TO.N,Net-(D21-GND)*%
X286965005Y-229250000D03*
%TD*%
D52*
%TO.P,C88,1*%
%TO.N,Net-(D23-Vin)*%
X301890005Y-244867677D03*
D16*
%TO.P,C88,2*%
%TO.N,Net-(D23-GND)*%
X301890005Y-239867677D03*
%TD*%
D13*
%TO.P,R139,1*%
%TO.N,Net-(D82-OUTN)*%
X415625000Y-227625000D03*
%TO.P,R139,2*%
%TO.N,Net-(U33--)*%
X413625000Y-227625000D03*
%TD*%
D53*
%TO.P,C58,1*%
%TO.N,/VDC_3_measure*%
X406375000Y-234412500D03*
%TO.P,C58,2*%
%TO.N,GND*%
X406375000Y-232337500D03*
%TD*%
D36*
%TO.P,C1,1*%
%TO.N,GND*%
X415662500Y-194625000D03*
%TO.P,C1,2*%
%TO.N,Net-(U6-+)*%
X413587500Y-194625000D03*
%TD*%
D54*
%TO.P,U4,1,GND_1*%
%TO.N,GND*%
X263850000Y-218450000D03*
%TO.P,U4,2,VO_2*%
%TO.N,+3.3V*%
X263850000Y-220750000D03*
D55*
X270150000Y-220750000D03*
D54*
%TO.P,U4,3,VI_3*%
%TO.N,+5V*%
X263850000Y-223050000D03*
%TD*%
D21*
%TO.P,D2,1,VDD1_1*%
%TO.N,+3.3VP*%
X429200000Y-190780000D03*
%TO.P,D2,2,VIN_2*%
%TO.N,Net-(D2-VIN)*%
X429200000Y-189510000D03*
%TO.P,D2,3,SHTDN_3*%
%TO.N,GNDPWR*%
X429200000Y-188240000D03*
%TO.P,D2,4,GND1_4*%
X429200000Y-186970000D03*
%TO.P,D2,5,GND2_5*%
%TO.N,GND*%
X418550000Y-186970000D03*
%TO.P,D2,6,OUTN_6*%
%TO.N,Net-(D2-OUTN)*%
X418550000Y-188240000D03*
%TO.P,D2,7,OUTP_7*%
%TO.N,Net-(D2-OUTP)*%
X418550000Y-189510000D03*
%TO.P,D2,8,VDD2_8*%
%TO.N,+3.3V*%
X418550000Y-190780000D03*
%TD*%
D13*
%TO.P,R83,1*%
%TO.N,/Relay_FeedBack_4*%
X372000000Y-183000000D03*
%TO.P,R83,2*%
%TO.N,GND*%
X370000000Y-183000000D03*
%TD*%
D56*
%TO.P,D36,1,K_1*%
%TO.N,+24V*%
X355500000Y-166750000D03*
%TO.P,D36,2,A_2*%
%TO.N,Net-(D36-A)*%
X355500000Y-171750000D03*
%TD*%
D39*
%TO.P,D6,1,K_1*%
%TO.N,Net-(D6-K)*%
X435487500Y-193500000D03*
%TO.P,D6,2,A_2*%
%TO.N,Net-(D6-A)*%
X432512500Y-193500000D03*
%TD*%
D57*
%TO.P,D18,1,GND_1*%
%TO.N,GNDD*%
X397359990Y-165249990D03*
%TO.P,D18,2,Vin_2*%
%TO.N,Net-(D18-Vin)*%
X399899990Y-165249990D03*
%TO.P,D18,3,Ctrl_3*%
%TO.N,unconnected-(D18-Ctrl-Pad3)*%
X402439990Y-165249990D03*
%TO.P,D18,5,NC_5*%
%TO.N,unconnected-(D18-NC-Pad5)*%
X407519990Y-165249990D03*
%TO.P,D18,6,+Vo_6*%
%TO.N,Net-(D18-+Vo)*%
X410059990Y-165249990D03*
%TO.P,D18,7,0V_7*%
%TO.N,GNDPWR*%
X412599990Y-165249990D03*
%TO.P,D18,8,CS_8*%
%TO.N,Net-(D18-CS)*%
X415139990Y-165249990D03*
%TD*%
D48*
%TO.P,U12,1*%
%TO.N,Net-(R75-Pad1)*%
X340275000Y-175445000D03*
D46*
%TO.P,U12,2*%
%TO.N,GNDD*%
X337735000Y-175445000D03*
%TO.P,U12,3*%
%TO.N,/Relay_FeedBack_3*%
X337735000Y-183065000D03*
%TO.P,U12,4*%
%TO.N,+3.3V*%
X340275000Y-183065000D03*
%TD*%
D18*
%TO.P,R55,1*%
%TO.N,Net-(D40-K)*%
X225500000Y-220250000D03*
%TO.P,R55,2*%
%TO.N,+24V*%
X225500000Y-222250000D03*
%TD*%
D38*
%TO.P,D27,1,K_1*%
%TO.N,Net-(D27-K)*%
X256937500Y-176500000D03*
%TO.P,D27,2,A_2*%
%TO.N,Net-(D27-A)*%
X255062500Y-176500000D03*
%TD*%
%TO.P,D33,1,K_1*%
%TO.N,Net-(D33-K)*%
X312437500Y-176500000D03*
%TO.P,D33,2,A_2*%
%TO.N,+24V*%
X310562500Y-176500000D03*
%TD*%
D53*
%TO.P,C9,1*%
%TO.N,Net-(D2-VIN)*%
X431625000Y-189412500D03*
%TO.P,C9,2*%
%TO.N,GNDPWR*%
X431625000Y-187337500D03*
%TD*%
D10*
%TO.P,D9,1,A_1*%
%TO.N,GND*%
X404325000Y-212437500D03*
%TO.P,D9,2,K_2*%
%TO.N,+3.3V*%
X402425000Y-212437500D03*
%TO.P,D9,3,common_3*%
%TO.N,/VDC_2_measure*%
X403375000Y-214312500D03*
%TD*%
D19*
%TO.P,D22,1,K_1*%
%TO.N,Net-(D22-K)*%
X261000000Y-229937500D03*
%TO.P,D22,2,A_2*%
%TO.N,+5V*%
X261000000Y-228062500D03*
%TD*%
D58*
%TO.P,D5,1,K_1*%
%TO.N,+3.3V*%
X316250000Y-206250000D03*
%TO.P,D5,2,A_2*%
%TO.N,Net-(D5-A)*%
X316250000Y-208750000D03*
%TD*%
D52*
%TO.P,C84,1*%
%TO.N,Net-(D21-Vin)*%
X301890005Y-232867677D03*
D16*
%TO.P,C84,2*%
%TO.N,Net-(D21-GND)*%
X301890005Y-227867677D03*
%TD*%
D59*
%TO.P,L4,1*%
%TO.N,+24V*%
X280390005Y-229012500D03*
%TO.P,L4,2*%
%TO.N,Net-(C82-Pad1)*%
X280390005Y-231987500D03*
%TD*%
D50*
%TO.P,C12,1*%
%TO.N,Net-(U6--)*%
X413587500Y-183125000D03*
%TO.P,C12,2*%
%TO.N,Net-(C12-Pad2)*%
X415662500Y-183125000D03*
%TD*%
D35*
%TO.P,R66,1*%
%TO.N,/Relay_Control_2*%
X282250000Y-187250000D03*
%TO.P,R66,2*%
%TO.N,Net-(R66-Pad2)*%
X282250000Y-185250000D03*
%TD*%
D50*
%TO.P,C71,1*%
%TO.N,+24V*%
X224962500Y-182500000D03*
%TO.P,C71,2*%
%TO.N,GNDD*%
X227037500Y-182500000D03*
%TD*%
D11*
%TO.P,C73,1*%
%TO.N,GNDPWR*%
X435250000Y-170462500D03*
%TO.P,C73,2*%
%TO.N,Net-(U17-+)*%
X435250000Y-172537500D03*
%TD*%
D13*
%TO.P,R33,1*%
%TO.N,GND*%
X415625000Y-212375000D03*
%TO.P,R33,2*%
%TO.N,Net-(U32-+)*%
X413625000Y-212375000D03*
%TD*%
D60*
%TO.P,U5,1,VBAT_1*%
%TO.N,+3.3V*%
X336750000Y-212925000D03*
%TO.P,U5,2,PC13_2*%
%TO.N,Net-(D42-A)*%
X337250000Y-212925000D03*
%TO.P,U5,3,PC14_3*%
%TO.N,Net-(D8-A)*%
X337750000Y-212925000D03*
%TO.P,U5,4,PC15_4*%
%TO.N,unconnected-(U5-PC15-Pad4)*%
X338250000Y-212925000D03*
%TO.P,U5,5,PH0_5*%
%TO.N,Net-(U5-PH0)*%
X338750000Y-212925000D03*
%TO.P,U5,6,PH1_6*%
%TO.N,Net-(U5-PH1)*%
X339250000Y-212925000D03*
%TO.P,U5,7,NRST_7*%
%TO.N,NRST*%
X339750000Y-212925000D03*
%TO.P,U5,8,PC0_8*%
%TO.N,unconnected-(U5-PC0-Pad8)*%
X340250000Y-212925000D03*
%TO.P,U5,9,PC1_9*%
%TO.N,unconnected-(U5-PC1-Pad9)*%
X340750000Y-212925000D03*
%TO.P,U5,10,PC2_10*%
%TO.N,unconnected-(U5-PC2-Pad10)*%
X341250000Y-212925000D03*
%TO.P,U5,11,PC3_11*%
%TO.N,unconnected-(U5-PC3-Pad11)*%
X341750000Y-212925000D03*
%TO.P,U5,12,VSSA_12*%
%TO.N,GND*%
X342250000Y-212925000D03*
%TO.P,U5,13,VDDA_13*%
%TO.N,+3.3V*%
X342750000Y-212925000D03*
%TO.P,U5,14,PA0_14*%
%TO.N,unconnected-(U5-PA0-Pad14)*%
X343250000Y-212925000D03*
%TO.P,U5,15,PA1_15*%
%TO.N,unconnected-(U5-PA1-Pad15)*%
X343750000Y-212925000D03*
%TO.P,U5,16,PA2_16*%
%TO.N,unconnected-(U5-PA2-Pad16)*%
X344250000Y-212925000D03*
D61*
%TO.P,U5,17,PA3_17*%
%TO.N,unconnected-(U5-PA3-Pad17)*%
X346175000Y-211000000D03*
%TO.P,U5,18,VSS_18*%
%TO.N,GND*%
X346175000Y-210500000D03*
%TO.P,U5,19,VDD_19*%
%TO.N,+3.3V*%
X346175000Y-210000000D03*
%TO.P,U5,20,PA4_20*%
%TO.N,unconnected-(U5-PA4-Pad20)*%
X346175000Y-209500000D03*
%TO.P,U5,21,PA5_21*%
%TO.N,/Current_1_measure*%
X346175000Y-209000000D03*
%TO.P,U5,22,PA6_22*%
%TO.N,/Current_2_measure*%
X346175000Y-208500000D03*
%TO.P,U5,23,PA7_23*%
%TO.N,unconnected-(U5-PA7-Pad23)*%
X346175000Y-208000000D03*
%TO.P,U5,24,PC4_24*%
%TO.N,/VDC_3_measure*%
X346175000Y-207500000D03*
%TO.P,U5,25,PC5_25*%
%TO.N,/VDC_2_measure*%
X346175000Y-207000000D03*
%TO.P,U5,26,PB0_26*%
%TO.N,/VDC_1_measure*%
X346175000Y-206500000D03*
%TO.P,U5,27,PB1_27*%
%TO.N,unconnected-(U5-PB1-Pad27)*%
X346175000Y-206000000D03*
%TO.P,U5,28,PB2_28*%
%TO.N,unconnected-(U5-PB2-Pad28)*%
X346175000Y-205500000D03*
%TO.P,U5,29,PB10_29*%
%TO.N,unconnected-(U5-PB10-Pad29)*%
X346175000Y-205000000D03*
%TO.P,U5,30,PB11_30*%
%TO.N,unconnected-(U5-PB11-Pad30)*%
X346175000Y-204500000D03*
%TO.P,U5,31,VCAP_1_31*%
%TO.N,Net-(U5-VCAP_1)*%
X346175000Y-204000000D03*
%TO.P,U5,32,VDD_32*%
%TO.N,+3.3V*%
X346175000Y-203500000D03*
D60*
%TO.P,U5,33,PB12_33*%
%TO.N,unconnected-(U5-PB12-Pad33)*%
X344250000Y-201575000D03*
%TO.P,U5,34,PB13_34*%
%TO.N,unconnected-(U5-PB13-Pad34)*%
X343750000Y-201575000D03*
%TO.P,U5,35,PB14_35*%
%TO.N,unconnected-(U5-PB14-Pad35)*%
X343250000Y-201575000D03*
%TO.P,U5,36,PB15_36*%
%TO.N,/Relay_FeedBack_4*%
X342750000Y-201575000D03*
%TO.P,U5,37,PC6_37*%
%TO.N,/Relay_Control_4*%
X342250000Y-201575000D03*
%TO.P,U5,38,PC7_38*%
%TO.N,/Relay_FeedBack_3*%
X341750000Y-201575000D03*
%TO.P,U5,39,PC8_39*%
%TO.N,/Relay_Control_3*%
X341250000Y-201575000D03*
%TO.P,U5,40,PC9_40*%
%TO.N,/Relay_FeedBack_2*%
X340750000Y-201575000D03*
%TO.P,U5,41,PA8_41*%
%TO.N,/Relay_Control_2*%
X340250000Y-201575000D03*
%TO.P,U5,42,PA9_42*%
%TO.N,/Relay_FeedBack_1*%
X339750000Y-201575000D03*
%TO.P,U5,43,PA10_43*%
%TO.N,/Relay_Control_1*%
X339250000Y-201575000D03*
%TO.P,U5,44,PA11_44*%
%TO.N,/CAN_RXD_MCU*%
X338750000Y-201575000D03*
%TO.P,U5,45,PA12_45*%
%TO.N,/CAN_TXD_MCU*%
X338250000Y-201575000D03*
%TO.P,U5,46,PA13_46*%
%TO.N,/SWDIO*%
X337750000Y-201575000D03*
%TO.P,U5,47,VCAP_2_47*%
%TO.N,Net-(U5-VCAP_2)*%
X337250000Y-201575000D03*
%TO.P,U5,48,VDD_48*%
%TO.N,+3.3V*%
X336750000Y-201575000D03*
D61*
%TO.P,U5,49,PA14_49*%
%TO.N,/SWCLK*%
X334825000Y-203500000D03*
%TO.P,U5,50,PA15_50*%
%TO.N,unconnected-(U5-PA15-Pad50)*%
X334825000Y-204000000D03*
%TO.P,U5,51,PC10_51*%
%TO.N,unconnected-(U5-PC10-Pad51)*%
X334825000Y-204500000D03*
%TO.P,U5,52,PC11_52*%
%TO.N,unconnected-(U5-PC11-Pad52)*%
X334825000Y-205000000D03*
%TO.P,U5,53,PC12_53*%
%TO.N,unconnected-(U5-PC12-Pad53)*%
X334825000Y-205500000D03*
%TO.P,U5,54,PD2_54*%
%TO.N,unconnected-(U5-PD2-Pad54)*%
X334825000Y-206000000D03*
%TO.P,U5,55,PB3_55*%
%TO.N,unconnected-(U5-PB3-Pad55)*%
X334825000Y-206500000D03*
%TO.P,U5,56,PB4_56*%
%TO.N,unconnected-(U5-PB4-Pad56)*%
X334825000Y-207000000D03*
%TO.P,U5,57,PB5_57*%
%TO.N,unconnected-(U5-PB5-Pad57)*%
X334825000Y-207500000D03*
%TO.P,U5,58,PB6_58*%
%TO.N,unconnected-(U5-PB6-Pad58)*%
X334825000Y-208000000D03*
%TO.P,U5,59,PB7_59*%
%TO.N,unconnected-(U5-PB7-Pad59)*%
X334825000Y-208500000D03*
%TO.P,U5,60,BOOT0_60*%
%TO.N,BOOT0*%
X334825000Y-209000000D03*
%TO.P,U5,61,PB8_61*%
%TO.N,unconnected-(U5-PB8-Pad61)*%
X334825000Y-209500000D03*
%TO.P,U5,62,PB9_62*%
%TO.N,unconnected-(U5-PB9-Pad62)*%
X334825000Y-210000000D03*
%TO.P,U5,63,VSS_63*%
%TO.N,GND*%
X334825000Y-210500000D03*
%TO.P,U5,64,VDD_64*%
%TO.N,+3.3V*%
X334825000Y-211000000D03*
%TD*%
D33*
%TO.P,R134,1*%
%TO.N,Net-(R133-Pad1)*%
X437750000Y-231962500D03*
%TO.P,R134,2*%
%TO.N,Net-(R134-Pad2)*%
X437750000Y-229037500D03*
%TD*%
D50*
%TO.P,C78,1*%
%TO.N,Net-(D40-K)*%
X227962500Y-220250000D03*
%TO.P,C78,2*%
%TO.N,Net-(D40-A)*%
X230037500Y-220250000D03*
%TD*%
D28*
%TO.P,Q3,1,G_1*%
%TO.N,Net-(Q3-G)*%
X284750000Y-172400000D03*
%TO.P,Q3,2,D_2*%
%TO.N,Net-(D28-A)*%
X287050000Y-172400000D03*
%TO.P,Q3,3,S_3*%
%TO.N,GNDD*%
X289350000Y-172400000D03*
D29*
%TO.P,Q3,4,S_4*%
X287050000Y-166100000D03*
%TD*%
D44*
%TO.P,R47,1*%
%TO.N,Net-(U32--)*%
X413625000Y-205375000D03*
%TO.P,R47,2*%
%TO.N,Net-(C45-Pad2)*%
X415625000Y-205375000D03*
%TD*%
D33*
%TO.P,R5,1*%
%TO.N,Net-(R5-Pad1)*%
X427500000Y-196462500D03*
%TO.P,R5,2*%
%TO.N,+1V0*%
X427500000Y-193537500D03*
%TD*%
D11*
%TO.P,C26,1*%
%TO.N,GND*%
X337760000Y-220712500D03*
%TO.P,C26,2*%
%TO.N,Net-(U5-PH0)*%
X337760000Y-222787500D03*
%TD*%
D56*
%TO.P,D32,1,K_1*%
%TO.N,+24V*%
X318500000Y-166750000D03*
%TO.P,D32,2,A_2*%
%TO.N,Net-(D32-A)*%
X318500000Y-171750000D03*
%TD*%
D43*
%TO.P,J6,1,Pin_1_1*%
%TO.N,-24V_IN*%
X229500000Y-196750000D03*
D27*
%TO.P,J6,2,Pin_2_2*%
%TO.N,+24V*%
X229500000Y-200950000D03*
%TO.P,J6,3,Pin_3_3*%
%TO.N,-24V_IN*%
X224000000Y-196750000D03*
%TO.P,J6,4,Pin_4_4*%
%TO.N,+24V*%
X224000000Y-200950000D03*
%TD*%
D23*
%TO.P,J14,1,Pin_1_1*%
%TO.N,Net-(D36-A)*%
X350250000Y-172500000D03*
D24*
%TO.P,J14,2,Pin_2_2*%
%TO.N,+24V*%
X350250000Y-167000000D03*
%TD*%
D51*
%TO.P,L7,1,1_1*%
%TO.N,Net-(C86-Pad1)*%
X286965005Y-243750000D03*
%TO.P,L7,2,2_2*%
%TO.N,Net-(D23-Vin)*%
X294315005Y-243750000D03*
%TO.P,L7,3,3_3*%
%TO.N,GNDD*%
X294315005Y-241250000D03*
%TO.P,L7,4,4_4*%
%TO.N,Net-(D23-GND)*%
X286965005Y-241250000D03*
%TD*%
D44*
%TO.P,R70,1*%
%TO.N,Net-(D31-K)*%
X296000000Y-176500000D03*
%TO.P,R70,2*%
%TO.N,GNDD*%
X298000000Y-176500000D03*
%TD*%
D40*
%TO.P,R29,1*%
%TO.N,Net-(R29-Pad1)*%
X439787500Y-202625000D03*
%TO.P,R29,2*%
%TO.N,Net-(J4-Pin_1)*%
X442712500Y-202625000D03*
%TD*%
D62*
%TO.P,U17,1*%
%TO.N,+1V0*%
X437612500Y-170550000D03*
%TO.P,U17,2,V-_2*%
%TO.N,GNDPWR*%
X437612500Y-171500000D03*
%TO.P,U17,3,+_3*%
%TO.N,Net-(U17-+)*%
X437612500Y-172450000D03*
%TO.P,U17,4,-_4*%
%TO.N,+1V0*%
X439887500Y-172450000D03*
%TO.P,U17,5,V+_5*%
%TO.N,+3.3VP*%
X439887500Y-170550000D03*
%TD*%
D13*
%TO.P,R13,1*%
%TO.N,Net-(D2-OUTN)*%
X415625000Y-187625000D03*
%TO.P,R13,2*%
%TO.N,Net-(U6--)*%
X413625000Y-187625000D03*
%TD*%
D53*
%TO.P,C57,1*%
%TO.N,Net-(D82-VIN)*%
X431625000Y-229412500D03*
%TO.P,C57,2*%
%TO.N,GNDPWR*%
X431625000Y-227337500D03*
%TD*%
D11*
%TO.P,C72,1*%
%TO.N,+5VD*%
X229750000Y-177712500D03*
%TO.P,C72,2*%
%TO.N,GNDD*%
X229750000Y-179787500D03*
%TD*%
D37*
%TO.P,C85,1*%
%TO.N,+24V*%
X277390005Y-240937500D03*
%TO.P,C85,2*%
%TO.N,GNDD*%
X277390005Y-244062500D03*
%TD*%
D44*
%TO.P,R11,1*%
%TO.N,GND*%
X330510000Y-209000000D03*
%TO.P,R11,2*%
%TO.N,BOOT0*%
X332510000Y-209000000D03*
%TD*%
D25*
%TO.P,D3,1,A_1*%
%TO.N,GND*%
X350800000Y-233187500D03*
%TO.P,D3,2,K_2*%
%TO.N,+3.3V*%
X352700000Y-233187500D03*
%TO.P,D3,3,common_3*%
%TO.N,/Current_1_measure*%
X351750000Y-231312500D03*
%TD*%
D23*
%TO.P,J8,1,Pin_1_1*%
%TO.N,Net-(D24-A)*%
X239250000Y-172500000D03*
D24*
%TO.P,J8,2,Pin_2_2*%
%TO.N,+24V*%
X239250000Y-167000000D03*
%TD*%
D63*
%TO.P,Q1,1,G_1*%
%TO.N,Net-(D40-K)*%
X233720000Y-217540000D03*
D64*
%TO.P,Q1,2,D_2*%
%TO.N,-24V_IN*%
X236000000Y-211240000D03*
D63*
%TO.P,Q1,3,S_3*%
%TO.N,Net-(D40-A)*%
X238280000Y-217540000D03*
%TD*%
D65*
%TO.P,C34,1*%
%TO.N,GND*%
X265437500Y-215750000D03*
%TO.P,C34,2*%
%TO.N,+3.3V*%
X268562500Y-215750000D03*
%TD*%
D36*
%TO.P,C74,1*%
%TO.N,/Relay_FeedBack_1*%
X261037500Y-185250000D03*
%TO.P,C74,2*%
%TO.N,GND*%
X258962500Y-185250000D03*
%TD*%
D33*
%TO.P,R50,1*%
%TO.N,Net-(R50-Pad1)*%
X437750000Y-226087500D03*
%TO.P,R50,2*%
%TO.N,Net-(R49-Pad1)*%
X437750000Y-223162500D03*
%TD*%
D57*
%TO.P,D23,1,GND_1*%
%TO.N,Net-(D23-GND)*%
X310000000Y-240199990D03*
%TO.P,D23,2,Vin_2*%
%TO.N,Net-(D23-Vin)*%
X312540000Y-240199990D03*
%TO.P,D23,3,NC_3*%
%TO.N,unconnected-(D23-NC-Pad3)*%
X315080000Y-240199990D03*
%TO.P,D23,5,NC_5*%
%TO.N,unconnected-(D23-NC-Pad5)*%
X320160000Y-240199990D03*
%TO.P,D23,6,+Vo_6*%
%TO.N,/Current_measure_2/+15V*%
X322700000Y-240199990D03*
%TO.P,D23,7,0V_7*%
%TO.N,GND*%
X325240000Y-240199990D03*
%TO.P,D23,8,-Vo_8*%
%TO.N,/Current_measure_2/-15V*%
X327780000Y-240199990D03*
%TD*%
D38*
%TO.P,D31,1,K_1*%
%TO.N,Net-(D31-K)*%
X293937500Y-176500000D03*
%TO.P,D31,2,A_2*%
%TO.N,Net-(D31-A)*%
X292062500Y-176500000D03*
%TD*%
D25*
%TO.P,Q10,1,B_1*%
%TO.N,Net-(Q10-B)*%
X353300000Y-240687500D03*
%TO.P,Q10,2,E_2*%
%TO.N,GND*%
X355200000Y-240687500D03*
%TO.P,Q10,3,C_3*%
%TO.N,Net-(Q10-C)*%
X354250000Y-238812500D03*
%TD*%
D26*
%TO.P,J3,1,Pin_1_1*%
%TO.N,Net-(J3-Pin_1)*%
X448125000Y-184375000D03*
D27*
%TO.P,J3,2,Pin_2_2*%
X453625000Y-184375000D03*
%TD*%
D18*
%TO.P,R10,1*%
%TO.N,Net-(C12-Pad2)*%
X408625000Y-192375000D03*
%TO.P,R10,2*%
%TO.N,/VDC_1_measure*%
X408625000Y-194375000D03*
%TD*%
D66*
%TO.P,U31,1,GND_1*%
%TO.N,GNDPWR*%
X424550000Y-165600000D03*
%TO.P,U31,2,VO_2*%
%TO.N,+3.3VP*%
X422250000Y-165600000D03*
D67*
X422250000Y-171900000D03*
D66*
%TO.P,U31,3,VI_3*%
%TO.N,Net-(D18-+Vo)*%
X419950000Y-165600000D03*
%TD*%
D13*
%TO.P,R4,1*%
%TO.N,GND*%
X415625000Y-192375000D03*
%TO.P,R4,2*%
%TO.N,Net-(U6-+)*%
X413625000Y-192375000D03*
%TD*%
D35*
%TO.P,R18,1*%
%TO.N,/Current_measure_1/M*%
X348750000Y-233250000D03*
%TO.P,R18,2*%
%TO.N,/Current_1_measure*%
X348750000Y-231250000D03*
%TD*%
%TO.P,R72,1*%
%TO.N,/Relay_Control_3*%
X319250000Y-187250000D03*
%TO.P,R72,2*%
%TO.N,Net-(R72-Pad2)*%
X319250000Y-185250000D03*
%TD*%
D44*
%TO.P,R73,1*%
%TO.N,Net-(D33-K)*%
X314500000Y-176500000D03*
%TO.P,R73,2*%
%TO.N,Net-(D32-A)*%
X316500000Y-176500000D03*
%TD*%
D13*
%TO.P,R77,1*%
%TO.N,/Relay_FeedBack_3*%
X335000000Y-183000000D03*
%TO.P,R77,2*%
%TO.N,GND*%
X333000000Y-183000000D03*
%TD*%
D36*
%TO.P,C77,1*%
%TO.N,/Relay_FeedBack_4*%
X372037500Y-185250000D03*
%TO.P,C77,2*%
%TO.N,GND*%
X369962500Y-185250000D03*
%TD*%
D59*
%TO.P,L6,1*%
%TO.N,+24V*%
X280390005Y-241012500D03*
%TO.P,L6,2*%
%TO.N,Net-(C86-Pad1)*%
X280390005Y-243987500D03*
%TD*%
D26*
%TO.P,J4,1,Pin_1_1*%
%TO.N,Net-(J4-Pin_1)*%
X448125000Y-204375000D03*
D27*
%TO.P,J4,2,Pin_2_2*%
X453625000Y-204375000D03*
%TD*%
D26*
%TO.P,J7,1,Pin_1_1*%
%TO.N,GNDPWR*%
X448125000Y-193375000D03*
D27*
%TO.P,J7,2,Pin_2_2*%
X453625000Y-193375000D03*
%TD*%
D45*
%TO.P,U13,1*%
%TO.N,Net-(R78-Pad2)*%
X356250000Y-183120000D03*
D46*
%TO.P,U13,2*%
%TO.N,GND*%
X358790000Y-183120000D03*
%TO.P,U13,3*%
%TO.N,Net-(Q5-G)*%
X358790000Y-175500000D03*
%TO.P,U13,4*%
%TO.N,+5VD*%
X356250000Y-175500000D03*
%TD*%
D23*
%TO.P,J13,1,Pin_1_1*%
%TO.N,Net-(D35-A)*%
X331750000Y-172500000D03*
D24*
%TO.P,J13,2,Pin_2_2*%
%TO.N,+24V*%
X331750000Y-167000000D03*
%TD*%
D13*
%TO.P,R59,1*%
%TO.N,GND*%
X415625000Y-232375000D03*
%TO.P,R59,2*%
%TO.N,Net-(U33-+)*%
X413625000Y-232375000D03*
%TD*%
D10*
%TO.P,Q8,1,B_1*%
%TO.N,Net-(Q10-B)*%
X358950000Y-238812500D03*
%TO.P,Q8,2,E_2*%
%TO.N,Net-(Q10-C)*%
X357050000Y-238812500D03*
%TO.P,Q8,3,C_3*%
%TO.N,+5V*%
X358000000Y-240687500D03*
%TD*%
D33*
%TO.P,R41,1*%
%TO.N,Net-(R38-Pad1)*%
X437750000Y-211962500D03*
%TO.P,R41,2*%
%TO.N,Net-(R32-Pad1)*%
X437750000Y-209037500D03*
%TD*%
D57*
%TO.P,D21,1,GND_1*%
%TO.N,Net-(D21-GND)*%
X310000000Y-228199990D03*
%TO.P,D21,2,Vin_2*%
%TO.N,Net-(D21-Vin)*%
X312540000Y-228199990D03*
%TO.P,D21,3,NC_3*%
%TO.N,unconnected-(D21-NC-Pad3)*%
X315080000Y-228199990D03*
%TO.P,D21,5,NC_5*%
%TO.N,unconnected-(D21-NC-Pad5)*%
X320160000Y-228199990D03*
%TO.P,D21,6,+Vo_6*%
%TO.N,/Current_measure_1/+15V*%
X322700000Y-228199990D03*
%TO.P,D21,7,0V_7*%
%TO.N,GND*%
X325240000Y-228199990D03*
%TO.P,D21,8,-Vo_8*%
%TO.N,/Current_measure_1/-15V*%
X327780000Y-228199990D03*
%TD*%
D26*
%TO.P,J16,1,Pin_1_1*%
%TO.N,/Current_measure_1/+15V*%
X333250000Y-232350000D03*
D27*
%TO.P,J16,2,Pin_2_2*%
%TO.N,/Current_measure_1/-15V*%
X333250000Y-228150000D03*
%TO.P,J16,3,Pin_3_3*%
%TO.N,/Current_measure_1/M*%
X338750000Y-232350000D03*
%TO.P,J16,4,Pin_4_4*%
%TO.N,unconnected-(J16-Pin_4-Pad4)*%
X338750000Y-228150000D03*
%TD*%
D68*
%TO.P,D26,1,A_1*%
%TO.N,GND*%
X263937500Y-187950000D03*
%TO.P,D26,2,K_2*%
%TO.N,+3.3V*%
X263937500Y-186050000D03*
%TO.P,D26,3,common_3*%
%TO.N,/Relay_FeedBack_1*%
X262062500Y-187000000D03*
%TD*%
D26*
%TO.P,J32,1,Pin_1_1*%
%TO.N,Net-(J32-Pin_1)*%
X448125000Y-224375000D03*
D27*
%TO.P,J32,2,Pin_2_2*%
X453625000Y-224375000D03*
%TD*%
D69*
%TO.P,D8,1,K_1*%
%TO.N,Net-(D8-K)*%
X329312500Y-217250000D03*
%TO.P,D8,2,A_2*%
%TO.N,Net-(D8-A)*%
X331187500Y-217250000D03*
%TD*%
D57*
%TO.P,D19,1,GND_1*%
%TO.N,GNDD*%
X239109990Y-226999990D03*
%TO.P,D19,2,Vin_2*%
%TO.N,Net-(D19-Vin)*%
X241649990Y-226999990D03*
%TO.P,D19,3,Ctrl_3*%
%TO.N,unconnected-(D19-Ctrl-Pad3)*%
X244189990Y-226999990D03*
%TO.P,D19,5,NC_5*%
%TO.N,unconnected-(D19-NC-Pad5)*%
X249269990Y-226999990D03*
%TO.P,D19,6,+Vo_6*%
%TO.N,+5V*%
X251809990Y-226999990D03*
%TO.P,D19,7,0V_7*%
%TO.N,GND*%
X254349990Y-226999990D03*
%TO.P,D19,8,CS_8*%
%TO.N,unconnected-(D19-CS-Pad8)*%
X256889990Y-226999990D03*
%TD*%
D56*
%TO.P,D24,1,K_1*%
%TO.N,+24V*%
X244500000Y-166750000D03*
%TO.P,D24,2,A_2*%
%TO.N,Net-(D24-A)*%
X244500000Y-171750000D03*
%TD*%
D38*
%TO.P,D37,1,K_1*%
%TO.N,Net-(D37-K)*%
X349437500Y-176500000D03*
%TO.P,D37,2,A_2*%
%TO.N,+24V*%
X347562500Y-176500000D03*
%TD*%
D37*
%TO.P,C36,1*%
%TO.N,GNDPWR*%
X427750000Y-165375000D03*
%TO.P,C36,2*%
%TO.N,+3.3VP*%
X427750000Y-168500000D03*
%TD*%
D44*
%TO.P,R79,1*%
%TO.N,Net-(D37-K)*%
X351500000Y-176500000D03*
%TO.P,R79,2*%
%TO.N,Net-(D36-A)*%
X353500000Y-176500000D03*
%TD*%
D18*
%TO.P,R95,1*%
%TO.N,Net-(R95-Pad1)*%
X321250000Y-206500000D03*
%TO.P,R95,2*%
%TO.N,Net-(J1-Pin_2)*%
X321250000Y-208500000D03*
%TD*%
D50*
%TO.P,C60,1*%
%TO.N,Net-(U33--)*%
X413587500Y-223125000D03*
%TO.P,C60,2*%
%TO.N,Net-(C60-Pad2)*%
X415662500Y-223125000D03*
%TD*%
D53*
%TO.P,C10,1*%
%TO.N,/VDC_1_measure*%
X406375000Y-194412500D03*
%TO.P,C10,2*%
%TO.N,GND*%
X406375000Y-192337500D03*
%TD*%
D43*
%TO.P,J34,1,Pin_1_1*%
%TO.N,/CANL*%
X281500000Y-200650000D03*
D27*
%TO.P,J34,2,Pin_2_2*%
%TO.N,/CANH*%
X281500000Y-204850000D03*
%TO.P,J34,3,Pin_3_3*%
%TO.N,GND_CAN*%
X276000000Y-200650000D03*
%TO.P,J34,4,Pin_4_4*%
X276000000Y-204850000D03*
%TD*%
D39*
%TO.P,D10,1,K_1*%
%TO.N,Net-(D10-K)*%
X435487500Y-213500000D03*
%TO.P,D10,2,A_2*%
%TO.N,Net-(D10-A)*%
X432512500Y-213500000D03*
%TD*%
D68*
%TO.P,D34,1,A_1*%
%TO.N,GND*%
X337937500Y-187950000D03*
%TO.P,D34,2,K_2*%
%TO.N,+3.3V*%
X337937500Y-186050000D03*
%TO.P,D34,3,common_3*%
%TO.N,/Relay_FeedBack_3*%
X336062500Y-187000000D03*
%TD*%
D48*
%TO.P,U10,1*%
%TO.N,Net-(R69-Pad1)*%
X303275000Y-175445000D03*
D46*
%TO.P,U10,2*%
%TO.N,GNDD*%
X300735000Y-175445000D03*
%TO.P,U10,3*%
%TO.N,/Relay_FeedBack_2*%
X300735000Y-183065000D03*
%TO.P,U10,4*%
%TO.N,+3.3V*%
X303275000Y-183065000D03*
%TD*%
D23*
%TO.P,J9,1,Pin_1_1*%
%TO.N,Net-(D27-A)*%
X257750000Y-172500000D03*
D24*
%TO.P,J9,2,Pin_2_2*%
%TO.N,+24V*%
X257750000Y-167000000D03*
%TD*%
D21*
%TO.P,D82,1,VDD1_1*%
%TO.N,+3.3VP*%
X429200000Y-230780000D03*
%TO.P,D82,2,VIN_2*%
%TO.N,Net-(D82-VIN)*%
X429200000Y-229510000D03*
%TO.P,D82,3,SHTDN_3*%
%TO.N,GNDPWR*%
X429200000Y-228240000D03*
%TO.P,D82,4,GND1_4*%
X429200000Y-226970000D03*
%TO.P,D82,5,GND2_5*%
%TO.N,GND*%
X418550000Y-226970000D03*
%TO.P,D82,6,OUTN_6*%
%TO.N,Net-(D82-OUTN)*%
X418550000Y-228240000D03*
%TO.P,D82,7,OUTP_7*%
%TO.N,Net-(D82-OUTP)*%
X418550000Y-229510000D03*
%TO.P,D82,8,VDD2_8*%
%TO.N,+3.3V*%
X418550000Y-230780000D03*
%TD*%
D32*
%TO.P,U33,1*%
%TO.N,Net-(C60-Pad2)*%
X408675000Y-230012500D03*
%TO.P,U33,2,V-_2*%
%TO.N,GND*%
X409625000Y-230012500D03*
%TO.P,U33,3,+_3*%
%TO.N,Net-(U33-+)*%
X410575000Y-230012500D03*
%TO.P,U33,4,-_4*%
%TO.N,Net-(U33--)*%
X410575000Y-227737500D03*
%TO.P,U33,5,V+_5*%
%TO.N,+3.3V*%
X408675000Y-227737500D03*
%TD*%
D36*
%TO.P,C55,1*%
%TO.N,GND*%
X415662500Y-234625000D03*
%TO.P,C55,2*%
%TO.N,Net-(U33-+)*%
X413587500Y-234625000D03*
%TD*%
D35*
%TO.P,R78,1*%
%TO.N,/Relay_Control_4*%
X356250000Y-187250000D03*
%TO.P,R78,2*%
%TO.N,Net-(R78-Pad2)*%
X356250000Y-185250000D03*
%TD*%
D13*
%TO.P,R65,1*%
%TO.N,/Relay_FeedBack_1*%
X261000000Y-183000000D03*
%TO.P,R65,2*%
%TO.N,GND*%
X259000000Y-183000000D03*
%TD*%
D38*
%TO.P,D35,1,K_1*%
%TO.N,Net-(D35-K)*%
X330937500Y-176500000D03*
%TO.P,D35,2,A_2*%
%TO.N,Net-(D35-A)*%
X329062500Y-176500000D03*
%TD*%
D44*
%TO.P,R140,1*%
%TO.N,Net-(U33--)*%
X413625000Y-225375000D03*
%TO.P,R140,2*%
%TO.N,Net-(C60-Pad2)*%
X415625000Y-225375000D03*
%TD*%
D35*
%TO.P,R84,1*%
%TO.N,Net-(D40-K)*%
X232250000Y-222250000D03*
%TO.P,R84,2*%
%TO.N,Net-(D40-A)*%
X232250000Y-220250000D03*
%TD*%
D45*
%TO.P,U7,1*%
%TO.N,Net-(R60-Pad2)*%
X245250000Y-183120000D03*
D46*
%TO.P,U7,2*%
%TO.N,GND*%
X247790000Y-183120000D03*
%TO.P,U7,3*%
%TO.N,Net-(Q2-G)*%
X247790000Y-175500000D03*
%TO.P,U7,4*%
%TO.N,+5VD*%
X245250000Y-175500000D03*
%TD*%
D44*
%TO.P,R21,1*%
%TO.N,Net-(U6--)*%
X413625000Y-185375000D03*
%TO.P,R21,2*%
%TO.N,Net-(C12-Pad2)*%
X415625000Y-185375000D03*
%TD*%
D13*
%TO.P,R68,1*%
%TO.N,GNDD*%
X289250000Y-175500000D03*
%TO.P,R68,2*%
%TO.N,Net-(Q3-G)*%
X287250000Y-175500000D03*
%TD*%
D10*
%TO.P,Q7,1,B_1*%
%TO.N,Net-(Q7-B)*%
X358950000Y-226812500D03*
%TO.P,Q7,2,E_2*%
%TO.N,Net-(Q7-E)*%
X357050000Y-226812500D03*
%TO.P,Q7,3,C_3*%
%TO.N,+5V*%
X358000000Y-228687500D03*
%TD*%
D40*
%TO.P,R49,1*%
%TO.N,Net-(R49-Pad1)*%
X439787500Y-222625000D03*
%TO.P,R49,2*%
%TO.N,Net-(J32-Pin_1)*%
X442712500Y-222625000D03*
%TD*%
D33*
%TO.P,R32,1*%
%TO.N,Net-(R32-Pad1)*%
X435250000Y-209087500D03*
%TO.P,R32,2*%
%TO.N,Net-(R30-Pad1)*%
X435250000Y-206162500D03*
%TD*%
D53*
%TO.P,C43,1*%
%TO.N,/VDC_2_measure*%
X406375000Y-214412500D03*
%TO.P,C43,2*%
%TO.N,GND*%
X406375000Y-212337500D03*
%TD*%
D69*
%TO.P,D42,1,K_1*%
%TO.N,Net-(D42-K)*%
X329312500Y-215000000D03*
%TO.P,D42,2,A_2*%
%TO.N,Net-(D42-A)*%
X331187500Y-215000000D03*
%TD*%
D56*
%TO.P,D28,1,K_1*%
%TO.N,+24V*%
X281500000Y-166750000D03*
%TO.P,D28,2,A_2*%
%TO.N,Net-(D28-A)*%
X281500000Y-171750000D03*
%TD*%
D68*
%TO.P,D30,1,A_1*%
%TO.N,GND*%
X300937500Y-187950000D03*
%TO.P,D30,2,K_2*%
%TO.N,+3.3V*%
X300937500Y-186050000D03*
%TO.P,D30,3,common_3*%
%TO.N,/Relay_FeedBack_2*%
X299062500Y-187000000D03*
%TD*%
D36*
%TO.P,C75,1*%
%TO.N,/Relay_FeedBack_2*%
X298037500Y-185250000D03*
%TO.P,C75,2*%
%TO.N,GND*%
X295962500Y-185250000D03*
%TD*%
D44*
%TO.P,R67,1*%
%TO.N,Net-(D29-K)*%
X277500000Y-176500000D03*
%TO.P,R67,2*%
%TO.N,Net-(D28-A)*%
X279500000Y-176500000D03*
%TD*%
%TO.P,R82,1*%
%TO.N,Net-(D39-K)*%
X370000000Y-176500000D03*
%TO.P,R82,2*%
%TO.N,GNDD*%
X372000000Y-176500000D03*
%TD*%
D13*
%TO.P,R8,1*%
%TO.N,Net-(D2-OUTP)*%
X415625000Y-190125000D03*
%TO.P,R8,2*%
%TO.N,Net-(U6-+)*%
X413625000Y-190125000D03*
%TD*%
D36*
%TO.P,C76,1*%
%TO.N,/Relay_FeedBack_3*%
X335037500Y-185250000D03*
%TO.P,C76,2*%
%TO.N,GND*%
X332962500Y-185250000D03*
%TD*%
D33*
%TO.P,R133,1*%
%TO.N,Net-(R133-Pad1)*%
X427500000Y-236462500D03*
%TO.P,R133,2*%
%TO.N,+1V0*%
X427500000Y-233537500D03*
%TD*%
D68*
%TO.P,D14,1,K_1*%
%TO.N,/CANH*%
X287437500Y-203700000D03*
%TO.P,D14,2,K_2*%
%TO.N,/CANL*%
X287437500Y-201800000D03*
%TO.P,D14,3,A_3*%
%TO.N,GND_CAN*%
X285562500Y-202750000D03*
%TD*%
D48*
%TO.P,U14,1*%
%TO.N,Net-(R81-Pad1)*%
X377275000Y-175445000D03*
D46*
%TO.P,U14,2*%
%TO.N,GNDD*%
X374735000Y-175445000D03*
%TO.P,U14,3*%
%TO.N,/Relay_FeedBack_4*%
X374735000Y-183065000D03*
%TO.P,U14,4*%
%TO.N,+3.3V*%
X377275000Y-183065000D03*
%TD*%
D50*
%TO.P,C45,1*%
%TO.N,Net-(U32--)*%
X413587500Y-203125000D03*
%TO.P,C45,2*%
%TO.N,Net-(C45-Pad2)*%
X415662500Y-203125000D03*
%TD*%
D49*
%TO.P,C86,1*%
%TO.N,Net-(C86-Pad1)*%
X283390005Y-244062500D03*
%TO.P,C86,2*%
%TO.N,GNDD*%
X283390005Y-240937500D03*
%TD*%
D44*
%TO.P,R64,1*%
%TO.N,Net-(D27-K)*%
X259000000Y-176500000D03*
%TO.P,R64,2*%
%TO.N,GNDD*%
X261000000Y-176500000D03*
%TD*%
D35*
%TO.P,R60,1*%
%TO.N,/Relay_Control_1*%
X245250000Y-187250000D03*
%TO.P,R60,2*%
%TO.N,Net-(R60-Pad2)*%
X245250000Y-185250000D03*
%TD*%
D68*
%TO.P,D38,1,A_1*%
%TO.N,GND*%
X374937500Y-187950000D03*
%TO.P,D38,2,K_2*%
%TO.N,+3.3V*%
X374937500Y-186050000D03*
%TO.P,D38,3,common_3*%
%TO.N,/Relay_FeedBack_4*%
X373062500Y-187000000D03*
%TD*%
D70*
%TO.P,U16,1,I/O1_1*%
%TO.N,/SWCLK*%
X320950000Y-201862500D03*
%TO.P,U16,2,GND_2*%
%TO.N,GND*%
X320000000Y-201862500D03*
%TO.P,U16,3,I/O2_3*%
%TO.N,/SWDIO*%
X319050000Y-201862500D03*
%TO.P,U16,4,I/O2_4*%
%TO.N,Net-(R54-Pad1)*%
X319050000Y-204137500D03*
%TO.P,U16,5,VBUS_5*%
%TO.N,+3.3V*%
X320000000Y-204137500D03*
%TO.P,U16,6,I/O1_6*%
%TO.N,Net-(R95-Pad1)*%
X320950000Y-204137500D03*
%TD*%
D13*
%TO.P,R71,1*%
%TO.N,/Relay_FeedBack_2*%
X298000000Y-183000000D03*
%TO.P,R71,2*%
%TO.N,GND*%
X296000000Y-183000000D03*
%TD*%
D37*
%TO.P,C44,1*%
%TO.N,GND*%
X261000000Y-219187500D03*
%TO.P,C44,2*%
%TO.N,+5V*%
X261000000Y-222312500D03*
%TD*%
D19*
%TO.P,D11,1,K_1*%
%TO.N,Net-(D11-K)*%
X270000000Y-229937500D03*
%TO.P,D11,2,A_2*%
%TO.N,+3.3V*%
X270000000Y-228062500D03*
%TD*%
D18*
%TO.P,R54,1*%
%TO.N,Net-(R54-Pad1)*%
X318750000Y-206500000D03*
%TO.P,R54,2*%
%TO.N,Net-(J1-Pin_3)*%
X318750000Y-208500000D03*
%TD*%
D28*
%TO.P,Q4,1,G_1*%
%TO.N,Net-(Q4-G)*%
X321750000Y-172400000D03*
%TO.P,Q4,2,D_2*%
%TO.N,Net-(D32-A)*%
X324050000Y-172400000D03*
%TO.P,Q4,3,S_3*%
%TO.N,GNDD*%
X326350000Y-172400000D03*
D29*
%TO.P,Q4,4,S_4*%
X324050000Y-166100000D03*
%TD*%
D17*
%TO.P,R44,1*%
%TO.N,GNDPWR*%
X442712500Y-213375000D03*
%TO.P,R44,2*%
%TO.N,Net-(R38-Pad1)*%
X439787500Y-213375000D03*
%TD*%
D26*
%TO.P,J17,1,Pin_1_1*%
%TO.N,/Current_measure_2/+15V*%
X333250000Y-244350000D03*
D27*
%TO.P,J17,2,Pin_2_2*%
%TO.N,/Current_measure_2/-15V*%
X333250000Y-240150000D03*
%TO.P,J17,3,Pin_3_3*%
%TO.N,/Current_measure_2/M*%
X338750000Y-244350000D03*
%TO.P,J17,4,Pin_4_4*%
%TO.N,unconnected-(J17-Pin_4-Pad4)*%
X338750000Y-240150000D03*
%TD*%
D13*
%TO.P,R46,1*%
%TO.N,Net-(D15-OUTN)*%
X415625000Y-207625000D03*
%TO.P,R46,2*%
%TO.N,Net-(U32--)*%
X413625000Y-207625000D03*
%TD*%
D33*
%TO.P,R38,1*%
%TO.N,Net-(R38-Pad1)*%
X427500000Y-216462500D03*
%TO.P,R38,2*%
%TO.N,+1V0*%
X427500000Y-213537500D03*
%TD*%
D26*
%TO.P,J33,1,Pin_1_1*%
%TO.N,GNDPWR*%
X448125000Y-233375000D03*
D27*
%TO.P,J33,2,Pin_2_2*%
X453625000Y-233375000D03*
%TD*%
D71*
%TO.P,D12,1,RXD_1*%
%TO.N,/CAN_RXD_MCU*%
X308813195Y-206575000D03*
%TO.P,D12,2,TXD_2*%
%TO.N,/CAN_TXD_MCU*%
X308813195Y-204035000D03*
%TO.P,D12,3,GND_3*%
%TO.N,GND*%
X308813195Y-201495000D03*
%TO.P,D12,4,VCC_4*%
%TO.N,+3.3V*%
X308813195Y-198955000D03*
%TO.P,D12,5,CANG_5*%
%TO.N,GND_CAN*%
X301193195Y-198955000D03*
%TO.P,D12,6,CANL_6*%
%TO.N,Net-(D12-CANL)*%
X301193195Y-201495000D03*
%TO.P,D12,7,CANH_7*%
%TO.N,Net-(D12-CANH)*%
X301193195Y-204035000D03*
%TD*%
D72*
%TO.P,U15,1,GND_1*%
%TO.N,GNDD*%
X227200000Y-180250000D03*
D73*
%TO.P,U15,2,VIN_2*%
%TO.N,+24V*%
X227112500Y-178750000D03*
D72*
%TO.P,U15,3,VOUT_3*%
%TO.N,+5VD*%
X227200000Y-177250000D03*
%TD*%
D19*
%TO.P,D41,1,K_1*%
%TO.N,Net-(D41-K)*%
X253250000Y-215687500D03*
%TO.P,D41,2,A_2*%
%TO.N,+24V*%
X253250000Y-213812500D03*
%TD*%
D33*
%TO.P,R2,1*%
%TO.N,Net-(R2-Pad1)*%
X437750000Y-186087500D03*
%TO.P,R2,2*%
%TO.N,Net-(R1-Pad1)*%
X437750000Y-183162500D03*
%TD*%
D25*
%TO.P,D4,1,A_1*%
%TO.N,GND*%
X350800000Y-245187500D03*
%TO.P,D4,2,K_2*%
%TO.N,+3.3V*%
X352700000Y-245187500D03*
%TO.P,D4,3,common_3*%
%TO.N,/Current_2_measure*%
X351750000Y-243312500D03*
%TD*%
D53*
%TO.P,C42,1*%
%TO.N,Net-(D15-VIN)*%
X431625000Y-209412500D03*
%TO.P,C42,2*%
%TO.N,GNDPWR*%
X431625000Y-207337500D03*
%TD*%
D44*
%TO.P,R76,1*%
%TO.N,Net-(D35-K)*%
X333000000Y-176500000D03*
%TO.P,R76,2*%
%TO.N,GNDD*%
X335000000Y-176500000D03*
%TD*%
D33*
%TO.P,R3,1*%
%TO.N,Net-(R3-Pad1)*%
X435250000Y-189087500D03*
%TO.P,R3,2*%
%TO.N,Net-(R2-Pad1)*%
X435250000Y-186162500D03*
%TD*%
D18*
%TO.P,R42,1*%
%TO.N,Net-(D15-VIN)*%
X430250000Y-214000000D03*
%TO.P,R42,2*%
%TO.N,Net-(R38-Pad1)*%
X430250000Y-216000000D03*
%TD*%
D33*
%TO.P,R30,1*%
%TO.N,Net-(R30-Pad1)*%
X437750000Y-206087500D03*
%TO.P,R30,2*%
%TO.N,Net-(R29-Pad1)*%
X437750000Y-203162500D03*
%TD*%
D13*
%TO.P,R80,1*%
%TO.N,GNDD*%
X363250000Y-175500000D03*
%TO.P,R80,2*%
%TO.N,Net-(Q5-G)*%
X361250000Y-175500000D03*
%TD*%
D63*
%TO.P,Q6,1,G_1*%
%TO.N,Net-(D40-K)*%
X225470000Y-217540000D03*
D64*
%TO.P,Q6,2,D_2*%
%TO.N,GNDD*%
X227750000Y-211240000D03*
D63*
%TO.P,Q6,3,S_3*%
%TO.N,Net-(D40-A)*%
X230030000Y-217540000D03*
%TD*%
D74*
%TO.N,GND*%
X409625000Y-230875000D03*
X416625000Y-194625000D03*
X260750000Y-215750000D03*
X340500000Y-207250000D03*
X329750000Y-209000000D03*
X339750000Y-208000000D03*
X406375000Y-231625000D03*
X348750000Y-246350000D03*
X406375000Y-191375000D03*
X258000000Y-185250000D03*
X346000000Y-242000000D03*
X295000000Y-185250000D03*
X260000000Y-214250000D03*
X260000000Y-215750000D03*
X409625000Y-210875000D03*
X263750000Y-216500000D03*
X340160000Y-220160000D03*
X332000000Y-185250000D03*
X340500000Y-208000000D03*
X339750000Y-207250000D03*
X262250000Y-214250000D03*
X350800000Y-234200000D03*
X263000000Y-216500000D03*
X262250000Y-215750000D03*
X295000000Y-183000000D03*
X369000000Y-185250000D03*
X320000000Y-202750000D03*
X340500000Y-206500000D03*
X271250000Y-228000000D03*
X376200000Y-187950000D03*
X339200000Y-187950000D03*
X260000000Y-215000000D03*
X258000000Y-183000000D03*
X346000000Y-230000000D03*
X417220000Y-206970000D03*
X336537500Y-220712500D03*
X352000000Y-228000000D03*
X261500000Y-215750000D03*
X261500000Y-214250000D03*
X341250000Y-208000000D03*
X352000000Y-240000000D03*
X369000000Y-183000000D03*
X261500000Y-215000000D03*
X263750000Y-215000000D03*
X355200000Y-241700000D03*
X325240000Y-241750000D03*
X341250000Y-207250000D03*
X348750000Y-234350000D03*
X263000000Y-215000000D03*
X265200000Y-187950000D03*
X409625000Y-190875000D03*
X262250000Y-216500000D03*
X315250000Y-201250000D03*
X325240000Y-230500000D03*
X260750000Y-215000000D03*
X325240000Y-229750000D03*
X416625000Y-214625000D03*
X260750000Y-216500000D03*
X417220000Y-226970000D03*
X263000000Y-214250000D03*
X262250000Y-215000000D03*
X331250000Y-218500000D03*
X355200000Y-229700000D03*
X263750000Y-214250000D03*
X262200000Y-228016920D03*
X341250000Y-206500000D03*
X345712500Y-222787500D03*
X302200000Y-187950000D03*
X261500000Y-216500000D03*
X263750000Y-215750000D03*
X332000000Y-183000000D03*
X325240000Y-242500000D03*
X339750000Y-206500000D03*
X260000000Y-216500000D03*
X260750000Y-214250000D03*
X406375000Y-211625000D03*
X350800000Y-246200000D03*
X416625000Y-234625000D03*
X417220000Y-186970000D03*
X263000000Y-215750000D03*
%TO.N,+3.3V*%
X272000000Y-218750000D03*
X271250000Y-217250000D03*
X266750000Y-221000000D03*
X347500000Y-210000000D03*
X315222500Y-198722500D03*
X408675000Y-186875000D03*
X271250000Y-215000000D03*
X408675000Y-206875000D03*
X268250000Y-223250000D03*
X268250000Y-218000000D03*
X271250000Y-216500000D03*
X269750000Y-223750000D03*
X267500000Y-223250000D03*
X347800000Y-240950000D03*
X333500000Y-211000000D03*
X272000000Y-219500000D03*
X267500000Y-222500000D03*
X271250000Y-223750000D03*
X268250000Y-220250000D03*
X417220000Y-210780000D03*
X272000000Y-222500000D03*
X270000000Y-226750000D03*
X270500000Y-215000000D03*
X268250000Y-221000000D03*
X272000000Y-221750000D03*
X268250000Y-221750000D03*
X272000000Y-216500000D03*
X269000000Y-223750000D03*
X268250000Y-218750000D03*
X352700000Y-246200000D03*
X271250000Y-215750000D03*
X268250000Y-219500000D03*
X272000000Y-215750000D03*
X270500000Y-215750000D03*
X272000000Y-220250000D03*
X335750000Y-200000000D03*
X352700000Y-234200000D03*
X271250000Y-218000000D03*
X272000000Y-223250000D03*
X270500000Y-214250000D03*
X347750000Y-203000000D03*
X316250000Y-205500000D03*
X269000000Y-218000000D03*
X272000000Y-214250000D03*
X268250000Y-222500000D03*
X336250000Y-214250000D03*
X272000000Y-221000000D03*
X266750000Y-222500000D03*
X269750000Y-217250000D03*
X337250000Y-219000000D03*
X270500000Y-216500000D03*
X360500000Y-226750000D03*
X272000000Y-217250000D03*
X267500000Y-221000000D03*
X342750000Y-214250000D03*
X266750000Y-221750000D03*
X402425000Y-191325000D03*
X320000000Y-205000000D03*
X408675000Y-226875000D03*
X417220000Y-190780000D03*
X272000000Y-218000000D03*
X417220000Y-230780000D03*
X270500000Y-218000000D03*
X271250000Y-214250000D03*
X402425000Y-231325000D03*
X267500000Y-220250000D03*
X266750000Y-220250000D03*
X270500000Y-217250000D03*
X347800000Y-228950000D03*
X402425000Y-211325000D03*
X360500000Y-238750000D03*
X270500000Y-223750000D03*
X272000000Y-215000000D03*
X269750000Y-218000000D03*
X267500000Y-221750000D03*
%TO.N,Net-(U2-+)*%
X351950000Y-227050000D03*
%TO.N,Net-(Q7-E)*%
X347750000Y-227000000D03*
%TO.N,+24V*%
X222000000Y-180250000D03*
X225000000Y-175750000D03*
X222750000Y-178750000D03*
X234750000Y-202000000D03*
X253250000Y-212500000D03*
X222750000Y-175000000D03*
X223500000Y-181750000D03*
X222750000Y-178000000D03*
X222000000Y-182500000D03*
X236500000Y-202000000D03*
X233750000Y-232500000D03*
X223500000Y-180250000D03*
X225500000Y-223250000D03*
X222000000Y-178750000D03*
X223500000Y-177250000D03*
X224250000Y-177250000D03*
X222000000Y-177250000D03*
X223500000Y-175750000D03*
X237250000Y-202000000D03*
X224250000Y-180250000D03*
X225000000Y-180250000D03*
X235500000Y-202000000D03*
X222000000Y-176500000D03*
X222750000Y-176500000D03*
X233750000Y-233250000D03*
X397375010Y-173750000D03*
X225000000Y-175000000D03*
X225000000Y-176500000D03*
X222000000Y-175000000D03*
X222000000Y-178000000D03*
X223500000Y-176500000D03*
X223500000Y-183250000D03*
X222750000Y-177250000D03*
X222750000Y-183250000D03*
X222000000Y-181000000D03*
X396625010Y-173750000D03*
X222000000Y-183250000D03*
X225000000Y-177250000D03*
X234500000Y-232500000D03*
X223500000Y-175000000D03*
X222750000Y-182500000D03*
X222000000Y-181750000D03*
X277390005Y-227890005D03*
X222750000Y-180250000D03*
X222750000Y-181750000D03*
X225000000Y-181000000D03*
X224250000Y-175000000D03*
X222750000Y-175750000D03*
X223500000Y-182500000D03*
X224250000Y-175750000D03*
X222000000Y-175750000D03*
X222750000Y-181000000D03*
X222750000Y-179500000D03*
X234500000Y-233250000D03*
X277390005Y-239890005D03*
X224250000Y-176500000D03*
X222000000Y-179500000D03*
X223500000Y-181000000D03*
X224250000Y-181000000D03*
%TO.N,GNDD*%
X221750000Y-206000000D03*
X252750000Y-167500000D03*
X393375010Y-173750000D03*
X289750000Y-166000000D03*
X292390005Y-241250000D03*
X228250000Y-181750000D03*
X252750000Y-166750000D03*
X283390005Y-228000000D03*
X326750000Y-167500000D03*
X292390005Y-229250000D03*
X221750000Y-208500000D03*
X221750000Y-209750000D03*
X326000000Y-167500000D03*
X230500000Y-182500000D03*
X224250000Y-212250000D03*
X230500000Y-181750000D03*
X221750000Y-212250000D03*
X228250000Y-181000000D03*
X277390005Y-233140005D03*
X223000000Y-208500000D03*
X229250000Y-207250000D03*
X326750000Y-166750000D03*
X289750000Y-165250000D03*
X224250000Y-209750000D03*
X223000000Y-213500000D03*
X289750000Y-166750000D03*
X289750000Y-167500000D03*
X234500000Y-229750000D03*
X228000000Y-206000000D03*
X224250000Y-208500000D03*
X229750000Y-183250000D03*
X229000000Y-183250000D03*
X224250000Y-206000000D03*
X252750000Y-165250000D03*
X233750000Y-229750000D03*
X289000000Y-167500000D03*
X229000000Y-182500000D03*
X224250000Y-213500000D03*
X228250000Y-183250000D03*
X225500000Y-206000000D03*
X228250000Y-182500000D03*
X229750000Y-181000000D03*
X223000000Y-209750000D03*
X394125010Y-173750000D03*
X229750000Y-182500000D03*
X221750000Y-213500000D03*
X363750000Y-166000000D03*
X230500000Y-183250000D03*
X326750000Y-165250000D03*
X223000000Y-211000000D03*
X252000000Y-167500000D03*
X363750000Y-165250000D03*
X277390005Y-245140005D03*
X229000000Y-181750000D03*
X234500000Y-229000000D03*
X223000000Y-206000000D03*
X233750000Y-229000000D03*
X230500000Y-181000000D03*
X251750000Y-213750000D03*
X363750000Y-167500000D03*
X252750000Y-166000000D03*
X221750000Y-211000000D03*
X229750000Y-181750000D03*
X229000000Y-181000000D03*
X228000000Y-207250000D03*
X223000000Y-212250000D03*
X224250000Y-207250000D03*
X226750000Y-207250000D03*
X224250000Y-211000000D03*
X221750000Y-207250000D03*
X226750000Y-206000000D03*
X363750000Y-166750000D03*
X363000000Y-167500000D03*
X283390005Y-240000000D03*
X225500000Y-207250000D03*
X223000000Y-207250000D03*
X326750000Y-166000000D03*
%TO.N,GNDPWR*%
X435250000Y-169750000D03*
X427250000Y-164000000D03*
X413250000Y-169750000D03*
X414000000Y-169750000D03*
X425750000Y-164000000D03*
X430375000Y-206970000D03*
X426500000Y-170500000D03*
X426500000Y-164000000D03*
X425000000Y-164000000D03*
X430375000Y-226970000D03*
X432750000Y-169750000D03*
X436500000Y-171500000D03*
X415500000Y-169750000D03*
X424250000Y-164000000D03*
X412500000Y-169750000D03*
X428750000Y-164000000D03*
X414750000Y-169750000D03*
X428000000Y-164000000D03*
X430375000Y-186970000D03*
%TO.N,Net-(D17-K)*%
X427750000Y-173250000D03*
%TO.N,+3.3VP*%
X420250000Y-174750000D03*
X421750000Y-173250000D03*
X420500000Y-169750000D03*
X420250000Y-170500000D03*
X423500000Y-173250000D03*
X421750000Y-174750000D03*
X420250000Y-173250000D03*
X424000000Y-169750000D03*
X430250000Y-169750000D03*
X423250000Y-169750000D03*
X422250000Y-174000000D03*
X424750000Y-172750000D03*
X421250000Y-169750000D03*
X422750000Y-173250000D03*
X421750000Y-170500000D03*
X423250000Y-174000000D03*
X430280000Y-210780000D03*
X423500000Y-174750000D03*
X419750000Y-174000000D03*
X422250000Y-169750000D03*
X424250000Y-174750000D03*
X419750000Y-172750000D03*
X419750000Y-172000000D03*
X422750000Y-170500000D03*
X421000000Y-173250000D03*
X424750000Y-174000000D03*
X424750000Y-171250000D03*
X421000000Y-170500000D03*
X430280000Y-190780000D03*
X424250000Y-170500000D03*
X424250000Y-173250000D03*
X421250000Y-174000000D03*
X424750000Y-172000000D03*
X424000000Y-174000000D03*
X421000000Y-174750000D03*
X430280000Y-230780000D03*
X423500000Y-170500000D03*
X419750000Y-171250000D03*
X422750000Y-174750000D03*
X440950000Y-170550000D03*
X420500000Y-174000000D03*
%TO.N,Net-(Q10-C)*%
X347750000Y-239000000D03*
%TO.N,Net-(U3-+)*%
X351950000Y-239050000D03*
%TO.N,Net-(D81-K)*%
X436250000Y-233500000D03*
%TO.N,Net-(D81-A)*%
X433500000Y-233500000D03*
%TO.N,GND_CAN*%
X284250000Y-202750000D03*
X299465000Y-202785000D03*
%TO.N,+5VD*%
X229000000Y-176500000D03*
X226750000Y-175000000D03*
X228250000Y-175750000D03*
X226750000Y-175750000D03*
X227500000Y-176500000D03*
X228250000Y-176500000D03*
X228250000Y-175000000D03*
X227500000Y-175750000D03*
X229000000Y-175000000D03*
X229000000Y-175750000D03*
X226750000Y-176500000D03*
X227500000Y-175000000D03*
%TO.N,Net-(D21-Vin)*%
X296890005Y-231750000D03*
%TO.N,Net-(D21-GND)*%
X296890005Y-227000000D03*
%TO.N,Net-(D23-Vin)*%
X296890005Y-243750000D03*
%TO.N,Net-(D23-GND)*%
X296890005Y-239000000D03*
%TO.N,+5V*%
X263250000Y-224750000D03*
X264750000Y-224750000D03*
X264000000Y-225500000D03*
X262500000Y-227000000D03*
X263250000Y-226250000D03*
X265500000Y-224750000D03*
X264750000Y-225500000D03*
X264000000Y-227000000D03*
X265500000Y-226250000D03*
X262500000Y-224750000D03*
X265500000Y-225500000D03*
X263250000Y-227000000D03*
X264000000Y-226250000D03*
X262500000Y-225500000D03*
X265500000Y-227000000D03*
X264750000Y-227000000D03*
X262500000Y-226250000D03*
X263250000Y-225500000D03*
X264750000Y-226250000D03*
X357312500Y-240687500D03*
X264000000Y-224750000D03*
X357312500Y-228687500D03*
%TO.N,Net-(D6-K)*%
X436250000Y-193500000D03*
%TO.N,Net-(D6-A)*%
X433500000Y-193500000D03*
%TO.N,Net-(D22-K)*%
X261000000Y-231000000D03*
%TO.N,NRST*%
X340000000Y-214500000D03*
%TO.N,Net-(U5-VCAP_1)*%
X347750000Y-204000000D03*
%TO.N,Net-(U5-VCAP_2)*%
X336834620Y-199915380D03*
%TO.N,+1V0*%
X427500000Y-232750000D03*
X427500000Y-192750000D03*
X438750000Y-173250000D03*
X427500000Y-212750000D03*
%TO.N,Net-(D8-K)*%
X328250000Y-217250000D03*
%TO.N,Net-(D10-K)*%
X436250000Y-213500000D03*
%TO.N,Net-(D10-A)*%
X433500000Y-213500000D03*
%TO.N,Net-(D42-K)*%
X328250000Y-215000000D03*
%TO.N,Net-(D11-K)*%
X270000000Y-231000000D03*
%TO.N,Net-(D41-K)*%
X253250000Y-216500000D03*
%TO.N,/Current_1_measure*%
X350250000Y-231250000D03*
%TO.N,/Current_2_measure*%
X350250000Y-243250000D03*
%TD*%
%TO.N,GND*%
D75*
X415625000Y-212375000D02*
X415625000Y-214587500D01*
X259000000Y-183000000D02*
X258000000Y-183000000D01*
X295962500Y-185250000D02*
X295000000Y-185250000D01*
X345712500Y-222787500D02*
X344760000Y-222787500D01*
X404425000Y-212337500D02*
X404325000Y-212437500D01*
X406375000Y-212337500D02*
X404425000Y-212337500D01*
X404425000Y-232337500D02*
X404325000Y-232437500D01*
X409625000Y-190012500D02*
X409625000Y-190875000D01*
X406375000Y-211625000D02*
X406375000Y-212337500D01*
X417220000Y-206970000D02*
X418550000Y-206970000D01*
X417220000Y-186970000D02*
X418550000Y-186970000D01*
X415625000Y-232375000D02*
X415625000Y-234587500D01*
X370000000Y-183000000D02*
X369000000Y-183000000D01*
X406275000Y-192437500D02*
X406375000Y-192337500D01*
X376200000Y-187950000D02*
X374937500Y-187950000D01*
X406375000Y-191375000D02*
X406375000Y-192337500D01*
X415625000Y-214587500D02*
X415662500Y-214625000D01*
X416625000Y-194625000D02*
X415662500Y-194625000D01*
X355200000Y-229700000D02*
X355200000Y-228687500D01*
X265200000Y-187950000D02*
X263937500Y-187950000D01*
X296000000Y-183000000D02*
X295000000Y-183000000D01*
X333000000Y-183000000D02*
X332000000Y-183000000D01*
X344522500Y-222550000D02*
X344760000Y-222787500D01*
X342050000Y-222550000D02*
X342360000Y-222550000D01*
X417220000Y-226970000D02*
X418550000Y-226970000D01*
X258962500Y-185250000D02*
X258000000Y-185250000D01*
X409625000Y-230012500D02*
X409625000Y-230875000D01*
X415625000Y-194587500D02*
X415662500Y-194625000D01*
X340450000Y-220950000D02*
X342050000Y-222550000D01*
X350800000Y-246200000D02*
X350800000Y-245187500D01*
X416625000Y-234625000D02*
X415662500Y-234625000D01*
X416625000Y-214625000D02*
X415662500Y-214625000D01*
X355200000Y-241700000D02*
X355200000Y-240687500D01*
X406375000Y-231625000D02*
X406375000Y-232337500D01*
X340160000Y-220160000D02*
X340160000Y-220950000D01*
X351137500Y-228000000D02*
X352000000Y-228000000D01*
X330510000Y-209000000D02*
X329750000Y-209000000D01*
X320000000Y-201862500D02*
X320000000Y-202750000D01*
X415625000Y-192375000D02*
X415625000Y-194587500D01*
X369962500Y-185250000D02*
X369000000Y-185250000D01*
X342360000Y-222550000D02*
X344522500Y-222550000D01*
X339200000Y-187950000D02*
X337937500Y-187950000D01*
X332962500Y-185250000D02*
X332000000Y-185250000D01*
X336537500Y-220712500D02*
X337760000Y-220712500D01*
X409625000Y-210012500D02*
X409625000Y-210875000D01*
X350800000Y-234200000D02*
X350800000Y-233187500D01*
X351137500Y-240000000D02*
X352000000Y-240000000D01*
X406375000Y-232337500D02*
X404425000Y-232337500D01*
X302200000Y-187950000D02*
X300937500Y-187950000D01*
X404325000Y-192437500D02*
X406275000Y-192437500D01*
X415625000Y-234587500D02*
X415662500Y-234625000D01*
X340160000Y-220950000D02*
X340450000Y-220950000D01*
%TO.N,+3.3V*%
X266275000Y-184975000D02*
X266275000Y-183065000D01*
D76*
X336750000Y-212925000D02*
X336750000Y-213750000D01*
D75*
X300937500Y-186050000D02*
X302200000Y-186050000D01*
X377275000Y-184975000D02*
X377275000Y-183065000D01*
X402425000Y-211325000D02*
X402425000Y-212437500D01*
X352700000Y-246200000D02*
X352700000Y-245187500D01*
D76*
X336750000Y-213750000D02*
X336250000Y-214250000D01*
D75*
X374937500Y-186050000D02*
X376200000Y-186050000D01*
X320000000Y-204137500D02*
X320000000Y-205000000D01*
D76*
X346175000Y-210000000D02*
X347500000Y-210000000D01*
X342750000Y-212925000D02*
X342750000Y-214250000D01*
X335750000Y-200000000D02*
X336000000Y-200000000D01*
D75*
X340275000Y-184975000D02*
X340275000Y-183065000D01*
X339200000Y-186050000D02*
X340275000Y-184975000D01*
X352700000Y-234200000D02*
X352700000Y-233187500D01*
X408675000Y-186875000D02*
X408675000Y-187737500D01*
X347800000Y-240950000D02*
X348862500Y-240950000D01*
X337937500Y-186050000D02*
X339200000Y-186050000D01*
X402425000Y-231325000D02*
X402425000Y-232437500D01*
X302200000Y-186050000D02*
X303275000Y-184975000D01*
X263937500Y-186050000D02*
X265200000Y-186050000D01*
D76*
X336000000Y-200000000D02*
X336750000Y-200750000D01*
D75*
X347800000Y-228950000D02*
X348862500Y-228950000D01*
X408675000Y-226875000D02*
X408675000Y-227737500D01*
X408675000Y-206875000D02*
X408675000Y-207737500D01*
D76*
X347250000Y-203500000D02*
X346175000Y-203500000D01*
D75*
X303275000Y-184975000D02*
X303275000Y-183065000D01*
D76*
X334825000Y-211000000D02*
X333500000Y-211000000D01*
D75*
X270000000Y-228062500D02*
X270000000Y-226750000D01*
X417220000Y-210780000D02*
X418550000Y-210780000D01*
X265200000Y-186050000D02*
X266275000Y-184975000D01*
D76*
X336750000Y-200750000D02*
X336750000Y-201575000D01*
D75*
X376200000Y-186050000D02*
X377275000Y-184975000D01*
X316250000Y-206250000D02*
X316250000Y-205500000D01*
X417220000Y-190780000D02*
X418550000Y-190780000D01*
X402425000Y-191325000D02*
X402425000Y-192437500D01*
D76*
X347750000Y-203000000D02*
X347250000Y-203500000D01*
D75*
X417220000Y-230780000D02*
X418550000Y-230780000D01*
%TO.N,Net-(U5-PH1)*%
D76*
X339250000Y-215548950D02*
X342360000Y-218658950D01*
D75*
X344760000Y-220712500D02*
X342597500Y-220712500D01*
D76*
X342360000Y-218658950D02*
X342360000Y-220950000D01*
X339250000Y-212925000D02*
X339250000Y-215548950D01*
D75*
X342597500Y-220712500D02*
X342360000Y-220950000D01*
%TO.N,Net-(Q7-B)*%
X353300000Y-230050000D02*
X353300000Y-228687500D01*
X358950000Y-226812500D02*
X358950000Y-230050000D01*
X351137500Y-228950000D02*
X353037500Y-228950000D01*
X358950000Y-230050000D02*
X358500000Y-230500000D01*
X353750000Y-230500000D02*
X353300000Y-230050000D01*
X353037500Y-228950000D02*
X353300000Y-228687500D01*
X358500000Y-230500000D02*
X353750000Y-230500000D01*
%TO.N,Net-(U2-+)*%
X351950000Y-227050000D02*
X351137500Y-227050000D01*
%TO.N,Net-(Q7-E)*%
X348862500Y-227050000D02*
X345150000Y-227050000D01*
X348862500Y-226137500D02*
X348862500Y-227050000D01*
X349500000Y-225500000D02*
X348862500Y-226137500D01*
X354250000Y-226000000D02*
X353750000Y-225500000D01*
X354250000Y-226812500D02*
X354250000Y-226000000D01*
X353750000Y-225500000D02*
X349500000Y-225500000D01*
X357050000Y-226812500D02*
X354250000Y-226812500D01*
%TO.N,Net-(R75-Pad1)*%
X338750000Y-172500000D02*
X339500000Y-172500000D01*
X339500000Y-172500000D02*
X340275000Y-173275000D01*
X340275000Y-173275000D02*
X340275000Y-175445000D01*
%TO.N,Net-(D35-A)*%
X329062500Y-176500000D02*
X329062500Y-172937500D01*
X329062500Y-172937500D02*
X329500000Y-172500000D01*
X331750000Y-172500000D02*
X336750000Y-172500000D01*
X329500000Y-172500000D02*
X331750000Y-172500000D01*
%TO.N,Net-(U5-PH0)*%
D76*
X339450000Y-222550000D02*
X340160000Y-222550000D01*
X338750000Y-215756056D02*
X339110000Y-216116056D01*
D75*
X339922500Y-222787500D02*
X340160000Y-222550000D01*
D76*
X339110000Y-222210000D02*
X339450000Y-222550000D01*
X338750000Y-212925000D02*
X338750000Y-215756056D01*
X339110000Y-216116056D02*
X339110000Y-222210000D01*
D75*
X337760000Y-222787500D02*
X339922500Y-222787500D01*
%TO.N,+24V*%
X253250000Y-212500000D02*
X253250000Y-213812500D01*
X315750000Y-167000000D02*
X316000000Y-166750000D01*
X225500000Y-222250000D02*
X225500000Y-223250000D01*
D77*
X277390005Y-240937500D02*
X280315005Y-240937500D01*
D75*
X352750000Y-167000000D02*
X353000000Y-166750000D01*
X316000000Y-166750000D02*
X318500000Y-166750000D01*
X273562500Y-176500000D02*
X273562500Y-167687500D01*
X241750000Y-167000000D02*
X242000000Y-166750000D01*
X348250000Y-167000000D02*
X350250000Y-167000000D01*
X239250000Y-167000000D02*
X241750000Y-167000000D01*
X278750000Y-167000000D02*
X279000000Y-166750000D01*
X347562500Y-176500000D02*
X347562500Y-167687500D01*
X353000000Y-166750000D02*
X355500000Y-166750000D01*
X279000000Y-166750000D02*
X281500000Y-166750000D01*
X237250000Y-167000000D02*
X239250000Y-167000000D01*
X350250000Y-167000000D02*
X352750000Y-167000000D01*
D77*
X277390005Y-227890005D02*
X277390005Y-228937500D01*
D75*
X274250000Y-167000000D02*
X276250000Y-167000000D01*
D77*
X277390005Y-228937500D02*
X280315005Y-228937500D01*
D75*
X347562500Y-167687500D02*
X348250000Y-167000000D01*
X310562500Y-176500000D02*
X310562500Y-167687500D01*
X313250000Y-167000000D02*
X315750000Y-167000000D01*
X310562500Y-167687500D02*
X311250000Y-167000000D01*
X242000000Y-166750000D02*
X244500000Y-166750000D01*
X236562500Y-176500000D02*
X236562500Y-167687500D01*
X276250000Y-167000000D02*
X278750000Y-167000000D01*
D77*
X277390005Y-239890005D02*
X277390005Y-240937500D01*
D75*
X236562500Y-167687500D02*
X237250000Y-167000000D01*
X311250000Y-167000000D02*
X313250000Y-167000000D01*
X273562500Y-167687500D02*
X274250000Y-167000000D01*
%TO.N,GNDD*%
D77*
X294315005Y-241250000D02*
X292390005Y-241250000D01*
D75*
X299680000Y-176500000D02*
X300735000Y-175445000D01*
X252350000Y-172400000D02*
X252350000Y-175400000D01*
X289350000Y-172400000D02*
X289350000Y-175400000D01*
X372000000Y-176500000D02*
X373680000Y-176500000D01*
X335000000Y-176500000D02*
X336680000Y-176500000D01*
X373680000Y-176500000D02*
X374735000Y-175445000D01*
X261000000Y-176500000D02*
X262680000Y-176500000D01*
X336680000Y-176500000D02*
X337735000Y-175445000D01*
D77*
X277390005Y-245140005D02*
X277390005Y-244062500D01*
X277390005Y-233140005D02*
X277390005Y-232062500D01*
D75*
X262680000Y-176500000D02*
X263735000Y-175445000D01*
X227200000Y-182337500D02*
X227037500Y-182500000D01*
D77*
X283390005Y-240937500D02*
X283390005Y-240000000D01*
D75*
X326350000Y-172400000D02*
X326350000Y-175400000D01*
X298000000Y-176500000D02*
X299680000Y-176500000D01*
X363350000Y-172400000D02*
X363350000Y-175400000D01*
D77*
X294315005Y-229250000D02*
X292390005Y-229250000D01*
X283390005Y-228937500D02*
X283390005Y-228000000D01*
%TO.N,GNDPWR*%
D75*
X431257500Y-206970000D02*
X431625000Y-207337500D01*
D77*
X427525000Y-165600000D02*
X427750000Y-165375000D01*
D75*
X432750000Y-170500000D02*
X435212500Y-170500000D01*
X443337500Y-233375000D02*
X448125000Y-233375000D01*
X435250000Y-170462500D02*
X435250000Y-169750000D01*
X430375000Y-206970000D02*
X431257500Y-206970000D01*
X443337500Y-193375000D02*
X448125000Y-193375000D01*
X436500000Y-171500000D02*
X436287500Y-171500000D01*
X430375000Y-186970000D02*
X431257500Y-186970000D01*
X430375000Y-226970000D02*
X431257500Y-226970000D01*
X437612500Y-171500000D02*
X436500000Y-171500000D01*
X429200000Y-226970000D02*
X430375000Y-226970000D01*
X429200000Y-186970000D02*
X430375000Y-186970000D01*
X436287500Y-171500000D02*
X435250000Y-170462500D01*
X429200000Y-206970000D02*
X430375000Y-206970000D01*
X443337500Y-213375000D02*
X448125000Y-213375000D01*
X429200000Y-188240000D02*
X429200000Y-186970000D01*
X429200000Y-208240000D02*
X429200000Y-206970000D01*
X429200000Y-228240000D02*
X429200000Y-226970000D01*
X431257500Y-186970000D02*
X431625000Y-187337500D01*
X432750000Y-170500000D02*
X432750000Y-169750000D01*
X431257500Y-226970000D02*
X431625000Y-227337500D01*
%TO.N,Net-(R5-Pad1)*%
X439162500Y-193375000D02*
X437750000Y-191962500D01*
X436750000Y-196000000D02*
X437750000Y-195000000D01*
X437750000Y-195000000D02*
X437750000Y-191962500D01*
X427500000Y-196462500D02*
X429787500Y-196462500D01*
X439787500Y-193375000D02*
X439162500Y-193375000D01*
X429787500Y-196462500D02*
X430250000Y-196000000D01*
X430250000Y-196000000D02*
X436750000Y-196000000D01*
%TO.N,Net-(C49-Pad1)*%
X296525695Y-202785000D02*
X295313195Y-202785000D01*
X295313195Y-202785000D02*
X294313195Y-201785000D01*
X295313195Y-202785000D02*
X294313195Y-203785000D01*
%TO.N,Net-(D12-CANH)*%
X294313195Y-205785000D02*
X292785000Y-205785000D01*
X294313195Y-205785000D02*
X295215000Y-205785000D01*
X296965000Y-204035000D02*
X301193195Y-204035000D01*
X291963195Y-204963195D02*
X291963195Y-203435000D01*
X292785000Y-205785000D02*
X291963195Y-204963195D01*
X295215000Y-205785000D02*
X296965000Y-204035000D01*
%TO.N,Net-(D17-K)*%
X427750000Y-173250000D02*
X427750000Y-172437500D01*
%TO.N,+3.3VP*%
X440950000Y-170550000D02*
X439887500Y-170550000D01*
X430280000Y-190780000D02*
X429200000Y-190780000D01*
X430250000Y-170500000D02*
X430250000Y-169750000D01*
X430280000Y-230780000D02*
X429200000Y-230780000D01*
X430280000Y-210780000D02*
X429200000Y-210780000D01*
X427750000Y-170562500D02*
X430187500Y-170562500D01*
%TO.N,Net-(R63-Pad1)*%
X265500000Y-172500000D02*
X266275000Y-173275000D01*
X264750000Y-172500000D02*
X265500000Y-172500000D01*
X266275000Y-173275000D02*
X266275000Y-175445000D01*
%TO.N,Net-(D27-A)*%
X255062500Y-176500000D02*
X255062500Y-172937500D01*
X255062500Y-172937500D02*
X255500000Y-172500000D01*
X255500000Y-172500000D02*
X257750000Y-172500000D01*
X257750000Y-172500000D02*
X262750000Y-172500000D01*
%TO.N,Net-(D15-VIN)*%
X431625000Y-211375000D02*
X431625000Y-209412500D01*
X430250000Y-214000000D02*
X430250000Y-212750000D01*
X429200000Y-209510000D02*
X431527500Y-209510000D01*
X430250000Y-212750000D02*
X431625000Y-211375000D01*
%TO.N,Net-(D15-OUTN)*%
X418550000Y-208240000D02*
X416240000Y-208240000D01*
X416240000Y-208240000D02*
X415625000Y-207625000D01*
%TO.N,Net-(D15-OUTP)*%
X416240000Y-209510000D02*
X415625000Y-210125000D01*
X418550000Y-209510000D02*
X416240000Y-209510000D01*
%TO.N,Net-(Q10-C)*%
X354250000Y-238000000D02*
X354250000Y-238812500D01*
X348862500Y-238137500D02*
X349500000Y-237500000D01*
X348862500Y-239050000D02*
X348862500Y-238137500D01*
X357050000Y-238812500D02*
X354250000Y-238812500D01*
X353750000Y-237500000D02*
X354250000Y-238000000D01*
X348862500Y-239050000D02*
X345150000Y-239050000D01*
X349500000Y-237500000D02*
X353750000Y-237500000D01*
%TO.N,/Current_measure_2/M*%
X341850000Y-244350000D02*
X338750000Y-244350000D01*
X345000000Y-245300000D02*
X342800000Y-245300000D01*
X345000000Y-245300000D02*
X348700000Y-245300000D01*
X342800000Y-245300000D02*
X341850000Y-244350000D01*
%TO.N,Net-(D32-A)*%
X320000000Y-170250000D02*
X318500000Y-171750000D01*
X324050000Y-172400000D02*
X324050000Y-171300000D01*
X316500000Y-176500000D02*
X316500000Y-173500000D01*
X316250000Y-171750000D02*
X318500000Y-171750000D01*
X313250000Y-172500000D02*
X315500000Y-172500000D01*
X323000000Y-170250000D02*
X320000000Y-170250000D01*
X316500000Y-173500000D02*
X315500000Y-172500000D01*
X324050000Y-171300000D02*
X323000000Y-170250000D01*
X315500000Y-172500000D02*
X316250000Y-171750000D01*
%TO.N,Net-(D82-OUTP)*%
X418550000Y-229510000D02*
X416240000Y-229510000D01*
X416240000Y-229510000D02*
X415625000Y-230125000D01*
%TO.N,Net-(U33-+)*%
X410687500Y-230125000D02*
X410575000Y-230012500D01*
X413625000Y-230125000D02*
X410687500Y-230125000D01*
X413587500Y-234625000D02*
X413587500Y-230162500D01*
%TO.N,Net-(Q2-G)*%
X247790000Y-175500000D02*
X247790000Y-172540000D01*
X247790000Y-175500000D02*
X250250000Y-175500000D01*
%TO.N,Net-(R69-Pad1)*%
X301750000Y-172500000D02*
X302500000Y-172500000D01*
X303275000Y-173275000D02*
X303275000Y-175445000D01*
X302500000Y-172500000D02*
X303275000Y-173275000D01*
%TO.N,Net-(D31-A)*%
X292062500Y-172937500D02*
X292500000Y-172500000D01*
X292500000Y-172500000D02*
X294750000Y-172500000D01*
X292062500Y-176500000D02*
X292062500Y-172937500D01*
X294750000Y-172500000D02*
X299750000Y-172500000D01*
%TO.N,Net-(U32-+)*%
X410687500Y-210125000D02*
X410575000Y-210012500D01*
X413587500Y-214625000D02*
X413587500Y-210162500D01*
X413625000Y-210125000D02*
X410687500Y-210125000D01*
%TO.N,Net-(D39-A)*%
X366062500Y-172937500D02*
X366500000Y-172500000D01*
X366500000Y-172500000D02*
X368750000Y-172500000D01*
X366062500Y-176500000D02*
X366062500Y-172937500D01*
X368750000Y-172500000D02*
X373750000Y-172500000D01*
%TO.N,Net-(D24-A)*%
X246000000Y-170250000D02*
X244500000Y-171750000D01*
X239250000Y-172500000D02*
X241500000Y-172500000D01*
X242500000Y-173500000D02*
X241500000Y-172500000D01*
X249000000Y-170250000D02*
X246000000Y-170250000D01*
X250050000Y-172400000D02*
X250050000Y-171300000D01*
X241500000Y-172500000D02*
X242250000Y-171750000D01*
X242500000Y-176500000D02*
X242500000Y-173500000D01*
X250050000Y-171300000D02*
X249000000Y-170250000D01*
X242250000Y-171750000D02*
X244500000Y-171750000D01*
%TO.N,Net-(J1-Pin_2)*%
X321250000Y-211500000D02*
X321250000Y-208500000D01*
%TO.N,Net-(J1-Pin_3)*%
X318710000Y-208540000D02*
X318750000Y-208500000D01*
X318710000Y-211500000D02*
X318710000Y-208540000D01*
%TO.N,Net-(D5-A)*%
X316170000Y-208830000D02*
X316250000Y-208750000D01*
X316170000Y-211500000D02*
X316170000Y-208830000D01*
%TO.N,/Current_measure_1/M*%
X342800000Y-233300000D02*
X341850000Y-232350000D01*
X345000000Y-233300000D02*
X342800000Y-233300000D01*
X345000000Y-233300000D02*
X348700000Y-233300000D01*
X341850000Y-232350000D02*
X338750000Y-232350000D01*
%TO.N,Net-(R81-Pad1)*%
X375750000Y-172500000D02*
X376500000Y-172500000D01*
X376500000Y-172500000D02*
X377275000Y-173275000D01*
X377275000Y-173275000D02*
X377275000Y-175445000D01*
%TO.N,Net-(C12-Pad2)*%
X408625000Y-185375000D02*
X411125000Y-185375000D01*
X415662500Y-181912500D02*
X415662500Y-183125000D01*
X415125000Y-181375000D02*
X415662500Y-181912500D01*
X411125000Y-185375000D02*
X412125000Y-184375000D01*
X408675000Y-190012500D02*
X407625000Y-188962500D01*
X412125000Y-182000000D02*
X412750000Y-181375000D01*
X407625000Y-188962500D02*
X407625000Y-186375000D01*
X408675000Y-190012500D02*
X408675000Y-192325000D01*
X412125000Y-184375000D02*
X412125000Y-182000000D01*
X415625000Y-185375000D02*
X415625000Y-183162500D01*
X407625000Y-186375000D02*
X408625000Y-185375000D01*
X412750000Y-181375000D02*
X415125000Y-181375000D01*
%TO.N,Net-(U6-+)*%
X413587500Y-194625000D02*
X413587500Y-190162500D01*
X410687500Y-190125000D02*
X410575000Y-190012500D01*
X413625000Y-190125000D02*
X410687500Y-190125000D01*
%TO.N,Net-(U6--)*%
X410687500Y-187625000D02*
X410575000Y-187737500D01*
X413625000Y-187625000D02*
X410687500Y-187625000D01*
X413587500Y-183125000D02*
X413587500Y-187587500D01*
%TO.N,Net-(R3-Pad1)*%
X435250000Y-189087500D02*
X437700000Y-189087500D01*
%TO.N,Net-(D40-K)*%
X233750000Y-222250000D02*
X232250000Y-222250000D01*
X234350000Y-220250000D02*
X234350000Y-221650000D01*
X233720000Y-218720000D02*
X234350000Y-219350000D01*
X228500000Y-222250000D02*
X227962500Y-221712500D01*
X232250000Y-222250000D02*
X228500000Y-222250000D01*
X233720000Y-217540000D02*
X233720000Y-218720000D01*
X234350000Y-221650000D02*
X233750000Y-222250000D01*
X225470000Y-217540000D02*
X225470000Y-220220000D01*
X225500000Y-220250000D02*
X227962500Y-220250000D01*
X227962500Y-221712500D02*
X227962500Y-220250000D01*
X234350000Y-219350000D02*
X234350000Y-220250000D01*
%TO.N,Net-(D40-A)*%
X230030000Y-216220000D02*
X230500000Y-215750000D01*
X237650000Y-219350000D02*
X237650000Y-220250000D01*
X232250000Y-220250000D02*
X230037500Y-220250000D01*
X238250000Y-218750000D02*
X237650000Y-219350000D01*
X238280000Y-217540000D02*
X238280000Y-218470000D01*
X230030000Y-217540000D02*
X230030000Y-216220000D01*
X238280000Y-216280000D02*
X237750000Y-215750000D01*
X230030000Y-217540000D02*
X230030000Y-220242500D01*
X238280000Y-217540000D02*
X238280000Y-216280000D01*
X230500000Y-215750000D02*
X237750000Y-215750000D01*
X238280000Y-218470000D02*
X238250000Y-218500000D01*
X238250000Y-218500000D02*
X238250000Y-218750000D01*
%TO.N,Net-(C45-Pad2)*%
X412125000Y-204375000D02*
X412125000Y-202000000D01*
X412125000Y-202000000D02*
X412750000Y-201375000D01*
X407625000Y-208962500D02*
X407625000Y-206375000D01*
X411125000Y-205375000D02*
X412125000Y-204375000D01*
X408675000Y-210012500D02*
X408675000Y-212325000D01*
X415125000Y-201375000D02*
X415662500Y-201912500D01*
X407625000Y-206375000D02*
X408625000Y-205375000D01*
X408675000Y-210012500D02*
X407625000Y-208962500D01*
X415662500Y-201912500D02*
X415662500Y-203125000D01*
X412750000Y-201375000D02*
X415125000Y-201375000D01*
X415625000Y-205375000D02*
X415625000Y-203162500D01*
X408625000Y-205375000D02*
X411125000Y-205375000D01*
%TO.N,Net-(U32--)*%
X413587500Y-203125000D02*
X413587500Y-207587500D01*
X410687500Y-207625000D02*
X410575000Y-207737500D01*
X413625000Y-207625000D02*
X410687500Y-207625000D01*
%TO.N,Net-(U17-+)*%
X437612500Y-172450000D02*
X435337500Y-172450000D01*
X435250000Y-172537500D02*
X430287500Y-172537500D01*
%TO.N,Net-(Q10-B)*%
X358500000Y-242500000D02*
X353750000Y-242500000D01*
X353750000Y-242500000D02*
X353300000Y-242050000D01*
X358950000Y-242050000D02*
X358500000Y-242500000D01*
X353300000Y-242050000D02*
X353300000Y-240687500D01*
X358950000Y-238812500D02*
X358950000Y-242050000D01*
X353037500Y-240950000D02*
X353300000Y-240687500D01*
X351137500Y-240950000D02*
X353037500Y-240950000D01*
%TO.N,Net-(U3-+)*%
X351950000Y-239050000D02*
X351137500Y-239050000D01*
%TO.N,Net-(D29-K)*%
X275437500Y-176500000D02*
X277500000Y-176500000D01*
%TO.N,Net-(R134-Pad2)*%
X435250000Y-229087500D02*
X437700000Y-229087500D01*
%TO.N,Net-(R50-Pad1)*%
X437750000Y-226087500D02*
X435325000Y-226087500D01*
%TO.N,Net-(Q5-G)*%
X358790000Y-175500000D02*
X358790000Y-172540000D01*
X358790000Y-175500000D02*
X361250000Y-175500000D01*
%TO.N,Net-(D36-A)*%
X360000000Y-170250000D02*
X357000000Y-170250000D01*
X353500000Y-173500000D02*
X352500000Y-172500000D01*
X361050000Y-171300000D02*
X360000000Y-170250000D01*
X357000000Y-170250000D02*
X355500000Y-171750000D01*
X361050000Y-172400000D02*
X361050000Y-171300000D01*
X353250000Y-171750000D02*
X355500000Y-171750000D01*
X350250000Y-172500000D02*
X352500000Y-172500000D01*
X353500000Y-176500000D02*
X353500000Y-173500000D01*
X352500000Y-172500000D02*
X353250000Y-171750000D01*
%TO.N,Net-(D81-K)*%
X435487500Y-233500000D02*
X436250000Y-233500000D01*
%TO.N,Net-(D81-A)*%
X432512500Y-233500000D02*
X433500000Y-233500000D01*
%TO.N,Net-(D2-VIN)*%
X429200000Y-189510000D02*
X431527500Y-189510000D01*
X430250000Y-192750000D02*
X431625000Y-191375000D01*
X431625000Y-191375000D02*
X431625000Y-189412500D01*
X430250000Y-194000000D02*
X430250000Y-192750000D01*
%TO.N,Net-(R1-Pad1)*%
X439787500Y-182625000D02*
X438287500Y-182625000D01*
X438287500Y-182625000D02*
X437750000Y-183162500D01*
%TO.N,Net-(J3-Pin_1)*%
X446375000Y-184375000D02*
X448125000Y-184375000D01*
X443337500Y-182625000D02*
X444625000Y-182625000D01*
X444625000Y-182625000D02*
X446375000Y-184375000D01*
%TO.N,/CANL*%
D77*
X278850000Y-198000000D02*
X281500000Y-200650000D01*
D75*
X287437500Y-201800000D02*
X282650000Y-201800000D01*
D77*
X265400000Y-198000000D02*
X278850000Y-198000000D01*
D75*
X287772500Y-202135000D02*
X287437500Y-201800000D01*
X282650000Y-201800000D02*
X281500000Y-200650000D01*
X289663195Y-202135000D02*
X287772500Y-202135000D01*
D77*
X262750000Y-200650000D02*
X265400000Y-198000000D01*
%TO.N,/CANH*%
D75*
X287437500Y-203700000D02*
X282650000Y-203700000D01*
X289663195Y-203435000D02*
X287702500Y-203435000D01*
X282650000Y-203700000D02*
X281500000Y-204850000D01*
X287702500Y-203435000D02*
X287437500Y-203700000D01*
D77*
X262750000Y-204850000D02*
X265400000Y-207500000D01*
X265400000Y-207500000D02*
X278850000Y-207500000D01*
X278850000Y-207500000D02*
X281500000Y-204850000D01*
%TO.N,GND_CAN*%
D75*
X299465000Y-202785000D02*
X298600695Y-202785000D01*
X285562500Y-202750000D02*
X284250000Y-202750000D01*
%TO.N,Net-(D25-K)*%
X238437500Y-176500000D02*
X240500000Y-176500000D01*
%TO.N,Net-(R133-Pad1)*%
X436750000Y-236000000D02*
X437750000Y-235000000D01*
X439162500Y-233375000D02*
X437750000Y-231962500D01*
X437750000Y-235000000D02*
X437750000Y-231962500D01*
X427500000Y-236462500D02*
X429787500Y-236462500D01*
X429787500Y-236462500D02*
X430250000Y-236000000D01*
X439787500Y-233375000D02*
X439162500Y-233375000D01*
X430250000Y-236000000D02*
X436750000Y-236000000D01*
%TO.N,Net-(R72-Pad2)*%
X319250000Y-185250000D02*
X319250000Y-183120000D01*
%TO.N,Net-(Q4-G)*%
X321790000Y-175500000D02*
X324250000Y-175500000D01*
X321790000Y-175500000D02*
X321790000Y-172540000D01*
%TO.N,Net-(D28-A)*%
X279500000Y-176500000D02*
X279500000Y-173500000D01*
X278500000Y-172500000D02*
X279250000Y-171750000D01*
X286000000Y-170250000D02*
X283000000Y-170250000D01*
X276250000Y-172500000D02*
X278500000Y-172500000D01*
X287050000Y-171300000D02*
X286000000Y-170250000D01*
X279500000Y-173500000D02*
X278500000Y-172500000D01*
X283000000Y-170250000D02*
X281500000Y-171750000D01*
X287050000Y-172400000D02*
X287050000Y-171300000D01*
X279250000Y-171750000D02*
X281500000Y-171750000D01*
%TO.N,Net-(D12-CANL)*%
X294313195Y-199785000D02*
X292715000Y-199785000D01*
X296023195Y-201495000D02*
X294313195Y-199785000D01*
X291963195Y-200536805D02*
X291963195Y-202135000D01*
X301193195Y-201495000D02*
X296023195Y-201495000D01*
X292715000Y-199785000D02*
X291963195Y-200536805D01*
%TO.N,Net-(D39-K)*%
X367937500Y-176500000D02*
X370000000Y-176500000D01*
%TO.N,Net-(C60-Pad2)*%
X415125000Y-221375000D02*
X415662500Y-221912500D01*
X408675000Y-230012500D02*
X408675000Y-232325000D01*
X412750000Y-221375000D02*
X415125000Y-221375000D01*
X411125000Y-225375000D02*
X412125000Y-224375000D01*
X412125000Y-222000000D02*
X412750000Y-221375000D01*
X415625000Y-225375000D02*
X415625000Y-223162500D01*
X408625000Y-225375000D02*
X411125000Y-225375000D01*
X412125000Y-224375000D02*
X412125000Y-222000000D01*
X407625000Y-228962500D02*
X407625000Y-226375000D01*
X415662500Y-221912500D02*
X415662500Y-223125000D01*
X407625000Y-226375000D02*
X408625000Y-225375000D01*
X408675000Y-230012500D02*
X407625000Y-228962500D01*
%TO.N,Net-(C82-Pad1)*%
D77*
X286965005Y-231750000D02*
X283702505Y-231750000D01*
X283702505Y-231750000D02*
X283390005Y-232062500D01*
X280390005Y-231987500D02*
X283315005Y-231987500D01*
%TO.N,Net-(D82-VIN)*%
D75*
X430250000Y-234000000D02*
X430250000Y-232750000D01*
X431625000Y-231375000D02*
X431625000Y-229412500D01*
X429200000Y-229510000D02*
X431527500Y-229510000D01*
X430250000Y-232750000D02*
X431625000Y-231375000D01*
%TO.N,Net-(R66-Pad2)*%
X282250000Y-185250000D02*
X282250000Y-183120000D01*
%TO.N,Net-(Q3-G)*%
X284790000Y-175500000D02*
X284790000Y-172540000D01*
X284790000Y-175500000D02*
X287250000Y-175500000D01*
%TO.N,Net-(D21-Vin)*%
D77*
X294315005Y-231750000D02*
X296890005Y-231750000D01*
%TO.N,Net-(D21-GND)*%
X291640005Y-227000000D02*
X296890005Y-227000000D01*
X289390005Y-229250000D02*
X291640005Y-227000000D01*
X286965005Y-229250000D02*
X289390005Y-229250000D01*
%TO.N,Net-(D23-Vin)*%
X294315005Y-243750000D02*
X296890005Y-243750000D01*
%TO.N,Net-(D23-GND)*%
X291640005Y-239000000D02*
X296890005Y-239000000D01*
X286965005Y-241250000D02*
X289390005Y-241250000D01*
X289390005Y-241250000D02*
X291640005Y-239000000D01*
%TO.N,Net-(D82-OUTN)*%
D75*
X418550000Y-228240000D02*
X416240000Y-228240000D01*
X416240000Y-228240000D02*
X415625000Y-227625000D01*
%TO.N,Net-(U33--)*%
X413587500Y-223125000D02*
X413587500Y-227587500D01*
X410687500Y-227625000D02*
X410575000Y-227737500D01*
X413625000Y-227625000D02*
X410687500Y-227625000D01*
%TO.N,+5V*%
X357312500Y-240687500D02*
X358000000Y-240687500D01*
X357312500Y-228687500D02*
X358000000Y-228687500D01*
%TO.N,Net-(D2-OUTN)*%
X416240000Y-188240000D02*
X415625000Y-187625000D01*
X418550000Y-188240000D02*
X416240000Y-188240000D01*
%TO.N,Net-(D2-OUTP)*%
X416240000Y-189510000D02*
X415625000Y-190125000D01*
X418550000Y-189510000D02*
X416240000Y-189510000D01*
%TO.N,Net-(D6-K)*%
X435487500Y-193500000D02*
X436250000Y-193500000D01*
%TO.N,Net-(D6-A)*%
X432512500Y-193500000D02*
X433500000Y-193500000D01*
%TO.N,Net-(D27-K)*%
X256937500Y-176500000D02*
X259000000Y-176500000D01*
%TO.N,Net-(D33-K)*%
X312437500Y-176500000D02*
X314500000Y-176500000D01*
%TO.N,Net-(D22-K)*%
X261000000Y-229937500D02*
X261000000Y-231000000D01*
%TO.N,Net-(D42-A)*%
D76*
X337250000Y-214169239D02*
X336419239Y-215000000D01*
X336419239Y-215000000D02*
X331187500Y-215000000D01*
X337250000Y-212925000D02*
X337250000Y-214169239D01*
%TO.N,Net-(D8-A)*%
X337750000Y-212925000D02*
X337750000Y-214500000D01*
X335000000Y-217250000D02*
X331187500Y-217250000D01*
X337750000Y-214500000D02*
X335000000Y-217250000D01*
%TO.N,NRST*%
X339750000Y-212925000D02*
X339750000Y-214250000D01*
X339750000Y-214250000D02*
X340000000Y-214500000D01*
%TO.N,Net-(U5-VCAP_1)*%
X346175000Y-204000000D02*
X347750000Y-204000000D01*
%TO.N,/CAN_RXD_MCU*%
X307363195Y-203579365D02*
X307363195Y-205125000D01*
X337502691Y-198250000D02*
X319585787Y-198250000D01*
X338750000Y-201575000D02*
X338750000Y-199497308D01*
X338750000Y-199497308D02*
X337502691Y-198250000D01*
X315085787Y-202750000D02*
X308192560Y-202750000D01*
X307363195Y-205125000D02*
X308813195Y-206575000D01*
X308192560Y-202750000D02*
X307363195Y-203579365D01*
X319585787Y-198250000D02*
X315085787Y-202750000D01*
%TO.N,/CAN_TXD_MCU*%
X338250000Y-199704415D02*
X338250000Y-200696880D01*
X308813195Y-204035000D02*
X314507893Y-204035000D01*
X319792893Y-198750000D02*
X337295585Y-198750000D01*
X337295585Y-198750000D02*
X338250000Y-199704415D01*
X338250000Y-200696880D02*
X338250000Y-201575000D01*
X314507893Y-204035000D02*
X319792893Y-198750000D01*
%TO.N,/SWDIO*%
X320000000Y-199250000D02*
X319050000Y-200200000D01*
X337088479Y-199250000D02*
X320000000Y-199250000D01*
X337750000Y-199911521D02*
X337088479Y-199250000D01*
X319050000Y-200200000D02*
X319050000Y-201862500D01*
X337750000Y-201575000D02*
X337750000Y-199911521D01*
%TO.N,Net-(U5-VCAP_2)*%
X337250000Y-200330760D02*
X336834620Y-199915380D01*
X337250000Y-201575000D02*
X337250000Y-200330760D01*
%TO.N,/SWCLK*%
X334825000Y-203500000D02*
X332750000Y-203500000D01*
X320950000Y-200300000D02*
X320950000Y-201862500D01*
X332750000Y-203500000D02*
X329000000Y-199750000D01*
X329000000Y-199750000D02*
X321500000Y-199750000D01*
X321500000Y-199750000D02*
X320950000Y-200300000D01*
%TO.N,BOOT0*%
X334825000Y-209000000D02*
X332510000Y-209000000D01*
%TO.N,+1V0*%
D75*
X427500000Y-213537500D02*
X427500000Y-212750000D01*
X437612500Y-170550000D02*
X438274999Y-170550000D01*
X427500000Y-233537500D02*
X427500000Y-232750000D01*
X439887500Y-172450000D02*
X439050000Y-172450000D01*
X439050000Y-172450000D02*
X438750000Y-172750000D01*
X438274999Y-170550000D02*
X438750000Y-171025001D01*
X438750000Y-172750000D02*
X438750000Y-173250000D01*
X427500000Y-193537500D02*
X427500000Y-192750000D01*
X438750000Y-171025001D02*
X438750000Y-172750000D01*
%TO.N,Net-(C86-Pad1)*%
D77*
X286965005Y-243750000D02*
X283702505Y-243750000D01*
X280390005Y-243987500D02*
X283315005Y-243987500D01*
X283702505Y-243750000D02*
X283390005Y-244062500D01*
%TO.N,Net-(D31-K)*%
D75*
X293937500Y-176500000D02*
X296000000Y-176500000D01*
%TO.N,Net-(R29-Pad1)*%
X438287500Y-202625000D02*
X437750000Y-203162500D01*
X439787500Y-202625000D02*
X438287500Y-202625000D01*
%TO.N,Net-(J4-Pin_1)*%
X444625000Y-202625000D02*
X446375000Y-204375000D01*
X446375000Y-204375000D02*
X448125000Y-204375000D01*
X443337500Y-202625000D02*
X444625000Y-202625000D01*
%TO.N,Net-(R49-Pad1)*%
X439787500Y-222625000D02*
X438287500Y-222625000D01*
X438287500Y-222625000D02*
X437750000Y-223162500D01*
%TO.N,Net-(R78-Pad2)*%
X356250000Y-185250000D02*
X356250000Y-183120000D01*
%TO.N,Net-(R38-Pad1)*%
X429787500Y-216462500D02*
X430250000Y-216000000D01*
X427500000Y-216462500D02*
X429787500Y-216462500D01*
X439162500Y-213375000D02*
X437750000Y-211962500D01*
X430250000Y-216000000D02*
X436750000Y-216000000D01*
X439787500Y-213375000D02*
X439162500Y-213375000D01*
X437750000Y-215000000D02*
X437750000Y-211962500D01*
X436750000Y-216000000D02*
X437750000Y-215000000D01*
%TO.N,Net-(R32-Pad1)*%
X435250000Y-209087500D02*
X437700000Y-209087500D01*
%TO.N,Net-(J32-Pin_1)*%
X443337500Y-222625000D02*
X444625000Y-222625000D01*
X444625000Y-222625000D02*
X446375000Y-224375000D01*
X446375000Y-224375000D02*
X448125000Y-224375000D01*
%TO.N,Net-(D8-K)*%
X329312500Y-217250000D02*
X328250000Y-217250000D01*
%TO.N,Net-(D37-K)*%
X349437500Y-176500000D02*
X351500000Y-176500000D01*
%TO.N,Net-(R95-Pad1)*%
X320950000Y-206200000D02*
X321250000Y-206500000D01*
X320950000Y-204137500D02*
X320950000Y-206200000D01*
%TO.N,Net-(D10-K)*%
X435487500Y-213500000D02*
X436250000Y-213500000D01*
%TO.N,Net-(D10-A)*%
X432512500Y-213500000D02*
X433500000Y-213500000D01*
%TO.N,Net-(D35-K)*%
X330937500Y-176500000D02*
X333000000Y-176500000D01*
%TO.N,Net-(R60-Pad2)*%
X245250000Y-185250000D02*
X245250000Y-183120000D01*
%TO.N,Net-(R30-Pad1)*%
X437750000Y-206087500D02*
X435325000Y-206087500D01*
%TO.N,Net-(D42-K)*%
X329312500Y-215000000D02*
X328250000Y-215000000D01*
%TO.N,Net-(R54-Pad1)*%
X319050000Y-206200000D02*
X318750000Y-206500000D01*
X319050000Y-204137500D02*
X319050000Y-206200000D01*
%TO.N,Net-(D11-K)*%
X270000000Y-231000000D02*
X270000000Y-229937500D01*
%TO.N,Net-(D41-K)*%
X253250000Y-215687500D02*
X253250000Y-216500000D01*
%TO.N,Net-(R2-Pad1)*%
X437750000Y-186087500D02*
X435325000Y-186087500D01*
%TO.N,/Relay_FeedBack_1*%
D76*
X339750000Y-199083095D02*
X337916905Y-197250000D01*
D75*
X261037500Y-185975000D02*
X262062500Y-187000000D01*
D76*
X313957106Y-191250000D02*
X271000000Y-191250000D01*
D75*
X261037500Y-185250000D02*
X261037500Y-185975000D01*
D76*
X271000000Y-191250000D02*
X266750000Y-187000000D01*
D75*
X261000000Y-183000000D02*
X261000000Y-185212500D01*
X263735000Y-183065000D02*
X261065000Y-183065000D01*
D76*
X337916905Y-197250000D02*
X319957106Y-197250000D01*
X339750000Y-201575000D02*
X339750000Y-199083095D01*
X266750000Y-187000000D02*
X262062500Y-187000000D01*
X319957106Y-197250000D02*
X313957106Y-191250000D01*
%TO.N,/Relay_Control_2*%
X282250000Y-189000000D02*
X282250000Y-187250000D01*
X340250000Y-198875989D02*
X338124011Y-196750000D01*
X284000000Y-190750000D02*
X282250000Y-189000000D01*
X338124011Y-196750000D02*
X320250000Y-196750000D01*
X340250000Y-201575000D02*
X340250000Y-198875989D01*
X314250000Y-190750000D02*
X284000000Y-190750000D01*
X320250000Y-196750000D02*
X314250000Y-190750000D01*
%TO.N,/Relay_Control_1*%
X339250000Y-199290201D02*
X337709799Y-197750000D01*
X313750000Y-191750000D02*
X248000000Y-191750000D01*
X245250000Y-189000000D02*
X245250000Y-187250000D01*
X337709799Y-197750000D02*
X319750000Y-197750000D01*
X339250000Y-201575000D02*
X339250000Y-199290201D01*
X248000000Y-191750000D02*
X245250000Y-189000000D01*
X319750000Y-197750000D02*
X313750000Y-191750000D01*
%TO.N,/Relay_FeedBack_2*%
X340750000Y-201575000D02*
X340750000Y-198668882D01*
X307250000Y-190250000D02*
X304000000Y-187000000D01*
X314500000Y-190250000D02*
X307250000Y-190250000D01*
X338331118Y-196250000D02*
X320500000Y-196250000D01*
X304000000Y-187000000D02*
X299062500Y-187000000D01*
D75*
X298037500Y-185250000D02*
X298037500Y-185975000D01*
D76*
X340750000Y-198668882D02*
X338540558Y-196459441D01*
D75*
X300735000Y-183065000D02*
X298065000Y-183065000D01*
D76*
X320500000Y-196250000D02*
X314500000Y-190250000D01*
D75*
X298037500Y-185975000D02*
X299062500Y-187000000D01*
X298000000Y-183000000D02*
X298000000Y-185212500D01*
D76*
X338540558Y-196459441D02*
X338331118Y-196250000D01*
%TO.N,/Relay_FeedBack_3*%
X339750000Y-187000000D02*
X336062500Y-187000000D01*
D75*
X337735000Y-183065000D02*
X335065000Y-183065000D01*
X335037500Y-185250000D02*
X335037500Y-185975000D01*
X335000000Y-183000000D02*
X335000000Y-185212500D01*
X335037500Y-185975000D02*
X336062500Y-187000000D01*
D76*
X341750000Y-189000000D02*
X339750000Y-187000000D01*
X341750000Y-201575000D02*
X341750000Y-189000000D01*
%TO.N,/Relay_FeedBack_4*%
D75*
X372037500Y-185975000D02*
X373062500Y-187000000D01*
X374735000Y-183065000D02*
X372065000Y-183065000D01*
X372000000Y-183000000D02*
X372000000Y-185212500D01*
X372037500Y-185250000D02*
X372037500Y-185975000D01*
D76*
X345207106Y-196250000D02*
X352500000Y-196250000D01*
X361750000Y-187000000D02*
X373062500Y-187000000D01*
X352500000Y-196250000D02*
X361750000Y-187000000D01*
X342750000Y-198707106D02*
X345207106Y-196250000D01*
X342750000Y-201575000D02*
X342750000Y-198707106D01*
%TO.N,/Relay_Control_3*%
X341250000Y-201575000D02*
X341250000Y-198461775D01*
X341250000Y-198461775D02*
X338538224Y-195750000D01*
X319250000Y-194292894D02*
X319250000Y-187250000D01*
X338538224Y-195750000D02*
X320707106Y-195750000D01*
X320707106Y-195750000D02*
X319250000Y-194292894D01*
%TO.N,/Relay_Control_4*%
X356250000Y-191750000D02*
X356250000Y-187250000D01*
X342250000Y-201575000D02*
X342250000Y-198500000D01*
X342250000Y-198500000D02*
X345000000Y-195750000D01*
X352250000Y-195750000D02*
X356250000Y-191750000D01*
X345000000Y-195750000D02*
X352250000Y-195750000D01*
%TO.N,/VDC_1_measure*%
X353750000Y-206500000D02*
X365937500Y-194312500D01*
D75*
X403475000Y-194412500D02*
X403375000Y-194312500D01*
D76*
X365937500Y-194312500D02*
X403375000Y-194312500D01*
X346175000Y-206500000D02*
X353750000Y-206500000D01*
D75*
X406375000Y-194412500D02*
X403475000Y-194412500D01*
X408625000Y-194375000D02*
X406412500Y-194375000D01*
%TO.N,/VDC_2_measure*%
X403475000Y-214412500D02*
X403375000Y-214312500D01*
D76*
X346175000Y-207000000D02*
X353750000Y-207000000D01*
D75*
X408625000Y-214375000D02*
X406412500Y-214375000D01*
X406375000Y-214412500D02*
X403475000Y-214412500D01*
D76*
X361062500Y-214312500D02*
X403375000Y-214312500D01*
X353750000Y-207000000D02*
X361062500Y-214312500D01*
%TO.N,/VDC_3_measure*%
X346175000Y-207500000D02*
X353500000Y-207500000D01*
D75*
X408625000Y-234375000D02*
X406412500Y-234375000D01*
X403475000Y-234412500D02*
X403375000Y-234312500D01*
X406375000Y-234412500D02*
X403475000Y-234412500D01*
D76*
X380312500Y-234312500D02*
X403375000Y-234312500D01*
X353500000Y-207500000D02*
X380312500Y-234312500D01*
%TO.N,/Current_1_measure*%
D75*
X351687500Y-231250000D02*
X351750000Y-231312500D01*
X348750000Y-231250000D02*
X351687500Y-231250000D01*
D76*
X360937500Y-231312500D02*
X351750000Y-231312500D01*
X353250000Y-209000000D02*
X362500000Y-218250000D01*
X362500000Y-218250000D02*
X362500000Y-229750000D01*
X346175000Y-209000000D02*
X353250000Y-209000000D01*
X362500000Y-229750000D02*
X360937500Y-231312500D01*
%TO.N,/Current_2_measure*%
X363000000Y-241000000D02*
X360687500Y-243312500D01*
X353500000Y-208500000D02*
X363000000Y-218000000D01*
X346175000Y-208500000D02*
X353500000Y-208500000D01*
X363000000Y-218000000D02*
X363000000Y-241000000D01*
D75*
X351687500Y-243250000D02*
X351750000Y-243312500D01*
X348750000Y-243250000D02*
X351687500Y-243250000D01*
D76*
X360687500Y-243312500D02*
X351750000Y-243312500D01*
%TD*%
%TA.AperFunction,Conductor*%
%TO.N,-24V_IN*%
G36*
X240745903Y-193000264D02*
G01*
X240754033Y-193000797D01*
X240762074Y-193001589D01*
X240855173Y-193013846D01*
X240871065Y-193017007D01*
X240886645Y-193021181D01*
X240901995Y-193026392D01*
X240977411Y-193057630D01*
X240991953Y-193064802D01*
X241005914Y-193072862D01*
X241019401Y-193081874D01*
X241082991Y-193130669D01*
X241084154Y-193131561D01*
X241096348Y-193142255D01*
X241107742Y-193153649D01*
X241118437Y-193165844D01*
X241168126Y-193230600D01*
X241177137Y-193244086D01*
X241185194Y-193258041D01*
X241192368Y-193272589D01*
X241223603Y-193347998D01*
X241228815Y-193363351D01*
X241232988Y-193378922D01*
X241236154Y-193394836D01*
X241248409Y-193487921D01*
X241249204Y-193495982D01*
X241249734Y-193504080D01*
X241250000Y-193512178D01*
X241250000Y-213987819D01*
X241249734Y-213995938D01*
X241249204Y-214004015D01*
X241248409Y-214012082D01*
X241236154Y-214105163D01*
X241232988Y-214121076D01*
X241228815Y-214136647D01*
X241223603Y-214152000D01*
X241192368Y-214227409D01*
X241185194Y-214241957D01*
X241177137Y-214255912D01*
X241168126Y-214269398D01*
X241118437Y-214334154D01*
X241107742Y-214346349D01*
X241096349Y-214357742D01*
X241084154Y-214368437D01*
X241019398Y-214418126D01*
X241005912Y-214427137D01*
X240991957Y-214435194D01*
X240977409Y-214442368D01*
X240902000Y-214473603D01*
X240886647Y-214478815D01*
X240871076Y-214482988D01*
X240855163Y-214486154D01*
X240771084Y-214497224D01*
X240769398Y-214497446D01*
X240768060Y-214497622D01*
X240762063Y-214498411D01*
X240754015Y-214499204D01*
X240753484Y-214499238D01*
X240745919Y-214499734D01*
X240737819Y-214500000D01*
X233262179Y-214500000D01*
X233254073Y-214499734D01*
X233245996Y-214499204D01*
X233237931Y-214498410D01*
X233228921Y-214497224D01*
X233228918Y-214497224D01*
X233144835Y-214486154D01*
X233128922Y-214482988D01*
X233113351Y-214478815D01*
X233097998Y-214473603D01*
X233022589Y-214442368D01*
X233008041Y-214435194D01*
X232994086Y-214427137D01*
X232980600Y-214418126D01*
X232915844Y-214368437D01*
X232903649Y-214357742D01*
X232892256Y-214346349D01*
X232881561Y-214334154D01*
X232831872Y-214269398D01*
X232822861Y-214255912D01*
X232814804Y-214241957D01*
X232807630Y-214227410D01*
X232776394Y-214152000D01*
X232771181Y-214136643D01*
X232767010Y-214121076D01*
X232767007Y-214121065D01*
X232763846Y-214105173D01*
X232751589Y-214012074D01*
X232750796Y-214004030D01*
X232750264Y-213995905D01*
X232750000Y-213987820D01*
X232750000Y-208250000D01*
X228250000Y-203750000D01*
X228042893Y-203750000D01*
X221304333Y-203750000D01*
X221304328Y-203749999D01*
X221304326Y-203750000D01*
X221269392Y-203744975D01*
X221254393Y-203740570D01*
X221195647Y-203702827D01*
X221195618Y-203702793D01*
X221195617Y-203702793D01*
X221195616Y-203702791D01*
X221194460Y-203701458D01*
X221166980Y-203646583D01*
X221165335Y-203639021D01*
X221162503Y-203612668D01*
X221162503Y-200828710D01*
X221849500Y-200828710D01*
X221849500Y-201071288D01*
X221879110Y-201296211D01*
X221881161Y-201311785D01*
X221929271Y-201491334D01*
X221943947Y-201546104D01*
X222036772Y-201770203D01*
X222036773Y-201770207D01*
X222036780Y-201770220D01*
X222158060Y-201980283D01*
X222158062Y-201980286D01*
X222158281Y-201980615D01*
X222159284Y-201981879D01*
X222305726Y-202172728D01*
X222305730Y-202172733D01*
X222305733Y-202172736D01*
X222305739Y-202172743D01*
X222305747Y-202172751D01*
X222477242Y-202344247D01*
X222477256Y-202344260D01*
X222477262Y-202344265D01*
X222669711Y-202491936D01*
X222879788Y-202613224D01*
X223103900Y-202706054D01*
X223338211Y-202768838D01*
X223518586Y-202792584D01*
X223578710Y-202800500D01*
X223578711Y-202800500D01*
X223578712Y-202800500D01*
X224421283Y-202800500D01*
X224421289Y-202800500D01*
X224469388Y-202794167D01*
X224661789Y-202768838D01*
X224896100Y-202706054D01*
X225120212Y-202613224D01*
X225330289Y-202491936D01*
X225522738Y-202344265D01*
X225694265Y-202172738D01*
X225841936Y-201980289D01*
X225963224Y-201770212D01*
X226056054Y-201546100D01*
X226118838Y-201311789D01*
X226150500Y-201071288D01*
X226150500Y-200828712D01*
X226150500Y-200828710D01*
X227349500Y-200828710D01*
X227349500Y-201071288D01*
X227379110Y-201296211D01*
X227381161Y-201311785D01*
X227429271Y-201491334D01*
X227443947Y-201546104D01*
X227536772Y-201770203D01*
X227536773Y-201770207D01*
X227536780Y-201770220D01*
X227658060Y-201980283D01*
X227658062Y-201980286D01*
X227658281Y-201980615D01*
X227659284Y-201981879D01*
X227805726Y-202172728D01*
X227805730Y-202172733D01*
X227805733Y-202172736D01*
X227805739Y-202172743D01*
X227805747Y-202172751D01*
X227977242Y-202344247D01*
X227977256Y-202344260D01*
X227977262Y-202344265D01*
X228169711Y-202491936D01*
X228379788Y-202613224D01*
X228603900Y-202706054D01*
X228838211Y-202768838D01*
X229018586Y-202792584D01*
X229078710Y-202800500D01*
X229078711Y-202800500D01*
X229078712Y-202800500D01*
X229921283Y-202800500D01*
X229921289Y-202800500D01*
X229969388Y-202794167D01*
X230161789Y-202768838D01*
X230396100Y-202706054D01*
X230620212Y-202613224D01*
X230830289Y-202491936D01*
X231022738Y-202344265D01*
X231194265Y-202172738D01*
X231317467Y-202012178D01*
X233744500Y-202012178D01*
X233744500Y-206737820D01*
X233744769Y-206754317D01*
X233744770Y-206754350D01*
X233745032Y-206762390D01*
X233745037Y-206762491D01*
X233745844Y-206778933D01*
X233745986Y-206781110D01*
X233746376Y-206787067D01*
X233747732Y-206803603D01*
X233748531Y-206811702D01*
X233750410Y-206828030D01*
X233762669Y-206921142D01*
X233768057Y-206953787D01*
X233770169Y-206964405D01*
X233771219Y-206969680D01*
X233771228Y-206969718D01*
X233778735Y-207001913D01*
X233782900Y-207017458D01*
X233792511Y-207049142D01*
X233797720Y-207064486D01*
X233797721Y-207064488D01*
X233809373Y-207095447D01*
X233840609Y-207170857D01*
X233840619Y-207170879D01*
X233854249Y-207200963D01*
X233854263Y-207200992D01*
X233861437Y-207215539D01*
X233877029Y-207244709D01*
X233879917Y-207249711D01*
X233885092Y-207258675D01*
X233902546Y-207286743D01*
X233902552Y-207286752D01*
X233911563Y-207300238D01*
X233926564Y-207321171D01*
X233930839Y-207327137D01*
X233980514Y-207391874D01*
X234001511Y-207417459D01*
X234012217Y-207429667D01*
X234034810Y-207453788D01*
X234046209Y-207465187D01*
X234070330Y-207487780D01*
X234070345Y-207487793D01*
X234082540Y-207498488D01*
X234108115Y-207519477D01*
X234108123Y-207519483D01*
X234172860Y-207569158D01*
X234172868Y-207569164D01*
X234172871Y-207569166D01*
X234199760Y-207588435D01*
X234213246Y-207597446D01*
X234213253Y-207597450D01*
X234213254Y-207597451D01*
X234241340Y-207614916D01*
X234255284Y-207622967D01*
X234284452Y-207638557D01*
X234284471Y-207638567D01*
X234299019Y-207645741D01*
X234329145Y-207659390D01*
X234404554Y-207690625D01*
X234435500Y-207702273D01*
X234450853Y-207707485D01*
X234482496Y-207717085D01*
X234494274Y-207720241D01*
X234498070Y-207721259D01*
X234524392Y-207727397D01*
X234530283Y-207728771D01*
X234535814Y-207729871D01*
X234546179Y-207731934D01*
X234546190Y-207731935D01*
X234546196Y-207731937D01*
X234578856Y-207737330D01*
X234605657Y-207740858D01*
X234671950Y-207749586D01*
X234677094Y-207750177D01*
X234688404Y-207751478D01*
X234694449Y-207752073D01*
X234696497Y-207752275D01*
X234712889Y-207753619D01*
X234716579Y-207753860D01*
X234720974Y-207754149D01*
X234737494Y-207754962D01*
X234745600Y-207755228D01*
X234752047Y-207755333D01*
X234762157Y-207755500D01*
X237237819Y-207755500D01*
X237237843Y-207755500D01*
X237254391Y-207755229D01*
X237258526Y-207755092D01*
X237262510Y-207754962D01*
X237278991Y-207754151D01*
X237286143Y-207753682D01*
X237286316Y-207753671D01*
X237286332Y-207753669D01*
X237286556Y-207753655D01*
X237286555Y-207753651D01*
X237303584Y-207752268D01*
X237311632Y-207751475D01*
X237328045Y-207749586D01*
X237421145Y-207737329D01*
X237453802Y-207731937D01*
X237453807Y-207731935D01*
X237453819Y-207731934D01*
X237460023Y-207730699D01*
X237469715Y-207728771D01*
X237501931Y-207721258D01*
X237517502Y-207717085D01*
X237549145Y-207707485D01*
X237564498Y-207702273D01*
X237595444Y-207690625D01*
X237670853Y-207659390D01*
X237700979Y-207645741D01*
X237715527Y-207638567D01*
X237744709Y-207622969D01*
X237744713Y-207622967D01*
X237758657Y-207614916D01*
X237758656Y-207614916D01*
X237758664Y-207614912D01*
X237786752Y-207597446D01*
X237800238Y-207588435D01*
X237827127Y-207569166D01*
X237891883Y-207519477D01*
X237917458Y-207498488D01*
X237929653Y-207487793D01*
X237953791Y-207465184D01*
X237965184Y-207453791D01*
X237987793Y-207429653D01*
X237998488Y-207417458D01*
X238019477Y-207391883D01*
X238069166Y-207327127D01*
X238088435Y-207300238D01*
X238097446Y-207286752D01*
X238114912Y-207258664D01*
X238122969Y-207244709D01*
X238138567Y-207215527D01*
X238145741Y-207200979D01*
X238159390Y-207170853D01*
X238190625Y-207095444D01*
X238202273Y-207064498D01*
X238207485Y-207049145D01*
X238217085Y-207017502D01*
X238221258Y-207001931D01*
X238228771Y-206969715D01*
X238231937Y-206953802D01*
X238237329Y-206921147D01*
X238249584Y-206828066D01*
X238251472Y-206811659D01*
X238252267Y-206803592D01*
X238253619Y-206787114D01*
X238253619Y-206787107D01*
X238253623Y-206787064D01*
X238254147Y-206779062D01*
X238254149Y-206779037D01*
X238254963Y-206762491D01*
X238255229Y-206754372D01*
X238255500Y-206737819D01*
X238255500Y-202012178D01*
X238255230Y-201995677D01*
X238255229Y-201995606D01*
X238255054Y-201990295D01*
X238254962Y-201987484D01*
X238254961Y-201987457D01*
X238254157Y-201971099D01*
X238254149Y-201970981D01*
X238253625Y-201962969D01*
X238252263Y-201946369D01*
X238251470Y-201938333D01*
X238251468Y-201938308D01*
X238249584Y-201921939D01*
X238237329Y-201828854D01*
X238231938Y-201796203D01*
X238228772Y-201780289D01*
X238221258Y-201748067D01*
X238217085Y-201732496D01*
X238207485Y-201700853D01*
X238202273Y-201685500D01*
X238190625Y-201654554D01*
X238159390Y-201579145D01*
X238145741Y-201549019D01*
X238138567Y-201534471D01*
X238138557Y-201534452D01*
X238122967Y-201505284D01*
X238114916Y-201491340D01*
X238097451Y-201463254D01*
X238088456Y-201449792D01*
X238088435Y-201449760D01*
X238069166Y-201422871D01*
X238019477Y-201358115D01*
X237998488Y-201332540D01*
X237987793Y-201320345D01*
X237987784Y-201320335D01*
X237987780Y-201320330D01*
X237965187Y-201296209D01*
X237953802Y-201284824D01*
X237929640Y-201262193D01*
X237917462Y-201251512D01*
X237891878Y-201230516D01*
X237827151Y-201180848D01*
X237817747Y-201174109D01*
X237800242Y-201161566D01*
X237786753Y-201152553D01*
X237758678Y-201135095D01*
X237758635Y-201135068D01*
X237744703Y-201127025D01*
X237715563Y-201111449D01*
X237715520Y-201111428D01*
X237701005Y-201104269D01*
X237701006Y-201104269D01*
X237700995Y-201104264D01*
X237670848Y-201090604D01*
X237595460Y-201059378D01*
X237595452Y-201059375D01*
X237595440Y-201059370D01*
X237564493Y-201047722D01*
X237564481Y-201047718D01*
X237564468Y-201047713D01*
X237549156Y-201042515D01*
X237549107Y-201042500D01*
X237517459Y-201032900D01*
X237514674Y-201032154D01*
X237501874Y-201028724D01*
X237469677Y-201021217D01*
X237453812Y-201018062D01*
X237453788Y-201018058D01*
X237421155Y-201012671D01*
X237421150Y-201012670D01*
X237421142Y-201012669D01*
X237328058Y-201000414D01*
X237311613Y-200998521D01*
X237303578Y-200997730D01*
X237287113Y-200996380D01*
X237279001Y-200995848D01*
X237262375Y-200995031D01*
X237254357Y-200994770D01*
X237254352Y-200994769D01*
X237254324Y-200994769D01*
X237237821Y-200994500D01*
X237237793Y-200994500D01*
X234762208Y-200994500D01*
X234762179Y-200994500D01*
X234745680Y-200994769D01*
X234745652Y-200994769D01*
X234745646Y-200994770D01*
X234737618Y-200995031D01*
X234721600Y-200995818D01*
X234721022Y-200995847D01*
X234721019Y-200995847D01*
X234720982Y-200995849D01*
X234712934Y-200996376D01*
X234696394Y-200997733D01*
X234688332Y-200998528D01*
X234671959Y-201000411D01*
X234578859Y-201012667D01*
X234546194Y-201018061D01*
X234530304Y-201021222D01*
X234498083Y-201028735D01*
X234482549Y-201032897D01*
X234450885Y-201042500D01*
X234435558Y-201047701D01*
X234404571Y-201059362D01*
X234329110Y-201090619D01*
X234298967Y-201104279D01*
X234284469Y-201111428D01*
X234255300Y-201127020D01*
X234241319Y-201135093D01*
X234213207Y-201152575D01*
X234199754Y-201161565D01*
X234172878Y-201180826D01*
X234108102Y-201230530D01*
X234082525Y-201251521D01*
X234070362Y-201262188D01*
X234046197Y-201284821D01*
X234034805Y-201296213D01*
X234012215Y-201320331D01*
X234001550Y-201332491D01*
X233980532Y-201358099D01*
X233930825Y-201422878D01*
X233911539Y-201449792D01*
X233902527Y-201463281D01*
X233885080Y-201491343D01*
X233877006Y-201505327D01*
X233861429Y-201534472D01*
X233854271Y-201548989D01*
X233854261Y-201549009D01*
X233854258Y-201549017D01*
X233849379Y-201559783D01*
X233840603Y-201579154D01*
X233809368Y-201654562D01*
X233797726Y-201685495D01*
X233792512Y-201700854D01*
X233782910Y-201732506D01*
X233778735Y-201748086D01*
X233771226Y-201780293D01*
X233768059Y-201796212D01*
X233762668Y-201828865D01*
X233750414Y-201921942D01*
X233748527Y-201938329D01*
X233747735Y-201946365D01*
X233746378Y-201962917D01*
X233745849Y-201970981D01*
X233745031Y-201987623D01*
X233744772Y-201995582D01*
X233744769Y-201995677D01*
X233744500Y-202012178D01*
X231317467Y-202012178D01*
X231341936Y-201980289D01*
X231463224Y-201770212D01*
X231556054Y-201546100D01*
X231618838Y-201311789D01*
X231650500Y-201071288D01*
X231650500Y-200828712D01*
X231618838Y-200588211D01*
X231556054Y-200353900D01*
X231463224Y-200129788D01*
X231341936Y-199919711D01*
X231194265Y-199727262D01*
X231194260Y-199727256D01*
X231194259Y-199727255D01*
X231194247Y-199727242D01*
X231022751Y-199555747D01*
X231022743Y-199555739D01*
X231022736Y-199555733D01*
X231022733Y-199555730D01*
X231022728Y-199555726D01*
X230831879Y-199409284D01*
X230830615Y-199408281D01*
X230830286Y-199408062D01*
X230830283Y-199408060D01*
X230620220Y-199286780D01*
X230620207Y-199286773D01*
X230620203Y-199286772D01*
X230396104Y-199193947D01*
X230161781Y-199131160D01*
X229921290Y-199099500D01*
X229921289Y-199099500D01*
X229921288Y-199099500D01*
X229078712Y-199099500D01*
X229078711Y-199099500D01*
X229078710Y-199099500D01*
X228838217Y-199131160D01*
X228603894Y-199193947D01*
X228379790Y-199286774D01*
X228379782Y-199286778D01*
X228169706Y-199408067D01*
X228169697Y-199408073D01*
X227977270Y-199555726D01*
X227977255Y-199555740D01*
X227977247Y-199555747D01*
X227805747Y-199727247D01*
X227805740Y-199727255D01*
X227805726Y-199727270D01*
X227658073Y-199919697D01*
X227658067Y-199919706D01*
X227536778Y-200129782D01*
X227536774Y-200129790D01*
X227443947Y-200353894D01*
X227381160Y-200588217D01*
X227349500Y-200828710D01*
X226150500Y-200828710D01*
X226118838Y-200588211D01*
X226056054Y-200353900D01*
X225963224Y-200129788D01*
X225841936Y-199919711D01*
X225694265Y-199727262D01*
X225694260Y-199727256D01*
X225694259Y-199727255D01*
X225694247Y-199727242D01*
X225522751Y-199555747D01*
X225522743Y-199555739D01*
X225522736Y-199555733D01*
X225522733Y-199555730D01*
X225522728Y-199555726D01*
X225331879Y-199409284D01*
X225330615Y-199408281D01*
X225330286Y-199408062D01*
X225330283Y-199408060D01*
X225120220Y-199286780D01*
X225120207Y-199286773D01*
X225120203Y-199286772D01*
X224896104Y-199193947D01*
X224661781Y-199131160D01*
X224421290Y-199099500D01*
X224421289Y-199099500D01*
X224421288Y-199099500D01*
X223578712Y-199099500D01*
X223578711Y-199099500D01*
X223578710Y-199099500D01*
X223338217Y-199131160D01*
X223103894Y-199193947D01*
X222879790Y-199286774D01*
X222879782Y-199286778D01*
X222669706Y-199408067D01*
X222669697Y-199408073D01*
X222477270Y-199555726D01*
X222477255Y-199555740D01*
X222477247Y-199555747D01*
X222305747Y-199727247D01*
X222305740Y-199727255D01*
X222305726Y-199727270D01*
X222158073Y-199919697D01*
X222158067Y-199919706D01*
X222036778Y-200129782D01*
X222036774Y-200129790D01*
X221943947Y-200353894D01*
X221881160Y-200588217D01*
X221849500Y-200828710D01*
X221162503Y-200828710D01*
X221162503Y-193141829D01*
X221164108Y-193130669D01*
X221167526Y-193106893D01*
X221171930Y-193091895D01*
X221209675Y-193033144D01*
X221209703Y-193033119D01*
X221209702Y-193033119D01*
X221211044Y-193031956D01*
X221265923Y-193004477D01*
X221273482Y-193002833D01*
X221299835Y-193000000D01*
X240737821Y-193000000D01*
X240745903Y-193000264D01*
G37*
%TD.AperFunction*%
%TD*%
%TA.AperFunction,Conductor*%
%TO.N,+3.3VP*%
G36*
X423071826Y-162917524D02*
G01*
X423094022Y-162924042D01*
X423105003Y-162930252D01*
X423113937Y-162931810D01*
X423143044Y-162951766D01*
X423145212Y-162953760D01*
X423159628Y-162969525D01*
X423168126Y-162980600D01*
X423177137Y-162994086D01*
X423185194Y-163008041D01*
X423192368Y-163022589D01*
X423223603Y-163097998D01*
X423228815Y-163113351D01*
X423232988Y-163128922D01*
X423236154Y-163144837D01*
X423244477Y-163208061D01*
X423245389Y-163230316D01*
X423245033Y-163237571D01*
X423244770Y-163245641D01*
X423244500Y-163262178D01*
X423244500Y-166237790D01*
X423244770Y-166254350D01*
X423245032Y-166262390D01*
X423245845Y-166278945D01*
X423246376Y-166287067D01*
X423247732Y-166303603D01*
X423248531Y-166311701D01*
X423249186Y-166317390D01*
X423250000Y-166331571D01*
X423250000Y-168250000D01*
X424191412Y-169191412D01*
X424191414Y-169191416D01*
X425000000Y-170000000D01*
X425594928Y-170594928D01*
X425600477Y-170600853D01*
X425605821Y-170606947D01*
X425610966Y-170613216D01*
X425668124Y-170687705D01*
X425677138Y-170701195D01*
X425685199Y-170715158D01*
X425692371Y-170729702D01*
X425723602Y-170805100D01*
X425728816Y-170820458D01*
X425732990Y-170836035D01*
X425736154Y-170851944D01*
X425748409Y-170945027D01*
X425749204Y-170953089D01*
X425749734Y-170961187D01*
X425750000Y-170969285D01*
X425750000Y-175487819D01*
X425749734Y-175495938D01*
X425749204Y-175504015D01*
X425748409Y-175512082D01*
X425736154Y-175605163D01*
X425732988Y-175621076D01*
X425728815Y-175636647D01*
X425723603Y-175652000D01*
X425692368Y-175727409D01*
X425685194Y-175741957D01*
X425677137Y-175755912D01*
X425668126Y-175769398D01*
X425618437Y-175834154D01*
X425607742Y-175846349D01*
X425596349Y-175857742D01*
X425584154Y-175868437D01*
X425519398Y-175918126D01*
X425505912Y-175927137D01*
X425491957Y-175935194D01*
X425477409Y-175942368D01*
X425402000Y-175973603D01*
X425386647Y-175978815D01*
X425371076Y-175982988D01*
X425355163Y-175986154D01*
X425271084Y-175997224D01*
X425269398Y-175997446D01*
X425268060Y-175997622D01*
X425262063Y-175998411D01*
X425254015Y-175999204D01*
X425253484Y-175999238D01*
X425245919Y-175999734D01*
X425237819Y-176000000D01*
X419262179Y-176000000D01*
X419254073Y-175999734D01*
X419245996Y-175999204D01*
X419237931Y-175998410D01*
X419228921Y-175997224D01*
X419228918Y-175997224D01*
X419144835Y-175986154D01*
X419128922Y-175982988D01*
X419113351Y-175978815D01*
X419097998Y-175973603D01*
X419022589Y-175942368D01*
X419008041Y-175935194D01*
X418994086Y-175927137D01*
X418980600Y-175918126D01*
X418915844Y-175868437D01*
X418903649Y-175857742D01*
X418892256Y-175846349D01*
X418881561Y-175834154D01*
X418831872Y-175769398D01*
X418822861Y-175755912D01*
X418814804Y-175741957D01*
X418807630Y-175727410D01*
X418776394Y-175652000D01*
X418771181Y-175636643D01*
X418767010Y-175621076D01*
X418767007Y-175621065D01*
X418763846Y-175605173D01*
X418751589Y-175512074D01*
X418750796Y-175504030D01*
X418750264Y-175495905D01*
X418750000Y-175487820D01*
X418750000Y-170969285D01*
X418750264Y-170961202D01*
X418750797Y-170953072D01*
X418751590Y-170945028D01*
X418751590Y-170945027D01*
X418763846Y-170851932D01*
X418767010Y-170836029D01*
X418771184Y-170820454D01*
X418776390Y-170805116D01*
X418807632Y-170729691D01*
X418814799Y-170715158D01*
X418822865Y-170701187D01*
X418831860Y-170687723D01*
X418889054Y-170613186D01*
X418894175Y-170606949D01*
X418899519Y-170600855D01*
X418905053Y-170594945D01*
X421103553Y-168396447D01*
X421250000Y-168250000D01*
X421250000Y-163262178D01*
X421250264Y-163254095D01*
X421250797Y-163245965D01*
X421251590Y-163237920D01*
X421263845Y-163144834D01*
X421267010Y-163128923D01*
X421271182Y-163113354D01*
X421276395Y-163097998D01*
X421307630Y-163022589D01*
X421314799Y-163008050D01*
X421314804Y-163008041D01*
X421322862Y-162994082D01*
X421331865Y-162980608D01*
X421336060Y-162975141D01*
X421361297Y-162950502D01*
X421379982Y-162936860D01*
X421431825Y-162914847D01*
X421434730Y-162914340D01*
X421456001Y-162912503D01*
X423036894Y-162912503D01*
X423071826Y-162917524D01*
G37*
%TD.AperFunction*%
%TD*%
%TA.AperFunction,Conductor*%
%TO.N,GNDD*%
G36*
X227800952Y-205251061D02*
G01*
X227906116Y-205264906D01*
X227937383Y-205273284D01*
X228027808Y-205310739D01*
X228055842Y-205326924D01*
X228140003Y-205391503D01*
X228152198Y-205402198D01*
X230597801Y-207847801D01*
X230608496Y-207859996D01*
X230673075Y-207944157D01*
X230689260Y-207972191D01*
X230726715Y-208062616D01*
X230735093Y-208093882D01*
X230748939Y-208199046D01*
X230750000Y-208215232D01*
X230750000Y-213991874D01*
X230748939Y-214008060D01*
X230735093Y-214113224D01*
X230726715Y-214144491D01*
X230689259Y-214234918D01*
X230673074Y-214262951D01*
X230613491Y-214340601D01*
X230590601Y-214363491D01*
X230512951Y-214423074D01*
X230484918Y-214439259D01*
X230394491Y-214476715D01*
X230363224Y-214485093D01*
X230269398Y-214497446D01*
X230258058Y-214498939D01*
X230241874Y-214500000D01*
X221286503Y-214500000D01*
X221219464Y-214480315D01*
X221173709Y-214427511D01*
X221162503Y-214376000D01*
X221162503Y-205374000D01*
X221182188Y-205306961D01*
X221234992Y-205261206D01*
X221286503Y-205250000D01*
X227784767Y-205250000D01*
X227800952Y-205251061D01*
G37*
%TD.AperFunction*%
%TD*%
%TA.AperFunction,Conductor*%
%TO.N,+24V*%
G36*
X237245903Y-201500264D02*
G01*
X237254033Y-201500797D01*
X237262074Y-201501589D01*
X237355173Y-201513846D01*
X237371065Y-201517007D01*
X237386645Y-201521181D01*
X237401995Y-201526392D01*
X237477411Y-201557630D01*
X237491953Y-201564802D01*
X237505914Y-201572862D01*
X237519403Y-201581875D01*
X237584154Y-201631561D01*
X237596348Y-201642255D01*
X237607742Y-201653649D01*
X237618437Y-201665844D01*
X237668126Y-201730600D01*
X237677137Y-201744086D01*
X237685194Y-201758041D01*
X237692368Y-201772589D01*
X237723603Y-201847998D01*
X237728815Y-201863351D01*
X237732988Y-201878922D01*
X237736154Y-201894836D01*
X237748409Y-201987921D01*
X237749204Y-201995982D01*
X237749734Y-202004080D01*
X237750000Y-202012178D01*
X237750000Y-206737819D01*
X237749734Y-206745938D01*
X237749204Y-206754015D01*
X237748409Y-206762082D01*
X237736154Y-206855163D01*
X237732988Y-206871076D01*
X237728815Y-206886647D01*
X237723603Y-206902000D01*
X237692368Y-206977409D01*
X237685194Y-206991957D01*
X237677137Y-207005912D01*
X237668126Y-207019398D01*
X237618437Y-207084154D01*
X237607742Y-207096349D01*
X237596349Y-207107742D01*
X237584154Y-207118437D01*
X237519398Y-207168126D01*
X237505912Y-207177137D01*
X237491957Y-207185194D01*
X237477409Y-207192368D01*
X237402000Y-207223603D01*
X237386647Y-207228815D01*
X237371076Y-207232988D01*
X237355163Y-207236154D01*
X237271084Y-207247224D01*
X237269398Y-207247446D01*
X237268060Y-207247622D01*
X237262063Y-207248411D01*
X237254015Y-207249204D01*
X237253484Y-207249238D01*
X237245919Y-207249734D01*
X237237819Y-207250000D01*
X234762179Y-207250000D01*
X234754073Y-207249734D01*
X234745996Y-207249204D01*
X234737931Y-207248410D01*
X234728921Y-207247224D01*
X234728918Y-207247224D01*
X234644835Y-207236154D01*
X234628922Y-207232988D01*
X234613351Y-207228815D01*
X234597998Y-207223603D01*
X234522589Y-207192368D01*
X234508041Y-207185194D01*
X234494086Y-207177137D01*
X234480600Y-207168126D01*
X234415844Y-207118437D01*
X234403649Y-207107742D01*
X234392256Y-207096349D01*
X234381561Y-207084154D01*
X234331872Y-207019398D01*
X234322861Y-207005912D01*
X234314804Y-206991957D01*
X234307630Y-206977410D01*
X234276394Y-206902000D01*
X234271181Y-206886643D01*
X234267010Y-206871076D01*
X234267007Y-206871065D01*
X234263846Y-206855173D01*
X234251589Y-206762074D01*
X234250796Y-206754030D01*
X234250264Y-206745905D01*
X234250000Y-206737820D01*
X234250000Y-202012178D01*
X234250264Y-202004095D01*
X234250797Y-201995965D01*
X234251590Y-201987920D01*
X234263845Y-201894834D01*
X234267010Y-201878923D01*
X234271182Y-201863354D01*
X234276395Y-201847998D01*
X234307631Y-201772587D01*
X234314801Y-201758046D01*
X234314804Y-201758041D01*
X234322864Y-201744079D01*
X234331856Y-201730620D01*
X234381578Y-201665822D01*
X234392251Y-201653653D01*
X234403653Y-201642251D01*
X234415830Y-201631572D01*
X234480613Y-201581862D01*
X234494075Y-201572866D01*
X234508052Y-201564796D01*
X234522566Y-201557638D01*
X234598012Y-201526387D01*
X234613352Y-201521181D01*
X234628931Y-201517007D01*
X234644821Y-201513846D01*
X234737927Y-201501589D01*
X234745966Y-201500797D01*
X234754095Y-201500264D01*
X234762179Y-201500000D01*
X237237821Y-201500000D01*
X237245903Y-201500264D01*
G37*
%TD.AperFunction*%
%TD*%
%TA.AperFunction,Conductor*%
%TO.N,GND*%
G36*
X265745903Y-213750264D02*
G01*
X265754033Y-213750797D01*
X265762074Y-213751589D01*
X265855173Y-213763846D01*
X265871065Y-213767007D01*
X265886645Y-213771181D01*
X265901995Y-213776392D01*
X265977411Y-213807630D01*
X265991953Y-213814802D01*
X266005914Y-213822862D01*
X266019403Y-213831875D01*
X266084154Y-213881561D01*
X266096348Y-213892255D01*
X266107742Y-213903649D01*
X266118437Y-213915844D01*
X266168126Y-213980600D01*
X266177137Y-213994086D01*
X266185194Y-214008041D01*
X266192368Y-214022589D01*
X266223603Y-214097998D01*
X266228815Y-214113351D01*
X266232988Y-214128922D01*
X266236154Y-214144836D01*
X266248409Y-214237921D01*
X266249195Y-214245858D01*
X266249227Y-214246338D01*
X266244479Y-214289523D01*
X266241066Y-214301146D01*
X266231425Y-214316146D01*
X266226402Y-214333252D01*
X266212928Y-214344926D01*
X266203290Y-214359923D01*
X266187072Y-214367328D01*
X266173597Y-214379005D01*
X266139737Y-214388945D01*
X266139734Y-214388947D01*
X266139732Y-214388947D01*
X266132963Y-214389920D01*
X266076317Y-214384888D01*
X266002706Y-214360496D01*
X266002686Y-214360492D01*
X265937500Y-214353832D01*
X265937500Y-214353833D01*
X265937500Y-217146165D01*
X266002695Y-217139505D01*
X266070073Y-217117178D01*
X266104804Y-217110959D01*
X266115099Y-217110604D01*
X266118676Y-217110481D01*
X266186353Y-217127845D01*
X266233900Y-217179042D01*
X266233902Y-217179047D01*
X266236956Y-217185168D01*
X266250000Y-217240528D01*
X266250000Y-219120500D01*
X266230315Y-219187539D01*
X266177511Y-219233294D01*
X266126000Y-219244500D01*
X265430940Y-219244500D01*
X265363901Y-219224815D01*
X265318146Y-219172011D01*
X265308202Y-219102853D01*
X265310606Y-219090573D01*
X265345566Y-218950000D01*
X263991830Y-218950000D01*
X263991825Y-218949999D01*
X263991823Y-218950000D01*
X263956889Y-218944975D01*
X263941890Y-218940570D01*
X263883144Y-218902827D01*
X263883115Y-218902793D01*
X263883114Y-218902793D01*
X263883113Y-218902791D01*
X263881957Y-218901458D01*
X263854477Y-218846583D01*
X263852832Y-218839021D01*
X263850000Y-218812668D01*
X263850000Y-218450000D01*
X263491830Y-218450000D01*
X263491825Y-218449999D01*
X263491823Y-218450000D01*
X263456889Y-218444975D01*
X263441890Y-218440570D01*
X263383144Y-218402827D01*
X263383115Y-218402793D01*
X263383114Y-218402793D01*
X263383113Y-218402791D01*
X263381957Y-218401458D01*
X263354477Y-218346583D01*
X263352832Y-218339021D01*
X263350000Y-218312668D01*
X263350000Y-217200000D01*
X263148903Y-217200000D01*
X263148901Y-217200000D01*
X263106172Y-217202896D01*
X262921480Y-217248829D01*
X262921472Y-217248832D01*
X262750980Y-217333388D01*
X262750977Y-217333390D01*
X262750961Y-217333401D01*
X262602643Y-217452623D01*
X262602632Y-217452632D01*
X262602623Y-217452643D01*
X262483401Y-217600961D01*
X262483390Y-217600977D01*
X262483388Y-217600980D01*
X262398832Y-217771472D01*
X262398829Y-217771480D01*
X262352896Y-217956172D01*
X262350000Y-217998901D01*
X262350000Y-218097147D01*
X262344976Y-218132085D01*
X262341789Y-218142938D01*
X262304014Y-218201715D01*
X262240457Y-218230738D01*
X262171307Y-218220797D01*
X262164329Y-218217610D01*
X262128157Y-218192496D01*
X262118346Y-218182685D01*
X262118345Y-218182684D01*
X261969124Y-218090643D01*
X261969119Y-218090641D01*
X261969110Y-218090638D01*
X261802699Y-218035494D01*
X261802694Y-218035493D01*
X261699991Y-218025000D01*
X261699986Y-218025000D01*
X261500000Y-218025000D01*
X261500000Y-219045670D01*
X261499999Y-219045676D01*
X261500000Y-219045679D01*
X261494975Y-219080614D01*
X261490570Y-219095612D01*
X261452827Y-219154355D01*
X261452792Y-219154385D01*
X261452791Y-219154387D01*
X261452789Y-219154387D01*
X261451458Y-219155542D01*
X261396597Y-219183018D01*
X261389039Y-219184663D01*
X261362668Y-219187500D01*
X261000000Y-219187500D01*
X261000000Y-219545670D01*
X260999999Y-219545676D01*
X261000000Y-219545679D01*
X260994975Y-219580614D01*
X260990570Y-219595612D01*
X260952827Y-219654355D01*
X260952792Y-219654385D01*
X260952791Y-219654387D01*
X260952789Y-219654387D01*
X260951458Y-219655542D01*
X260896597Y-219683018D01*
X260889039Y-219684663D01*
X260862668Y-219687500D01*
X259603834Y-219687500D01*
X259603831Y-219687501D01*
X259596270Y-219695874D01*
X259572168Y-219715909D01*
X259569133Y-219718432D01*
X259547583Y-219731666D01*
X259482693Y-219750000D01*
X258012179Y-219750000D01*
X258004073Y-219749734D01*
X257995996Y-219749204D01*
X257987931Y-219748410D01*
X257978921Y-219747224D01*
X257978918Y-219747224D01*
X257894835Y-219736154D01*
X257878922Y-219732988D01*
X257863351Y-219728815D01*
X257847998Y-219723603D01*
X257772589Y-219692368D01*
X257758041Y-219685194D01*
X257744086Y-219677137D01*
X257730600Y-219668126D01*
X257665844Y-219618437D01*
X257653649Y-219607742D01*
X257642256Y-219596349D01*
X257631561Y-219584154D01*
X257581872Y-219519398D01*
X257572861Y-219505912D01*
X257564804Y-219491957D01*
X257557630Y-219477410D01*
X257526394Y-219402000D01*
X257521181Y-219386643D01*
X257517007Y-219371065D01*
X257513846Y-219355173D01*
X257501589Y-219262074D01*
X257500796Y-219254030D01*
X257500264Y-219245905D01*
X257500000Y-219237820D01*
X257500000Y-218687499D01*
X259603833Y-218687499D01*
X259603834Y-218687500D01*
X260500000Y-218687500D01*
X260500000Y-218025000D01*
X260300037Y-218025000D01*
X260300029Y-218025000D01*
X260300019Y-218025000D01*
X260300006Y-218025001D01*
X260197304Y-218035493D01*
X260197302Y-218035494D01*
X260030887Y-218090638D01*
X260030879Y-218090641D01*
X260030877Y-218090642D01*
X260030875Y-218090643D01*
X259946092Y-218142938D01*
X259881652Y-218182685D01*
X259757685Y-218306652D01*
X259745751Y-218326000D01*
X259669268Y-218449999D01*
X259665641Y-218455879D01*
X259665638Y-218455888D01*
X259610494Y-218622300D01*
X259610494Y-218622302D01*
X259610493Y-218622309D01*
X259603833Y-218687499D01*
X257500000Y-218687499D01*
X257500000Y-216449995D01*
X264275001Y-216449995D01*
X264285493Y-216552694D01*
X264285493Y-216552695D01*
X264285494Y-216552697D01*
X264340641Y-216719119D01*
X264340643Y-216719124D01*
X264432684Y-216868345D01*
X264432685Y-216868346D01*
X264540050Y-216975711D01*
X264550062Y-216989085D01*
X264561199Y-217003961D01*
X264566620Y-217013888D01*
X264581474Y-217082161D01*
X264557060Y-217147626D01*
X264501128Y-217189499D01*
X264501124Y-217189501D01*
X264493936Y-217192182D01*
X264450602Y-217200000D01*
X264350000Y-217200000D01*
X264350000Y-217950000D01*
X265345565Y-217950000D01*
X265345566Y-217950000D01*
X265301168Y-217771476D01*
X265216609Y-217600977D01*
X265216607Y-217600974D01*
X265097367Y-217452633D01*
X265097366Y-217452632D01*
X264960540Y-217342648D01*
X264936461Y-217316851D01*
X264928529Y-217305456D01*
X264906382Y-217239193D01*
X264923574Y-217171474D01*
X264937500Y-217147938D01*
X264937500Y-216250000D01*
X264275001Y-216250000D01*
X264275001Y-216449995D01*
X257500000Y-216449995D01*
X257500000Y-215050007D01*
X264275000Y-215050007D01*
X264275000Y-215050013D01*
X264275000Y-215250000D01*
X264937500Y-215250000D01*
X264937500Y-214353834D01*
X264937499Y-214353833D01*
X264872307Y-214360493D01*
X264872300Y-214360494D01*
X264705887Y-214415638D01*
X264705879Y-214415641D01*
X264705877Y-214415642D01*
X264705875Y-214415643D01*
X264606394Y-214477003D01*
X264556652Y-214507685D01*
X264432685Y-214631652D01*
X264340641Y-214780879D01*
X264340638Y-214780888D01*
X264285494Y-214947299D01*
X264285493Y-214947304D01*
X264275000Y-215050007D01*
X257500000Y-215050007D01*
X257500000Y-214262178D01*
X257500264Y-214254095D01*
X257500797Y-214245965D01*
X257501590Y-214237920D01*
X257513845Y-214144834D01*
X257517010Y-214128923D01*
X257521182Y-214113354D01*
X257526395Y-214097998D01*
X257557631Y-214022587D01*
X257564801Y-214008046D01*
X257564804Y-214008041D01*
X257572864Y-213994079D01*
X257581856Y-213980620D01*
X257631578Y-213915822D01*
X257642251Y-213903653D01*
X257653653Y-213892251D01*
X257665830Y-213881572D01*
X257730613Y-213831862D01*
X257744075Y-213822866D01*
X257758052Y-213814796D01*
X257772566Y-213807638D01*
X257848012Y-213776387D01*
X257863352Y-213771181D01*
X257878931Y-213767007D01*
X257894821Y-213763846D01*
X257987927Y-213751589D01*
X257995966Y-213750797D01*
X258004095Y-213750264D01*
X258012179Y-213750000D01*
X265737821Y-213750000D01*
X265745903Y-213750264D01*
G37*
%TD.AperFunction*%
%TD*%
%TA.AperFunction,Conductor*%
%TO.N,GNDD*%
G36*
X289756061Y-164750597D02*
G01*
X289932941Y-164768018D01*
X289956769Y-164772757D01*
X290121001Y-164822576D01*
X290143453Y-164831877D01*
X290294798Y-164912772D01*
X290315010Y-164926277D01*
X290447666Y-165035145D01*
X290464854Y-165052333D01*
X290573722Y-165184989D01*
X290587227Y-165205201D01*
X290668121Y-165356543D01*
X290677424Y-165379001D01*
X290727240Y-165543224D01*
X290731982Y-165567065D01*
X290749403Y-165743938D01*
X290750000Y-165756092D01*
X290750000Y-172493907D01*
X290749403Y-172506061D01*
X290731982Y-172682934D01*
X290727240Y-172706775D01*
X290677424Y-172870998D01*
X290668121Y-172893456D01*
X290587227Y-173044798D01*
X290573722Y-173065010D01*
X290464854Y-173197666D01*
X290447666Y-173214854D01*
X290315010Y-173323722D01*
X290294798Y-173337227D01*
X290143456Y-173418121D01*
X290120998Y-173427424D01*
X289956775Y-173477240D01*
X289932934Y-173481982D01*
X289756061Y-173499403D01*
X289743907Y-173500000D01*
X288934903Y-173500000D01*
X288918718Y-173498939D01*
X288903270Y-173496905D01*
X288832502Y-173487588D01*
X288801236Y-173479210D01*
X288728473Y-173449071D01*
X288700438Y-173432885D01*
X288637951Y-173384936D01*
X288615063Y-173362048D01*
X288567114Y-173299561D01*
X288550928Y-173271526D01*
X288520789Y-173198763D01*
X288512411Y-173167496D01*
X288501061Y-173081282D01*
X288500000Y-173065097D01*
X288500000Y-171000000D01*
X284797202Y-167297202D01*
X284789030Y-167288186D01*
X284676277Y-167150797D01*
X284662772Y-167130585D01*
X284581878Y-166979243D01*
X284572575Y-166956785D01*
X284522757Y-166792556D01*
X284518018Y-166768728D01*
X284500597Y-166591847D01*
X284500000Y-166579693D01*
X284500000Y-165756092D01*
X284500597Y-165743938D01*
X284518018Y-165567056D01*
X284522757Y-165543232D01*
X284572577Y-165378994D01*
X284581875Y-165356549D01*
X284662775Y-165205195D01*
X284676272Y-165184995D01*
X284785149Y-165052328D01*
X284802328Y-165035149D01*
X284934995Y-164926272D01*
X284955195Y-164912775D01*
X285106549Y-164831875D01*
X285128994Y-164822577D01*
X285293232Y-164772757D01*
X285317056Y-164768018D01*
X285493939Y-164750597D01*
X285506093Y-164750000D01*
X289743907Y-164750000D01*
X289756061Y-164750597D01*
G37*
%TD.AperFunction*%
%TD*%
%TA.AperFunction,Conductor*%
%TO.N,+5V*%
G36*
X259587762Y-221519685D02*
G01*
X259633517Y-221572489D01*
X259643461Y-221641647D01*
X259638429Y-221663004D01*
X259610494Y-221747302D01*
X259610493Y-221747309D01*
X259603833Y-221812499D01*
X259603834Y-221812500D01*
X260876000Y-221812500D01*
X260943039Y-221832185D01*
X260988794Y-221884989D01*
X261000000Y-221936500D01*
X261000000Y-222312500D01*
X261376000Y-222312500D01*
X261443039Y-222332185D01*
X261488794Y-222384989D01*
X261500000Y-222436500D01*
X261500000Y-223474999D01*
X261699972Y-223474999D01*
X261699986Y-223474998D01*
X261802697Y-223464505D01*
X261969119Y-223409358D01*
X261969124Y-223409356D01*
X262118345Y-223317315D01*
X262138319Y-223297342D01*
X262199642Y-223263857D01*
X262269334Y-223268841D01*
X262325267Y-223310713D01*
X262349684Y-223376177D01*
X262350000Y-223385023D01*
X262350000Y-223501096D01*
X262352897Y-223543824D01*
X262398831Y-223728523D01*
X262483390Y-223899022D01*
X262483392Y-223899025D01*
X262602632Y-224047366D01*
X262602633Y-224047367D01*
X262750974Y-224166607D01*
X262750977Y-224166609D01*
X262921476Y-224251168D01*
X263106175Y-224297102D01*
X263148903Y-224300000D01*
X263350000Y-224300000D01*
X264350000Y-224300000D01*
X264551097Y-224300000D01*
X264593824Y-224297102D01*
X264778523Y-224251168D01*
X264949022Y-224166609D01*
X264949025Y-224166607D01*
X265097366Y-224047367D01*
X265097367Y-224047366D01*
X265216607Y-223899025D01*
X265216609Y-223899022D01*
X265301168Y-223728523D01*
X265345566Y-223550000D01*
X264350000Y-223550000D01*
X264350000Y-224300000D01*
X263350000Y-224300000D01*
X263350000Y-223174000D01*
X263369685Y-223106961D01*
X263422489Y-223061206D01*
X263474000Y-223050000D01*
X263850000Y-223050000D01*
X263850000Y-222674000D01*
X263869685Y-222606961D01*
X263922489Y-222561206D01*
X263974000Y-222550000D01*
X265300000Y-222550000D01*
X265480000Y-222730000D01*
X265847801Y-223097801D01*
X265858496Y-223109996D01*
X265923075Y-223194157D01*
X265939260Y-223222191D01*
X265976715Y-223312616D01*
X265985093Y-223343882D01*
X265998939Y-223449046D01*
X266000000Y-223465232D01*
X266000000Y-228565097D01*
X265998939Y-228581283D01*
X265987588Y-228667497D01*
X265979210Y-228698763D01*
X265949071Y-228771526D01*
X265932885Y-228799561D01*
X265884936Y-228862048D01*
X265862048Y-228884936D01*
X265799561Y-228932885D01*
X265771526Y-228949071D01*
X265698763Y-228979210D01*
X265667497Y-228987588D01*
X265594079Y-228997254D01*
X265581281Y-228998939D01*
X265565097Y-229000000D01*
X262541832Y-229000000D01*
X262474793Y-228980315D01*
X262429038Y-228927511D01*
X262419094Y-228858353D01*
X262448119Y-228794797D01*
X262494380Y-228761439D01*
X262579172Y-228726317D01*
X262579172Y-228726316D01*
X262579179Y-228726314D01*
X262710289Y-228638709D01*
X262821789Y-228527209D01*
X262909394Y-228396099D01*
X262969737Y-228250417D01*
X263000500Y-228095762D01*
X263000500Y-227938078D01*
X263000500Y-227938075D01*
X263000499Y-227938073D01*
X262990452Y-227887565D01*
X262969737Y-227783423D01*
X262912363Y-227644908D01*
X262909397Y-227637747D01*
X262909390Y-227637734D01*
X262821789Y-227506631D01*
X262821786Y-227506627D01*
X262710292Y-227395133D01*
X262710288Y-227395130D01*
X262579185Y-227307529D01*
X262579172Y-227307522D01*
X262433501Y-227247184D01*
X262433489Y-227247181D01*
X262278845Y-227216420D01*
X262278842Y-227216420D01*
X262121158Y-227216420D01*
X262121155Y-227216420D01*
X261999051Y-227240708D01*
X261929460Y-227234481D01*
X261909763Y-227224629D01*
X261772720Y-227140099D01*
X261772709Y-227140094D01*
X261607673Y-227085407D01*
X261505815Y-227075000D01*
X261487500Y-227075000D01*
X261487500Y-227620575D01*
X261478061Y-227668027D01*
X261430263Y-227783421D01*
X261430260Y-227783431D01*
X261399500Y-227938073D01*
X261399500Y-227938500D01*
X261399437Y-227938714D01*
X261398903Y-227944138D01*
X261397874Y-227944036D01*
X261379815Y-228005539D01*
X261327011Y-228051294D01*
X261275500Y-228062500D01*
X261000000Y-228062500D01*
X261000000Y-228426000D01*
X260980315Y-228493039D01*
X260927511Y-228538794D01*
X260876000Y-228550000D01*
X259841001Y-228550000D01*
X259865094Y-228622709D01*
X259865096Y-228622714D01*
X259956370Y-228770691D01*
X259973998Y-228788319D01*
X260007483Y-228849642D01*
X260002499Y-228919334D01*
X259960627Y-228975267D01*
X259895163Y-228999684D01*
X259886317Y-229000000D01*
X251258126Y-229000000D01*
X251241941Y-228998939D01*
X251228917Y-228997224D01*
X251136775Y-228985093D01*
X251105508Y-228976715D01*
X251015081Y-228939259D01*
X250987048Y-228923074D01*
X250909398Y-228863491D01*
X250886508Y-228840601D01*
X250826925Y-228762951D01*
X250810740Y-228734918D01*
X250773284Y-228644491D01*
X250764906Y-228613223D01*
X250751061Y-228508059D01*
X250750000Y-228491874D01*
X250750000Y-228427840D01*
X250769685Y-228360801D01*
X250822489Y-228315046D01*
X250891647Y-228305102D01*
X250955203Y-228334127D01*
X250961681Y-228340159D01*
X250963094Y-228341572D01*
X251128636Y-228461846D01*
X251128644Y-228461851D01*
X251309990Y-228554250D01*
X251309990Y-227065816D01*
X251344065Y-227192983D01*
X251409891Y-227306997D01*
X251502983Y-227400089D01*
X251616997Y-227465915D01*
X251744164Y-227499990D01*
X251875816Y-227499990D01*
X252002983Y-227465915D01*
X252116997Y-227400089D01*
X252210089Y-227306997D01*
X252275915Y-227192983D01*
X252309990Y-227065816D01*
X252309990Y-228554250D01*
X252491335Y-228461851D01*
X252491343Y-228461846D01*
X252656884Y-228341572D01*
X252656885Y-228341572D01*
X252801572Y-228196885D01*
X252801572Y-228196884D01*
X252921851Y-228031337D01*
X252969224Y-227938361D01*
X253017198Y-227887565D01*
X253085018Y-227870769D01*
X253151154Y-227893306D01*
X253190193Y-227938359D01*
X253237703Y-228031601D01*
X253358018Y-228197203D01*
X253502776Y-228341961D01*
X253620981Y-228427840D01*
X253668380Y-228462277D01*
X253784597Y-228521493D01*
X253850766Y-228555208D01*
X253850768Y-228555208D01*
X253850771Y-228555210D01*
X253955127Y-228589117D01*
X254045455Y-228618467D01*
X254146547Y-228634478D01*
X254247638Y-228650490D01*
X254247639Y-228650490D01*
X254452341Y-228650490D01*
X254452342Y-228650490D01*
X254654524Y-228618467D01*
X254849209Y-228555210D01*
X255031600Y-228462277D01*
X255171271Y-228360801D01*
X255197203Y-228341961D01*
X255197205Y-228341958D01*
X255197209Y-228341956D01*
X255341956Y-228197209D01*
X255341958Y-228197205D01*
X255341961Y-228197203D01*
X255462274Y-228031604D01*
X255462276Y-228031601D01*
X255462277Y-228031600D01*
X255509506Y-227938907D01*
X255557479Y-227888113D01*
X255625300Y-227871318D01*
X255691435Y-227893855D01*
X255730475Y-227938909D01*
X255777705Y-228031604D01*
X255898018Y-228197203D01*
X256042776Y-228341961D01*
X256160981Y-228427840D01*
X256208380Y-228462277D01*
X256324597Y-228521493D01*
X256390766Y-228555208D01*
X256390768Y-228555208D01*
X256390771Y-228555210D01*
X256495127Y-228589117D01*
X256585455Y-228618467D01*
X256686547Y-228634478D01*
X256787638Y-228650490D01*
X256787639Y-228650490D01*
X256992341Y-228650490D01*
X256992342Y-228650490D01*
X257194524Y-228618467D01*
X257389209Y-228555210D01*
X257571600Y-228462277D01*
X257711271Y-228360801D01*
X257737203Y-228341961D01*
X257737205Y-228341958D01*
X257737209Y-228341956D01*
X257881956Y-228197209D01*
X257881958Y-228197205D01*
X257881961Y-228197203D01*
X257955658Y-228095766D01*
X258002277Y-228031600D01*
X258095210Y-227849209D01*
X258158467Y-227654524D01*
X258171063Y-227575000D01*
X259841001Y-227575000D01*
X260512500Y-227575000D01*
X260512500Y-227075000D01*
X260494184Y-227075000D01*
X260392326Y-227085407D01*
X260227290Y-227140094D01*
X260227285Y-227140096D01*
X260079308Y-227231370D01*
X259956370Y-227354308D01*
X259865096Y-227502285D01*
X259865094Y-227502290D01*
X259841001Y-227575000D01*
X258171063Y-227575000D01*
X258190490Y-227452342D01*
X258190490Y-226547638D01*
X258182943Y-226499990D01*
X258158467Y-226345455D01*
X258095208Y-226150766D01*
X258039078Y-226040606D01*
X258002277Y-225968380D01*
X257988560Y-225949500D01*
X257881961Y-225802776D01*
X257737203Y-225658018D01*
X257571603Y-225537705D01*
X257571602Y-225537704D01*
X257571600Y-225537703D01*
X257514643Y-225508681D01*
X257389213Y-225444771D01*
X257194524Y-225381512D01*
X257019985Y-225353868D01*
X256992342Y-225349490D01*
X256787638Y-225349490D01*
X256763319Y-225353341D01*
X256585455Y-225381512D01*
X256390766Y-225444771D01*
X256208376Y-225537705D01*
X256042776Y-225658018D01*
X255898018Y-225802776D01*
X255777705Y-225968376D01*
X255730475Y-226061070D01*
X255682500Y-226111866D01*
X255614679Y-226128661D01*
X255548544Y-226106124D01*
X255509505Y-226061070D01*
X255499078Y-226040606D01*
X255462277Y-225968380D01*
X255448560Y-225949500D01*
X255341961Y-225802776D01*
X255197203Y-225658018D01*
X255031603Y-225537705D01*
X255031602Y-225537704D01*
X255031600Y-225537703D01*
X254974643Y-225508681D01*
X254849213Y-225444771D01*
X254654524Y-225381512D01*
X254479985Y-225353868D01*
X254452342Y-225349490D01*
X254247638Y-225349490D01*
X254223319Y-225353341D01*
X254045455Y-225381512D01*
X253850766Y-225444771D01*
X253668376Y-225537705D01*
X253502776Y-225658018D01*
X253358018Y-225802776D01*
X253237703Y-225968378D01*
X253190193Y-226061620D01*
X253142218Y-226112416D01*
X253074397Y-226129210D01*
X253008262Y-226106672D01*
X252969224Y-226061618D01*
X252921851Y-225968642D01*
X252801572Y-225803095D01*
X252801572Y-225803094D01*
X252656885Y-225658407D01*
X252491339Y-225538130D01*
X252309990Y-225445728D01*
X252309990Y-226934164D01*
X252275915Y-226806997D01*
X252210089Y-226692983D01*
X252116997Y-226599891D01*
X252002983Y-226534065D01*
X251875816Y-226499990D01*
X251744164Y-226499990D01*
X251616997Y-226534065D01*
X251502983Y-226599891D01*
X251409891Y-226692983D01*
X251344065Y-226806997D01*
X251309990Y-226934164D01*
X251309990Y-225445728D01*
X251128640Y-225538130D01*
X250963095Y-225658407D01*
X250963094Y-225658407D01*
X250961681Y-225659821D01*
X250961011Y-225660186D01*
X250959393Y-225661569D01*
X250959102Y-225661228D01*
X250900358Y-225693306D01*
X250830666Y-225688322D01*
X250774733Y-225646450D01*
X250750316Y-225580986D01*
X250750000Y-225572140D01*
X250750000Y-223758125D01*
X250751061Y-223741940D01*
X250764906Y-223636776D01*
X250773284Y-223605508D01*
X250796276Y-223550000D01*
X250810740Y-223515079D01*
X250826923Y-223487050D01*
X250886513Y-223409392D01*
X250909392Y-223386513D01*
X250987050Y-223326923D01*
X251015079Y-223310740D01*
X251105509Y-223273283D01*
X251136775Y-223264906D01*
X251241941Y-223251061D01*
X251258126Y-223250000D01*
X255500000Y-223250000D01*
X255500000Y-222812500D01*
X259603834Y-222812500D01*
X259610494Y-222877697D01*
X259665641Y-223044119D01*
X259665643Y-223044124D01*
X259757684Y-223193345D01*
X259881654Y-223317315D01*
X260030875Y-223409356D01*
X260030880Y-223409358D01*
X260197302Y-223464505D01*
X260197309Y-223464506D01*
X260300019Y-223474999D01*
X260499999Y-223474999D01*
X260500000Y-223474998D01*
X260500000Y-222812500D01*
X259603834Y-222812500D01*
X255500000Y-222812500D01*
X255500000Y-222008125D01*
X255501061Y-221991940D01*
X255514906Y-221886776D01*
X255523284Y-221855508D01*
X255532945Y-221832185D01*
X255560740Y-221765079D01*
X255576923Y-221737050D01*
X255636513Y-221659392D01*
X255659392Y-221636513D01*
X255737050Y-221576923D01*
X255765079Y-221560740D01*
X255855509Y-221523283D01*
X255886775Y-221514906D01*
X255991941Y-221501061D01*
X256008126Y-221500000D01*
X259520723Y-221500000D01*
X259587762Y-221519685D01*
G37*
%TD.AperFunction*%
%TD*%
%TA.AperFunction,Conductor*%
%TO.N,GNDD*%
G36*
X252756061Y-164750597D02*
G01*
X252932941Y-164768018D01*
X252956769Y-164772757D01*
X253121001Y-164822576D01*
X253143453Y-164831877D01*
X253294798Y-164912772D01*
X253315010Y-164926277D01*
X253447666Y-165035145D01*
X253464854Y-165052333D01*
X253573722Y-165184989D01*
X253587227Y-165205201D01*
X253668121Y-165356543D01*
X253677424Y-165379001D01*
X253727240Y-165543224D01*
X253731982Y-165567065D01*
X253749403Y-165743938D01*
X253750000Y-165756092D01*
X253750000Y-172493907D01*
X253749403Y-172506061D01*
X253731982Y-172682934D01*
X253727240Y-172706775D01*
X253677424Y-172870998D01*
X253668121Y-172893456D01*
X253587227Y-173044798D01*
X253573722Y-173065010D01*
X253464854Y-173197666D01*
X253447666Y-173214854D01*
X253315010Y-173323722D01*
X253294798Y-173337227D01*
X253143456Y-173418121D01*
X253120998Y-173427424D01*
X252956775Y-173477240D01*
X252932934Y-173481982D01*
X252756061Y-173499403D01*
X252743907Y-173500000D01*
X251934903Y-173500000D01*
X251918718Y-173498939D01*
X251903270Y-173496905D01*
X251832502Y-173487588D01*
X251801236Y-173479210D01*
X251728473Y-173449071D01*
X251700438Y-173432885D01*
X251637951Y-173384936D01*
X251615063Y-173362048D01*
X251567114Y-173299561D01*
X251550928Y-173271526D01*
X251520789Y-173198763D01*
X251512411Y-173167496D01*
X251501061Y-173081282D01*
X251500000Y-173065097D01*
X251500000Y-171000000D01*
X247797202Y-167297202D01*
X247789030Y-167288186D01*
X247676277Y-167150797D01*
X247662772Y-167130585D01*
X247581878Y-166979243D01*
X247572575Y-166956785D01*
X247522757Y-166792556D01*
X247518018Y-166768728D01*
X247500597Y-166591847D01*
X247500000Y-166579693D01*
X247500000Y-165756092D01*
X247500597Y-165743938D01*
X247518018Y-165567056D01*
X247522757Y-165543232D01*
X247572577Y-165378994D01*
X247581875Y-165356549D01*
X247662775Y-165205195D01*
X247676272Y-165184995D01*
X247785149Y-165052328D01*
X247802328Y-165035149D01*
X247934995Y-164926272D01*
X247955195Y-164912775D01*
X248106549Y-164831875D01*
X248128994Y-164822577D01*
X248293232Y-164772757D01*
X248317056Y-164768018D01*
X248493939Y-164750597D01*
X248506093Y-164750000D01*
X252743907Y-164750000D01*
X252756061Y-164750597D01*
G37*
%TD.AperFunction*%
%TD*%
%TA.AperFunction,Conductor*%
%TO.N,+5VD*%
G36*
X230508059Y-174501061D02*
G01*
X230613223Y-174514906D01*
X230644491Y-174523284D01*
X230734918Y-174560740D01*
X230762952Y-174576925D01*
X230840602Y-174636509D01*
X230863491Y-174659398D01*
X230923074Y-174737048D01*
X230939259Y-174765081D01*
X230976715Y-174855508D01*
X230985093Y-174886775D01*
X230998939Y-174991939D01*
X231000000Y-175008125D01*
X231000000Y-177991874D01*
X230998939Y-178008060D01*
X230985093Y-178113224D01*
X230976715Y-178144491D01*
X230939259Y-178234918D01*
X230923074Y-178262951D01*
X230863491Y-178340601D01*
X230840601Y-178363491D01*
X230762951Y-178423074D01*
X230734918Y-178439259D01*
X230644491Y-178476715D01*
X230613224Y-178485093D01*
X230519398Y-178497446D01*
X230508058Y-178498939D01*
X230491874Y-178500000D01*
X228479500Y-178500000D01*
X228412461Y-178480315D01*
X228366706Y-178427511D01*
X228355500Y-178376000D01*
X228355500Y-178300000D01*
X228350355Y-178228060D01*
X228309819Y-178090008D01*
X228232031Y-177968968D01*
X228123294Y-177874746D01*
X228123290Y-177874744D01*
X227992419Y-177814976D01*
X227992414Y-177814975D01*
X227850000Y-177794500D01*
X226963171Y-177794500D01*
X226896132Y-177774815D01*
X226850377Y-177722011D01*
X226844194Y-177705437D01*
X226834819Y-177673508D01*
X226757031Y-177552468D01*
X226648294Y-177458246D01*
X226648290Y-177458244D01*
X226517419Y-177398476D01*
X226517414Y-177398475D01*
X226375000Y-177378000D01*
X226374000Y-177378000D01*
X226373678Y-177377905D01*
X226370580Y-177377684D01*
X226370628Y-177377009D01*
X226306961Y-177358315D01*
X226261206Y-177305511D01*
X226250000Y-177254000D01*
X226250000Y-175008125D01*
X226251061Y-174991940D01*
X226264906Y-174886776D01*
X226264906Y-174886775D01*
X226273284Y-174855508D01*
X226310740Y-174765081D01*
X226326923Y-174737050D01*
X226386513Y-174659392D01*
X226409392Y-174636513D01*
X226487050Y-174576923D01*
X226515079Y-174560740D01*
X226605509Y-174523283D01*
X226636775Y-174514906D01*
X226741941Y-174501061D01*
X226758126Y-174500000D01*
X230491874Y-174500000D01*
X230508059Y-174501061D01*
G37*
%TD.AperFunction*%
%TD*%
%TA.AperFunction,Conductor*%
%TO.N,+24V*%
G36*
X224995903Y-174500264D02*
G01*
X225004033Y-174500797D01*
X225012074Y-174501589D01*
X225105173Y-174513846D01*
X225121065Y-174517007D01*
X225136645Y-174521181D01*
X225151995Y-174526392D01*
X225227411Y-174557630D01*
X225241953Y-174564802D01*
X225255914Y-174572862D01*
X225269401Y-174581874D01*
X225302006Y-174606893D01*
X225334154Y-174631561D01*
X225346348Y-174642255D01*
X225357742Y-174653649D01*
X225368437Y-174665844D01*
X225418126Y-174730600D01*
X225427137Y-174744086D01*
X225435194Y-174758041D01*
X225442368Y-174772589D01*
X225473603Y-174847998D01*
X225478815Y-174863351D01*
X225482988Y-174878922D01*
X225486154Y-174894836D01*
X225498409Y-174987921D01*
X225499204Y-174995982D01*
X225499734Y-175004080D01*
X225500000Y-175012178D01*
X225500000Y-183737820D01*
X225499734Y-183745919D01*
X225499256Y-183753222D01*
X225499204Y-183754016D01*
X225498409Y-183762077D01*
X225486154Y-183855162D01*
X225482988Y-183871076D01*
X225478815Y-183886647D01*
X225473603Y-183902000D01*
X225442368Y-183977409D01*
X225435194Y-183991957D01*
X225427137Y-184005912D01*
X225418126Y-184019398D01*
X225368437Y-184084154D01*
X225357742Y-184096349D01*
X225346349Y-184107742D01*
X225334154Y-184118437D01*
X225269398Y-184168126D01*
X225255912Y-184177137D01*
X225241957Y-184185194D01*
X225227409Y-184192368D01*
X225152000Y-184223603D01*
X225136647Y-184228815D01*
X225121076Y-184232988D01*
X225105163Y-184236154D01*
X225038166Y-184244975D01*
X225019398Y-184247446D01*
X225018060Y-184247622D01*
X225012063Y-184248411D01*
X225004015Y-184249204D01*
X225003484Y-184249238D01*
X224995919Y-184249734D01*
X224987819Y-184250000D01*
X221304333Y-184250000D01*
X221269392Y-184244975D01*
X221254393Y-184240570D01*
X221239405Y-184230940D01*
X221222327Y-184225932D01*
X221195647Y-184202827D01*
X221194460Y-184201458D01*
X221166980Y-184146583D01*
X221165335Y-184139021D01*
X221162503Y-184112668D01*
X221162503Y-174641829D01*
X221167526Y-174606893D01*
X221171930Y-174591895D01*
X221181560Y-174576904D01*
X221186570Y-174559824D01*
X221209675Y-174533144D01*
X221211044Y-174531957D01*
X221265923Y-174504477D01*
X221273482Y-174502833D01*
X221299835Y-174500000D01*
X224987821Y-174500000D01*
X224995903Y-174500264D01*
G37*
%TD.AperFunction*%
%TD*%
%TA.AperFunction,Conductor*%
%TO.N,GND*%
G36*
X336292539Y-201769685D02*
G01*
X336338294Y-201822489D01*
X336349500Y-201874000D01*
X336349500Y-202313132D01*
X336349501Y-202313138D01*
X336355741Y-202360545D01*
X336355742Y-202360547D01*
X336355742Y-202360548D01*
X336404253Y-202464579D01*
X336485421Y-202545747D01*
X336589455Y-202594259D01*
X336636861Y-202600500D01*
X336863138Y-202600499D01*
X336910545Y-202594259D01*
X336947595Y-202576981D01*
X337016672Y-202566490D01*
X337052404Y-202576981D01*
X337089455Y-202594259D01*
X337136861Y-202600500D01*
X337363138Y-202600499D01*
X337410545Y-202594259D01*
X337447595Y-202576981D01*
X337516672Y-202566490D01*
X337552404Y-202576981D01*
X337589455Y-202594259D01*
X337636861Y-202600500D01*
X337863138Y-202600499D01*
X337910545Y-202594259D01*
X337947595Y-202576981D01*
X338016672Y-202566490D01*
X338052404Y-202576981D01*
X338089455Y-202594259D01*
X338136861Y-202600500D01*
X338363138Y-202600499D01*
X338410545Y-202594259D01*
X338447595Y-202576981D01*
X338516672Y-202566490D01*
X338552404Y-202576981D01*
X338589455Y-202594259D01*
X338636861Y-202600500D01*
X338863138Y-202600499D01*
X338910545Y-202594259D01*
X338947595Y-202576981D01*
X339016672Y-202566490D01*
X339052404Y-202576981D01*
X339089455Y-202594259D01*
X339136861Y-202600500D01*
X339363138Y-202600499D01*
X339410545Y-202594259D01*
X339447595Y-202576981D01*
X339516672Y-202566490D01*
X339552404Y-202576981D01*
X339589455Y-202594259D01*
X339636861Y-202600500D01*
X339863138Y-202600499D01*
X339910545Y-202594259D01*
X339947595Y-202576981D01*
X340016672Y-202566490D01*
X340052404Y-202576981D01*
X340089455Y-202594259D01*
X340136861Y-202600500D01*
X340363138Y-202600499D01*
X340410545Y-202594259D01*
X340447595Y-202576981D01*
X340516672Y-202566490D01*
X340552404Y-202576981D01*
X340589455Y-202594259D01*
X340636861Y-202600500D01*
X340863138Y-202600499D01*
X340910545Y-202594259D01*
X340947595Y-202576981D01*
X341016672Y-202566490D01*
X341052404Y-202576981D01*
X341089455Y-202594259D01*
X341136861Y-202600500D01*
X341363138Y-202600499D01*
X341410545Y-202594259D01*
X341447595Y-202576981D01*
X341516672Y-202566490D01*
X341552404Y-202576981D01*
X341589455Y-202594259D01*
X341636861Y-202600500D01*
X341863138Y-202600499D01*
X341910545Y-202594259D01*
X341947595Y-202576981D01*
X342016672Y-202566490D01*
X342052404Y-202576981D01*
X342089455Y-202594259D01*
X342136861Y-202600500D01*
X342363138Y-202600499D01*
X342410545Y-202594259D01*
X342447595Y-202576981D01*
X342516672Y-202566490D01*
X342552404Y-202576981D01*
X342589455Y-202594259D01*
X342636861Y-202600500D01*
X342863138Y-202600499D01*
X342910545Y-202594259D01*
X342947595Y-202576981D01*
X343016672Y-202566490D01*
X343052404Y-202576981D01*
X343089455Y-202594259D01*
X343136861Y-202600500D01*
X343363138Y-202600499D01*
X343410545Y-202594259D01*
X343447595Y-202576981D01*
X343516672Y-202566490D01*
X343552404Y-202576981D01*
X343589455Y-202594259D01*
X343636861Y-202600500D01*
X343863138Y-202600499D01*
X343910545Y-202594259D01*
X343947595Y-202576981D01*
X344016672Y-202566490D01*
X344052404Y-202576981D01*
X344089455Y-202594259D01*
X344136861Y-202600500D01*
X344363138Y-202600499D01*
X344410545Y-202594259D01*
X344514579Y-202545747D01*
X344595747Y-202464579D01*
X344644259Y-202360545D01*
X344650500Y-202313139D01*
X344650500Y-201874000D01*
X344670185Y-201806961D01*
X344722989Y-201761206D01*
X344774500Y-201750000D01*
X345491874Y-201750000D01*
X345508059Y-201751061D01*
X345613223Y-201764906D01*
X345644491Y-201773284D01*
X345734918Y-201810740D01*
X345762952Y-201826925D01*
X345840602Y-201886509D01*
X345863491Y-201909398D01*
X345923074Y-201987048D01*
X345939259Y-202015081D01*
X345976715Y-202105508D01*
X345985093Y-202136775D01*
X345998939Y-202241939D01*
X346000000Y-202258125D01*
X346000000Y-202975500D01*
X345980315Y-203042539D01*
X345927511Y-203088294D01*
X345876000Y-203099500D01*
X345436867Y-203099500D01*
X345421839Y-203101478D01*
X345389455Y-203105741D01*
X345389453Y-203105742D01*
X345389451Y-203105742D01*
X345285420Y-203154253D01*
X345204253Y-203235420D01*
X345155740Y-203339456D01*
X345149500Y-203386859D01*
X345149500Y-203613131D01*
X345149501Y-203613138D01*
X345155741Y-203660545D01*
X345173018Y-203697596D01*
X345183509Y-203766673D01*
X345173018Y-203802402D01*
X345155742Y-203839451D01*
X345155740Y-203839458D01*
X345149500Y-203886859D01*
X345149500Y-204113131D01*
X345149501Y-204113138D01*
X345155741Y-204160545D01*
X345173018Y-204197596D01*
X345183509Y-204266673D01*
X345173018Y-204302402D01*
X345155742Y-204339451D01*
X345155740Y-204339458D01*
X345149500Y-204386859D01*
X345149500Y-204613131D01*
X345149501Y-204613138D01*
X345155741Y-204660545D01*
X345173018Y-204697596D01*
X345183509Y-204766673D01*
X345173018Y-204802402D01*
X345155742Y-204839451D01*
X345155740Y-204839458D01*
X345149500Y-204886859D01*
X345149500Y-205113131D01*
X345149501Y-205113138D01*
X345155741Y-205160545D01*
X345173018Y-205197596D01*
X345183509Y-205266673D01*
X345173018Y-205302402D01*
X345155742Y-205339451D01*
X345155740Y-205339458D01*
X345149500Y-205386859D01*
X345149500Y-205613131D01*
X345149501Y-205613138D01*
X345155741Y-205660545D01*
X345173018Y-205697596D01*
X345183509Y-205766673D01*
X345173018Y-205802402D01*
X345155742Y-205839451D01*
X345155740Y-205839458D01*
X345149500Y-205886859D01*
X345149500Y-206113131D01*
X345149501Y-206113138D01*
X345155741Y-206160545D01*
X345173018Y-206197596D01*
X345183509Y-206266673D01*
X345173018Y-206302402D01*
X345155742Y-206339451D01*
X345155740Y-206339458D01*
X345149500Y-206386859D01*
X345149500Y-206613131D01*
X345149501Y-206613138D01*
X345155741Y-206660545D01*
X345173018Y-206697596D01*
X345183509Y-206766673D01*
X345173018Y-206802402D01*
X345155742Y-206839451D01*
X345155740Y-206839458D01*
X345149500Y-206886859D01*
X345149500Y-207113131D01*
X345149501Y-207113138D01*
X345155741Y-207160545D01*
X345173018Y-207197596D01*
X345183509Y-207266673D01*
X345173018Y-207302402D01*
X345155742Y-207339451D01*
X345155740Y-207339458D01*
X345149500Y-207386859D01*
X345149500Y-207613131D01*
X345149501Y-207613138D01*
X345155741Y-207660545D01*
X345173018Y-207697596D01*
X345183509Y-207766673D01*
X345173018Y-207802402D01*
X345155742Y-207839451D01*
X345155740Y-207839458D01*
X345149500Y-207886859D01*
X345149500Y-208113131D01*
X345149501Y-208113138D01*
X345155741Y-208160545D01*
X345173018Y-208197596D01*
X345183509Y-208266673D01*
X345173018Y-208302402D01*
X345155742Y-208339451D01*
X345155740Y-208339458D01*
X345149500Y-208386859D01*
X345149500Y-208613131D01*
X345149501Y-208613138D01*
X345155741Y-208660545D01*
X345173018Y-208697596D01*
X345183509Y-208766673D01*
X345173018Y-208802402D01*
X345155742Y-208839451D01*
X345155740Y-208839458D01*
X345149500Y-208886859D01*
X345149500Y-209113131D01*
X345149501Y-209113138D01*
X345155741Y-209160545D01*
X345173018Y-209197596D01*
X345183509Y-209266673D01*
X345173018Y-209302402D01*
X345155742Y-209339451D01*
X345155740Y-209339458D01*
X345149500Y-209386859D01*
X345149500Y-209613131D01*
X345149501Y-209613138D01*
X345155741Y-209660545D01*
X345173018Y-209697596D01*
X345183509Y-209766673D01*
X345173018Y-209802402D01*
X345155742Y-209839451D01*
X345155740Y-209839458D01*
X345149500Y-209886859D01*
X345149500Y-210113132D01*
X345149501Y-210113138D01*
X345155741Y-210160545D01*
X345204253Y-210264579D01*
X345285421Y-210345747D01*
X345375212Y-210387617D01*
X345427652Y-210433789D01*
X345446804Y-210500982D01*
X345426589Y-210567864D01*
X345375214Y-210612380D01*
X345285422Y-210654252D01*
X345285421Y-210654252D01*
X345204253Y-210735420D01*
X345155740Y-210839456D01*
X345149500Y-210886859D01*
X345149500Y-211113132D01*
X345149501Y-211113138D01*
X345155741Y-211160545D01*
X345204253Y-211264579D01*
X345285421Y-211345747D01*
X345389455Y-211394259D01*
X345436861Y-211400500D01*
X345876002Y-211400499D01*
X345943039Y-211420183D01*
X345988794Y-211472987D01*
X346000000Y-211524499D01*
X346000000Y-212241874D01*
X345998939Y-212258059D01*
X345998939Y-212258060D01*
X345985093Y-212363224D01*
X345976715Y-212394491D01*
X345939259Y-212484918D01*
X345923074Y-212512951D01*
X345863491Y-212590601D01*
X345840601Y-212613491D01*
X345762951Y-212673074D01*
X345734918Y-212689259D01*
X345644491Y-212726715D01*
X345613224Y-212735093D01*
X345519398Y-212747446D01*
X345508058Y-212748939D01*
X345491874Y-212750000D01*
X344774499Y-212750000D01*
X344707460Y-212730315D01*
X344661705Y-212677511D01*
X344650499Y-212626000D01*
X344650499Y-212186867D01*
X344650499Y-212186862D01*
X344644259Y-212139455D01*
X344595747Y-212035421D01*
X344514579Y-211954253D01*
X344410545Y-211905741D01*
X344410543Y-211905740D01*
X344410544Y-211905740D01*
X344363140Y-211899500D01*
X344136868Y-211899500D01*
X344126341Y-211900885D01*
X344089455Y-211905741D01*
X344089453Y-211905742D01*
X344089451Y-211905742D01*
X344052403Y-211923018D01*
X343983325Y-211933509D01*
X343947596Y-211923018D01*
X343910545Y-211905741D01*
X343910541Y-211905740D01*
X343863140Y-211899500D01*
X343636868Y-211899500D01*
X343626341Y-211900885D01*
X343589455Y-211905741D01*
X343589453Y-211905742D01*
X343589451Y-211905742D01*
X343552403Y-211923018D01*
X343483325Y-211933509D01*
X343447596Y-211923018D01*
X343410545Y-211905741D01*
X343410541Y-211905740D01*
X343363140Y-211899500D01*
X343136868Y-211899500D01*
X343126341Y-211900885D01*
X343089455Y-211905741D01*
X343089453Y-211905742D01*
X343089451Y-211905742D01*
X343052403Y-211923018D01*
X342983325Y-211933509D01*
X342947596Y-211923018D01*
X342910545Y-211905741D01*
X342910541Y-211905740D01*
X342863140Y-211899500D01*
X342636867Y-211899500D01*
X342621839Y-211901478D01*
X342589455Y-211905741D01*
X342589453Y-211905742D01*
X342589451Y-211905742D01*
X342485420Y-211954253D01*
X342404253Y-212035420D01*
X342362382Y-212125213D01*
X342316209Y-212177652D01*
X342249016Y-212196804D01*
X342182135Y-212176588D01*
X342137618Y-212125213D01*
X342127319Y-212103128D01*
X342095747Y-212035421D01*
X342014579Y-211954253D01*
X341910545Y-211905741D01*
X341910543Y-211905740D01*
X341910544Y-211905740D01*
X341863140Y-211899500D01*
X341636868Y-211899500D01*
X341626341Y-211900885D01*
X341589455Y-211905741D01*
X341589453Y-211905742D01*
X341589451Y-211905742D01*
X341552403Y-211923018D01*
X341483325Y-211933509D01*
X341447596Y-211923018D01*
X341410545Y-211905741D01*
X341410541Y-211905740D01*
X341363140Y-211899500D01*
X341136868Y-211899500D01*
X341126341Y-211900885D01*
X341089455Y-211905741D01*
X341089453Y-211905742D01*
X341089451Y-211905742D01*
X341052403Y-211923018D01*
X340983325Y-211933509D01*
X340947596Y-211923018D01*
X340910545Y-211905741D01*
X340910541Y-211905740D01*
X340863140Y-211899500D01*
X340636868Y-211899500D01*
X340626341Y-211900885D01*
X340589455Y-211905741D01*
X340589453Y-211905742D01*
X340589451Y-211905742D01*
X340552403Y-211923018D01*
X340483325Y-211933509D01*
X340447596Y-211923018D01*
X340410545Y-211905741D01*
X340410541Y-211905740D01*
X340363140Y-211899500D01*
X340136868Y-211899500D01*
X340126341Y-211900885D01*
X340089455Y-211905741D01*
X340089453Y-211905742D01*
X340089451Y-211905742D01*
X340052403Y-211923018D01*
X339983325Y-211933509D01*
X339947596Y-211923018D01*
X339910545Y-211905741D01*
X339910541Y-211905740D01*
X339863140Y-211899500D01*
X339636868Y-211899500D01*
X339626341Y-211900885D01*
X339589455Y-211905741D01*
X339589453Y-211905742D01*
X339589451Y-211905742D01*
X339552403Y-211923018D01*
X339483325Y-211933509D01*
X339447596Y-211923018D01*
X339410545Y-211905741D01*
X339410541Y-211905740D01*
X339363140Y-211899500D01*
X339136868Y-211899500D01*
X339126341Y-211900885D01*
X339089455Y-211905741D01*
X339089453Y-211905742D01*
X339089451Y-211905742D01*
X339052403Y-211923018D01*
X338983325Y-211933509D01*
X338947596Y-211923018D01*
X338910545Y-211905741D01*
X338910541Y-211905740D01*
X338863140Y-211899500D01*
X338636868Y-211899500D01*
X338626341Y-211900885D01*
X338589455Y-211905741D01*
X338589453Y-211905742D01*
X338589451Y-211905742D01*
X338552403Y-211923018D01*
X338483325Y-211933509D01*
X338447596Y-211923018D01*
X338410545Y-211905741D01*
X338410541Y-211905740D01*
X338363140Y-211899500D01*
X338136868Y-211899500D01*
X338126341Y-211900885D01*
X338089455Y-211905741D01*
X338089453Y-211905742D01*
X338089451Y-211905742D01*
X338052403Y-211923018D01*
X337983325Y-211933509D01*
X337947596Y-211923018D01*
X337910545Y-211905741D01*
X337910541Y-211905740D01*
X337863140Y-211899500D01*
X337636868Y-211899500D01*
X337626341Y-211900885D01*
X337589455Y-211905741D01*
X337589453Y-211905742D01*
X337589451Y-211905742D01*
X337552403Y-211923018D01*
X337483325Y-211933509D01*
X337447596Y-211923018D01*
X337410545Y-211905741D01*
X337410541Y-211905740D01*
X337363140Y-211899500D01*
X337136868Y-211899500D01*
X337126341Y-211900885D01*
X337089455Y-211905741D01*
X337089453Y-211905742D01*
X337089451Y-211905742D01*
X337052403Y-211923018D01*
X336983325Y-211933509D01*
X336947596Y-211923018D01*
X336910545Y-211905741D01*
X336910541Y-211905740D01*
X336863140Y-211899500D01*
X336636867Y-211899500D01*
X336621839Y-211901478D01*
X336589455Y-211905741D01*
X336589453Y-211905742D01*
X336589451Y-211905742D01*
X336485420Y-211954253D01*
X336404253Y-212035420D01*
X336355740Y-212139456D01*
X336349500Y-212186860D01*
X336349500Y-212626000D01*
X336329815Y-212693039D01*
X336277011Y-212738794D01*
X336225500Y-212750000D01*
X335508126Y-212750000D01*
X335491941Y-212748939D01*
X335478917Y-212747224D01*
X335386775Y-212735093D01*
X335355508Y-212726715D01*
X335265081Y-212689259D01*
X335237048Y-212673074D01*
X335159398Y-212613491D01*
X335136508Y-212590601D01*
X335076925Y-212512951D01*
X335060740Y-212484918D01*
X335023284Y-212394491D01*
X335014906Y-212363223D01*
X335001061Y-212258059D01*
X335000000Y-212241874D01*
X335000000Y-211524499D01*
X335019685Y-211457460D01*
X335072489Y-211411705D01*
X335124000Y-211400499D01*
X335563133Y-211400499D01*
X335563138Y-211400499D01*
X335610545Y-211394259D01*
X335714579Y-211345747D01*
X335795747Y-211264579D01*
X335844259Y-211160545D01*
X335850500Y-211113139D01*
X335850499Y-210886862D01*
X335844259Y-210839455D01*
X335795747Y-210735421D01*
X335714579Y-210654253D01*
X335624785Y-210612381D01*
X335572347Y-210566210D01*
X335553195Y-210499016D01*
X335573411Y-210432135D01*
X335624785Y-210387618D01*
X335714579Y-210345747D01*
X335795747Y-210264579D01*
X335844259Y-210160545D01*
X335850500Y-210113139D01*
X335850499Y-209886862D01*
X335844259Y-209839455D01*
X335839462Y-209829169D01*
X335826982Y-209802404D01*
X335816490Y-209733326D01*
X335826980Y-209697599D01*
X335844259Y-209660545D01*
X335850500Y-209613139D01*
X335850499Y-209386862D01*
X335844259Y-209339455D01*
X335826982Y-209302404D01*
X335816490Y-209233326D01*
X335826980Y-209197599D01*
X335844259Y-209160545D01*
X335850500Y-209113139D01*
X335850499Y-208886862D01*
X335844259Y-208839455D01*
X335826982Y-208802404D01*
X335816490Y-208733326D01*
X335826980Y-208697599D01*
X335844259Y-208660545D01*
X335850500Y-208613139D01*
X335850499Y-208386862D01*
X335844259Y-208339455D01*
X335826982Y-208302404D01*
X335816490Y-208233326D01*
X335826980Y-208197599D01*
X335844259Y-208160545D01*
X335850500Y-208113139D01*
X335850499Y-207886862D01*
X335844259Y-207839455D01*
X335826982Y-207802404D01*
X335816490Y-207733326D01*
X335826980Y-207697599D01*
X335844259Y-207660545D01*
X335850500Y-207613139D01*
X335850499Y-207386862D01*
X335844259Y-207339455D01*
X335826982Y-207302404D01*
X335816490Y-207233326D01*
X335826980Y-207197599D01*
X335844259Y-207160545D01*
X335850500Y-207113139D01*
X335850499Y-206886862D01*
X335844259Y-206839455D01*
X335826982Y-206802404D01*
X335816490Y-206733326D01*
X335826980Y-206697599D01*
X335844259Y-206660545D01*
X335850500Y-206613139D01*
X335850499Y-206386862D01*
X335844259Y-206339455D01*
X335826982Y-206302404D01*
X335816490Y-206233326D01*
X335826980Y-206197599D01*
X335844259Y-206160545D01*
X335850500Y-206113139D01*
X335850499Y-205886862D01*
X335844259Y-205839455D01*
X335826982Y-205802404D01*
X335816490Y-205733326D01*
X335826980Y-205697599D01*
X335844259Y-205660545D01*
X335850500Y-205613139D01*
X335850499Y-205386862D01*
X335844259Y-205339455D01*
X335826982Y-205302404D01*
X335816490Y-205233326D01*
X335826980Y-205197599D01*
X335844259Y-205160545D01*
X335850500Y-205113139D01*
X335850499Y-204886862D01*
X335844259Y-204839455D01*
X335826982Y-204802404D01*
X335816490Y-204733326D01*
X335826980Y-204697599D01*
X335844259Y-204660545D01*
X335850500Y-204613139D01*
X335850499Y-204386862D01*
X335844259Y-204339455D01*
X335826982Y-204302404D01*
X335816490Y-204233326D01*
X335826980Y-204197599D01*
X335844259Y-204160545D01*
X335850500Y-204113139D01*
X335850499Y-203886862D01*
X335844259Y-203839455D01*
X335826982Y-203802404D01*
X335816490Y-203733326D01*
X335826980Y-203697599D01*
X335844259Y-203660545D01*
X335850500Y-203613139D01*
X335850499Y-203386862D01*
X335844259Y-203339455D01*
X335795747Y-203235421D01*
X335714579Y-203154253D01*
X335610545Y-203105741D01*
X335610543Y-203105740D01*
X335610544Y-203105740D01*
X335563140Y-203099500D01*
X335563139Y-203099500D01*
X335124000Y-203099500D01*
X335056961Y-203079815D01*
X335011206Y-203027011D01*
X335000000Y-202975500D01*
X335000000Y-202258125D01*
X335001061Y-202241940D01*
X335014906Y-202136776D01*
X335014906Y-202136775D01*
X335023284Y-202105508D01*
X335060740Y-202015081D01*
X335076923Y-201987050D01*
X335136513Y-201909392D01*
X335159392Y-201886513D01*
X335237050Y-201826923D01*
X335265079Y-201810740D01*
X335355509Y-201773283D01*
X335386775Y-201764906D01*
X335491941Y-201751061D01*
X335508126Y-201750000D01*
X336225500Y-201750000D01*
X336292539Y-201769685D01*
G37*
%TD.AperFunction*%
%TD*%
%TA.AperFunction,Conductor*%
%TO.N,GNDD*%
G36*
X230541913Y-179005517D02*
G01*
X230605166Y-179013845D01*
X230621065Y-179017007D01*
X230636645Y-179021181D01*
X230651995Y-179026392D01*
X230727411Y-179057630D01*
X230741953Y-179064802D01*
X230755914Y-179072862D01*
X230769403Y-179081875D01*
X230834154Y-179131561D01*
X230846348Y-179142255D01*
X230857742Y-179153649D01*
X230868437Y-179165844D01*
X230918126Y-179230600D01*
X230927137Y-179244086D01*
X230935194Y-179258041D01*
X230942368Y-179272589D01*
X230973603Y-179347998D01*
X230978815Y-179363351D01*
X230982988Y-179378922D01*
X230986154Y-179394836D01*
X230998409Y-179487921D01*
X230999204Y-179495982D01*
X230999734Y-179504080D01*
X231000000Y-179512178D01*
X231000000Y-183737819D01*
X230999734Y-183745938D01*
X230999204Y-183754015D01*
X230998409Y-183762082D01*
X230986154Y-183855163D01*
X230982988Y-183871076D01*
X230978815Y-183886647D01*
X230973603Y-183902000D01*
X230942368Y-183977409D01*
X230935194Y-183991957D01*
X230927137Y-184005912D01*
X230918126Y-184019398D01*
X230868437Y-184084154D01*
X230857742Y-184096349D01*
X230846349Y-184107742D01*
X230834154Y-184118437D01*
X230769398Y-184168126D01*
X230755912Y-184177137D01*
X230741957Y-184185194D01*
X230727409Y-184192368D01*
X230652000Y-184223603D01*
X230636647Y-184228815D01*
X230621076Y-184232988D01*
X230605163Y-184236154D01*
X230521084Y-184247224D01*
X230519398Y-184247446D01*
X230518060Y-184247622D01*
X230512063Y-184248411D01*
X230504015Y-184249204D01*
X230503484Y-184249238D01*
X230495919Y-184249734D01*
X230487819Y-184250000D01*
X226762179Y-184250000D01*
X226754073Y-184249734D01*
X226745996Y-184249204D01*
X226737931Y-184248410D01*
X226728921Y-184247224D01*
X226728918Y-184247224D01*
X226644835Y-184236154D01*
X226628922Y-184232988D01*
X226613351Y-184228815D01*
X226597998Y-184223603D01*
X226522589Y-184192368D01*
X226508041Y-184185194D01*
X226494086Y-184177137D01*
X226480600Y-184168126D01*
X226415844Y-184118437D01*
X226403649Y-184107742D01*
X226392256Y-184096349D01*
X226381561Y-184084154D01*
X226331872Y-184019398D01*
X226322861Y-184005912D01*
X226314804Y-183991957D01*
X226307630Y-183977410D01*
X226276394Y-183902000D01*
X226271181Y-183886643D01*
X226267010Y-183871076D01*
X226267007Y-183871065D01*
X226263846Y-183855173D01*
X226251589Y-183762074D01*
X226250796Y-183754030D01*
X226250264Y-183745905D01*
X226250000Y-183737820D01*
X226250000Y-180263829D01*
X226255023Y-180228893D01*
X226259427Y-180213895D01*
X226297202Y-180155117D01*
X226297206Y-180155114D01*
X226298576Y-180153927D01*
X226353413Y-180126478D01*
X226364843Y-180123991D01*
X226382356Y-180121474D01*
X226446940Y-180116855D01*
X226584992Y-180076319D01*
X226706032Y-179998531D01*
X226800254Y-179889794D01*
X226812552Y-179862865D01*
X226843911Y-179794201D01*
X226862990Y-179764514D01*
X226873227Y-179752700D01*
X226888227Y-179743059D01*
X226889666Y-179741400D01*
X226891773Y-179740781D01*
X226932006Y-179714926D01*
X226932005Y-179714926D01*
X226947007Y-179710521D01*
X226981936Y-179705500D01*
X227850000Y-179705500D01*
X227921940Y-179700355D01*
X228059992Y-179659819D01*
X228181032Y-179582031D01*
X228275254Y-179473294D01*
X228335024Y-179342416D01*
X228355500Y-179200000D01*
X228355500Y-179141829D01*
X228360523Y-179106895D01*
X228364143Y-179094566D01*
X228401916Y-179035788D01*
X228465472Y-179006762D01*
X228483120Y-179005500D01*
X230491888Y-179005500D01*
X230515320Y-179004732D01*
X230521673Y-179004524D01*
X230541913Y-179005517D01*
G37*
%TD.AperFunction*%
%TD*%
%TA.AperFunction,Conductor*%
%TO.N,Net-(D18-+Vo)*%
G36*
X420711023Y-162932188D02*
G01*
X420756778Y-162984992D01*
X420766722Y-163054150D01*
X420766343Y-163056601D01*
X420762670Y-163078853D01*
X420762667Y-163078876D01*
X420750414Y-163171942D01*
X420748527Y-163188329D01*
X420747735Y-163196365D01*
X420746378Y-163212917D01*
X420745849Y-163220981D01*
X420745031Y-163237623D01*
X420744770Y-163245641D01*
X420744500Y-163262178D01*
X420744500Y-166704137D01*
X420724815Y-166771176D01*
X420708181Y-166791818D01*
X418905070Y-168594928D01*
X418899145Y-168600477D01*
X418893051Y-168605821D01*
X418886781Y-168610967D01*
X418812291Y-168668125D01*
X418798809Y-168677134D01*
X418784848Y-168685195D01*
X418770296Y-168692371D01*
X418694897Y-168723602D01*
X418679540Y-168728816D01*
X418663963Y-168732990D01*
X418648055Y-168736154D01*
X418582336Y-168744806D01*
X418562291Y-168747446D01*
X418560953Y-168747622D01*
X418554956Y-168748411D01*
X418546908Y-168749204D01*
X418546377Y-168749238D01*
X418538812Y-168749734D01*
X418530712Y-168750000D01*
X409262179Y-168750000D01*
X409254073Y-168749734D01*
X409245996Y-168749204D01*
X409237931Y-168748410D01*
X409228921Y-168747224D01*
X409228918Y-168747224D01*
X409144835Y-168736154D01*
X409128922Y-168732988D01*
X409113351Y-168728815D01*
X409097998Y-168723603D01*
X409022589Y-168692368D01*
X409008041Y-168685194D01*
X408994086Y-168677137D01*
X408980600Y-168668126D01*
X408915844Y-168618437D01*
X408903649Y-168607742D01*
X408892256Y-168596349D01*
X408881561Y-168584154D01*
X408831872Y-168519398D01*
X408822861Y-168505912D01*
X408814804Y-168491957D01*
X408807630Y-168477410D01*
X408776394Y-168402000D01*
X408771181Y-168386643D01*
X408767007Y-168371065D01*
X408763846Y-168355173D01*
X408751589Y-168262074D01*
X408750796Y-168254030D01*
X408750264Y-168245905D01*
X408750000Y-168237820D01*
X408750000Y-165703461D01*
X411549489Y-165703461D01*
X411589854Y-165906384D01*
X411589858Y-165906402D01*
X411589860Y-165906410D01*
X411669048Y-166097586D01*
X411784013Y-166269645D01*
X411784017Y-166269651D01*
X411930326Y-166415960D01*
X411930330Y-166415963D01*
X411930332Y-166415965D01*
X411930335Y-166415967D01*
X411930339Y-166415970D01*
X411930338Y-166415970D01*
X411930401Y-166416022D01*
X411930438Y-166416036D01*
X412102392Y-166530931D01*
X412293570Y-166610120D01*
X412443803Y-166640003D01*
X412493549Y-166649898D01*
X412495784Y-166650399D01*
X412496522Y-166650490D01*
X412703456Y-166650490D01*
X412707576Y-166650490D01*
X412715425Y-166648108D01*
X412906410Y-166610120D01*
X413097588Y-166530931D01*
X413269645Y-166415967D01*
X413415967Y-166269645D01*
X413530931Y-166097588D01*
X413610120Y-165906410D01*
X413650489Y-165703461D01*
X414089489Y-165703461D01*
X414129854Y-165906384D01*
X414129858Y-165906402D01*
X414129860Y-165906410D01*
X414209048Y-166097586D01*
X414324013Y-166269645D01*
X414324017Y-166269651D01*
X414470326Y-166415960D01*
X414470330Y-166415963D01*
X414470332Y-166415965D01*
X414470335Y-166415967D01*
X414470339Y-166415970D01*
X414470338Y-166415970D01*
X414470401Y-166416022D01*
X414470438Y-166416036D01*
X414642392Y-166530931D01*
X414833570Y-166610120D01*
X414983803Y-166640003D01*
X415033549Y-166649898D01*
X415035784Y-166650399D01*
X415036522Y-166650490D01*
X415243456Y-166650490D01*
X415247576Y-166650490D01*
X415255425Y-166648108D01*
X415446410Y-166610120D01*
X415637588Y-166530931D01*
X415809645Y-166415967D01*
X415955967Y-166269645D01*
X416070931Y-166097588D01*
X416150120Y-165906410D01*
X416190490Y-165703455D01*
X416190490Y-164796525D01*
X416150120Y-164593570D01*
X416070931Y-164402392D01*
X415956036Y-164230439D01*
X415956026Y-164230407D01*
X415955970Y-164230338D01*
X415955970Y-164230339D01*
X415955967Y-164230335D01*
X415955965Y-164230332D01*
X415955963Y-164230330D01*
X415955960Y-164230326D01*
X415809652Y-164084018D01*
X415809645Y-164084012D01*
X415723616Y-164026530D01*
X415723615Y-164026530D01*
X415637594Y-163969052D01*
X415637585Y-163969047D01*
X415514000Y-163917857D01*
X415446410Y-163889860D01*
X415446402Y-163889858D01*
X415446394Y-163889856D01*
X415446384Y-163889854D01*
X415243461Y-163849490D01*
X415243459Y-163849490D01*
X415243455Y-163849490D01*
X415036525Y-163849490D01*
X415036520Y-163849490D01*
X415036518Y-163849490D01*
X414833594Y-163889854D01*
X414833569Y-163889860D01*
X414642394Y-163969047D01*
X414470327Y-164084017D01*
X414324017Y-164230327D01*
X414209047Y-164402394D01*
X414129860Y-164593569D01*
X414129854Y-164593594D01*
X414089490Y-164796517D01*
X414089490Y-164796518D01*
X414089490Y-164796520D01*
X414089490Y-165703459D01*
X414089490Y-165703461D01*
X414089489Y-165703461D01*
X413650489Y-165703461D01*
X413650490Y-165703455D01*
X413650490Y-164796525D01*
X413650488Y-164796517D01*
X413630305Y-164695047D01*
X413610120Y-164593570D01*
X413530931Y-164402392D01*
X413416036Y-164230439D01*
X413416026Y-164230407D01*
X413415970Y-164230338D01*
X413415970Y-164230339D01*
X413415967Y-164230335D01*
X413415965Y-164230332D01*
X413415963Y-164230330D01*
X413415960Y-164230326D01*
X413269652Y-164084018D01*
X413269645Y-164084012D01*
X413183616Y-164026530D01*
X413183615Y-164026530D01*
X413097594Y-163969052D01*
X413097585Y-163969047D01*
X412974000Y-163917857D01*
X412906410Y-163889860D01*
X412906402Y-163889858D01*
X412906394Y-163889856D01*
X412906384Y-163889854D01*
X412703461Y-163849490D01*
X412703459Y-163849490D01*
X412703455Y-163849490D01*
X412496525Y-163849490D01*
X412496520Y-163849490D01*
X412496518Y-163849490D01*
X412293594Y-163889854D01*
X412293569Y-163889860D01*
X412102394Y-163969047D01*
X411930327Y-164084017D01*
X411784017Y-164230327D01*
X411669047Y-164402394D01*
X411589860Y-164593569D01*
X411589854Y-164593594D01*
X411549490Y-164796517D01*
X411549490Y-164796518D01*
X411549490Y-164796520D01*
X411549490Y-165703459D01*
X411549490Y-165703461D01*
X411549489Y-165703461D01*
X408750000Y-165703461D01*
X408750000Y-163262178D01*
X408750264Y-163254095D01*
X408750797Y-163245965D01*
X408751590Y-163237920D01*
X408754885Y-163212896D01*
X408763845Y-163144831D01*
X408767010Y-163128923D01*
X408771182Y-163113354D01*
X408776395Y-163097998D01*
X408807630Y-163022589D01*
X408814799Y-163008050D01*
X408820554Y-162998081D01*
X408822862Y-162994082D01*
X408831865Y-162980608D01*
X408836060Y-162975141D01*
X408861297Y-162950502D01*
X408879982Y-162936860D01*
X408931825Y-162914847D01*
X408934730Y-162914340D01*
X408956001Y-162912503D01*
X420643984Y-162912503D01*
X420711023Y-162932188D01*
G37*
%TD.AperFunction*%
%TD*%
%TA.AperFunction,Conductor*%
%TO.N,GNDD*%
G36*
X363756061Y-164750597D02*
G01*
X363932941Y-164768018D01*
X363956769Y-164772757D01*
X364121001Y-164822576D01*
X364143453Y-164831877D01*
X364294798Y-164912772D01*
X364315010Y-164926277D01*
X364447666Y-165035145D01*
X364464854Y-165052333D01*
X364573722Y-165184989D01*
X364587227Y-165205201D01*
X364668121Y-165356543D01*
X364677424Y-165379001D01*
X364727240Y-165543224D01*
X364731982Y-165567065D01*
X364749403Y-165743938D01*
X364750000Y-165756092D01*
X364750000Y-172493907D01*
X364749403Y-172506061D01*
X364731982Y-172682934D01*
X364727240Y-172706775D01*
X364677424Y-172870998D01*
X364668121Y-172893456D01*
X364587227Y-173044798D01*
X364573722Y-173065010D01*
X364464854Y-173197666D01*
X364447666Y-173214854D01*
X364315010Y-173323722D01*
X364294798Y-173337227D01*
X364143456Y-173418121D01*
X364120998Y-173427424D01*
X363956775Y-173477240D01*
X363932934Y-173481982D01*
X363756061Y-173499403D01*
X363743907Y-173500000D01*
X362934903Y-173500000D01*
X362918718Y-173498939D01*
X362903270Y-173496905D01*
X362832502Y-173487588D01*
X362801236Y-173479210D01*
X362728473Y-173449071D01*
X362700438Y-173432885D01*
X362637951Y-173384936D01*
X362615063Y-173362048D01*
X362567114Y-173299561D01*
X362550928Y-173271526D01*
X362520789Y-173198763D01*
X362512411Y-173167496D01*
X362501061Y-173081282D01*
X362500000Y-173065097D01*
X362500000Y-171000000D01*
X358797202Y-167297202D01*
X358789030Y-167288186D01*
X358676277Y-167150797D01*
X358662772Y-167130585D01*
X358581878Y-166979243D01*
X358572575Y-166956785D01*
X358522757Y-166792556D01*
X358518018Y-166768728D01*
X358500597Y-166591847D01*
X358500000Y-166579693D01*
X358500000Y-165756092D01*
X358500597Y-165743938D01*
X358518018Y-165567056D01*
X358522757Y-165543232D01*
X358572577Y-165378994D01*
X358581875Y-165356549D01*
X358662775Y-165205195D01*
X358676272Y-165184995D01*
X358785149Y-165052328D01*
X358802328Y-165035149D01*
X358934995Y-164926272D01*
X358955195Y-164912775D01*
X359106549Y-164831875D01*
X359128994Y-164822577D01*
X359293232Y-164772757D01*
X359317056Y-164768018D01*
X359493939Y-164750597D01*
X359506093Y-164750000D01*
X363743907Y-164750000D01*
X363756061Y-164750597D01*
G37*
%TD.AperFunction*%
%TD*%
%TA.AperFunction,Conductor*%
%TO.N,+3.3V*%
G36*
X272495903Y-213750264D02*
G01*
X272504033Y-213750797D01*
X272512074Y-213751589D01*
X272605173Y-213763846D01*
X272621065Y-213767007D01*
X272636645Y-213771181D01*
X272651995Y-213776392D01*
X272727411Y-213807630D01*
X272741953Y-213814802D01*
X272755914Y-213822862D01*
X272769403Y-213831875D01*
X272834154Y-213881561D01*
X272846348Y-213892255D01*
X272857742Y-213903649D01*
X272868437Y-213915844D01*
X272918126Y-213980600D01*
X272927137Y-213994086D01*
X272935194Y-214008041D01*
X272942368Y-214022589D01*
X272973603Y-214097998D01*
X272978815Y-214113351D01*
X272982988Y-214128922D01*
X272986154Y-214144836D01*
X272998409Y-214237921D01*
X272999204Y-214245982D01*
X272999734Y-214254080D01*
X273000000Y-214262178D01*
X273000000Y-223737820D01*
X272999734Y-223745919D01*
X272999256Y-223753222D01*
X272999204Y-223754016D01*
X272998409Y-223762077D01*
X272986154Y-223855162D01*
X272982988Y-223871076D01*
X272978815Y-223886647D01*
X272973603Y-223902000D01*
X272942368Y-223977409D01*
X272935194Y-223991957D01*
X272927137Y-224005912D01*
X272918126Y-224019398D01*
X272868437Y-224084154D01*
X272857742Y-224096349D01*
X272846349Y-224107742D01*
X272834154Y-224118437D01*
X272769398Y-224168126D01*
X272755912Y-224177137D01*
X272741957Y-224185194D01*
X272727409Y-224192368D01*
X272652000Y-224223603D01*
X272636647Y-224228815D01*
X272621076Y-224232988D01*
X272605163Y-224236154D01*
X272521084Y-224247224D01*
X272519398Y-224247446D01*
X272518060Y-224247622D01*
X272512063Y-224248411D01*
X272504015Y-224249204D01*
X272503484Y-224249238D01*
X272495919Y-224249734D01*
X272487819Y-224250000D01*
X267969286Y-224250000D01*
X267961180Y-224249734D01*
X267953103Y-224249204D01*
X267945038Y-224248410D01*
X267936028Y-224247224D01*
X267936025Y-224247224D01*
X267851944Y-224236154D01*
X267836035Y-224232990D01*
X267820458Y-224228816D01*
X267805102Y-224223602D01*
X267729702Y-224192371D01*
X267715158Y-224185199D01*
X267701195Y-224177138D01*
X267687705Y-224168124D01*
X267613216Y-224110966D01*
X267606947Y-224105821D01*
X267600853Y-224100477D01*
X267594928Y-224094928D01*
X265708000Y-222208000D01*
X268650000Y-222208000D01*
X268653536Y-222247775D01*
X268660608Y-222327329D01*
X268660731Y-222327917D01*
X268661343Y-222329894D01*
X268664250Y-222340055D01*
X268716557Y-222522861D01*
X268810721Y-222703129D01*
X268939246Y-222860753D01*
X269096870Y-222989278D01*
X269277138Y-223083442D01*
X269472671Y-223139390D01*
X269472674Y-223139391D01*
X269588747Y-223149709D01*
X269589919Y-223149837D01*
X269590138Y-223149928D01*
X269590711Y-223150000D01*
X269592002Y-223150000D01*
X269650000Y-223150000D01*
X270650000Y-223150000D01*
X270707998Y-223150000D01*
X270711225Y-223150000D01*
X270714394Y-223149455D01*
X270715604Y-223149323D01*
X270827325Y-223139391D01*
X270827328Y-223139390D01*
X271022861Y-223083442D01*
X271203129Y-222989278D01*
X271360753Y-222860753D01*
X271489278Y-222703129D01*
X271583442Y-222522861D01*
X271639390Y-222327328D01*
X271639391Y-222327325D01*
X271649323Y-222215604D01*
X271649455Y-222214394D01*
X271649708Y-222213785D01*
X271650000Y-222211980D01*
X271650000Y-221250000D01*
X270650000Y-221250000D01*
X270650000Y-223150000D01*
X269650000Y-223150000D01*
X269650000Y-221250000D01*
X268650000Y-221250000D01*
X268650000Y-222208000D01*
X265708000Y-222208000D01*
X265253213Y-221753213D01*
X265232061Y-221724957D01*
X265224569Y-221711236D01*
X265209717Y-221642976D01*
X265210486Y-221632218D01*
X265223080Y-221585970D01*
X265301169Y-221428521D01*
X265345566Y-221250000D01*
X263991830Y-221250000D01*
X263991825Y-221249999D01*
X263991823Y-221250000D01*
X263956889Y-221244975D01*
X263941890Y-221240570D01*
X263883144Y-221202827D01*
X263883115Y-221202793D01*
X263883114Y-221202793D01*
X263883113Y-221202791D01*
X263881957Y-221201458D01*
X263854477Y-221146583D01*
X263852832Y-221139021D01*
X263850000Y-221112668D01*
X263850000Y-220391829D01*
X263855023Y-220356893D01*
X263859427Y-220341895D01*
X263897172Y-220283144D01*
X263897200Y-220283119D01*
X263897199Y-220283119D01*
X263898541Y-220281956D01*
X263953420Y-220254477D01*
X263960979Y-220252833D01*
X263987332Y-220250000D01*
X265345565Y-220250000D01*
X265345566Y-220250000D01*
X265301168Y-220071476D01*
X265238474Y-219945064D01*
X265236101Y-219937847D01*
X265227454Y-219911542D01*
X265225039Y-219897869D01*
X265232764Y-219828429D01*
X265276802Y-219774191D01*
X265279864Y-219772082D01*
X265330595Y-219751769D01*
X265331332Y-219751651D01*
X265331921Y-219751557D01*
X265351512Y-219750000D01*
X267750000Y-219750000D01*
X267750000Y-219291999D01*
X268650000Y-219291999D01*
X268650000Y-220250000D01*
X269650000Y-220250000D01*
X270650000Y-220250000D01*
X271650000Y-220250000D01*
X271650000Y-219291124D01*
X271649837Y-219289919D01*
X271649709Y-219288747D01*
X271639391Y-219172674D01*
X271639390Y-219172671D01*
X271583442Y-218977138D01*
X271489278Y-218796870D01*
X271360753Y-218639246D01*
X271203129Y-218510721D01*
X271022861Y-218416557D01*
X271022860Y-218416556D01*
X271022859Y-218416556D01*
X270829894Y-218361343D01*
X270827917Y-218360731D01*
X270827329Y-218360608D01*
X270747775Y-218353536D01*
X270708000Y-218350000D01*
X270707998Y-218350000D01*
X270650000Y-218350000D01*
X270650000Y-220250000D01*
X269650000Y-220250000D01*
X269650000Y-218350000D01*
X269592000Y-218350000D01*
X269591999Y-218350000D01*
X269572111Y-218351768D01*
X269472669Y-218360608D01*
X269472080Y-218360731D01*
X269470104Y-218361343D01*
X269277139Y-218416556D01*
X269096869Y-218510721D01*
X268939246Y-218639246D01*
X268810721Y-218796869D01*
X268716556Y-218977139D01*
X268664314Y-219159717D01*
X268664313Y-219159725D01*
X268660609Y-219172671D01*
X268660608Y-219172674D01*
X268650000Y-219291999D01*
X267750000Y-219291999D01*
X267750000Y-217247106D01*
X267755022Y-217212173D01*
X267758933Y-217198854D01*
X267796706Y-217140077D01*
X267860258Y-217111052D01*
X267867040Y-217110077D01*
X267923684Y-217115110D01*
X267950808Y-217124098D01*
X267997304Y-217139506D01*
X268062499Y-217146166D01*
X268062500Y-217146165D01*
X269062500Y-217146165D01*
X269127697Y-217139505D01*
X269294119Y-217084358D01*
X269294124Y-217084356D01*
X269443345Y-216992315D01*
X269567315Y-216868345D01*
X269659356Y-216719124D01*
X269659358Y-216719119D01*
X269714505Y-216552697D01*
X269714506Y-216552690D01*
X269724999Y-216449986D01*
X269725000Y-216449973D01*
X269725000Y-216250000D01*
X269062500Y-216250000D01*
X269062500Y-217146165D01*
X268062500Y-217146165D01*
X268062500Y-215250000D01*
X269062500Y-215250000D01*
X269724999Y-215250000D01*
X269724999Y-215050028D01*
X269724998Y-215050013D01*
X269714505Y-214947302D01*
X269659358Y-214780880D01*
X269659356Y-214780875D01*
X269567315Y-214631654D01*
X269443345Y-214507684D01*
X269294124Y-214415643D01*
X269294119Y-214415641D01*
X269294110Y-214415638D01*
X269127698Y-214360494D01*
X269127703Y-214360494D01*
X269062500Y-214353833D01*
X269062500Y-215250000D01*
X268062500Y-215250000D01*
X268062500Y-214353834D01*
X268062499Y-214353833D01*
X267997307Y-214360493D01*
X267997300Y-214360494D01*
X267929927Y-214382820D01*
X267895298Y-214389036D01*
X267895293Y-214389037D01*
X267895187Y-214389040D01*
X267884539Y-214389407D01*
X267884449Y-214389419D01*
X267881049Y-214389540D01*
X267850159Y-214381642D01*
X267818904Y-214375338D01*
X267816543Y-214373047D01*
X267813356Y-214372233D01*
X267791635Y-214348884D01*
X267773711Y-214331495D01*
X267772238Y-214332443D01*
X267769729Y-214328539D01*
X267769356Y-214327270D01*
X267768755Y-214326687D01*
X267768734Y-214326649D01*
X267768613Y-214326435D01*
X267769040Y-214326193D01*
X267768354Y-214323857D01*
X267765767Y-214321076D01*
X267762962Y-214305495D01*
X267750044Y-214261500D01*
X267750309Y-214253408D01*
X267750796Y-214245971D01*
X267751590Y-214237920D01*
X267763846Y-214144822D01*
X267767006Y-214128936D01*
X267771183Y-214113348D01*
X267776390Y-214098007D01*
X267807633Y-214022581D01*
X267814801Y-214008046D01*
X267814804Y-214008041D01*
X267822864Y-213994079D01*
X267831856Y-213980620D01*
X267881578Y-213915822D01*
X267892251Y-213903653D01*
X267903653Y-213892251D01*
X267915830Y-213881572D01*
X267980613Y-213831862D01*
X267994075Y-213822866D01*
X268008052Y-213814796D01*
X268022566Y-213807638D01*
X268098012Y-213776387D01*
X268113352Y-213771181D01*
X268128931Y-213767007D01*
X268144821Y-213763846D01*
X268237927Y-213751589D01*
X268245966Y-213750797D01*
X268254095Y-213750264D01*
X268262179Y-213750000D01*
X272487821Y-213750000D01*
X272495903Y-213750264D01*
G37*
%TD.AperFunction*%
%TD*%
%TA.AperFunction,Conductor*%
%TO.N,GNDPWR*%
G36*
X429321826Y-162917524D02*
G01*
X429344022Y-162924042D01*
X429355003Y-162930252D01*
X429363937Y-162931810D01*
X429393044Y-162951766D01*
X429395212Y-162953760D01*
X429409628Y-162969525D01*
X429418126Y-162980600D01*
X429427137Y-162994086D01*
X429435194Y-163008041D01*
X429442368Y-163022589D01*
X429473603Y-163097998D01*
X429478815Y-163113351D01*
X429482988Y-163128922D01*
X429486154Y-163144836D01*
X429498409Y-163237921D01*
X429499204Y-163245982D01*
X429499734Y-163254080D01*
X429500000Y-163262178D01*
X429500000Y-166237820D01*
X429499734Y-166245919D01*
X429499256Y-166253222D01*
X429499204Y-166254016D01*
X429498409Y-166262077D01*
X429486154Y-166355162D01*
X429482988Y-166371076D01*
X429478815Y-166386647D01*
X429473603Y-166402000D01*
X429442368Y-166477409D01*
X429435194Y-166491957D01*
X429427137Y-166505912D01*
X429418126Y-166519398D01*
X429368437Y-166584154D01*
X429357742Y-166596349D01*
X429346349Y-166607742D01*
X429334154Y-166618437D01*
X429269398Y-166668126D01*
X429255912Y-166677137D01*
X429241957Y-166685194D01*
X429227409Y-166692368D01*
X429152000Y-166723603D01*
X429136647Y-166728815D01*
X429121076Y-166732988D01*
X429105163Y-166736154D01*
X429021084Y-166747224D01*
X429019398Y-166747446D01*
X429018060Y-166747622D01*
X429012063Y-166748411D01*
X429004015Y-166749204D01*
X429003484Y-166749238D01*
X428995919Y-166749734D01*
X428987819Y-166750000D01*
X424262179Y-166750000D01*
X424254073Y-166749734D01*
X424245996Y-166749204D01*
X424237931Y-166748410D01*
X424228921Y-166747224D01*
X424228918Y-166747224D01*
X424144835Y-166736154D01*
X424128922Y-166732988D01*
X424113351Y-166728815D01*
X424097998Y-166723603D01*
X424022589Y-166692368D01*
X424008041Y-166685194D01*
X423994086Y-166677137D01*
X423980600Y-166668126D01*
X423915844Y-166618437D01*
X423903649Y-166607742D01*
X423892256Y-166596349D01*
X423881561Y-166584154D01*
X423831872Y-166519398D01*
X423822861Y-166505912D01*
X423814804Y-166491957D01*
X423807630Y-166477410D01*
X423776394Y-166402000D01*
X423771181Y-166386643D01*
X423767010Y-166371076D01*
X423767007Y-166371065D01*
X423763846Y-166355173D01*
X423751589Y-166262074D01*
X423750796Y-166254030D01*
X423750264Y-166245905D01*
X423750000Y-166237820D01*
X423750000Y-163262178D01*
X423750264Y-163254095D01*
X423750797Y-163245965D01*
X423751590Y-163237920D01*
X423763845Y-163144834D01*
X423767010Y-163128923D01*
X423771182Y-163113354D01*
X423776395Y-163097998D01*
X423807630Y-163022589D01*
X423814799Y-163008050D01*
X423814804Y-163008041D01*
X423822862Y-162994082D01*
X423831865Y-162980608D01*
X423836060Y-162975141D01*
X423861297Y-162950502D01*
X423879982Y-162936860D01*
X423931825Y-162914847D01*
X423934730Y-162914340D01*
X423956001Y-162912503D01*
X429286894Y-162912503D01*
X429321826Y-162917524D01*
G37*
%TD.AperFunction*%
%TD*%
%TA.AperFunction,Conductor*%
%TO.N,+3.3VP*%
G36*
X429008059Y-167501061D02*
G01*
X429113223Y-167514906D01*
X429144491Y-167523284D01*
X429234918Y-167560740D01*
X429262952Y-167576925D01*
X429340602Y-167636509D01*
X429363491Y-167659398D01*
X429423074Y-167737048D01*
X429439259Y-167765081D01*
X429476715Y-167855508D01*
X429485093Y-167886775D01*
X429498939Y-167991939D01*
X429500000Y-168008125D01*
X429500000Y-168741874D01*
X429498939Y-168758060D01*
X429485093Y-168863224D01*
X429476715Y-168894491D01*
X429439259Y-168984918D01*
X429423074Y-169012951D01*
X429363491Y-169090601D01*
X429340601Y-169113491D01*
X429262951Y-169173074D01*
X429234918Y-169189259D01*
X429144491Y-169226715D01*
X429113224Y-169235093D01*
X429019398Y-169247446D01*
X429008058Y-169248939D01*
X428991874Y-169250000D01*
X424250000Y-169250000D01*
X423250000Y-168250000D01*
X423250000Y-167500000D01*
X428991874Y-167500000D01*
X429008059Y-167501061D01*
G37*
%TD.AperFunction*%
%TD*%
%TA.AperFunction,Conductor*%
%TO.N,GNDD*%
G36*
X326756061Y-164750597D02*
G01*
X326932941Y-164768018D01*
X326956769Y-164772757D01*
X327121001Y-164822576D01*
X327143453Y-164831877D01*
X327294798Y-164912772D01*
X327315010Y-164926277D01*
X327447666Y-165035145D01*
X327464854Y-165052333D01*
X327573722Y-165184989D01*
X327587227Y-165205201D01*
X327668121Y-165356543D01*
X327677424Y-165379001D01*
X327727240Y-165543224D01*
X327731982Y-165567065D01*
X327749403Y-165743938D01*
X327750000Y-165756092D01*
X327750000Y-172493907D01*
X327749403Y-172506061D01*
X327731982Y-172682934D01*
X327727240Y-172706775D01*
X327677424Y-172870998D01*
X327668121Y-172893456D01*
X327587227Y-173044798D01*
X327573722Y-173065010D01*
X327464854Y-173197666D01*
X327447666Y-173214854D01*
X327315010Y-173323722D01*
X327294798Y-173337227D01*
X327143456Y-173418121D01*
X327120998Y-173427424D01*
X326956775Y-173477240D01*
X326932934Y-173481982D01*
X326756061Y-173499403D01*
X326743907Y-173500000D01*
X325934903Y-173500000D01*
X325918718Y-173498939D01*
X325903270Y-173496905D01*
X325832502Y-173487588D01*
X325801236Y-173479210D01*
X325728473Y-173449071D01*
X325700438Y-173432885D01*
X325637951Y-173384936D01*
X325615063Y-173362048D01*
X325567114Y-173299561D01*
X325550928Y-173271526D01*
X325520789Y-173198763D01*
X325512411Y-173167496D01*
X325501061Y-173081282D01*
X325500000Y-173065097D01*
X325500000Y-171000000D01*
X321797202Y-167297202D01*
X321789030Y-167288186D01*
X321676277Y-167150797D01*
X321662772Y-167130585D01*
X321581878Y-166979243D01*
X321572575Y-166956785D01*
X321522757Y-166792556D01*
X321518018Y-166768728D01*
X321500597Y-166591847D01*
X321500000Y-166579693D01*
X321500000Y-165756092D01*
X321500597Y-165743938D01*
X321518018Y-165567056D01*
X321522757Y-165543232D01*
X321572577Y-165378994D01*
X321581875Y-165356549D01*
X321662775Y-165205195D01*
X321676272Y-165184995D01*
X321785149Y-165052328D01*
X321802328Y-165035149D01*
X321934995Y-164926272D01*
X321955195Y-164912775D01*
X322106549Y-164831875D01*
X322128994Y-164822577D01*
X322293232Y-164772757D01*
X322317056Y-164768018D01*
X322493939Y-164750597D01*
X322506093Y-164750000D01*
X326743907Y-164750000D01*
X326756061Y-164750597D01*
G37*
%TD.AperFunction*%
%TD*%
D78*
X220162003Y-167500003D02*
X220162003Y-243500000D01*
X220162003Y-167500003D02*
G75*
G02*
X225750003Y-161912003I5587997J3D01*
G01*
X225750004Y-249087996D02*
G75*
G02*
X220162004Y-243499996I-4J5587996D01*
G01*
X243750000Y-179750000D02*
G75*
G02*
X243750000Y-178750000I0J500000D01*
G01*
X245500000Y-224250000D02*
X245500000Y-234250000D01*
X245500000Y-224250000D02*
G75*
G02*
X248000000Y-224250000I1250000J0D01*
G01*
X248000000Y-224250000D02*
X248000000Y-234250000D01*
X248000000Y-234250000D02*
G75*
G02*
X245500000Y-234250000I-1250000J0D01*
G01*
X249250000Y-178750000D02*
X243750000Y-178750000D01*
X249250000Y-178750000D02*
G75*
G02*
X249250000Y-179750000I0J-500000D01*
G01*
X249250000Y-179750000D02*
X243750000Y-179750000D01*
X262250000Y-179750000D02*
G75*
G02*
X262250000Y-178750000I0J500000D01*
G01*
X267750000Y-178750000D02*
X262250000Y-178750000D01*
X267750000Y-178750000D02*
G75*
G02*
X267750000Y-179750000I0J-500000D01*
G01*
X267750000Y-179750000D02*
X262250000Y-179750000D01*
X280750000Y-179750000D02*
G75*
G02*
X280750000Y-178750000I0J500000D01*
G01*
X286250000Y-178750000D02*
X280750000Y-178750000D01*
X286250000Y-178750000D02*
G75*
G02*
X286250000Y-179750000I0J-500000D01*
G01*
X286250000Y-179750000D02*
X280750000Y-179750000D01*
X299250000Y-179750000D02*
G75*
G02*
X299250000Y-178750000I0J500000D01*
G01*
X304000000Y-196500000D02*
G75*
G02*
X306000000Y-196500000I1000000J0D01*
G01*
X304000000Y-209000000D02*
X304000000Y-196500000D01*
X304750000Y-178750000D02*
X299250000Y-178750000D01*
X304750000Y-178750000D02*
G75*
G02*
X304750000Y-179750000I0J-500000D01*
G01*
X304750000Y-179750000D02*
X299250000Y-179750000D01*
X306000000Y-209000000D02*
G75*
G02*
X304000000Y-209000000I-1000000J0D01*
G01*
X306000000Y-209000000D02*
X306000000Y-196500000D01*
X316500000Y-225250000D02*
X316500000Y-246250000D01*
X316500000Y-225250000D02*
G75*
G02*
X319000000Y-225250000I1250000J0D01*
G01*
X317750000Y-179750000D02*
G75*
G02*
X317750000Y-178750000I0J500000D01*
G01*
X319000000Y-225250000D02*
X319000000Y-246250000D01*
X319000000Y-246250000D02*
G75*
G02*
X316500000Y-246250000I-1250000J0D01*
G01*
X323250000Y-178750000D02*
X317750000Y-178750000D01*
X323250000Y-178750000D02*
G75*
G02*
X323250000Y-179750000I0J-500000D01*
G01*
X323250000Y-179750000D02*
X317750000Y-179750000D01*
X336250000Y-179750000D02*
G75*
G02*
X336250000Y-178750000I0J500000D01*
G01*
X341750000Y-178750000D02*
X336250000Y-178750000D01*
X341750000Y-178750000D02*
G75*
G02*
X341750000Y-179750000I0J-500000D01*
G01*
X341750000Y-179750000D02*
X336250000Y-179750000D01*
X354750000Y-179750000D02*
G75*
G02*
X354750000Y-178750000I0J500000D01*
G01*
X360250000Y-178750000D02*
X354750000Y-178750000D01*
X360250000Y-178750000D02*
G75*
G02*
X360250000Y-179750000I0J-500000D01*
G01*
X360250000Y-179750000D02*
X354750000Y-179750000D01*
X373250000Y-179750000D02*
G75*
G02*
X373250000Y-178750000I0J500000D01*
G01*
X378750000Y-178750000D02*
X373250000Y-178750000D01*
X378750000Y-178750000D02*
G75*
G02*
X378750000Y-179750000I0J-500000D01*
G01*
X378750000Y-179750000D02*
X373250000Y-179750000D01*
X404000000Y-164500000D02*
X404000000Y-172750000D01*
X404000000Y-164500000D02*
G75*
G02*
X406500000Y-164500000I1250000J0D01*
G01*
X406500000Y-164500000D02*
X406500000Y-172750000D01*
X406500000Y-172750000D02*
G75*
G02*
X404000000Y-172750000I-1250000J0D01*
G01*
X422750000Y-186000000D02*
X422750000Y-191750000D01*
X422750000Y-186000000D02*
G75*
G02*
X424750000Y-186000000I1000000J0D01*
G01*
X422750000Y-206125000D02*
X422750000Y-211875000D01*
X422750000Y-206125000D02*
G75*
G02*
X424750000Y-206125000I1000000J0D01*
G01*
X422750000Y-226125000D02*
X422750000Y-231875000D01*
X422750000Y-226125000D02*
G75*
G02*
X424750000Y-226125000I1000000J0D01*
G01*
X424750000Y-186000000D02*
X424750000Y-191750000D01*
X424750000Y-191750000D02*
G75*
G02*
X422750000Y-191750000I-1000000J0D01*
G01*
X424750000Y-206125000D02*
X424750000Y-211875000D01*
X424750000Y-211875000D02*
G75*
G02*
X422750000Y-211875000I-1000000J0D01*
G01*
X424750000Y-226125000D02*
X424750000Y-231875000D01*
X424750000Y-231875000D02*
G75*
G02*
X422750000Y-231875000I-1000000J0D01*
G01*
X440750000Y-192500000D02*
X440750000Y-194250000D01*
X440750000Y-192500000D02*
G75*
G02*
X441750000Y-192500000I500000J0D01*
G01*
X440750000Y-212625000D02*
X440750000Y-214375000D01*
X440750000Y-212625000D02*
G75*
G02*
X441750000Y-212625000I500000J0D01*
G01*
X440750000Y-232625000D02*
X440750000Y-234375000D01*
X440750000Y-232625000D02*
G75*
G02*
X441750000Y-232625000I500000J0D01*
G01*
X441750000Y-192500000D02*
X441750000Y-194250000D01*
X441750000Y-194250000D02*
G75*
G02*
X440750000Y-194250000I-500000J0D01*
G01*
X441750000Y-212625000D02*
X441750000Y-214375000D01*
X441750000Y-214375000D02*
G75*
G02*
X440750000Y-214375000I-500000J0D01*
G01*
X441750000Y-232625000D02*
X441750000Y-234375000D01*
X441750000Y-234375000D02*
G75*
G02*
X440750000Y-234375000I-500000J0D01*
G01*
X451749996Y-161912004D02*
G75*
G02*
X457337996Y-167500004I4J-5587996D01*
G01*
X451749996Y-249087996D02*
X225750004Y-249087996D01*
X451750000Y-161912003D02*
X225750003Y-161912003D01*
X457337996Y-167500004D02*
X457337996Y-243499996D01*
X457337996Y-243499996D02*
G75*
G02*
X451749996Y-249087996I-5587996J-4D01*
G01*
M02*
