%TF.GenerationSoftware,KiCad,Pcbnew,10.0.1*%
%TF.CreationDate,2026-06-11T10:53:21+03:00*%
%TF.ProjectId,PDU_Container_MCU_PCB,5044555f-436f-46e7-9461-696e65725f4d,rev?*%
%TF.SameCoordinates,Original*%
%TF.FileFunction,Profile,NP*%
%FSLAX46Y46*%
G04 Gerber Fmt 4.6, Leading zero omitted, Abs format (unit mm)*
G04 Created by KiCad (PCBNEW 10.0.1) date 2026-06-11 10:53:21*
%MOMM*%
%LPD*%
G01*
G04 APERTURE LIST*
%TA.AperFunction,Profile*%
%ADD10C,0.050000*%
%TD*%
G04 APERTURE END LIST*
D10*
X220162003Y-167500003D02*
X220162003Y-243500000D01*
X220162003Y-167500003D02*
G75*
G02*
X225750003Y-161912003I5587997J3D01*
G01*
X225750004Y-249087996D02*
G75*
G02*
X220162004Y-243499996I-4J5587996D01*
G01*
X243750000Y-179750000D02*
G75*
G02*
X243750000Y-178750000I0J500000D01*
G01*
X245500000Y-224250000D02*
X245500000Y-234250000D01*
X245500000Y-224250000D02*
G75*
G02*
X248000000Y-224250000I1250000J0D01*
G01*
X248000000Y-224250000D02*
X248000000Y-234250000D01*
X248000000Y-234250000D02*
G75*
G02*
X245500000Y-234250000I-1250000J0D01*
G01*
X249250000Y-178750000D02*
X243750000Y-178750000D01*
X249250000Y-178750000D02*
G75*
G02*
X249250000Y-179750000I0J-500000D01*
G01*
X249250000Y-179750000D02*
X243750000Y-179750000D01*
X262250000Y-179750000D02*
G75*
G02*
X262250000Y-178750000I0J500000D01*
G01*
X267750000Y-178750000D02*
X262250000Y-178750000D01*
X267750000Y-178750000D02*
G75*
G02*
X267750000Y-179750000I0J-500000D01*
G01*
X267750000Y-179750000D02*
X262250000Y-179750000D01*
X280750000Y-179750000D02*
G75*
G02*
X280750000Y-178750000I0J500000D01*
G01*
X286250000Y-178750000D02*
X280750000Y-178750000D01*
X286250000Y-178750000D02*
G75*
G02*
X286250000Y-179750000I0J-500000D01*
G01*
X286250000Y-179750000D02*
X280750000Y-179750000D01*
X299250000Y-179750000D02*
G75*
G02*
X299250000Y-178750000I0J500000D01*
G01*
X304000000Y-196500000D02*
G75*
G02*
X306000000Y-196500000I1000000J0D01*
G01*
X304000000Y-209000000D02*
X304000000Y-196500000D01*
X304750000Y-178750000D02*
X299250000Y-178750000D01*
X304750000Y-178750000D02*
G75*
G02*
X304750000Y-179750000I0J-500000D01*
G01*
X304750000Y-179750000D02*
X299250000Y-179750000D01*
X306000000Y-209000000D02*
G75*
G02*
X304000000Y-209000000I-1000000J0D01*
G01*
X306000000Y-209000000D02*
X306000000Y-196500000D01*
X316500000Y-225250000D02*
X316500000Y-246250000D01*
X316500000Y-225250000D02*
G75*
G02*
X319000000Y-225250000I1250000J0D01*
G01*
X317750000Y-179750000D02*
G75*
G02*
X317750000Y-178750000I0J500000D01*
G01*
X319000000Y-225250000D02*
X319000000Y-246250000D01*
X319000000Y-246250000D02*
G75*
G02*
X316500000Y-246250000I-1250000J0D01*
G01*
X323250000Y-178750000D02*
X317750000Y-178750000D01*
X323250000Y-178750000D02*
G75*
G02*
X323250000Y-179750000I0J-500000D01*
G01*
X323250000Y-179750000D02*
X317750000Y-179750000D01*
X336250000Y-179750000D02*
G75*
G02*
X336250000Y-178750000I0J500000D01*
G01*
X341750000Y-178750000D02*
X336250000Y-178750000D01*
X341750000Y-178750000D02*
G75*
G02*
X341750000Y-179750000I0J-500000D01*
G01*
X341750000Y-179750000D02*
X336250000Y-179750000D01*
X354750000Y-179750000D02*
G75*
G02*
X354750000Y-178750000I0J500000D01*
G01*
X360250000Y-178750000D02*
X354750000Y-178750000D01*
X360250000Y-178750000D02*
G75*
G02*
X360250000Y-179750000I0J-500000D01*
G01*
X360250000Y-179750000D02*
X354750000Y-179750000D01*
X373250000Y-179750000D02*
G75*
G02*
X373250000Y-178750000I0J500000D01*
G01*
X378750000Y-178750000D02*
X373250000Y-178750000D01*
X378750000Y-178750000D02*
G75*
G02*
X378750000Y-179750000I0J-500000D01*
G01*
X378750000Y-179750000D02*
X373250000Y-179750000D01*
X404000000Y-164500000D02*
X404000000Y-172750000D01*
X404000000Y-164500000D02*
G75*
G02*
X406500000Y-164500000I1250000J0D01*
G01*
X406500000Y-164500000D02*
X406500000Y-172750000D01*
X406500000Y-172750000D02*
G75*
G02*
X404000000Y-172750000I-1250000J0D01*
G01*
X422750000Y-186000000D02*
X422750000Y-191750000D01*
X422750000Y-186000000D02*
G75*
G02*
X424750000Y-186000000I1000000J0D01*
G01*
X422750000Y-206125000D02*
X422750000Y-211875000D01*
X422750000Y-206125000D02*
G75*
G02*
X424750000Y-206125000I1000000J0D01*
G01*
X422750000Y-226125000D02*
X422750000Y-231875000D01*
X422750000Y-226125000D02*
G75*
G02*
X424750000Y-226125000I1000000J0D01*
G01*
X424750000Y-186000000D02*
X424750000Y-191750000D01*
X424750000Y-191750000D02*
G75*
G02*
X422750000Y-191750000I-1000000J0D01*
G01*
X424750000Y-206125000D02*
X424750000Y-211875000D01*
X424750000Y-211875000D02*
G75*
G02*
X422750000Y-211875000I-1000000J0D01*
G01*
X424750000Y-226125000D02*
X424750000Y-231875000D01*
X424750000Y-231875000D02*
G75*
G02*
X422750000Y-231875000I-1000000J0D01*
G01*
X440750000Y-192500000D02*
X440750000Y-194250000D01*
X440750000Y-192500000D02*
G75*
G02*
X441750000Y-192500000I500000J0D01*
G01*
X440750000Y-212625000D02*
X440750000Y-214375000D01*
X440750000Y-212625000D02*
G75*
G02*
X441750000Y-212625000I500000J0D01*
G01*
X440750000Y-232625000D02*
X440750000Y-234375000D01*
X440750000Y-232625000D02*
G75*
G02*
X441750000Y-232625000I500000J0D01*
G01*
X441750000Y-192500000D02*
X441750000Y-194250000D01*
X441750000Y-194250000D02*
G75*
G02*
X440750000Y-194250000I-500000J0D01*
G01*
X441750000Y-212625000D02*
X441750000Y-214375000D01*
X441750000Y-214375000D02*
G75*
G02*
X440750000Y-214375000I-500000J0D01*
G01*
X441750000Y-232625000D02*
X441750000Y-234375000D01*
X441750000Y-234375000D02*
G75*
G02*
X440750000Y-234375000I-500000J0D01*
G01*
X451749996Y-161912004D02*
G75*
G02*
X457337996Y-167500004I4J-5587996D01*
G01*
X451749996Y-249087996D02*
X225750004Y-249087996D01*
X451750000Y-161912003D02*
X225750003Y-161912003D01*
X457337996Y-167500004D02*
X457337996Y-243499996D01*
X457337996Y-243499996D02*
G75*
G02*
X451749996Y-249087996I-5587996J-4D01*
G01*
M02*
